<svg width="180" height="41" viewBox="0 0 180 41" fill="none" xmlns="http://www.w3.org/2000/svg">
<g clip-path="url(#clip0_6468_12670)">
<path d="M169.98 10.2715C169.98 8.91567 169.372 7.57989 168.281 6.49296H171.378V4.01592H165.611V1.17847H162.417V4.01306H156.504V6.4901H159.67C158.866 7.32532 158.005 8.60961 158.005 10.2686C158.005 13.4235 160.68 16.0036 163.972 16.0036C167.265 16.0036 169.977 13.3778 169.977 10.2686M163.975 13.4407C162.328 13.4407 160.824 11.8818 160.824 10.1628C160.824 8.44371 162.296 6.85623 163.975 6.85623C165.654 6.85623 167.124 8.40081 167.124 10.1628C167.124 11.9247 165.623 13.4407 163.975 13.4407Z" fill="#21409A"/>
<path d="M179.879 8.52941H176.452V1.93921H173.51V16.976C176.019 16.8044 176.392 14.7421 176.452 14.19V11.1237H180V8.52941H179.879Z" fill="#21409A"/>
<path d="M155.545 9.23033H152.083V1.96509H149.173V23.5663C151.739 23.369 152.046 21.1922 152.083 20.7289V11.7417H155.663V9.23033H155.545Z" fill="#21409A"/>
<path d="M123.133 23.0399V23.1543C125.522 22.9341 125.857 21.0091 125.903 20.4914V2.354H123.133V5.44602H120.467C119.376 3.8471 117.608 2.89175 115.705 2.89175C112.347 2.89175 109.617 5.84075 109.617 9.46193C109.617 13.0831 112.347 16.0321 115.705 16.0321C117.554 16.0321 119.293 15.1254 120.378 13.6151H123.131V23.0399H123.133ZM115.708 13.2976C113.94 13.2976 112.444 11.5414 112.444 9.45907C112.444 7.37675 113.911 5.64625 115.708 5.64625C117.505 5.64625 118.966 7.35386 118.966 9.45907C118.966 11.5643 117.476 13.2976 115.708 13.2976ZM121.538 11.1123C121.681 10.6461 121.764 10.1112 121.764 9.46193C121.764 8.94707 121.733 8.41219 121.581 7.94881H123.133V11.1123H121.54H121.538Z" fill="#21409A"/>
<path d="M130.662 21.0435V1.96509H127.78V23.7723H127.832C128.248 23.7437 130.404 23.4662 130.662 21.0435Z" fill="#21409A"/>
<path d="M147.658 14.6105L137.362 14.6162V5.95799H144.885V3.36938H134.454V17.1133H145.014C145.519 17.0761 147.336 16.7901 147.66 14.6105" fill="#21409A"/>
<path d="M173.226 27.0473C176.277 27.0473 176.395 24.7332 176.395 24.4301V24.4014V18.0715H162.876V27.0587H173.232V27.0501L173.226 27.0473ZM165.835 20.5457H173.427V24.5759H165.835V20.5457Z" fill="#21409A"/>
<path d="M94.3641 31.4464C94.0656 31.2491 93.6609 31.3148 93.4427 31.5923C90.2394 35.6025 85.4661 37.9022 80.3426 37.9022C75.2191 37.9022 70.4372 35.6025 67.2397 31.5923C67.0129 31.3148 66.6168 31.2491 66.3097 31.4464C66.014 31.6381 65.9078 32.0328 66.0714 32.3503C68.8499 37.6905 74.3236 40.9999 80.3426 40.9999C86.3617 40.9999 91.8325 37.6877 94.6052 32.3503C94.7774 32.0328 94.6683 31.6381 94.3641 31.4464Z" fill="#ED1B2F"/>
<path d="M65.1074 11.7703C63.4053 11.7703 63.2417 13.6295 63.2417 13.6838V18.8181H70.3141V11.7703H65.1045H65.1074Z" fill="url(#paint0_radial_6468_12670)"/>
<path d="M96.1325 13.2376L103.983 5.42891L98.6095 0.0743686L89.6283 9.03579L86.4595 12.1936V12.185C84.5909 13.5465 84.3211 11.6044 84.2781 11.0924V0H80.3027C77.2487 0.060067 76.7521 3.14064 76.689 3.6269V28.7578H84.2809V14.4046L89.6312 19.7306L98.6124 28.692L103.986 23.3403L96.1009 15.4801C95.1479 14.4504 96.0291 13.3549 96.1353 13.2348" fill="#21409A"/>
<path d="M31.4414 8.93558C29.9833 8.93558 28.6084 9.316 27.4545 10.0311C27.1617 10.0912 26.912 10.074 26.7369 9.95672C26.5303 9.82228 26.4614 9.57343 26.4413 9.4533V1.95923H25.2042C24.1881 1.96209 23.4074 2.2567 22.9051 2.82877C22.1243 3.69545 22.2478 4.88535 22.2535 4.93969L22.2478 27.1473H26.4413V16.1293C26.4413 13.7638 27.9052 12.3508 30.3535 12.3508C32.8019 12.3508 34.2284 13.7638 34.2284 16.1293V27.1473H38.4306V15.5687C38.4306 11.4813 35.7497 8.93844 31.4442 8.93844M44.8945 15.4285C44.9605 14.9766 45.0782 14.5905 45.3078 14.1042C45.9422 12.757 47.4118 11.9246 49.1483 11.9246C50.8849 11.9246 52.3143 12.7427 52.9572 14.1042C53.3275 14.8622 53.4423 15.3799 53.4825 16.3696H45.7757C44.8572 16.3038 44.8916 15.4629 44.8945 15.4285ZM54.4641 22.0445C53.1639 23.2058 52.0359 23.8408 49.7339 23.8408C46.6856 23.8408 44.8658 22.0616 44.8199 19.0812H54.8775C57.3976 18.941 57.6014 16.9846 57.6014 16.3467V16.3324C57.1737 11.6415 53.9331 8.7325 49.1454 8.7325C43.9043 8.7325 40.6465 12.2507 40.6465 17.9142C40.6465 25.5484 45.5489 27.1473 49.6592 27.1473C53.3017 27.1473 55.2276 26.0775 57.1479 24.3528L57.2397 24.2727L54.5301 21.9787L54.4584 22.0473L54.4641 22.0445ZM0 4.56499V5.58613H7.65799V27.1473H12.0897V6.62729C12.1672 5.75203 12.7844 5.60329 13.0484 5.58327H19.742V1.95923H2.95929C0.398973 1.97067 0.037314 3.78126 0 4.56499Z" fill="#21409A"/>
</g>
<defs>
<radialGradient id="paint0_radial_6468_12670" cx="0" cy="0" r="1" gradientUnits="userSpaceOnUse" gradientTransform="translate(64.5591 13.3956) scale(3.06446 3.0538)">
<stop stop-color="#8789BD"/>
<stop offset="1" stop-color="#21409A"/>
</radialGradient>
<clipPath id="clip0_6468_12670">
<rect width="180" height="41" fill="white"/>
</clipPath>
</defs>
</svg>
