<svg width="48" height="48" viewBox="0 0 48 48" fill="none" xmlns="http://www.w3.org/2000/svg">
<path d="M30 7C30 5.89543 30.8954 5 32 5C33.1046 5 34 5.89543 34 7V41C34 42.1046 33.1046 43 32 43C30.8954 43 30 42.1046 30 41V7Z" fill="white"/>
<path d="M33.1016 7C33.1016 6.39249 32.6095 5.90039 32.002 5.90039C31.3944 5.90039 30.9023 6.39249 30.9023 7V41C30.9023 41.6075 31.3944 42.0996 32.002 42.0996C32.6095 42.0996 33.1016 41.6075 33.1016 41V7ZM34.9023 41C34.9023 42.6016 33.6036 43.9004 32.002 43.9004C30.4003 43.9004 29.1016 42.6016 29.1016 41V7C29.1016 5.39837 30.4003 4.09961 32.002 4.09961C33.6036 4.09961 34.9023 5.39837 34.9023 7V41Z" fill="#232527"/>
<path d="M34 7H37C37.5523 7 38 7.44772 38 8V17C38 17.5523 37.5523 18 37 18H34V7Z" fill="white"/>
<path d="M37.1016 8C37.1016 7.94477 37.0572 7.90039 37.002 7.90039H34.9023V17.0996H37.002C37.0572 17.0996 37.1016 17.0552 37.1016 17V8ZM38.9023 17C38.9023 18.0493 38.0513 18.9004 37.002 18.9004H33.1016V6.09961H37.002C38.0513 6.09961 38.9023 6.95066 38.9023 8V17Z" fill="#232527"/>
<path d="M10.1191 10.1085C10.0558 9.51742 10.5189 9.00195 11.1134 9.00195H23.8877C24.4821 9.00195 24.9453 9.51743 24.882 10.1085L22.0963 36.1085C22.0418 36.6166 21.613 37.002 21.1019 37.002H13.8991C13.3881 37.002 12.9592 36.6166 12.9048 36.1085L10.1191 10.1085Z" fill="white"/>
<path d="M23.885 8.10156C25.0144 8.10156 25.8948 9.0812 25.7747 10.2041L22.9885 36.2041C22.8851 37.1695 22.0708 37.9023 21.0999 37.9023H13.8967C12.9258 37.9023 12.1115 37.1695 12.0081 36.2041L9.22193 10.2041C9.10177 9.08119 9.98222 8.10156 11.1116 8.10156H23.885ZM11.1116 9.90234C11.0521 9.90234 11.0056 9.95359 11.012 10.0127L13.7971 36.0127C13.8026 36.0634 13.8457 36.1015 13.8967 36.1016H21.0999C21.1509 36.1015 21.194 36.0634 21.1995 36.0127L23.9846 10.0127C23.991 9.95359 23.9445 9.90234 23.885 9.90234H11.1116Z" fill="#232527"/>
<path d="M20 22C20 23.6569 18.8807 25 17.5 25C16.1193 25 15 23.6569 15 22C15 20.3431 16.1193 19 17.5 19C18.8807 19 20 20.3431 20 22Z" fill="white"/>
<path d="M19.1016 22C19.1016 20.6796 18.2389 19.9004 17.502 19.9004C16.765 19.9004 15.9023 20.6796 15.9023 22C15.9023 23.3204 16.765 24.0996 17.502 24.0996C18.2389 24.0996 19.1016 23.3204 19.1016 22ZM20.9023 22C20.9023 23.9933 19.5264 25.9004 17.502 25.9004C15.4775 25.9004 14.1016 23.9933 14.1016 22C14.1016 20.0067 15.4775 18.0996 17.502 18.0996C19.5264 18.0996 20.9023 20.0067 20.9023 22Z" fill="#FBCD6C"/>
<path d="M13 38.14V40C13 41.6569 14.3431 43 16 43H18.9906C20.6475 43 21.9906 41.6569 21.9906 40V38.14C21.9706 37.52 21.4706 37.02 20.8506 37H14.14C13.52 37.02 13.02 37.52 13 38.14Z" fill="white"/>
<path d="M21.0928 40C21.0928 41.1598 20.152 42.0996 18.9922 42.0996H16.002C14.8422 42.0996 13.9023 41.1598 13.9023 40V38.1621C13.9104 38.0222 14.0233 37.9089 14.1631 37.9004H20.8311C20.9733 37.9089 21.0881 38.0258 21.0928 38.1689V40ZM22.8926 38.1113C22.8573 37.0171 21.976 36.136 20.8818 36.1006C20.8722 36.1003 20.8622 36.0996 20.8525 36.0996H14.1416C14.1322 36.0996 14.1227 36.1003 14.1133 36.1006C13.019 36.1359 12.1378 37.0171 12.1025 38.1113C12.1022 38.1208 12.1016 38.1302 12.1016 38.1396V40C12.1016 42.1539 13.848 43.9004 16.002 43.9004H18.9922C21.1461 43.9004 22.8926 42.1539 22.8926 40V38.1113Z" fill="#232527"/>
<path d="M10 6.14172V9.00195H25V6.14172C24.98 5.52172 24.48 5.02171 23.86 5.00171H11.14C10.52 5.02171 10.02 5.52172 10 6.14172Z" fill="white"/>
<path d="M25.002 9.90234C25.499 9.90234 25.9023 9.49901 25.9023 9.00195V6.1416C25.9023 6.13197 25.9017 6.12193 25.9014 6.1123C25.8659 5.01822 24.9848 4.13784 23.8906 4.10254C23.8812 4.10224 23.8718 4.10157 23.8623 4.10156H11.1416C11.1322 4.10157 11.1227 4.10224 11.1133 4.10254C10.0191 4.13784 9.13804 5.01822 9.10254 6.1123C9.10223 6.12193 9.10156 6.13197 9.10156 6.1416V9.00195C9.10156 9.49901 9.5049 9.90234 10.002 9.90234H25.002ZM10.9023 6.16406C10.9104 6.02143 11.0275 5.90603 11.1709 5.90137H23.833C23.9764 5.90603 24.0935 6.02143 24.1016 6.16406V8.10156H10.9023V6.16406Z" fill="#232527"/>
</svg>
