<svg width="48" height="48" viewBox="0 0 48 48" fill="none" xmlns="http://www.w3.org/2000/svg">
<path d="M4.99861 35.5V11C5.3975 7.8 7.49907 7 8.5 7H15.5C17.1 7 17.5 8 17.5 8.5V13.5H40.5C42.1 13.5 42.5 14.1667 42.5 14.5L43 16V39C43 40.2 42 40.8333 41.5 41H9C8.49954 41 7.19861 40.7 5.99861 39.5C4.79861 38.3 4.83194 36.3333 4.99861 35.5Z" fill="white"/>
<path d="M11.3311 40.0981L38.998 40.0981C39.966 40.0981 40.6016 40.0969 41.0723 40.0337C41.517 39.9739 41.6776 39.8737 41.7754 39.7759C41.8732 39.6781 41.9734 39.5176 42.0332 39.0728C42.0964 38.6021 42.0977 37.9665 42.0977 36.9985L42.0977 17.4429C42.0977 16.4749 42.0964 15.8393 42.0332 15.3687C41.9734 14.9238 41.8732 14.7633 41.7754 14.6655C41.6776 14.5677 41.5171 14.4675 41.0723 14.4077C40.6016 14.3445 39.966 14.3433 38.998 14.3433L17.665 14.3433C17.168 14.3433 16.7646 13.9399 16.7646 13.4429C16.7646 12.9458 17.168 12.5425 17.665 12.5425L38.998 12.5425C39.9154 12.5425 40.694 12.5414 41.3125 12.6245C41.9569 12.7112 42.5609 12.9041 43.0488 13.3921C43.5368 13.8801 43.7298 14.484 43.8164 15.1284C43.8996 15.747 43.8984 16.5255 43.8984 17.4429L43.8984 36.9985C43.8984 37.9159 43.8996 38.6945 43.8164 39.313C43.7298 39.9574 43.5368 40.5614 43.0488 41.0493C42.5609 41.5373 41.9569 41.7303 41.3125 41.8169C40.694 41.9001 39.9154 41.8979 38.998 41.8979L11.3311 41.8979C10.8342 41.8978 10.4317 41.4954 10.4316 40.9985C10.4316 40.5016 10.8341 40.0983 11.3311 40.0981Z" fill="#777777"/>
<path d="M31.3553 34.2256C30.5597 34.2175 29.6285 33.8621 28.973 33.1067C28.2863 32.3153 27.9763 31.1744 28.2919 29.7647C28.4692 28.9729 28.9274 28.2589 29.4953 27.6244C29.8162 27.2658 30.1882 26.9182 30.5929 26.5778C30.4428 26.4128 30.295 26.2389 30.1606 26.0558L29.8725 25.674C29.5934 25.3157 29.3425 25.0291 29.1156 24.8089C28.8065 24.5088 28.5897 24.3797 28.4553 24.3334C28.3582 24.3 28.3149 24.3096 28.256 24.3392C28.1595 24.3877 27.9827 24.5248 27.7428 24.877C26.9985 25.9687 26.4555 26.8563 26.1014 27.548L26.0338 27.6587C25.8596 27.904 25.5717 28.0486 25.2653 28.0367C24.9151 28.0229 24.604 27.8072 24.4691 27.4837C23.4375 25.008 22.1972 24.1079 20.8753 24.0946L18.0913 24.0664C17.5943 24.0613 17.195 23.654 17.2001 23.1569C17.2051 22.6599 17.6125 22.2607 18.1095 22.2657L20.8935 22.2939C22.7958 22.3131 24.2604 23.4131 25.3561 25.2425C25.6227 24.8151 25.9213 24.3537 26.2559 23.8629C26.5812 23.3856 26.9675 22.9718 27.4481 22.7304C27.9663 22.4701 28.5148 22.4506 29.0419 22.6322C29.5317 22.8011 29.9716 23.1311 30.369 23.5168C30.7731 23.9091 31.1858 24.4101 31.6119 24.9904C31.7306 25.152 31.8725 25.3114 32.0366 25.485C33.5492 24.4345 35.3558 23.4037 37.0347 22.4192C37.4635 22.1678 38.0145 22.3115 38.2659 22.7403C38.5173 23.169 38.3736 23.72 37.9448 23.9714C36.3114 24.9292 34.6732 25.8652 33.2889 26.8063C33.8995 27.5366 34.4438 28.4615 34.5171 29.7398L34.5252 30.0006C34.5409 32.3841 33.192 34.2439 31.3553 34.2256ZM31.3736 32.4249C31.7645 32.4285 32.7375 31.8945 32.7252 30.0127C32.7196 29.1472 32.3897 28.5363 31.9071 27.9594C31.8855 27.9336 31.8624 27.9089 31.8405 27.8835C31.4512 28.2051 31.1125 28.5174 30.8367 28.8255C30.3793 29.3367 30.1335 29.7802 30.0488 30.1584C29.8406 31.0885 30.07 31.6244 30.3327 31.927C30.6265 32.2656 31.0555 32.4217 31.3736 32.4249Z" fill="#FBCD6C"/>
<path d="M16.7686 11.1108C16.7686 10.1428 16.7664 9.5073 16.7031 9.03662C16.6434 8.59204 16.544 8.43131 16.4463 8.3335C16.3485 8.2357 16.188 8.13549 15.7432 8.07568C15.2725 8.01242 14.6369 8.01123 13.6689 8.01123H9.22461C7.3898 8.01123 5.90234 9.49868 5.90234 11.3335V32.8794C6.79677 32.1165 7.95686 31.6558 9.22461 31.6558H13.6689C14.6369 31.6558 15.2725 31.6536 15.7432 31.5903C16.1876 31.5306 16.3485 31.4312 16.4463 31.3335C16.5441 31.2357 16.6433 31.0748 16.7031 30.6304C16.7664 30.1597 16.7686 29.5234 16.7686 28.5552V11.1108ZM18.5684 28.5552C18.5684 29.4725 18.5704 30.2511 18.4873 30.8696C18.4007 31.5141 18.2067 32.118 17.7188 32.606C17.2309 33.0937 16.6276 33.2879 15.9834 33.3745C15.3649 33.4577 14.5862 33.4556 13.6689 33.4556H9.22461C7.447 33.4556 5.99504 34.8514 5.90625 36.6069L5.90234 36.7778L5.90625 36.9487C5.99536 38.704 7.44722 40.1001 9.22461 40.1001H17.6689C18.1658 40.1003 18.5682 40.5027 18.5684 40.9995C18.5684 41.4965 18.1659 41.8997 17.6689 41.8999H9.22461C6.39579 41.8999 4.10174 39.6066 4.10156 36.7778V11.3335C4.10156 8.50457 6.39568 6.21045 9.22461 6.21045H13.6689C14.5862 6.21045 15.3649 6.20933 15.9834 6.29248C16.6275 6.37913 17.2309 6.5724 17.7188 7.06006C18.2067 7.54804 18.4007 8.15196 18.4873 8.79639C18.5705 9.41492 18.5684 10.1935 18.5684 11.1108V28.5552Z" fill="#777777"/>
</svg>
