<svg width="48" height="48" viewBox="0 0 48 48" fill="none" xmlns="http://www.w3.org/2000/svg">
<path d="M32.8652 13.0664V18.4688C32.8652 19.8734 32.8633 21.0328 32.8105 22H40L43 26.998V32.4004C43 36.4214 43.0002 38.4324 41.7637 39.6816C40.527 40.9308 38.5363 40.9307 34.5557 40.9307H32.4443C28.4637 40.9307 26.473 40.9308 25.2363 39.6816C23.9998 38.4324 24 36.4214 24 32.4004C24 36.4214 24.0002 38.4324 22.7637 39.6816C21.527 40.9308 19.5363 40.9307 15.5557 40.9307H13.4443C9.46366 40.9307 7.47298 40.9308 6.23633 39.6816C4.99977 38.4324 5 36.4214 5 32.4004V26.998L8 22H15.126C15.033 21.0416 15 19.8925 15 18.498V12.998L18 8H30L32.8652 13.0664Z" fill="white"/>
<path d="M5 32.4014V26.999H7H24V32.4014C24 36.4226 24 38.4332 22.7633 39.6824C21.5267 40.9316 19.5363 40.9316 15.5556 40.9316H13.4444C9.4637 40.9316 7.47332 40.9316 6.23666 39.6824C5 38.4332 5 36.4226 5 32.4014Z" fill="white"/>
<path d="M23.0977 27.8994H20.0352C20.0228 27.8999 20.0105 27.9014 19.998 27.9014L5.89844 27.8994V32.4014C5.89844 34.4371 5.90008 35.8746 6.04492 36.9629C6.18641 38.0257 6.44939 38.6197 6.87402 39.0488C7.29763 39.4767 7.88236 39.7414 8.93066 39.8838C10.0058 40.0298 11.4264 40.0312 13.4424 40.0312H15.5537C17.5697 40.0312 18.9903 40.0298 20.0654 39.8838C21.1137 39.7414 21.6985 39.4767 22.1221 39.0488C22.5467 38.6197 22.8097 38.0257 22.9512 36.9629C23.096 35.8746 23.0977 34.4371 23.0977 32.4014V27.8994ZM24.8984 32.4014C24.8984 34.3867 24.8997 35.9656 24.7354 37.2002C24.5677 38.4596 24.213 39.4955 23.4014 40.3154C22.5883 41.1367 21.5589 41.4971 20.3076 41.667C19.0832 41.8333 17.5183 41.832 15.5537 41.832H13.4424C11.4778 41.832 9.91286 41.8333 8.68848 41.667C7.43724 41.4971 6.40777 41.1367 5.59473 40.3154C4.78312 39.4955 4.42838 38.4596 4.26074 37.2002C4.09642 35.9656 4.09766 34.3867 4.09766 32.4014V26.999C4.09766 26.502 4.50099 26.0986 4.99805 26.0986H23.998C24.4951 26.0986 24.8984 26.502 24.8984 26.999V32.4014Z" fill="#777777"/>
<path d="M17.8266 21.0334C18.7299 21.0334 19.4712 21.0328 20.0746 21.0911C20.6949 21.151 21.2502 21.2795 21.766 21.5852C22.2888 21.895 22.651 22.3154 22.9662 22.8245C23.2669 23.3101 23.5573 23.9324 23.9027 24.6692L24.8158 26.6184C25.0268 27.0685 24.8333 27.6037 24.3832 27.8147C23.9332 28.0257 23.3979 27.8321 23.1869 27.3821L22.2729 25.4338C21.9099 24.6596 21.6689 24.148 21.4359 23.7717C21.2175 23.419 21.0432 23.2497 20.8481 23.134C20.646 23.0143 20.3818 22.9295 19.9018 22.8831C19.4048 22.835 18.7649 22.8342 17.8266 22.8342H11.1762C10.2379 22.8342 9.59791 22.835 9.10098 22.8831C8.62096 22.9295 8.35679 23.0143 8.15469 23.134C7.95957 23.2497 7.78523 23.419 7.5668 23.7717C7.33384 24.148 7.09286 24.6596 6.72989 25.4338L5.81582 27.3821C5.60483 27.8321 5.06958 28.0257 4.61954 27.8147C4.16949 27.6037 3.97595 27.0685 4.18692 26.6184L5.1 24.6692C5.4454 23.9324 5.73583 23.3101 6.03653 22.8245C6.35172 22.3154 6.71396 21.895 7.23672 21.5852C7.75259 21.2795 8.3078 21.151 8.92813 21.0911C9.53154 21.0328 10.2729 21.0334 11.1762 21.0334H17.8266Z" fill="#777777"/>
<path d="M16.3994 29.8984C16.8965 29.8984 17.2998 30.3018 17.2998 30.7988C17.2998 31.2959 16.8965 31.6992 16.3994 31.6992H12.5996C12.1026 31.6992 11.6992 31.2959 11.6992 30.7988C11.6992 30.3018 12.1026 29.8984 12.5996 29.8984H16.3994Z" fill="#FBCD6C"/>
<path d="M24 32.4012V26.9988H43V32.4012C43 36.4223 43 38.4329 41.7633 39.6821C40.5267 40.9313 38.5363 40.9313 34.5556 40.9313H32.4444C28.4637 40.9313 26.4733 40.9313 25.2367 39.6821C24 38.4329 24 36.4223 24 32.4012Z" fill="white"/>
<path d="M42.0977 27.8992H24.8984V32.4011C24.8984 34.4369 24.9001 35.8744 25.0449 36.9626C25.1864 38.0255 25.4494 38.6195 25.874 39.0486C26.2976 39.4765 26.8824 39.7412 27.9307 39.8835C29.0058 40.0296 30.4264 40.031 32.4424 40.031H34.5537C36.5697 40.031 37.9903 40.0296 39.0654 39.8835C40.1137 39.7412 40.6985 39.4765 41.1221 39.0486C41.5467 38.6195 41.8097 38.0255 41.9512 36.9626C42.096 35.8744 42.0977 34.4369 42.0977 32.4011V27.8992ZM43.8984 32.4011C43.8984 34.3865 43.8997 35.9653 43.7354 37.2C43.5677 38.4594 43.213 39.4952 42.4014 40.3152C41.5883 41.1365 40.5589 41.4968 39.3076 41.6667C38.0832 41.833 36.5183 41.8318 34.5537 41.8318H32.4424C30.4778 41.8318 28.9129 41.833 27.6885 41.6667C26.4372 41.4968 25.4078 41.1365 24.5947 40.3152C23.7831 39.4952 23.4284 38.4594 23.2607 37.2C23.0964 35.9653 23.0977 34.3865 23.0977 32.4011V26.9988C23.0977 26.5017 23.501 26.0984 23.998 26.0984H42.998C43.4951 26.0984 43.8984 26.5017 43.8984 26.9988V32.4011Z" fill="#777777"/>
<path d="M36.8266 21.0332C37.7299 21.0332 38.4712 21.0325 39.0746 21.0908C39.6949 21.1508 40.2502 21.2793 40.766 21.585C41.2888 21.8947 41.651 22.3152 41.9662 22.8242C42.2669 23.3099 42.5573 23.9321 42.9027 24.6689L43.8158 26.6182C44.0268 27.0682 43.8333 27.6035 43.3832 27.8145C42.9332 28.0254 42.3979 27.8319 42.1869 27.3818L41.2729 25.4336C40.9099 24.6593 40.6689 24.1477 40.4359 23.7715C40.2175 23.4188 40.0432 23.2494 39.8481 23.1338C39.646 23.0141 39.3818 22.9292 38.9018 22.8828C38.4048 22.8348 37.7649 22.834 36.8266 22.834H30.1762C29.2379 22.834 28.5979 22.8348 28.101 22.8828C27.621 22.9292 27.3568 23.0141 27.1547 23.1338C26.9596 23.2494 26.7852 23.4188 26.5668 23.7715C26.3338 24.1477 26.0929 24.6593 25.7299 25.4336L24.8158 27.3818C24.6048 27.8319 24.0696 28.0254 23.6195 27.8145C23.1695 27.6035 22.9759 27.0682 23.1869 26.6182L24.1 24.6689C24.4454 23.9321 24.7358 23.3099 25.0365 22.8242C25.3517 22.3152 25.714 21.8947 26.2367 21.585C26.7526 21.2793 27.3078 21.1508 27.9281 21.0908C28.5315 21.0325 29.2729 21.0332 30.1762 21.0332H36.8266Z" fill="#777777"/>
<path d="M35.3994 29.8982C35.8965 29.8982 36.2998 30.3015 36.2998 30.7986C36.2998 31.2956 35.8965 31.699 35.3994 31.699H31.5996C31.1026 31.699 30.6992 31.2956 30.6992 30.7986C30.6992 30.3015 31.1026 29.8982 31.5996 29.8982H35.3994Z" fill="#FBCD6C"/>
<path d="M15 18.5002L15 13.0002L32.8653 13.0686V18.471C32.8653 22.4922 32.8653 24.5027 31.6287 25.7519C30.392 27.0012 28.4016 27.0012 24.4209 27.0012H22.3098C18.329 27.0012 17.7367 27.0012 16.5 25.7519C15.2633 24.5027 15 22.5214 15 18.5002Z" fill="white"/>
<path d="M31.9678 18.471V13.9651L15.9023 13.9036V18.5003L15.9053 19.2258C15.9209 20.8583 15.9943 22.0662 16.1719 22.9963C16.3706 24.0367 16.6872 24.6593 17.1416 25.1184C17.681 25.6633 17.9843 25.8508 18.5498 25.9612C19.242 26.0963 20.2733 26.1008 22.3115 26.1008H24.4229C26.4389 26.1008 27.8595 26.0994 28.9346 25.9534C29.9829 25.811 30.5676 25.5463 30.9912 25.1184C31.4159 24.6893 31.6788 24.0954 31.8203 23.0325C31.9652 21.9442 31.9678 20.5067 31.9678 18.471ZM33.7676 18.471C33.7676 20.4563 33.7688 22.0352 33.6045 23.2698C33.4369 24.5292 33.0821 25.565 32.2705 26.385C31.4575 27.2063 30.428 27.5666 29.1768 27.7366C27.9524 27.9029 26.3875 27.9016 24.4229 27.9016H22.3115C20.3693 27.9016 19.1133 27.906 18.2051 27.7288C17.1705 27.5268 16.5594 27.0891 15.8623 26.385C15.0802 25.5949 14.6464 24.602 14.4043 23.3342C14.1665 22.089 14.1016 20.5136 14.1016 18.5003V13.0003C14.1016 12.761 14.1977 12.5314 14.3672 12.3626C14.5367 12.1938 14.7667 12.0989 15.0059 12.0999L32.8711 12.1682C33.3666 12.1703 33.7676 12.573 33.7676 13.0686V18.471Z" fill="#777777"/>
<path d="M26.6899 7.10132C27.5934 7.10132 28.3354 7.10061 28.9389 7.15894C29.5592 7.2189 30.1145 7.34742 30.6303 7.65308C31.1529 7.96285 31.5154 8.38337 31.8305 8.89233C32.1312 9.378 32.4216 10.0002 32.767 10.7371L33.6801 12.6863C33.8909 13.1362 33.6972 13.6715 33.2475 13.8826C32.7974 14.0935 32.2612 13.9 32.0502 13.45L31.1371 11.5017C30.7742 10.7274 30.5332 10.2159 30.3002 9.8396C30.0818 9.48688 29.9074 9.31755 29.7123 9.2019C29.5102 9.08214 29.2452 8.99733 28.7651 8.95093C28.2682 8.90294 27.628 8.9021 26.6899 8.9021H21.0014C18.951 8.9021 18.4298 8.99122 17.9604 9.26929C17.6069 9.47875 17.204 10.036 16.8559 10.7097C16.6958 11.0195 16.5684 11.3118 16.4809 11.5271C16.4373 11.6343 16.404 11.7214 16.3823 11.78C16.3714 11.8092 16.3638 11.8314 16.3588 11.8455C16.3563 11.8525 16.354 11.8573 16.353 11.8601V11.8621L16.352 11.863L15.8549 13.3542C15.6978 13.8257 15.1887 14.0806 14.7172 13.9236C14.2458 13.7664 13.9909 13.2573 14.1479 12.7859L14.6479 11.2859L14.6498 11.2781L14.6508 11.2771V11.2761L14.6518 11.2742C14.6524 11.2723 14.6527 11.2693 14.6537 11.2664C14.6559 11.2602 14.6598 11.2515 14.6635 11.241C14.671 11.22 14.6812 11.1907 14.6948 11.1541C14.7222 11.0802 14.7616 10.9755 14.8129 10.8494C14.915 10.5982 15.0658 10.2542 15.2573 9.88355C15.6127 9.19569 16.21 8.21479 17.0424 7.72144C18.0088 7.14877 19.0523 7.10132 21.0014 7.10132H26.6899Z" fill="#777777"/>
<path d="M25.8018 16.0999C26.2988 16.0999 26.7021 16.5032 26.7021 17.0002C26.7021 17.4973 26.2988 17.9006 25.8018 17.9006H22.002C21.5049 17.9006 21.1016 17.4973 21.1016 17.0002C21.1016 16.5032 21.5049 16.0999 22.002 16.0999H25.8018Z" fill="#FBCD6C"/>
</svg>
