<svg width="48" height="48" viewBox="0 0 48 48" fill="none" xmlns="http://www.w3.org/2000/svg">
<path d="M32.8652 13.0664V18.4688C32.8652 19.8734 32.8633 21.0328 32.8105 22H40L43 26.998V32.4004C43 36.4214 43.0002 38.4324 41.7637 39.6816C40.527 40.9308 38.5363 40.9307 34.5557 40.9307H32.4443C28.4637 40.9307 26.473 40.9308 25.2363 39.6816C23.9998 38.4324 24 36.4214 24 32.4004C24 36.4214 24.0002 38.4324 22.7637 39.6816C21.527 40.9308 19.5363 40.9307 15.5557 40.9307H13.4443C9.46366 40.9307 7.47298 40.9308 6.23633 39.6816C4.99977 38.4324 5 36.4214 5 32.4004V26.998L8 22H15.126C15.033 21.0416 15 19.8925 15 18.498V12.998L18 8H30L32.8652 13.0664Z" fill="white"/>
<path d="M5 32.4005V26.998H7H24V32.4005C24 36.4216 24 38.4322 22.7633 39.6814C21.5267 40.9306 19.5363 40.9306 15.5556 40.9306H13.4444C9.4637 40.9306 7.47332 40.9306 6.23666 39.6814C5 38.4322 5 36.4216 5 32.4005Z" fill="white"/>
<path d="M23.0977 27.8984H20.0352C20.0228 27.8989 20.0105 27.9004 19.998 27.9004L5.89844 27.8984V32.4004C5.89844 34.4362 5.90008 35.8737 6.04492 36.9619C6.18641 38.0248 6.44939 38.6187 6.87402 39.0479C7.29763 39.4758 7.88236 39.7404 8.93066 39.8828C10.0058 40.0288 11.4264 40.0303 13.4424 40.0303H15.5537C17.5697 40.0303 18.9903 40.0288 20.0654 39.8828C21.1137 39.7404 21.6985 39.4758 22.1221 39.0479C22.5467 38.6187 22.8097 38.0248 22.9512 36.9619C23.096 35.8737 23.0977 34.4362 23.0977 32.4004V27.8984ZM24.8984 32.4004C24.8984 34.3858 24.8997 35.9646 24.7354 37.1992C24.5677 38.4586 24.213 39.4945 23.4014 40.3145C22.5883 41.1358 21.5589 41.4961 20.3076 41.666C19.0832 41.8323 17.5183 41.8311 15.5537 41.8311H13.4424C11.4778 41.8311 9.91286 41.8323 8.68848 41.666C7.43724 41.4961 6.40777 41.1358 5.59473 40.3145C4.78312 39.4945 4.42838 38.4586 4.26074 37.1992C4.09642 35.9646 4.09766 34.3858 4.09766 32.4004V26.998C4.09766 26.501 4.50099 26.0977 4.99805 26.0977H23.998C24.4951 26.0977 24.8984 26.501 24.8984 26.998V32.4004Z" fill="#232527"/>
<path d="M17.8266 21.0332C18.7299 21.0332 19.4712 21.0325 20.0746 21.0908C20.6949 21.1508 21.2502 21.2793 21.766 21.585C22.2888 21.8947 22.651 22.3152 22.9662 22.8242C23.2669 23.3099 23.5573 23.9321 23.9027 24.6689L24.8158 26.6182C25.0268 27.0682 24.8333 27.6035 24.3832 27.8145C23.9332 28.0254 23.3979 27.8319 23.1869 27.3818L22.2729 25.4336C21.9099 24.6593 21.6689 24.1477 21.4359 23.7715C21.2175 23.4188 21.0432 23.2494 20.8481 23.1338C20.646 23.0141 20.3818 22.9292 19.9018 22.8828C19.4048 22.8348 18.7649 22.834 17.8266 22.834H11.1762C10.2379 22.834 9.59791 22.8348 9.10098 22.8828C8.62096 22.9292 8.35679 23.0141 8.15469 23.1338C7.95957 23.2494 7.78523 23.4188 7.5668 23.7715C7.33384 24.1477 7.09286 24.6593 6.72989 25.4336L5.81582 27.3818C5.60483 27.8319 5.06958 28.0254 4.61954 27.8145C4.16949 27.6035 3.97595 27.0682 4.18692 26.6182L5.1 24.6689C5.4454 23.9321 5.73583 23.3099 6.03653 22.8242C6.35172 22.3152 6.71396 21.8947 7.23672 21.585C7.75259 21.2793 8.3078 21.1508 8.92813 21.0908C9.53154 21.0325 10.2729 21.0332 11.1762 21.0332H17.8266Z" fill="#232527"/>
<path d="M16.3994 29.8984C16.8965 29.8984 17.2998 30.3018 17.2998 30.7988C17.2998 31.2959 16.8965 31.6992 16.3994 31.6992H12.5996C12.1026 31.6992 11.6992 31.2959 11.6992 30.7988C11.6992 30.3018 12.1026 29.8984 12.5996 29.8984H16.3994Z" fill="#FBCD6C"/>
<path d="M24 32.4005V26.998H43V32.4005C43 36.4216 43 38.4322 41.7633 39.6814C40.5267 40.9306 38.5363 40.9306 34.5556 40.9306H32.4444C28.4637 40.9306 26.4733 40.9306 25.2367 39.6814C24 38.4322 24 36.4216 24 32.4005Z" fill="white"/>
<path d="M42.0977 27.8984H24.8984V32.4004C24.8984 34.4362 24.9001 35.8737 25.0449 36.9619C25.1864 38.0248 25.4494 38.6187 25.874 39.0479C26.2976 39.4758 26.8824 39.7404 27.9307 39.8828C29.0058 40.0288 30.4264 40.0303 32.4424 40.0303H34.5537C36.5697 40.0303 37.9903 40.0288 39.0654 39.8828C40.1137 39.7404 40.6985 39.4758 41.1221 39.0479C41.5467 38.6187 41.8097 38.0248 41.9512 36.9619C42.096 35.8737 42.0977 34.4362 42.0977 32.4004V27.8984ZM43.8984 32.4004C43.8984 34.3858 43.8997 35.9646 43.7354 37.1992C43.5677 38.4586 43.213 39.4945 42.4014 40.3145C41.5883 41.1358 40.5589 41.4961 39.3076 41.666C38.0832 41.8323 36.5183 41.8311 34.5537 41.8311H32.4424C30.4778 41.8311 28.9129 41.8323 27.6885 41.666C26.4372 41.4961 25.4078 41.1358 24.5947 40.3145C23.7831 39.4945 23.4284 38.4586 23.2607 37.1992C23.0964 35.9646 23.0977 34.3858 23.0977 32.4004V26.998C23.0977 26.501 23.501 26.0977 23.998 26.0977H42.998C43.4951 26.0977 43.8984 26.501 43.8984 26.998V32.4004Z" fill="#232527"/>
<path d="M36.8266 21.0332C37.7299 21.0332 38.4712 21.0325 39.0746 21.0908C39.6949 21.1508 40.2502 21.2793 40.766 21.585C41.2888 21.8947 41.651 22.3152 41.9662 22.8242C42.2669 23.3099 42.5573 23.9321 42.9027 24.6689L43.8158 26.6182C44.0268 27.0682 43.8333 27.6035 43.3832 27.8145C42.9332 28.0254 42.3979 27.8319 42.1869 27.3818L41.2729 25.4336C40.9099 24.6593 40.6689 24.1477 40.4359 23.7715C40.2175 23.4188 40.0432 23.2494 39.8481 23.1338C39.646 23.0141 39.3818 22.9292 38.9018 22.8828C38.4048 22.8348 37.7649 22.834 36.8266 22.834H30.1762C29.2379 22.834 28.5979 22.8348 28.101 22.8828C27.621 22.9292 27.3568 23.0141 27.1547 23.1338C26.9596 23.2494 26.7852 23.4188 26.5668 23.7715C26.3338 24.1477 26.0929 24.6593 25.7299 25.4336L24.8158 27.3818C24.6048 27.8319 24.0696 28.0254 23.6195 27.8145C23.1695 27.6035 22.9759 27.0682 23.1869 26.6182L24.1 24.6689C24.4454 23.9321 24.7358 23.3099 25.0365 22.8242C25.3517 22.3152 25.714 21.8947 26.2367 21.585C26.7526 21.2793 27.3078 21.1508 27.9281 21.0908C28.5315 21.0325 29.2729 21.0332 30.1762 21.0332H36.8266Z" fill="#232527"/>
<path d="M35.3994 29.8984C35.8965 29.8984 36.2998 30.3018 36.2998 30.7988C36.2998 31.2959 35.8965 31.6992 35.3994 31.6992H31.5996C31.1026 31.6992 30.6992 31.2959 30.6992 30.7988C30.6992 30.3018 31.1026 29.8984 31.5996 29.8984H35.3994Z" fill="#FBCD6C"/>
<path d="M15 18.498L15 12.998L32.8653 13.0664V18.4688C32.8653 22.49 32.8653 24.5005 31.6287 25.7497C30.392 26.999 28.4016 26.999 24.4209 26.999H22.3098C18.329 26.999 17.7367 26.999 16.5 25.7497C15.2633 24.5005 15 22.5192 15 18.498Z" fill="white"/>
<path d="M31.9678 18.4688V13.9629L15.9023 13.9014V18.4981L15.9053 19.2236C15.9209 20.8561 15.9943 22.064 16.1719 22.9941C16.3706 24.0345 16.6872 24.6571 17.1416 25.1162C17.681 25.6611 17.9843 25.8486 18.5498 25.959C19.242 26.0941 20.2733 26.0986 22.3115 26.0986H24.4229C26.4389 26.0986 27.8595 26.0972 28.9346 25.9512C29.9829 25.8088 30.5676 25.5441 30.9912 25.1162C31.4159 24.6871 31.6788 24.0932 31.8203 23.0303C31.9652 21.942 31.9678 20.5045 31.9678 18.4688ZM33.7676 18.4688C33.7676 20.4541 33.7688 22.033 33.6045 23.2676C33.4369 24.527 33.0821 25.5628 32.2705 26.3828C31.4575 27.2041 30.428 27.5645 29.1768 27.7344C27.9524 27.9007 26.3875 27.8994 24.4229 27.8994H22.3115C20.3693 27.8994 19.1133 27.9038 18.2051 27.7266C17.1705 27.5246 16.5594 27.0869 15.8623 26.3828C15.0802 25.5927 14.6464 24.5998 14.4043 23.332C14.1665 22.0868 14.1016 20.5114 14.1016 18.4981V12.9981C14.1016 12.7588 14.1977 12.5292 14.3672 12.3604C14.5367 12.1916 14.7667 12.0967 15.0059 12.0977L32.8711 12.166C33.3666 12.1681 33.7676 12.5708 33.7676 13.0664V18.4688Z" fill="#232527"/>
<path d="M26.6899 7.09961C27.5934 7.09961 28.3354 7.0989 28.9389 7.15723C29.5592 7.21719 30.1145 7.34571 30.6303 7.65137C31.1529 7.96114 31.5154 8.38166 31.8305 8.89063C32.1312 9.3763 32.4216 9.99853 32.767 10.7354L33.6801 12.6846C33.8909 13.1345 33.6972 13.6698 33.2475 13.8809C32.7974 14.0918 32.2612 13.8983 32.0502 13.4482L31.1371 11.5C30.7742 10.7257 30.5332 10.2141 30.3002 9.83789C30.0818 9.48517 29.9074 9.31584 29.7123 9.2002C29.5102 9.08043 29.2452 8.99563 28.7651 8.94922C28.2682 8.90123 27.628 8.90039 26.6899 8.90039H21.0014C18.951 8.90039 18.4298 8.98951 17.9604 9.26758C17.6069 9.47704 17.204 10.0343 16.8559 10.708C16.6958 11.0178 16.5684 11.3101 16.4809 11.5254C16.4373 11.6326 16.404 11.7197 16.3823 11.7783C16.3714 11.8075 16.3638 11.8297 16.3588 11.8438C16.3563 11.8508 16.354 11.8556 16.353 11.8584V11.8604L16.352 11.8613L15.8549 13.3525C15.6978 13.824 15.1887 14.0789 14.7172 13.9219C14.2458 13.7647 13.9909 13.2556 14.1479 12.7842L14.6479 11.2842L14.6498 11.2764L14.6508 11.2754V11.2744L14.6518 11.2725C14.6524 11.2706 14.6527 11.2676 14.6537 11.2646C14.6559 11.2585 14.6598 11.2498 14.6635 11.2393C14.671 11.2183 14.6812 11.189 14.6948 11.1523C14.7222 11.0785 14.7616 10.9738 14.8129 10.8477C14.915 10.5965 15.0658 10.2525 15.2573 9.88184C15.6127 9.19398 16.21 8.21308 17.0424 7.71973C18.0088 7.14706 19.0523 7.09961 21.0014 7.09961H26.6899Z" fill="#232527"/>
<path d="M25.8018 16.0977C26.2988 16.0977 26.7021 16.501 26.7021 16.998C26.7021 17.4951 26.2988 17.8984 25.8018 17.8984H22.002C21.5049 17.8984 21.1016 17.4951 21.1016 16.998C21.1016 16.501 21.5049 16.0977 22.002 16.0977H25.8018Z" fill="#FBCD6C"/>
</svg>
