<svg width="48" height="48" viewBox="0 0 48 48" fill="none" xmlns="http://www.w3.org/2000/svg">
<path d="M12.5 8.5C14.5 7.7 15.6667 5.83333 16 5L21 9L23 11H24.5L25.5 10.5L32 5.5C32.3333 5.83333 33.4 6.8 35 8C37 9.5 38.5 9.5 41 10C43 10.4 43.1667 12.1667 43 13C42.1667 20.5 40.4 35.9 40 37.5C39.6 39.1 37.1667 40.1667 36 40.5C28.5 40.6667 13.1 40.9 11.5 40.5C9.5 40 8.5 38 8 37C7.5 36 5 15.5 5 13.5C5 11.5 5.5 11 6 10C6.5 9 10 9.5 12.5 8.5Z" fill="white"/>
<path d="M25.002 10.0996C25.499 10.0996 25.9023 10.5029 25.9023 11C25.9023 11.4971 25.499 11.9004 25.002 11.9004H23.002C22.5049 11.9004 22.1016 11.4971 22.1016 11C22.1016 10.5029 22.5049 10.0996 23.002 10.0996H25.002Z" fill="#232527"/>
<path d="M15.8181 4.31709C16.1406 4.03948 16.6198 4.02398 16.9607 4.2917L21.0554 7.50947C21.8495 8.13333 22.5221 8.65874 22.992 9.14912C23.4816 9.66021 23.8543 10.2363 23.905 10.9841C23.9556 11.7306 23.6657 12.3534 23.2517 12.9294C22.8537 13.4832 22.2596 14.102 21.5574 14.8376L20.5047 15.9401C20.1635 16.2975 19.8427 16.6373 19.5466 16.8708C19.2324 17.1186 18.8125 17.3563 18.2732 17.3161C17.7357 17.276 17.3553 16.9806 17.0798 16.6911C16.8225 16.4206 16.5552 16.0436 16.2693 15.6442L11.9509 9.86201C11.5371 10.0244 11.1135 10.1275 10.7068 10.1989C10.0661 10.3115 9.34925 10.3659 8.77907 10.4323C7.52485 10.5785 6.72697 10.8098 6.24879 11.5085C5.96129 11.9286 5.72863 12.5453 5.89528 13.8894C6.89037 21.9149 7.28413 26.2226 8.39235 33.8708C8.64002 35.5801 8.87656 36.4862 9.13551 37.0651C9.37489 37.6002 9.64614 37.8901 10.1257 38.3513C10.4947 38.7059 10.9825 38.9493 11.4685 39.1032C11.9573 39.2579 12.3793 39.3014 12.5545 39.3015H20.4998C20.9968 39.3015 21.3992 39.7048 21.3992 40.2019C21.3991 40.6988 20.9967 41.1012 20.4998 41.1013H12.5545C12.1807 41.1013 11.5759 41.0249 10.9256 40.819C10.2727 40.6124 9.50856 40.2548 8.8777 39.6481C8.35741 39.1478 7.87851 38.6623 7.49293 37.8005C7.12696 36.9825 6.86335 35.8695 6.6111 34.1286C5.49974 26.4587 5.09706 22.0855 4.10817 14.1101C3.90295 12.4544 4.16462 11.3644 4.76246 10.4909C5.73803 9.06562 7.31908 8.79003 8.57008 8.64424C9.25246 8.56472 9.81998 8.52656 10.3953 8.42549C10.9497 8.32809 11.3903 8.18847 11.7361 7.96553C13.0715 7.10463 13.4334 6.84778 13.7722 6.51728C13.9528 6.34112 14.1282 6.14255 14.4382 5.79658C14.7412 5.45845 15.1459 5.0115 15.7556 4.37666L15.8181 4.31709ZM16.4949 6.21553C16.1985 6.53333 15.9687 6.78614 15.7791 6.99775C15.4914 7.31878 15.2646 7.57663 15.0291 7.80635C14.6535 8.17269 14.2575 8.46523 13.5183 8.95283L17.7117 14.5671L17.7224 14.5817C18.0439 15.0307 18.2312 15.2887 18.3845 15.4499C18.3927 15.4585 18.4018 15.4652 18.4089 15.4724C18.4156 15.4673 18.4239 15.4636 18.4314 15.4577C18.6038 15.3218 18.8234 15.0945 19.2029 14.697L20.2556 13.5944C20.9949 12.8201 21.4824 12.3063 21.7898 11.8786C22.081 11.4735 22.1199 11.2656 22.1091 11.1062C22.0984 10.9479 22.0333 10.7503 21.6922 10.3942C21.3312 10.0175 20.7807 9.58178 19.9441 8.92451L16.4949 6.21553Z" fill="#232527"/>
<path d="M32.1897 4.31709C31.8672 4.03948 31.388 4.02398 31.0471 4.2917L26.9524 7.50947C26.1583 8.13333 25.4857 8.65874 25.0159 9.14912C24.5262 9.66021 24.1535 10.2363 24.1028 10.9841C24.0522 11.7306 24.3421 12.3534 24.7561 12.9294C25.1541 13.4832 25.7482 14.102 26.4504 14.8376L27.5032 15.9401C27.8443 16.2975 28.1651 16.6373 28.4612 16.8708C28.7754 17.1186 29.1954 17.3563 29.7346 17.3161C30.2721 17.276 30.6525 16.9806 30.928 16.6911C31.1853 16.4206 31.4526 16.0436 31.7385 15.6442L36.0569 9.86201C36.4707 10.0244 36.8943 10.1275 37.301 10.1989C37.9417 10.3115 38.6586 10.3659 39.2287 10.4323C40.483 10.5785 41.2808 10.8098 41.759 11.5085C42.0465 11.9286 42.2792 12.5453 42.1125 13.8894C41.1174 21.9149 40.7237 26.2226 39.6155 33.8708C39.3678 35.5801 39.1312 36.4862 38.8723 37.0651C38.6329 37.6002 38.3617 37.8901 37.8821 38.3513C37.5131 38.7059 37.0253 38.9493 36.5393 39.1032C36.0505 39.2579 35.6285 39.3014 35.4534 39.3015H27.508C27.011 39.3015 26.6086 39.7048 26.6086 40.2019C26.6087 40.6988 27.0111 41.1012 27.508 41.1013H35.4534C35.8271 41.1013 36.432 41.0249 37.0823 40.819C37.7351 40.6124 38.4992 40.2548 39.1301 39.6481C39.6504 39.1478 40.1293 38.6623 40.5149 37.8005C40.8809 36.9825 41.1445 35.8695 41.3967 34.1286C42.5081 26.4587 42.9108 22.0855 43.8996 14.1101C44.1049 12.4544 43.8432 11.3644 43.2453 10.4909C42.2698 9.06562 40.6887 8.79003 39.4377 8.64424C38.7553 8.56472 38.1878 8.52656 37.6125 8.42549C37.0582 8.32809 36.6175 8.18847 36.2717 7.96553C34.9363 7.10463 34.5744 6.84778 34.2356 6.51728C34.055 6.34112 33.8796 6.14255 33.5696 5.79658C33.2666 5.45845 32.8619 5.0115 32.2522 4.37666L32.1897 4.31709ZM31.5129 6.21553C31.8093 6.53333 32.0391 6.78614 32.2287 6.99775C32.5164 7.31878 32.7432 7.57663 32.9787 7.80635C33.3543 8.17269 33.7503 8.46523 34.4895 8.95283L30.2961 14.5671L30.2854 14.5817C29.9639 15.0307 29.7766 15.2887 29.6233 15.4499C29.6151 15.4585 29.606 15.4652 29.5989 15.4724C29.5922 15.4673 29.5839 15.4636 29.5764 15.4577C29.404 15.3218 29.1844 15.0945 28.8049 14.697L27.7522 13.5944C27.013 12.8201 26.5254 12.3063 26.218 11.8786C25.9268 11.4735 25.8879 11.2656 25.8987 11.1062C25.9094 10.9479 25.9745 10.7503 26.3157 10.3942C26.6766 10.0175 27.2271 9.58178 28.0637 8.92451L31.5129 6.21553Z" fill="#232527"/>
<path d="M26.4863 14.0346C26.742 13.6085 27.2945 13.4704 27.7207 13.7261C28.1468 13.9818 28.2849 14.5342 28.0293 14.9604L26.0019 18.3413C25.8932 18.5226 25.8363 18.6174 25.7998 18.6899C25.7929 18.7035 25.7886 18.7144 25.7851 18.7221C25.786 18.7306 25.7866 18.7425 25.789 18.7583C25.8013 18.8386 25.8256 18.9466 25.873 19.1528L29.5361 35.0854L29.541 35.1069L29.5449 35.1294C30.0984 38.2436 28.3539 39.8709 27.0888 41.4526C26.5434 42.1346 26.0781 42.7201 25.6552 43.1235C25.2242 43.5347 24.6942 43.8989 24.0009 43.8989C23.3078 43.8988 22.7777 43.5347 22.3466 43.1235C21.9239 42.7201 21.4584 42.1345 20.9131 41.4526C19.648 39.8709 17.9036 38.2435 18.457 35.1294L18.4609 35.1069L18.4668 35.0854L22.1299 19.1528C22.1773 18.9465 22.2015 18.8386 22.2138 18.7583C22.2163 18.7419 22.2169 18.7297 22.2177 18.7212C22.2143 18.7136 22.2097 18.703 22.2031 18.6899C22.1666 18.6174 22.1097 18.5226 22.0009 18.3413L19.9736 14.9604C19.7181 14.5343 19.8563 13.9818 20.2822 13.7261C20.7085 13.4704 21.2619 13.6084 21.5175 14.0346L23.5449 17.4145C23.692 17.6598 23.881 17.9524 23.9687 18.2925L23.999 18.4409L24.0009 18.4624C24.002 18.4552 24.0027 18.448 24.0039 18.4409L24.0351 18.2925C24.1228 17.9528 24.3109 17.6606 24.458 17.4155L26.4863 14.0346ZM24.0009 18.9604C23.9751 19.175 23.9249 19.3774 23.8838 19.5561L20.2265 35.4595C19.8516 37.6009 20.8871 38.5378 22.3193 40.3286C22.8981 41.0523 23.2759 41.5213 23.5898 41.8208C23.8924 42.1095 23.9939 42.0993 24.0009 42.0991C24.0062 42.0991 24.1074 42.1124 24.4131 41.8208C24.727 41.5213 25.1048 41.0522 25.6836 40.3286C27.1158 38.5378 28.1494 37.6011 27.7744 35.4595L24.1191 19.5561C24.078 19.3774 24.0268 19.175 24.0009 18.9604Z" fill="#232527"/>
<path d="M30 23C30 22.4477 30.4477 22 31 22H36C36.5523 22 37 22.4477 37 23V24.5C37 25.0523 36.5523 25.5 36 25.5H31C30.4477 25.5 30 25.0523 30 24.5V23Z" fill="white"/>
<path d="M36.3008 23.001C36.3008 22.8353 36.1667 22.7012 36.001 22.7012H31.001C30.8353 22.7012 30.7012 22.8353 30.7012 23.001V24.501C30.7012 24.6667 30.8353 24.8008 31.001 24.8008H36.001C36.1667 24.8008 36.3008 24.6667 36.3008 24.501V23.001ZM37.7012 24.501C37.7012 25.4399 36.9399 26.2012 36.001 26.2012H31.001C30.0621 26.2012 29.3008 25.4399 29.3008 24.501V23.001C29.3008 22.0621 30.0621 21.3008 31.001 21.3008H36.001C36.9399 21.3008 37.7012 22.0621 37.7012 23.001V24.501Z" fill="#FBCD6C"/>
<path d="M22.9458 10.1466C23.4417 10.113 23.8711 10.4876 23.9048 10.9835C23.9553 11.73 23.6654 12.3529 23.2515 12.9289C22.8534 13.4827 22.2594 14.1015 21.5571 14.8371L20.5044 15.9396C20.1631 16.2971 19.8415 16.6368 19.5454 16.8703C19.2312 17.118 18.812 17.3557 18.2729 17.3156C17.7354 17.2756 17.355 16.9801 17.0796 16.6906C16.8191 16.4167 16.5481 16.0338 16.2583 15.6291C15.969 15.225 16.0615 14.6626 16.4653 14.3732C16.8695 14.0838 17.4318 14.1771 17.7212 14.5812C18.0428 15.0304 18.2309 15.2882 18.3843 15.4494C18.3921 15.4576 18.4008 15.4639 18.4077 15.4708C18.4145 15.4657 18.4235 15.4622 18.4311 15.4562C18.6035 15.3203 18.8233 15.0938 19.2026 14.6964L20.2554 13.5939C20.9946 12.8196 21.4822 12.3058 21.7895 11.8781C22.081 11.4726 22.1197 11.2642 22.1089 11.1046C22.0755 10.609 22.4502 10.1805 22.9458 10.1466Z" fill="#232527"/>
<path d="M25.062 10.1466C24.5661 10.113 24.1367 10.4876 24.103 10.9835C24.0525 11.73 24.3424 12.3529 24.7564 12.9289C25.1544 13.4827 25.7484 14.1015 26.4507 14.8371L27.5034 15.9396C27.8447 16.2971 28.1663 16.6368 28.4624 16.8703C28.7766 17.118 29.1958 17.3557 29.7349 17.3156C30.2724 17.2756 30.6528 16.9801 30.9282 16.6906C31.1887 16.4167 31.4597 16.0338 31.7495 15.6291C32.0388 15.225 31.9463 14.6626 31.5425 14.3732C31.1384 14.0838 30.576 14.1771 30.2866 14.5812C29.965 15.0304 29.7769 15.2882 29.6235 15.4494C29.6157 15.4576 29.607 15.4639 29.6001 15.4708C29.5933 15.4657 29.5843 15.4622 29.5767 15.4562C29.4043 15.3203 29.1845 15.0938 28.8052 14.6964L27.7525 13.5939C27.0132 12.8196 26.5257 12.3058 26.2183 11.8781C25.9268 11.4726 25.8881 11.2642 25.8989 11.1046C25.9324 10.609 25.5576 10.1805 25.062 10.1466Z" fill="#232527"/>
</svg>
