<svg width="48" height="48" viewBox="0 0 48 48" fill="none" xmlns="http://www.w3.org/2000/svg">
<path d="M19.9014 6.29382C19.8803 6.1755 19.8972 6.25718 19.8761 6.14962C19.8867 6.24642 19.8803 6.1755 19.9014 6.29382Z" fill="white"/>
<path d="M27.3101 5.4625C27.3101 5.51628 27.2889 5.59157 27.2784 5.6561C27.2889 5.58081 27.2995 5.52703 27.3101 5.4625Z" fill="white"/>
<path d="M23.5168 21.0691C20.907 16.1967 20.738 10.3779 19.6603 5L9.77114 6.9683C10.8383 15.2072 8.84134 18.3264 7.54172 19.4557C7.08737 19.8537 6.90772 20.4667 7.04508 21.0691C7.82697 24.5539 7.63677 39.7195 7.63677 39.7195L21.7735 43L24.5 40.7203L23.5168 39.7195V21.0691Z" fill="white"/>
<path d="M40.4709 19.4665C39.1712 18.3263 37.1848 15.2072 38.2414 6.97905L27.3735 5.01075C27.3735 5.01075 27.3524 5.18285 27.3101 5.45174C26.2746 10.55 26.0633 16.4011 23.5168 21.0691V39.7195L26.7395 43L40.3757 39.7195C40.3757 39.7195 40.3335 24.5432 40.9674 21.0691C41.0731 20.4667 40.9252 19.8537 40.4709 19.4557V19.4665Z" fill="white"/>
<path d="M19.9014 6.29382C20.9474 11.3598 21.0127 16.5086 23.5168 21.0691C26.0738 16.3903 26.2746 10.55 27.3101 5.45174C25.778 7.44155 21.2557 7.44155 19.7236 5.45174C19.7553 5.64534 19.7966 5.66697 19.8283 5.88208L19.9014 6.29382Z" fill="white"/>
<path d="M19.5754 4.10373C20.0292 4.06012 20.4517 4.36684 20.5432 4.82346C20.5599 4.90717 20.5737 4.99153 20.59 5.07541C21.1689 5.65907 22.2585 6.04411 23.5168 6.04416C24.786 6.04416 25.8832 5.6519 26.4582 5.05979C26.4609 5.041 26.4638 5.02377 26.466 5.00803C26.471 4.97217 26.4744 4.94414 26.4768 4.926C26.4779 4.91718 26.4792 4.91066 26.4797 4.90646C26.48 4.90437 26.4806 4.9024 26.4807 4.90158V4.90061C26.511 4.65515 26.6409 4.43302 26.84 4.28635C27.0394 4.13953 27.2907 4.08109 27.5344 4.12521L38.4016 6.09396C38.873 6.17934 39.195 6.6188 39.134 7.09396C38.1169 15.0142 40.0068 17.8185 41.008 18.7375C41.0264 18.7513 41.0462 18.7633 41.0637 18.7785C41.8107 19.4329 41.9994 20.3942 41.8537 21.2248L41.8527 21.2307C41.5524 22.8763 41.4035 27.4471 41.3342 31.7121C41.2999 33.8214 41.2854 35.8234 41.2795 37.2981C41.2765 38.035 41.2757 38.6401 41.2756 39.0608V39.717C41.2767 40.1339 40.9915 40.4974 40.5861 40.5949L26.9504 43.8752C26.6431 43.9491 26.3194 43.8565 26.0979 43.6311L24.4396 41.9436L22.3508 43.6906C22.1343 43.8716 21.8454 43.9409 21.5705 43.8772L7.43379 40.5969C7.02183 40.5013 6.7322 40.1311 6.7375 39.7082V39.6653C6.73783 39.6368 6.73886 39.5945 6.73945 39.5393C6.74065 39.4279 6.74153 39.2631 6.74336 39.0529C6.74702 38.6327 6.7513 38.0284 6.7541 37.2922C6.7597 35.819 6.75959 33.8194 6.73457 31.7121C6.70954 29.6036 6.65992 27.3935 6.56856 25.4973C6.47593 23.5751 6.34299 22.0494 6.16719 21.2658L6.16817 21.2649C5.96498 20.3673 6.22715 19.4104 6.94844 18.7785L6.95137 18.7766C7.93147 17.9249 9.92638 15.1696 8.8791 7.0842C8.81829 6.61468 9.13157 6.17857 9.5959 6.08615L19.4846 4.1174L19.5754 4.10373ZM19.0109 6.42893C19.0077 6.41566 19.0033 6.39809 18.9992 6.37717C18.9947 6.35369 18.9924 6.33357 18.9904 6.31955C18.989 6.30891 18.9869 6.29749 18.9855 6.28635C18.9721 6.21072 18.9583 6.13522 18.9445 6.05979L10.7629 7.68771C11.6148 15.4742 9.69791 18.7712 8.13399 20.1321C7.97118 20.2747 7.87876 20.498 7.90449 20.7561L7.92305 20.8694V20.8723C8.1382 21.8312 8.27479 23.5089 8.36641 25.4104C8.45928 27.3378 8.50923 29.5723 8.53438 31.6906C8.55954 33.8103 8.56051 35.8198 8.55488 37.299C8.55221 38.0028 8.54673 38.5869 8.54317 39.0061L21.5402 42.0217L23.174 40.6555L22.8752 40.3508C22.7099 40.1826 22.6174 39.9558 22.6174 39.7199V21.2932C21.747 19.6567 21.1712 17.9616 20.7492 16.2492C20.5059 15.3005 20.305 14.3432 20.1291 13.3869C19.8743 12.0015 19.6684 10.6007 19.4611 9.22873C19.3182 8.2826 19.1726 7.3489 19.0109 6.42893ZM28.1096 6.05881C27.8939 7.17732 27.7118 8.33408 27.5305 9.52072C27.327 10.8525 27.1222 12.2236 26.8693 13.5822C26.3781 16.2213 25.6911 18.8824 24.4172 21.2912V39.3508L27.0246 42.0051L39.4758 39.01C39.4759 38.59 39.4768 38.001 39.4797 37.2903C39.4856 35.8109 39.5 33.8016 39.5344 31.6828C39.6025 27.4911 39.7486 22.7359 40.0822 20.9074C40.1399 20.5695 40.0552 20.322 39.9182 20.174C39.9048 20.1636 39.89 20.1541 39.8772 20.1428C38.3176 18.7743 36.409 15.4828 37.2482 7.71311L28.1096 6.05881ZM26.0422 7.40061C25.2391 7.70629 24.3521 7.84396 23.5168 7.84396C22.695 7.84394 21.8232 7.71162 21.0305 7.41623C21.183 8.27141 21.3178 9.12256 21.4455 9.96311C21.639 11.2369 21.8204 12.48 22.0471 13.7072C22.1973 14.5207 22.3697 15.3193 22.5715 16.1028C22.8336 17.0833 23.143 18.0378 23.5207 18.9602C24.2487 17.1848 24.7226 15.2583 25.0959 13.2571C25.3429 11.9329 25.5432 10.5941 25.7492 9.25021C25.8439 8.63298 25.9406 8.01495 26.0422 7.40061Z" fill="#232527"/>
<path d="M20.0144 24C19.4544 24 19 24.4625 19 25.0325C19 25.6026 19.4544 26.0651 20.0144 26.0651C20.5744 26.0651 21.0287 25.6026 21.0287 25.0325C21.0287 24.4625 20.5744 24 20.0144 24Z" fill="#232527"/>
<path d="M20.0144 29.7436C19.4544 29.7436 19 30.2061 19 30.7761C19 31.3462 19.4544 31.8087 20.0144 31.8087C20.5744 31.8087 21.0287 31.3462 21.0287 30.7761C21.0287 30.2061 20.5744 29.7436 20.0144 29.7436Z" fill="#232527"/>
<path d="M20.0144 35.7665C19.4544 35.7665 19 36.229 19 36.799C19 37.3691 19.4544 37.8316 20.0144 37.8316C20.5744 37.8316 21.0287 37.3691 21.0287 36.799C21.0287 36.229 20.5744 35.7665 20.0144 35.7665Z" fill="#232527"/>
<path d="M29 22C29 21.4477 29.4477 21 30 21H35C35.5523 21 36 21.4477 36 22V23.5C36 24.0523 35.5523 24.5 35 24.5H30C29.4477 24.5 29 24.0523 29 23.5V22Z" fill="white"/>
<path d="M35.3008 22.001C35.3008 21.8353 35.1667 21.7012 35.001 21.7012H30.001C29.8353 21.7012 29.7012 21.8353 29.7012 22.001V23.501C29.7012 23.6667 29.8353 23.8008 30.001 23.8008H35.001C35.1667 23.8008 35.3008 23.6667 35.3008 23.501V22.001ZM36.7012 23.501C36.7012 24.4399 35.9399 25.2012 35.001 25.2012H30.001C29.0621 25.2012 28.3008 24.4399 28.3008 23.501V22.001C28.3008 21.0621 29.0621 20.3008 30.001 20.3008H35.001C35.9399 20.3008 36.7012 21.0621 36.7012 22.001V23.501Z" fill="#FBCD6C"/>
</svg>
