<svg width="48" height="48" viewBox="0 0 48 48" fill="none" xmlns="http://www.w3.org/2000/svg">
<path d="M19.9014 6.29382C19.8803 6.1755 19.8972 6.25718 19.8761 6.14962C19.8867 6.24642 19.8803 6.1755 19.9014 6.29382Z" fill="white"/>
<path d="M27.3101 5.4625C27.3101 5.51628 27.2889 5.59157 27.2784 5.6561C27.2889 5.58081 27.2995 5.52703 27.3101 5.4625Z" fill="white"/>
<path d="M23.5168 21.0691C20.907 16.1967 20.738 10.3779 19.6603 5L9.77114 6.9683C10.8383 15.2072 8.84134 18.3264 7.54172 19.4557C7.08737 19.8537 6.90772 20.4667 7.04508 21.0691C7.82697 24.5539 7.63677 39.7195 7.63677 39.7195L21.7735 43L24.5 40.7203L23.5168 39.7195V21.0691Z" fill="white"/>
<path d="M40.4709 19.4665C39.1712 18.3263 37.1848 15.2072 38.2414 6.97905L27.3735 5.01075C27.3735 5.01075 27.3524 5.18285 27.3101 5.45174C26.2746 10.55 26.0633 16.4011 23.5168 21.0691V39.7195L26.7395 43L40.3757 39.7195C40.3757 39.7195 40.3335 24.5432 40.9674 21.0691C41.0731 20.4667 40.9252 19.8537 40.4709 19.4557V19.4665Z" fill="white"/>
<path d="M19.9014 6.29382C20.9474 11.3598 21.0127 16.5086 23.5168 21.0691C26.0738 16.3903 26.2746 10.55 27.3101 5.45174C25.778 7.44155 21.2557 7.44155 19.7236 5.45174C19.7553 5.64534 19.7966 5.66697 19.8283 5.88208L19.9014 6.29382Z" fill="white"/>
<path d="M19.599 4.10349C20.0504 4.05988 20.4707 4.3666 20.5617 4.82321C20.5784 4.90693 20.5921 4.99128 20.6083 5.07517C21.1842 5.65882 22.2681 6.04386 23.5198 6.04392C24.7824 6.04392 25.8739 5.65166 26.4459 5.05954C26.4486 5.04075 26.4515 5.02352 26.4537 5.00778C26.4586 4.97193 26.462 4.94389 26.4644 4.92575C26.4655 4.91694 26.4668 4.91042 26.4673 4.90622C26.4675 4.90413 26.4682 4.90216 26.4683 4.90134V4.90036C26.4984 4.6549 26.6276 4.43278 26.8258 4.2861C27.0241 4.13929 27.2741 4.08085 27.5165 4.12497L38.3271 6.09372C38.796 6.1791 39.1164 6.61856 39.0557 7.09372C38.0439 15.0139 39.924 17.8183 40.9199 18.7373C40.9382 18.751 40.9579 18.763 40.9753 18.7783C41.7184 19.4326 41.9062 20.3939 41.7612 21.2246L41.7603 21.2304C41.4615 22.8761 41.3133 27.4469 41.2444 31.7119C41.2103 33.8212 41.1959 35.8232 41.19 37.2978C41.187 38.0348 41.1862 38.6398 41.1861 39.0605V39.7168C41.1873 40.1337 40.9035 40.4972 40.5002 40.5947L26.9355 43.875C26.6299 43.9489 26.3078 43.8562 26.0874 43.6308L24.4379 41.9433L22.3599 43.6904C22.1445 43.8714 21.8572 43.9406 21.5837 43.8769L7.5206 40.5966C7.11079 40.5011 6.82266 40.1308 6.82794 39.708V39.665C6.82827 39.6365 6.82929 39.5943 6.82988 39.539C6.83107 39.4277 6.83195 39.2628 6.83377 39.0527C6.83741 38.6325 6.84167 38.0281 6.84445 37.292C6.85003 35.8188 6.84991 33.8192 6.82502 31.7119C6.80012 29.6034 6.75076 27.3932 6.65987 25.497C6.56773 23.5748 6.43548 22.0491 6.2606 21.2656L6.26157 21.2646C6.05944 20.367 6.32025 19.4101 7.03778 18.7783L7.04069 18.7763C8.01569 17.9246 10.0002 15.1694 8.95838 7.08396C8.89788 6.61444 9.20953 6.17833 9.67145 6.08591L19.5086 4.11716L19.599 4.10349ZM19.0374 6.42868C19.0342 6.41542 19.0298 6.39785 19.0258 6.37692C19.0213 6.35345 19.019 6.33332 19.017 6.31931C19.0156 6.30866 19.0135 6.29725 19.0122 6.2861C18.9988 6.21047 18.985 6.13498 18.9714 6.05954L10.8324 7.68747C11.6799 15.4739 9.77292 18.771 8.21715 20.1318C8.05519 20.2745 7.96325 20.4978 7.98885 20.7558L8.00731 20.8691V20.872C8.22134 21.8309 8.35721 23.5087 8.44836 25.4101C8.54075 27.3375 8.59043 29.5721 8.61545 31.6904C8.64049 33.81 8.64145 35.8196 8.63585 37.2988C8.63319 38.0026 8.62774 38.5867 8.6242 39.0058L21.5536 42.0215L23.1788 40.6552L22.8816 40.3506C22.7172 40.1823 22.6252 39.9555 22.6251 39.7197V21.2929C21.7593 19.6565 21.1865 17.9613 20.7667 16.249C20.5246 15.3003 20.3247 14.343 20.1498 13.3867C19.8963 12.0013 19.6915 10.6004 19.4853 9.22849C19.3431 8.28236 19.1983 7.34866 19.0374 6.42868ZM28.0887 6.05856C27.8742 7.17708 27.693 8.33384 27.5126 9.52048C27.3101 10.8523 27.1065 12.2234 26.8549 13.582C26.3662 16.2211 25.6828 18.8821 24.4155 21.291V39.3506L27.0094 42.0049L39.3957 39.0097C39.3958 38.5897 39.3967 38.0008 39.3996 37.29C39.4055 35.8107 39.4197 33.8014 39.454 31.6826C39.5217 27.4909 39.667 22.7356 39.999 20.9072C40.0564 20.5692 39.9721 20.3217 39.8358 20.1738C39.8225 20.1634 39.8077 20.1538 39.795 20.1425C38.2435 18.7741 36.3449 15.4825 37.1797 7.71286L28.0887 6.05856ZM26.0321 7.40036C25.2331 7.70605 24.3508 7.84372 23.5198 7.84372C22.7024 7.84369 21.8351 7.71137 21.0465 7.41599C21.1982 8.27117 21.3323 9.12232 21.4593 9.96286C21.6518 11.2367 21.8322 12.4798 22.0578 13.707C22.2072 14.5204 22.3787 15.3191 22.5794 16.1025C22.8402 17.083 23.148 18.0375 23.5237 18.9599C24.2479 17.1846 24.7193 15.2581 25.0907 13.2568C25.3364 11.9326 25.5356 10.5939 25.7406 9.24997C25.8348 8.63274 25.931 8.01471 26.0321 7.40036Z" fill="#777777"/>
<path d="M20.0144 24C19.4544 24 19 24.4625 19 25.0325C19 25.6026 19.4544 26.0651 20.0144 26.0651C20.5744 26.0651 21.0287 25.6026 21.0287 25.0325C21.0287 24.4625 20.5744 24 20.0144 24Z" fill="#777777"/>
<path d="M20.0144 29.7436C19.4544 29.7436 19 30.2061 19 30.7761C19 31.3462 19.4544 31.8087 20.0144 31.8087C20.5744 31.8087 21.0287 31.3462 21.0287 30.7761C21.0287 30.2061 20.5744 29.7436 20.0144 29.7436Z" fill="#777777"/>
<path d="M20.0144 35.7665C19.4544 35.7665 19 36.229 19 36.799C19 37.3691 19.4544 37.8316 20.0144 37.8316C20.5744 37.8316 21.0287 37.3691 21.0287 36.799C21.0287 36.229 20.5744 35.7665 20.0144 35.7665Z" fill="#777777"/>
<path d="M29 22C29 21.4477 29.4477 21 30 21H35C35.5523 21 36 21.4477 36 22V23.5C36 24.0523 35.5523 24.5 35 24.5H30C29.4477 24.5 29 24.0523 29 23.5V22Z" fill="white"/>
<path d="M35.3008 22C35.3008 21.8343 35.1667 21.7002 35.001 21.7002H30.001C29.8353 21.7002 29.7012 21.8343 29.7012 22V23.5C29.7012 23.6657 29.8353 23.7998 30.001 23.7998H35.001C35.1667 23.7998 35.3008 23.6657 35.3008 23.5V22ZM36.7012 23.5C36.7012 24.4389 35.9399 25.2002 35.001 25.2002H30.001C29.0621 25.2002 28.3008 24.4389 28.3008 23.5V22C28.3008 21.0611 29.0621 20.2998 30.001 20.2998H35.001C35.9399 20.2998 36.7012 21.0611 36.7012 22V23.5Z" fill="#FBCD6C"/>
</svg>
