<svg width="48" height="48" viewBox="0 0 48 48" fill="none" xmlns="http://www.w3.org/2000/svg">
<path d="M43 23C43 32.9411 34.9411 41 25 41C15.0589 41 7 32.9411 7 23C7 13.0589 15.0589 5 25 5C34.9411 5 43 13.0589 43 23Z" fill="white"/>
<path d="M42.1016 23C42.1016 13.5559 34.446 5.90039 25.002 5.90039C15.5579 5.90039 7.90234 13.5559 7.90234 23C7.90234 32.4441 15.5579 40.0996 25.002 40.0996C34.446 40.0996 42.1016 32.4441 42.1016 23ZM43.9023 23C43.9023 33.4382 35.4401 41.9004 25.002 41.9004C14.5638 41.9004 6.10156 33.4382 6.10156 23C6.10156 12.5618 14.5638 4.09961 25.002 4.09961C35.4401 4.09961 43.9023 12.5618 43.9023 23Z" fill="#777777"/>
<path d="M37.1016 23C37.1016 16.3174 31.6846 10.9004 25.002 10.9004C18.3193 10.9004 12.9023 16.3174 12.9023 23C12.9023 29.6826 18.3193 35.0996 25.002 35.0996C31.6846 35.0996 37.1016 29.6826 37.1016 23ZM38.9023 23C38.9023 30.6768 32.6787 36.9004 25.002 36.9004C17.3252 36.9004 11.1016 30.6768 11.1016 23C11.1016 15.3232 17.3252 9.09961 25.002 9.09961C32.6787 9.09961 38.9023 15.3232 38.9023 23Z" fill="#777777"/>
<path d="M10.7273 43C9.62811 43 8.70249 42.1036 8.57025 40.9083L7 27H22L20.4297 40.9083C20.2975 42.1036 19.3719 43 18.2727 43H10.7273Z" fill="white"/>
<path d="M22.0017 26.0996C22.2579 26.0996 22.5019 26.2093 22.6726 26.4004C22.8433 26.5914 22.9249 26.8461 22.8962 27.1006L21.3259 41.0098C21.1494 42.5952 19.8935 43.9004 18.2742 43.9004H10.7293C9.10992 43.9004 7.85404 42.5952 7.6775 41.0098L6.10718 27.1006C6.07856 26.8461 6.16016 26.5914 6.33082 26.4004C6.50156 26.2093 6.74549 26.0996 7.00171 26.0996H22.0017ZM9.46656 40.8076V40.8096C9.55558 41.6134 10.1511 42.0996 10.7293 42.0996H18.2742C18.8523 42.0996 19.4478 41.6134 19.5369 40.8096V40.8076L20.9939 27.9004H8.00953L9.46656 40.8076Z" fill="#777777"/>
<path d="M5 25.5C5 24.6716 5.67157 24 6.5 24H22.5C23.3284 24 24 24.6716 24 25.5C24 26.3284 23.3284 27 22.5 27H6.5C5.67157 27 5 26.3284 5 25.5Z" fill="white"/>
<path d="M23.1016 25.5C23.1016 25.1686 22.8333 24.9004 22.502 24.9004H6.50195C6.17058 24.9004 5.90234 25.1686 5.90234 25.5C5.90234 25.8314 6.17058 26.0996 6.50195 26.0996H22.502C22.8333 26.0996 23.1016 25.8314 23.1016 25.5ZM24.9023 25.5C24.9023 26.8255 23.8274 27.9004 22.502 27.9004H6.50195C5.17647 27.9004 4.10156 26.8255 4.10156 25.5C4.10156 24.1745 5.17647 23.0996 6.50195 23.0996H22.502C23.8274 23.0996 24.9023 24.1745 24.9023 25.5Z" fill="#FBCD6C"/>
<path d="M5 22.5C5 21.6716 5.67157 21 6.5 21H22.5C23.3284 21 24 21.6716 24 22.5C24 23.3284 23.3284 24 22.5 24H6.5C5.67157 24 5 23.3284 5 22.5Z" fill="white"/>
<path d="M23.1016 22.5C23.1016 22.1686 22.8333 21.9004 22.502 21.9004H6.50195C6.17058 21.9004 5.90234 22.1686 5.90234 22.5C5.90234 22.8314 6.17058 23.0996 6.50195 23.0996H22.502C22.8333 23.0996 23.1016 22.8314 23.1016 22.5ZM24.9023 22.5C24.9023 23.8255 23.8274 24.9004 22.502 24.9004H6.50195C5.17647 24.9004 4.10156 23.8255 4.10156 22.5C4.10156 21.1745 5.17647 20.0996 6.50195 20.0996H22.502C23.8274 20.0996 24.9023 21.1745 24.9023 22.5Z" fill="#FBCD6C"/>
</svg>
