<svg width="48" height="48" viewBox="0 0 48 48" fill="none" xmlns="http://www.w3.org/2000/svg">
<path d="M37.9061 6.95755L42.5019 14.8415H42.4696C42.9766 15.7235 43.1276 16.756 42.8903 17.7455L37.4638 39.9991C37.0323 41.7631 35.4572 43 33.634 43H27.6357C26.0272 43 24.5999 42.0223 24.0001 40.5635C23.4108 42.0118 21.9835 43 20.3643 43H14.366C12.5536 43 10.9677 41.7631 10.5362 39.9991L5.10973 17.7455C4.87239 16.756 5.02338 15.7235 5.53043 14.8415L10.1262 6.95755C10.8383 5.74215 12.1329 5 13.5354 5H21.2058C22.2713 5 23.283 5.43885 24.0162 6.18839C24.7493 5.43885 25.7504 5 26.8266 5H34.497C35.8995 5 37.2048 5.74215 37.9061 6.95755Z" fill="white"/>
<path d="M34.4977 3.20117C36.2153 3.20119 37.8192 4.15035 38.6843 5.71402L43.28 13.9548C43.3235 14.033 43.3544 14.1163 43.3747 14.2018C43.8944 15.2754 44.0369 16.5028 43.7663 17.6822L43.7653 17.6863L38.3386 40.9439V40.945C37.8083 43.2103 35.8716 44.799 33.6344 44.799H27.6364C25.6468 44.799 23.884 43.5271 23.155 41.6349C23.0646 41.4002 23.0684 41.1368 23.1657 40.9052C23.2237 40.7669 23.2693 40.6302 23.2975 40.5051C23.4119 39.9999 23.8961 39.6869 24.3796 39.8059C24.8633 39.9252 25.1637 40.4322 25.0495 40.9378C25.026 41.0419 24.9964 41.1435 24.9655 41.243C25.4847 42.2567 26.5019 42.9169 27.6364 42.9169H33.6344C35.0437 42.9169 36.2577 41.9198 36.5905 40.4979L42.0163 17.2403C42.1986 16.4422 42.0827 15.6105 41.6901 14.8968C41.654 14.8311 41.6269 14.7617 41.6071 14.6907L37.1296 6.66221L37.1276 6.65813C36.5897 5.68364 35.5837 5.08327 34.4977 5.08326H26.8268C25.9977 5.08337 25.2249 5.43649 24.6559 6.04676C24.3091 6.41854 23.7394 6.42634 23.3835 6.06411C23.0275 5.70157 23.02 5.10525 23.3669 4.73317C24.2649 3.76999 25.4987 3.20129 26.8268 3.20117H34.4977Z" fill="#777777"/>
<path d="M33.5261 6.76587C34.531 6.76587 35.4469 7.33027 35.9685 8.22606L36.0681 8.40964L36.071 8.41593L39.5232 15.4746L39.5271 15.4819C39.8357 16.1264 39.9326 16.8798 39.7742 17.5988L39.7751 17.5998L35.1257 39.0045C34.825 40.4115 33.6567 41.3847 32.3288 41.3847H28.9089C27.6572 41.3845 26.5566 40.5129 26.1775 39.251L26.112 38.994L25.0115 33.8644C24.8999 33.3442 25.2019 32.8252 25.6863 32.7053C26.1706 32.5854 26.6537 32.91 26.7654 33.4302L27.8659 38.5597V38.5608C27.9768 39.0793 28.4103 39.4512 28.9089 39.4514H32.3288C32.835 39.4514 33.2626 39.0831 33.3718 38.5723L33.3728 38.5692L38.0222 17.1603L38.0242 17.1561C38.0792 16.9085 38.0488 16.6268 37.9294 16.3736L34.4802 9.32121C34.2885 8.93656 33.9213 8.70021 33.5261 8.70021H27.7976C27.4439 8.70033 27.1236 8.88182 26.9245 9.18274C26.6367 9.61796 26.0749 9.71952 25.6697 9.41037C25.2645 9.10114 25.1689 8.49767 25.4568 8.06242C25.9912 7.25458 26.8571 6.766 27.7976 6.76587H33.5261Z" fill="#FBCD6C"/>
<path d="M21.2077 3.61694C22.5239 3.61701 23.7687 4.17341 24.6677 5.11832L24.6745 5.12532H24.6736C24.9264 5.39638 25.1777 5.71777 25.3825 6.07957L26.9792 8.87727L26.9802 8.87827L29.9792 14.1556L29.9821 14.1596C30.603 15.2658 30.7889 16.5648 30.4978 17.8085L30.4968 17.8125L26.8054 33.2924C26.8013 33.3362 26.7962 33.3802 26.7859 33.4235L25.07 40.6063C25.0678 40.6156 25.0657 40.625 25.0632 40.6343C24.9971 40.8772 24.9184 41.0903 24.8552 41.2625C24.8532 41.268 24.8505 41.274 24.8484 41.2795C24.1307 43.125 22.3668 44.3832 20.3659 44.3832H14.3679C12.143 44.3832 10.1944 42.8278 9.66379 40.6063V40.6053L4.23703 17.8125L4.23605 17.8085C3.94491 16.5648 4.13078 15.2658 4.75168 14.1596L4.75461 14.1556L9.35031 6.07957L9.35129 6.07857C10.2243 4.55214 11.8141 3.61702 13.5368 3.61694H21.2077ZM13.5368 5.46141C12.4554 5.46149 11.4551 6.04553 10.904 7.0078L10.905 7.0088L6.31125 15.0778L6.31222 15.0788C5.91968 15.7782 5.80378 16.5933 5.98605 17.3754L11.4118 40.1682C11.7443 41.5601 12.9679 42.5388 14.3679 42.5388H20.3659C21.62 42.5388 22.723 41.7516 23.1726 40.6053C23.2373 40.429 23.2877 40.2913 23.3288 40.1402L25.0056 33.1144C25.0097 33.0714 25.0159 33.0279 25.0261 32.9854L28.7478 17.3754C28.9297 16.5948 28.8144 15.7814 28.4236 15.0828L25.4245 9.80651V9.80551L23.8288 7.0098L23.8269 7.0058C23.7098 6.79854 23.554 6.59458 23.3786 6.40565L23.2693 6.29662C22.7122 5.7665 21.9761 5.46147 21.2077 5.46141H13.5368Z" fill="#777777"/>
</svg>
