<svg width="48" height="48" viewBox="0 0 48 48" fill="none" xmlns="http://www.w3.org/2000/svg">
<path d="M7 39C5.4 38.6 5 37.8333 5 37.5V34V33.5V27.5L5.5 23.5L10 19.5C10.5 17.5 11.7 13.1 12.5 11.5C13.3 9.9 14.5 9.16667 15 9H31C33.4 9 34 9.66667 34 10L38 19.5C39 20.1667 41.2 21.8 42 23C42.8 24.2 43 24.8333 43 25V36.5C43 37.3 42.3333 38.5 42 39H38L36.5 38.5L36 37.5V35H12V38C12 38.5 9 39.5 7 39Z" fill="white"/>
<path d="M25.8408 27.9004C26.7555 27.9004 27.5146 27.8999 28.1328 27.9678C28.773 28.0381 29.3465 28.1894 29.873 28.5459C30.3996 28.9024 30.7535 29.3789 31.0566 29.9473C31.3491 30.4959 31.6301 31.2007 31.9697 32.0498L32.4355 33.2168C32.6201 33.6783 32.396 34.2021 31.9345 34.3867C31.4731 34.5712 30.9492 34.3462 30.7646 33.8848L30.2978 32.7178C29.9435 31.8319 29.7031 31.2354 29.4677 30.7939C29.2428 30.3722 29.0613 30.1696 28.8642 30.0361C28.6671 29.9027 28.4115 29.809 27.9365 29.7568C27.4392 29.7022 26.7951 29.7012 25.8408 29.7012H22.1591C21.205 29.7012 20.5617 29.7022 20.0644 29.7568C19.5893 29.809 19.3338 29.9027 19.1367 30.0361C18.9395 30.1696 18.7571 30.3721 18.5322 30.7939C18.2969 31.2353 18.0573 31.8321 17.7031 32.7178L17.2363 33.8848C17.0517 34.3462 16.5278 34.5711 16.0664 34.3867C15.605 34.2022 15.3801 33.6782 15.5644 33.2168L16.0312 32.0498C16.3709 31.2007 16.6518 30.4959 16.9443 29.9473C17.2474 29.3789 17.6013 28.9024 18.1279 28.5459C18.6545 28.1894 19.2279 28.0381 19.8681 27.9678C20.4862 27.8999 21.2446 27.9004 22.1591 27.9004H25.8408Z" fill="#232527"/>
<path d="M4.10156 37.043V32C4.10156 31.5029 4.5049 31.0996 5.00195 31.0996C5.49901 31.0996 5.90234 31.5029 5.90234 32V37.043C5.90234 37.3649 6.0841 37.6597 6.37207 37.8037C6.8127 38.024 6.97652 38.0996 7.16504 38.0996H9.83887C10.0274 38.0996 10.1912 38.024 10.6318 37.8037C10.9198 37.6597 11.1016 37.3649 11.1016 37.043V34.75C11.1016 34.2529 11.5049 33.8496 12.002 33.8496C12.499 33.8496 12.9023 34.2529 12.9023 34.75V37.043C12.9023 38.0466 12.3352 38.9651 11.4375 39.4141C11.1089 39.5783 10.5376 39.9004 9.83887 39.9004H7.16504C6.46635 39.9004 5.89496 39.5783 5.56641 39.4141C4.66874 38.9651 4.10156 38.0466 4.10156 37.043Z" fill="#232527"/>
<path d="M35.1016 37.043V34.75C35.1016 34.2529 35.5049 33.8496 36.002 33.8496C36.499 33.8496 36.9023 34.2529 36.9023 34.75V37.043C36.9023 37.3649 37.0841 37.6597 37.3721 37.8037C37.8127 38.024 37.9765 38.0996 38.165 38.0996H40.8389C41.0274 38.0996 41.1912 38.024 41.6318 37.8037C41.9198 37.6597 42.1016 37.3649 42.1016 37.043V32C42.1016 31.5029 42.5049 31.0996 43.002 31.0996C43.499 31.0996 43.9023 31.5029 43.9023 32V37.043C43.9023 38.0466 43.3352 38.9651 42.4375 39.4141C42.1089 39.5783 41.5376 39.9004 40.8389 39.9004H38.165C37.4664 39.9004 36.895 39.5783 36.5664 39.4141C35.6687 38.9651 35.1016 38.0466 35.1016 37.043Z" fill="#232527"/>
<path d="M40.6978 16.6968C41.1424 16.4745 41.6835 16.6546 41.9058 17.0991C42.1279 17.5436 41.9477 18.0838 41.5034 18.3062L39.6031 19.2564C39.1585 19.4786 38.6184 19.2985 38.396 18.854C38.1737 18.4095 38.3538 17.8683 38.7984 17.646L40.6978 16.6968Z" fill="#232527"/>
<path d="M7.30222 16.6968C6.85764 16.4745 6.3165 16.6546 6.09421 17.0991C5.87209 17.5436 6.05225 18.0838 6.49655 18.3062L8.39694 19.2564C8.84146 19.4786 9.38165 19.2985 9.60398 18.854C9.82627 18.4095 9.64621 17.8683 9.20163 17.646L7.30222 16.6968Z" fill="#232527"/>
<path d="M28.8838 8.10156C30.1639 8.10156 31.1918 8.10117 32.0195 8.18555C32.8647 8.2717 33.5909 8.45298 34.2451 8.87402C34.9073 9.30017 35.3469 9.87535 35.7197 10.5908C36.0788 11.2801 36.4076 12.1668 36.8105 13.2461L38.8418 18.6875L37.1562 19.3164L35.124 13.875C34.7057 12.7546 34.419 11.9909 34.123 11.4229C33.8407 10.881 33.586 10.5907 33.2705 10.3877C32.9471 10.1797 32.5346 10.0467 31.8369 9.97559C31.1216 9.90268 30.2009 9.90234 28.8838 9.90234H19.1143C17.7971 9.90234 16.8765 9.90268 16.1611 9.97559C15.4634 10.0467 15.0509 10.1797 14.7275 10.3877C14.412 10.5907 14.1573 10.881 13.875 11.4229C13.5791 11.9909 13.2923 12.7546 12.874 13.875L10.8418 19.3164L9.15625 18.6875L11.1875 13.2461C11.5904 12.1668 11.9192 11.2801 12.2783 10.5908C12.6511 9.87535 13.0908 9.30017 13.7529 8.87402C14.4072 8.45298 15.1334 8.2717 15.9785 8.18555C16.8063 8.10117 17.8341 8.10156 19.1143 8.10156H28.8838Z" fill="#232527"/>
<path d="M5.14602 23.7007C5.36831 23.2561 5.90847 23.0761 6.35306 23.2984L10.1529 25.1978C10.5974 25.4201 10.7785 25.9612 10.5562 26.4058C10.3339 26.8504 9.79275 27.0304 9.34817 26.8081L5.54837 24.9077C5.10379 24.6855 4.92373 24.1453 5.14602 23.7007Z" fill="#FBCD6C"/>
<path d="M42.9221 24.8337C42.8014 24.3518 42.3124 24.0589 41.8303 24.1794L38.0305 25.1296C37.5486 25.2503 37.2559 25.7384 37.3762 26.2204C37.4968 26.7026 37.9849 26.9961 38.4671 26.8757L42.2678 25.9255C42.7498 25.8048 43.0426 25.3158 42.9221 24.8337Z" fill="#FBCD6C"/>
<path d="M42.1016 26.002C42.1016 24.834 41.5413 23.8756 40.6494 22.9141C40.2018 22.4315 39.695 21.9733 39.1611 21.4951C38.7359 21.1142 38.2898 20.7152 37.876 20.3027H10.1279C9.71408 20.7152 9.26801 21.1142 8.84277 21.4951C8.30888 21.9733 7.8021 22.4315 7.35449 22.9141C6.46263 23.8756 5.90234 24.834 5.90234 26.002V31.5957C5.90235 32.3113 6.36643 32.7689 6.79785 32.8262L12.6611 33.6025H35.3428L41.2061 32.8262C41.6375 32.7689 42.1016 32.3113 42.1016 31.5957V26.002ZM43.9023 31.5957C43.9023 33.0476 42.9244 34.414 41.4424 34.6104L35.5205 35.3945C35.4815 35.3997 35.4417 35.4023 35.4023 35.4023H12.6016C12.5622 35.4023 12.5224 35.3997 12.4834 35.3945L6.56152 34.6104C5.0795 34.414 4.10157 33.0476 4.10156 31.5957V26.002C4.10156 24.1781 5.00678 22.7991 6.03516 21.6904C6.5477 21.1379 7.11437 20.6265 7.6416 20.1543C8.18065 19.6715 8.67418 19.2326 9.09766 18.7842L9.16406 18.7207C9.32669 18.5804 9.53517 18.502 9.75195 18.502H38.252L38.3438 18.5068C38.5574 18.5287 38.7574 18.6266 38.9062 18.7842C39.3297 19.2326 39.8233 19.6715 40.3623 20.1543C40.8895 20.6265 41.4562 21.1379 41.9688 21.6904C42.9971 22.7991 43.9023 24.1781 43.9023 26.002V31.5957Z" fill="#232527"/>
</svg>
