<svg width="48" height="48" viewBox="0 0 48 48" fill="none" xmlns="http://www.w3.org/2000/svg">
<path d="M37.9061 6.95755L42.5019 14.8415H42.4696C42.9766 15.7235 43.1276 16.756 42.8903 17.7455L37.4638 39.9991C37.0323 41.7631 35.4572 43 33.634 43H27.6357C26.0272 43 24.5999 42.0223 24.0001 40.5635C23.4108 42.0118 21.9835 43 20.3643 43H14.366C12.5536 43 10.9677 41.7631 10.5362 39.9991L5.10973 17.7455C4.87239 16.756 5.02338 15.7235 5.53043 14.8415L10.1262 6.95755C10.8383 5.74215 12.1329 5 13.5354 5H21.2058C22.2713 5 23.283 5.43885 24.0162 6.18839C24.7493 5.43885 25.7504 5 26.8266 5H34.497C35.8995 5 37.2048 5.74215 37.9061 6.95755Z" fill="white"/>
<path d="M34.4977 4.09961C36.2153 4.09962 37.8192 5.00779 38.6843 6.50391L43.28 14.3887C43.3235 14.4635 43.3544 14.5432 43.3747 14.625C43.8944 15.6522 44.0369 16.8266 43.7663 17.9551L43.7653 17.959L38.3386 40.2119V40.2129C37.8083 42.3803 35.8716 43.9004 33.6344 43.9004H27.6364C25.6468 43.9004 23.884 42.6835 23.155 40.873C23.0646 40.6485 23.0684 40.3965 23.1657 40.1748C23.2237 40.0425 23.2693 39.9117 23.2975 39.792C23.4119 39.3086 23.8961 39.0092 24.3796 39.123C24.8633 39.2372 25.1637 39.7223 25.0495 40.2061C25.026 40.3056 24.9964 40.4029 24.9655 40.498C25.4847 41.468 26.5019 42.0996 27.6364 42.0996H33.6344C35.0437 42.0996 36.2577 41.1456 36.5905 39.7852L42.0163 17.5322C42.1986 16.7686 42.0827 15.9729 41.6901 15.29C41.654 15.2271 41.6269 15.1607 41.6071 15.0928L37.1296 7.41113L37.1276 7.40723C36.5897 6.47483 35.5837 5.90041 34.4977 5.90039H26.8268C25.9977 5.9005 25.2249 6.23836 24.6559 6.82227C24.3091 7.17799 23.7394 7.18545 23.3835 6.83887C23.0275 6.49199 23.02 5.92143 23.3669 5.56543C24.2649 4.64385 25.4987 4.09972 26.8268 4.09961H34.4977Z" fill="#232527"/>
<path d="M33.5261 7.96094C34.531 7.96094 35.4469 8.48637 35.9685 9.32031L36.0681 9.49121L36.071 9.49707L39.5232 16.0684L39.5271 16.0752C39.8357 16.6752 39.9326 17.3766 39.7742 18.0459L39.7751 18.0469L35.1257 37.9736C34.825 39.2835 33.6567 40.1895 32.3288 40.1895H28.9089C27.6572 40.1893 26.5566 39.3779 26.1775 38.2031L26.112 37.9639L25.0115 33.1885C24.8999 32.7041 25.2019 32.221 25.6863 32.1094C26.1706 31.9978 26.6537 32.2999 26.7654 32.7842L27.866 37.5596V37.5605C27.9768 38.0432 28.4103 38.3895 28.9089 38.3896H32.3288C32.835 38.3896 33.2626 38.0468 33.3718 37.5713L33.3728 37.5684L38.0222 17.6377L38.0242 17.6338C38.0792 17.4033 38.0488 17.1411 37.9294 16.9053L34.4802 10.3398C34.2885 9.98175 33.9213 9.76172 33.5261 9.76172H27.7976C27.4439 9.76184 27.1236 9.93079 26.9245 10.2109C26.6367 10.6161 26.0749 10.7107 25.6697 10.4229C25.2645 10.135 25.1689 9.57317 25.4568 9.16797C25.9912 8.41591 26.8571 7.96106 27.7976 7.96094H33.5261Z" fill="#FBCD6C"/>
<path d="M21.2077 4.09961C22.5239 4.09967 23.7687 4.6429 24.6677 5.56543L24.6745 5.57227H24.6736C24.9264 5.8369 25.1777 6.15068 25.3825 6.50391L26.9792 9.23535L26.9802 9.23633L29.9792 14.3887L29.9821 14.3926C30.603 15.4725 30.7889 16.7408 30.4978 17.9551L30.4968 17.959L26.8054 33.0723C26.8013 33.115 26.7962 33.1579 26.7859 33.2002L25.07 40.2129C25.0678 40.222 25.0657 40.2312 25.0632 40.2402C24.9971 40.4774 24.9184 40.6854 24.8552 40.8535C24.8532 40.8589 24.8505 40.8648 24.8484 40.8701C24.1307 42.6719 22.3668 43.9004 20.3659 43.9004H14.3679C12.143 43.9004 10.1944 42.3818 9.66379 40.2129V40.2119L4.23703 17.959L4.23605 17.9551C3.94491 16.7408 4.13078 15.4726 4.75168 14.3926L4.75461 14.3887L9.35031 6.50391L9.35129 6.50293C10.2243 5.01265 11.8141 4.09969 13.5368 4.09961H21.2077ZM13.5368 5.90039C12.4554 5.90047 11.4551 6.47068 10.904 7.41016L10.905 7.41113L6.31125 15.2891L6.31222 15.29C5.91968 15.9729 5.80378 16.7686 5.98605 17.5322L11.4118 39.7852C11.7443 41.1441 12.9679 42.0996 14.3679 42.0996H20.3659C21.62 42.0996 22.723 41.3311 23.1726 40.2119C23.2373 40.0398 23.2877 39.9053 23.3288 39.7578L25.0056 32.8984C25.0097 32.8565 25.0159 32.814 25.0261 32.7725L28.7478 17.5322C28.9297 16.7701 28.8144 15.9759 28.4236 15.2939L25.4245 10.1426V10.1416L23.8288 7.41211L23.8269 7.4082C23.7098 7.20585 23.554 7.00672 23.3786 6.82227L23.2693 6.71582C22.7122 6.19825 21.9761 5.90045 21.2077 5.90039H13.5368Z" fill="#232527"/>
</svg>
