<svg width="48" height="48" viewBox="0 0 48 48" fill="none" xmlns="http://www.w3.org/2000/svg">
<path d="M6 16C6 14.8954 6.89543 14 8 14H40C41.1046 14 42 14.8954 42 16V33C42 37.4183 38.4183 41 34 41H14C9.58172 41 6 37.4183 6 33V16Z" fill="white"/>
<path d="M41.1016 16C41.1016 15.3925 40.6095 14.9004 40.002 14.9004H8.00195C7.39444 14.9004 6.90234 15.3925 6.90234 16V33C6.90234 36.9212 10.0807 40.0996 14.002 40.0996H34.002C37.9232 40.0996 41.1016 36.9212 41.1016 33V16ZM42.9023 33C42.9023 37.9153 38.9173 41.9004 34.002 41.9004H14.002C9.08662 41.9004 5.10156 37.9153 5.10156 33V16C5.10156 14.3984 6.40033 13.0996 8.00195 13.0996H40.002C41.6036 13.0996 42.9023 14.3984 42.9023 16V33Z" fill="#777777"/>
<path d="M10 12C10 10.8954 10.8954 10 12 10H15H33H36C37.1046 10 38 10.8954 38 12V31C38 34.3137 35.3137 37 32 37H16C12.6863 37 10 34.3137 10 31V12Z" fill="white"/>
<path d="M37.1016 12C37.1016 11.3925 36.6095 10.9004 36.002 10.9004H12.002C11.3944 10.9004 10.9023 11.3925 10.9023 12V31C10.9023 33.8167 13.1853 36.0996 16.002 36.0996H32.002C34.8186 36.0996 37.1016 33.8167 37.1016 31V12ZM38.9023 31C38.9023 34.8108 35.8127 37.9004 32.002 37.9004H16.002C12.1912 37.9004 9.10156 34.8108 9.10156 31V12C9.10156 10.3984 10.4003 9.09961 12.002 9.09961H36.002C37.6036 9.09961 38.9023 10.3984 38.9023 12V31Z" fill="#777777"/>
<path d="M17 5.5L14.5 10L24 19L33 10L31 5L17 5.5Z" fill="white"/>
<path d="M13.8578 9.39149C14.2051 9.03672 14.7747 9.03024 15.1303 9.37686L36.6303 30.3383C36.9857 30.685 36.9922 31.2536 36.6449 31.6084C36.2976 31.9632 35.728 31.9697 35.3725 31.6231L13.8725 10.6616C13.517 10.3149 13.5105 9.74636 13.8578 9.39149Z" fill="#FBCD6C"/>
<path d="M31.6215 4.09961L31.7563 4.1084C32.0665 4.14924 32.3397 4.33041 32.4827 4.59668L35.0235 9.3252C35.2099 9.6724 35.1362 10.0921 34.8417 10.3662L28.4901 16.2773C28.1132 16.6281 27.5037 16.6275 27.1282 16.2754C26.7528 15.9233 26.7545 15.3537 27.1314 15.0029L32.9875 9.54981L31.3581 6.51465L24.6794 12.7314C24.3024 13.0819 23.6928 13.0806 23.3175 12.7285C22.9421 12.3764 22.9437 11.8068 23.3206 11.4561L29.2897 5.90039H16.9367L14.1513 10.4473C13.887 10.8786 13.2981 11.0282 12.8364 10.7813C12.3748 10.5343 12.2147 9.9841 12.479 9.55274L15.5424 4.55273L15.6135 4.45313C15.7942 4.2324 16.0763 4.09961 16.3786 4.09961H31.6215Z" fill="#777777"/>
<path d="M16.6137 5.37883C16.9484 5.01927 17.5048 5.00588 17.8561 5.34855L38.36 25.3486C38.7111 25.6914 38.7242 26.2612 38.3896 26.621C38.0549 26.9806 37.4985 26.994 37.1472 26.6513L16.6432 6.65129C16.2922 6.30845 16.2791 5.73863 16.6137 5.37883Z" fill="#777777"/>
</svg>
