<svg width="48" height="48" viewBox="0 0 48 48" fill="none" xmlns="http://www.w3.org/2000/svg">
<path d="M41 8C42.1046 8 43 8.89543 43 10L43 25C43 26.1046 42.1046 27 41 27L11 27C9.89543 27 9 26.1046 9 25L9 10C9 8.89543 9.89543 8 11 8L41 8Z" fill="white"/>
<path d="M40.998 26.0996C41.6056 26.0996 42.0977 25.6075 42.0977 25L42.0977 10C42.0977 9.39249 41.6056 8.90039 40.998 8.90039L10.998 8.90039C10.3905 8.90039 9.89844 9.39249 9.89844 10L9.89844 25C9.89844 25.6075 10.3905 26.0996 10.998 26.0996L40.998 26.0996ZM10.998 27.9004C9.39642 27.9004 8.09766 26.6016 8.09766 25L8.09766 10C8.09766 8.39837 9.39642 7.09961 10.998 7.09961L40.998 7.09961C42.5997 7.09961 43.8984 8.39837 43.8984 10L43.8984 25C43.8984 26.6016 42.5997 27.9004 40.998 27.9004L10.998 27.9004Z" fill="#777777"/>
<path d="M39.002 7.09961C39.499 7.09961 39.9023 7.50294 39.9023 8C39.9023 8.49706 39.499 8.90039 39.002 8.90039C33.109 8.90039 29.0434 9.95315 26.1533 11.4121C23.2713 12.8671 21.4997 14.7544 20.2334 16.5234C19.6223 17.3772 19.1023 18.4247 18.5537 19.582C18.0173 20.7139 17.452 21.9546 16.7764 23.0762C16.0971 24.2039 15.2704 25.2752 14.167 26.0635C13.0472 26.8635 11.6861 27.3408 10.002 27.3408C9.50498 27.3408 9.10169 26.9384 9.10156 26.4414C9.10156 25.9443 9.5049 25.541 10.002 25.541C11.3178 25.541 12.3122 25.1775 13.1211 24.5996C13.9464 24.01 14.6217 23.1662 15.2354 22.1475C15.8526 21.1227 16.3715 19.9851 16.9277 18.8115C17.4719 17.6634 18.0536 16.4782 18.7705 15.4766C20.1604 13.5348 22.1391 11.4219 25.3428 9.80469C28.5386 8.19148 32.8952 7.09961 39.002 7.09961ZM43.002 11.0996C43.499 11.0996 43.9023 11.5029 43.9023 12C43.9023 12.4971 43.499 12.9004 43.002 12.9004C38.3248 12.9004 35.2044 13.5162 32.9766 14.4541C30.7691 15.3836 29.3789 16.6535 28.1934 18.0762C27.5214 18.8826 26.9708 19.8153 26.4434 20.8027C25.9328 21.7586 25.4134 22.8285 24.8643 23.749C23.7409 25.632 22.2373 27.3408 19.502 27.3408C19.005 27.3408 18.6017 26.9383 18.6016 26.4414C18.6016 25.9444 19.0049 25.541 19.502 25.541C21.2664 25.541 22.2987 24.5363 23.3184 22.8271C23.8407 21.9516 24.2947 21.0049 24.8555 19.9551C25.3994 18.9368 26.0189 17.8739 26.8105 16.9238C28.1249 15.3466 29.7351 13.8664 32.2773 12.7959C34.7995 11.7339 38.1794 11.0996 43.002 11.0996ZM24.002 7.09961C24.499 7.09961 24.9023 7.50295 24.9023 8C24.9023 8.49705 24.499 8.90039 24.002 8.90039C21.7615 8.90039 20.0911 9.36984 18.7646 10.0508C17.4301 10.7359 16.4003 11.6563 15.4609 12.626C14.5638 13.552 13.6412 14.6515 12.6963 15.4404C11.6961 16.2754 10.5296 16.9004 9.00195 16.9004C8.5049 16.9004 8.10157 16.4971 8.10156 16C8.10156 15.5029 8.5049 15.0996 9.00195 15.0996C9.9741 15.0996 10.7455 14.7244 11.542 14.0596C12.3937 13.3486 13.1278 12.4478 14.168 11.374C15.1661 10.3437 16.3551 9.26408 17.9424 8.44922C19.5378 7.63018 21.4924 7.09961 24.002 7.09961Z" fill="#777777"/>
<path d="M37 22C38.1046 22 39 22.8954 39 24L39 39C39 40.1046 38.1046 41 37 41L7 41C5.89543 41 5 40.1046 5 39L5 24C5 22.8954 5.89543 22 7 22L37 22Z" fill="white"/>
<path d="M39.002 23.8938C39.499 23.8938 39.9023 24.2971 39.9023 24.7942C39.9023 25.2912 39.499 25.6946 39.002 25.6946C37.3567 25.6946 35.6508 25.9774 34.0156 26.926C32.3833 27.8732 30.7438 29.5283 29.3066 32.4026C26.9152 37.1855 22.9241 39.5635 19.0107 40.7375C15.1197 41.9049 11.2475 41.9006 9.00195 41.9006C8.5049 41.9006 8.10156 41.4973 8.10156 41.0002C8.10156 40.5032 8.5049 40.0999 9.00195 40.0999C11.2564 40.0999 14.8843 40.0956 18.4932 39.0129C22.0798 37.9369 25.5887 35.8149 27.6973 31.5979C29.26 28.4725 31.1208 26.5244 33.1133 25.3684C35.1029 24.2142 37.1473 23.8938 39.002 23.8938ZM20.6016 22.5588C20.6016 22.0618 21.0049 21.6584 21.502 21.6584C21.999 21.6584 22.4023 22.0618 22.4023 22.5588C22.4023 25.6471 20.7599 29.2641 17.54 31.6633C15.5998 33.109 13.4272 33.7018 11.2744 33.9417C9.15068 34.1782 6.94338 34.0764 5.00195 34.0764C4.5049 34.0764 4.10156 33.6731 4.10156 33.176C4.10181 32.6792 4.50505 32.2766 5.00195 32.2766C7.06028 32.2766 9.08365 32.3745 11.0752 32.1526C13.0378 31.9339 14.8663 31.4102 16.4639 30.22C19.2439 28.1485 20.6016 25.0588 20.6016 22.5588ZM13.6016 22.5588C13.6016 22.0618 14.0049 21.6584 14.502 21.6584C14.999 21.6584 15.4023 22.0618 15.4023 22.5588C15.4023 24.3716 14.995 25.8101 14.2627 26.929C13.5298 28.0486 12.5165 28.7786 11.4219 29.2522C9.28352 30.1773 6.71358 30.1643 5.00195 30.1643C4.50495 30.1643 4.10166 29.7619 4.10156 29.2649C4.10156 28.7678 4.5049 28.3645 5.00195 28.3645C6.79027 28.3645 8.97041 28.3521 10.707 27.6008C11.5498 27.2362 12.2554 26.7088 12.7568 25.9426C13.2588 25.1755 13.6016 24.0989 13.6016 22.5588Z" fill="#FBCD6C"/>
<path d="M36.998 40.0996C37.6056 40.0996 38.0977 39.6075 38.0977 39L38.0977 24C38.0977 23.3925 37.6056 22.9004 36.998 22.9004L6.99805 22.9004C6.39053 22.9004 5.89844 23.3925 5.89844 24L5.89844 39C5.89844 39.6075 6.39053 40.0996 6.99805 40.0996L36.998 40.0996ZM6.99805 41.9004C5.39642 41.9004 4.09766 40.6016 4.09766 39L4.09766 24C4.09766 22.3984 5.39642 21.0996 6.99805 21.0996L36.998 21.0996C38.5997 21.0996 39.8984 22.3984 39.8984 24L39.8984 39C39.8984 40.6016 38.5997 41.9004 36.998 41.9004L6.99805 41.9004Z" fill="#777777"/>
</svg>
