<svg width="48" height="48" viewBox="0 0 48 48" fill="none" xmlns="http://www.w3.org/2000/svg">
<path d="M6 16C6 14.8954 6.89543 14 8 14H40C41.1046 14 42 14.8954 42 16V33C42 37.4183 38.4183 41 34 41H14C9.58172 41 6 37.4183 6 33V16Z" fill="white"/>
<path d="M41.1016 16C41.1016 15.3925 40.6095 14.9004 40.002 14.9004H8.00195C7.39444 14.9004 6.90234 15.3925 6.90234 16V33C6.90234 36.9212 10.0807 40.0996 14.002 40.0996H34.002C37.9232 40.0996 41.1016 36.9212 41.1016 33V16ZM42.9023 33C42.9023 37.9153 38.9173 41.9004 34.002 41.9004H14.002C9.08662 41.9004 5.10156 37.9153 5.10156 33V16C5.10156 14.3984 6.40033 13.0996 8.00195 13.0996H40.002C41.6036 13.0996 42.9023 14.3984 42.9023 16V33Z" fill="#232527"/>
<path d="M10 12C10 10.8954 10.8954 10 12 10H15H33H36C37.1046 10 38 10.8954 38 12V31C38 34.3137 35.3137 37 32 37H16C12.6863 37 10 34.3137 10 31V12Z" fill="white"/>
<path d="M37.1016 12C37.1016 11.3925 36.6095 10.9004 36.002 10.9004H12.002C11.3944 10.9004 10.9023 11.3925 10.9023 12V31C10.9023 33.8167 13.1853 36.0996 16.002 36.0996H32.002C34.8186 36.0996 37.1016 33.8167 37.1016 31V12ZM38.9023 31C38.9023 34.8108 35.8127 37.9004 32.002 37.9004H16.002C12.1912 37.9004 9.10156 34.8108 9.10156 31V12C9.10156 10.3984 10.4003 9.09961 12.002 9.09961H36.002C37.6036 9.09961 38.9023 10.3984 38.9023 12V31Z" fill="#232527"/>
<path d="M17 5.5L14.5 10L24 19L33 10L31 5L17 5.5Z" fill="white"/>
<path d="M13.8578 9.3705C14.2051 9.01508 14.7747 9.00859 15.1303 9.35585L36.6303 30.3559C36.9857 30.7032 36.9922 31.2728 36.6449 31.6283C36.2976 31.9837 35.728 31.9902 35.3725 31.643L13.8725 10.643C13.517 10.2956 13.5105 9.72603 13.8578 9.3705Z" fill="#FBCD6C"/>
<path d="M31.1064 4.09961L31.2323 4.1084C31.5222 4.14924 31.7774 4.33041 31.911 4.59668L34.2851 9.3252C34.4592 9.6724 34.3903 10.0921 34.1151 10.3662L28.1806 16.2773C27.8284 16.6281 27.2589 16.6275 26.9081 16.2754C26.5574 15.9233 26.559 15.3537 26.911 15.0029L32.3827 9.5498L30.8603 6.51465L24.62 12.7314C24.2678 13.0819 23.6982 13.0806 23.3476 12.7285C22.9968 12.3764 22.9983 11.8068 23.3505 11.4561L28.9276 5.90039H17.3857L14.7831 10.4473C14.5362 10.8786 13.986 11.0282 13.5546 10.7812C13.1233 10.5343 12.9737 9.9841 13.2206 9.55273L16.0829 4.55273L16.1493 4.45312C16.3182 4.2324 16.5818 4.09961 16.8642 4.09961H31.1064Z" fill="#232527"/>
<path d="M16.35 5.37834C16.6929 5.01878 17.2627 5.00539 17.6225 5.34806L38.6225 25.3481C38.982 25.6909 38.9954 26.2607 38.6528 26.6205C38.3099 26.9801 37.7401 26.9935 37.3803 26.6508L16.3803 6.6508C16.0207 6.30796 16.0073 5.73814 16.35 5.37834Z" fill="#232527"/>
</svg>
