<svg width="48" height="48" viewBox="0 0 48 48" fill="none" xmlns="http://www.w3.org/2000/svg">
<path d="M6 10C6 8.89543 6.89543 8 8 8H35C36.1046 8 37 8.89543 37 10V36C37 37.1046 36.1046 38 35 38H8C6.89543 38 6 37.1046 6 36V10Z" fill="white"/>
<path d="M10 14C10 12.8954 10.8954 12 12 12H15.0184H37.9816H41C42.1046 12 43 12.8954 43 14V37C43 40.3137 40.3137 43 37 43H16C12.6863 43 10 40.3137 10 37V14Z" fill="white"/>
<path d="M42.1016 14C42.1016 13.3925 41.6095 12.9004 41.002 12.9004H12.002C11.3944 12.9004 10.9023 13.3925 10.9023 14V37C10.9023 39.8167 13.1853 42.0996 16.002 42.0996H37.002C39.8186 42.0996 42.1016 39.8167 42.1016 37V14ZM43.9023 37C43.9023 40.8108 40.8127 43.9004 37.002 43.9004H16.002C12.1912 43.9004 9.10156 40.8108 9.10156 37V14C9.10156 12.3984 10.4003 11.0996 12.002 11.0996H41.002C42.6036 11.0996 43.9023 12.3984 43.9023 14V37Z" fill="#777777"/>
<path d="M6 10C6 8.89543 6.89543 8 8 8H11.0184H33.9816H37C38.1046 8 39 8.89543 39 10V33C39 36.3137 36.3137 39 33 39H12C8.68629 39 6 36.3137 6 33V10Z" fill="white"/>
<path d="M38.1016 10C38.1016 9.39249 37.6095 8.90039 37.002 8.90039H8.00195C7.39444 8.90039 6.90234 9.39249 6.90234 10V33C6.90234 35.8167 9.1853 38.0996 12.002 38.0996H33.002C35.8186 38.0996 38.1016 35.8167 38.1016 33V10ZM39.9023 33C39.9023 36.8108 36.8127 39.9004 33.002 39.9004H12.002C8.19119 39.9004 5.10156 36.8108 5.10156 33V10C5.10156 8.39837 6.40033 7.09961 8.00195 7.09961H37.002C38.6036 7.09961 39.9023 8.39837 39.9023 10V33Z" fill="#777777"/>
<path d="M22 6.01242L23 6L26 30.1916L22.5 34L19 30.1916L22 6.01242Z" fill="white"/>
<path d="M23.0761 5.10254C23.4968 5.13697 23.8426 5.46317 23.8955 5.88965L26.8955 30.0811C26.9279 30.343 26.8436 30.6064 26.665 30.8008L23.165 34.6094C22.9946 34.7948 22.7538 34.9004 22.5019 34.9004C22.2501 34.9004 22.0093 34.7948 21.8388 34.6094L18.3388 30.8008C18.1602 30.6064 18.076 30.343 18.1084 30.0811L21.1084 5.90137L21.123 5.81934C21.2117 5.41433 21.5694 5.11755 21.9912 5.1123L22.9912 5.09961L23.0761 5.10254ZM19.9463 29.8887L22.5019 32.6689L25.0566 29.8887L22.5019 9.28906L19.9463 29.8887Z" fill="#FBCD6C"/>
<path d="M29.0444 5H16.1406L22.5925 10.3766L29.0444 5Z" fill="white"/>
<path d="M29.042 4.09961C29.4208 4.09961 29.7596 4.33721 29.8887 4.69336C30.0177 5.04965 29.9093 5.44883 29.6182 5.69141L23.167 11.0684C22.8334 11.3464 22.3484 11.3462 22.0147 11.0684L15.5625 5.69141C15.2714 5.44883 15.163 5.04965 15.292 4.69336C15.421 4.33712 15.7598 4.09961 16.1387 4.09961H29.042ZM22.5899 9.20508L26.5557 5.90039H18.625L22.5899 9.20508Z" fill="#777777"/>
<path d="M16.1403 5L22.5922 9.30127L19.5 15.5L14 8L16.1403 5Z" fill="white"/>
<path d="M15.4086 4.47751C15.6908 4.08191 16.2366 3.98139 16.641 4.25094L23.0931 8.5527C23.4702 8.80438 23.6012 9.29735 23.3988 9.70309L20.307 15.9013C20.1669 16.1821 19.8902 16.3698 19.5775 16.3965C19.265 16.423 18.9613 16.2851 18.7758 16.0322L13.2758 8.53219C13.046 8.21891 13.0433 7.79377 13.2689 7.47751L15.4086 4.47751ZM15.1117 7.99215L19.3539 13.7773L21.434 9.60934L16.3675 6.23239L15.1117 7.99215Z" fill="#777777"/>
<path d="M29.0433 5L22.5914 9.30127L25.5 15.5L31 8L29.0433 5Z" fill="white"/>
<path d="M29.2232 4.11823C28.9879 4.06992 28.7425 4.11777 28.5425 4.25104L22.0904 8.5528C21.7202 8.7999 21.5859 9.28063 21.775 9.68366L24.6842 15.8819C24.8191 16.1695 25.0955 16.3648 25.4117 16.3956C25.7277 16.4262 26.0364 16.2883 26.2242 16.0323L31.7242 8.53229C31.9457 8.23023 31.957 7.82266 31.7525 7.50885L29.7955 4.50885L29.7427 4.43561C29.6122 4.2735 29.4289 4.16052 29.2232 4.11823ZM29.9049 7.96979L25.6695 13.7452L23.734 9.62018L28.7857 6.25299L29.9049 7.96979Z" fill="#777777"/>
</svg>
