<svg width="48" height="48" viewBox="0 0 48 48" fill="none" xmlns="http://www.w3.org/2000/svg">
<path d="M5 23C5 17.4772 9.47715 13 15 13H33C38.5228 13 43 17.4772 43 23V37C43 39.2091 41.2091 41 39 41H9C6.79086 41 5 39.2091 5 37V23Z" fill="white"/>
<path d="M42.1016 23C42.1016 17.9742 38.0277 13.9004 33.002 13.9004H15.002C9.97616 13.9004 5.90234 17.9742 5.90234 23V37C5.90234 38.7121 7.28987 40.0996 9.00195 40.0996H39.002C40.714 40.0996 42.1016 38.7121 42.1016 37V23ZM43.9023 37C43.9023 39.7062 41.7081 41.9004 39.002 41.9004H9.00195C6.29576 41.9004 4.10156 39.7062 4.10156 37V23C4.10156 16.9801 8.98205 12.0996 15.002 12.0996H33.002C39.0219 12.0996 43.9023 16.9801 43.9023 23V37Z" fill="#232527"/>
<path d="M35.1016 23C35.1016 16.2105 30.2556 10.9004 24.502 10.9004C18.7483 10.9004 13.9023 16.2105 13.9023 23C13.9023 23.4971 13.499 23.9004 13.002 23.9004C12.5049 23.9004 12.1016 23.4971 12.1016 23C12.1016 15.4301 17.5531 9.09961 24.502 9.09961C31.4508 9.09961 36.9023 15.4301 36.9023 23C36.9023 23.4971 36.499 23.9004 36.002 23.9004C35.5049 23.9004 35.1016 23.4971 35.1016 23Z" fill="#232527"/>
<path d="M23.6046 11.1081C23.6046 13.377 22.5474 15.2162 17.4425 15.2162C12.3376 15.2162 8.19922 12.1351 8.19922 11.1081C8.19922 10.0811 12.3376 7 17.4425 7C22.5474 7 23.6046 8.83926 23.6046 11.1081Z" fill="white"/>
<path d="M22.7031 11.1084C22.7031 10.1094 22.4734 9.40011 21.8633 8.89746C21.2031 8.3539 19.9211 7.90039 17.4404 7.90039C15.0633 7.90041 12.8975 8.61984 11.3301 9.46191C10.5464 9.88295 9.93574 10.3223 9.53516 10.6934C9.35302 10.8621 9.22897 11.0025 9.15332 11.1074C9.22893 11.2125 9.35242 11.3542 9.53516 11.5234C9.93578 11.8945 10.5464 12.3339 11.3301 12.7549C12.8975 13.597 15.0633 14.3164 17.4404 14.3164C19.9213 14.3164 21.2032 13.862 21.8633 13.3184C22.4734 12.8158 22.7031 12.1073 22.7031 11.1084ZM24.5029 11.1084C24.5029 12.3781 24.2024 13.7239 23.0078 14.708C21.863 15.6509 20.0638 16.1162 17.4404 16.1162C14.7127 16.1162 12.2565 15.2951 10.4785 14.3398C9.58992 13.8624 8.84725 13.339 8.3125 12.8438C8.04639 12.5972 7.81237 12.3405 7.63867 12.083C7.50133 11.8794 7.3432 11.5904 7.30566 11.2549L7.29688 11.1084L7.30566 10.9619C7.34306 10.6263 7.5013 10.3375 7.63867 10.1338C7.81237 9.87628 8.04638 9.61956 8.3125 9.37305C8.84731 8.87765 9.58969 8.3535 10.4785 7.87598C12.2565 6.92077 14.7127 6.09963 17.4404 6.09961C20.064 6.09961 21.863 6.56574 23.0078 7.50879C24.2025 8.49298 24.5029 9.83857 24.5029 11.1084Z" fill="#232527"/>
<path d="M19.2268 9.47087C18.0153 9.36815 16.5762 9.43795 15.2102 9.7111C14.7228 9.80863 14.4067 10.2833 14.5041 10.7707C14.6016 11.258 15.0763 11.5742 15.5637 11.4767C16.765 11.2365 18.0336 11.1756 19.0744 11.2638C19.5951 11.308 20.0368 11.3881 20.3723 11.4894C20.731 11.5979 20.8729 11.7029 20.9006 11.7316C21.2455 12.0895 21.8161 12.1 22.174 11.755C22.5317 11.4102 22.542 10.8405 22.1975 10.4826C21.8517 10.1238 21.3576 9.90624 20.8928 9.76579C20.404 9.61813 19.8323 9.52221 19.2268 9.47087Z" fill="#FBCD6C"/>
<path d="M24.5946 11.1081C24.5946 13.377 25.6519 15.2162 30.7568 15.2162C35.8617 15.2162 40 12.1351 40 11.1081C40 10.0811 35.8617 7 30.7568 7C25.6519 7 24.5946 8.83926 24.5946 11.1081Z" fill="white"/>
<path d="M25.4922 11.1084C25.4922 10.1094 25.7219 9.40011 26.332 8.89746C26.9922 8.3539 28.2742 7.90039 30.7549 7.90039C33.132 7.90041 35.2978 8.61984 36.8652 9.46191C37.6489 9.88295 38.2596 10.3223 38.6602 10.6934C38.8423 10.8621 38.9663 11.0025 39.042 11.1074C38.9664 11.2125 38.8429 11.3542 38.6602 11.5234C38.2595 11.8945 37.6489 12.3339 36.8652 12.7549C35.2978 13.597 33.132 14.3164 30.7549 14.3164C28.274 14.3164 26.9921 13.862 26.332 13.3184C25.7219 12.8158 25.4922 12.1073 25.4922 11.1084ZM23.6924 11.1084C23.6924 12.3781 23.9929 13.7239 25.1875 14.708C26.3324 15.6509 28.1315 16.1162 30.7549 16.1162C33.4826 16.1162 35.9388 15.2951 37.7168 14.3398C38.6054 13.8624 39.3481 13.339 39.8828 12.8438C40.1489 12.5972 40.3829 12.3405 40.5566 12.083C40.694 11.8794 40.8521 11.5904 40.8896 11.2549L40.8984 11.1084L40.8896 10.9619C40.8523 10.6263 40.694 10.3375 40.5566 10.1338C40.3829 9.87628 40.1489 9.61956 39.8828 9.37305C39.348 8.87765 38.6056 8.3535 37.7168 7.87598C35.9388 6.92077 33.4826 6.09963 30.7549 6.09961C28.1313 6.09961 26.3323 6.56574 25.1875 7.50879C23.9928 8.49298 23.6924 9.83857 23.6924 11.1084Z" fill="#232527"/>
<path d="M28.9724 9.47087C30.1839 9.36815 31.623 9.43795 32.989 9.7111C33.4764 9.80863 33.7926 10.2833 33.6951 10.7707C33.5976 11.258 33.1229 11.5742 32.6355 11.4767C31.4342 11.2365 30.1657 11.1756 29.1248 11.2638C28.6041 11.308 28.1624 11.3881 27.8269 11.4894C27.4682 11.5979 27.3263 11.7029 27.2986 11.7316C26.9537 12.0895 26.3831 12.1 26.0252 11.755C25.6675 11.4102 25.6572 10.8405 26.0017 10.4826C26.3476 10.1238 26.8416 9.90624 27.3064 9.76579C27.7952 9.61813 28.3669 9.52221 28.9724 9.47087Z" fill="#FBCD6C"/>
<path d="M26.1081 11.1081C26.1081 13.377 26.1081 15.2162 24.0541 15.2162C22 15.2162 22 13.377 22 11.1081C22 8.83926 22 7 24.0541 7C26.1081 7 26.1081 8.83926 26.1081 11.1081Z" fill="white"/>
<path d="M25.2061 11.1084C25.2061 9.9143 25.1951 9.06491 24.9991 8.49707C24.9125 8.24639 24.8109 8.12356 24.7139 8.05371C24.6169 7.98393 24.4308 7.90039 24.0518 7.90039C23.6731 7.90044 23.4876 7.98395 23.3907 8.05371C23.2936 8.12354 23.1921 8.24624 23.1055 8.49707C22.9094 9.06491 22.8985 9.91423 22.8985 11.1084C22.8985 12.3022 22.9095 13.151 23.1055 13.7188C23.1921 13.9696 23.2936 14.0933 23.3907 14.1631C23.4877 14.2328 23.6735 14.3164 24.0518 14.3164C24.4306 14.3164 24.6169 14.2329 24.7139 14.1631C24.8109 14.0933 24.9124 13.9696 24.9991 13.7188C25.195 13.151 25.2061 12.3021 25.2061 11.1084ZM27.0059 11.1084C27.0059 12.1829 27.0176 13.3877 26.7002 14.3066C26.5301 14.7992 26.2463 15.2781 25.7657 15.624C25.2849 15.97 24.6999 16.1162 24.0518 16.1162C23.4039 16.1162 22.8195 15.9699 22.3389 15.624C21.8582 15.2781 21.5745 14.7992 21.4043 14.3066C21.087 13.3877 21.0977 12.183 21.0977 11.1084C21.0977 10.0337 21.0869 8.82819 21.4043 7.90918C21.5745 7.41676 21.8585 6.93863 22.3389 6.59277C22.8196 6.24686 23.4039 6.09966 24.0518 6.09961C24.6999 6.09961 25.2849 6.2468 25.7657 6.59277C26.246 6.93864 26.5302 7.41679 26.7002 7.90918C27.0176 8.82819 27.0059 10.0337 27.0059 11.1084Z" fill="#232527"/>
</svg>
