<svg width="48" height="48" viewBox="0 0 48 48" fill="none" xmlns="http://www.w3.org/2000/svg">
<path d="M4.99861 35.5V11C5.3975 7.8 7.49907 7 8.5 7H15.5C17.1 7 17.5 8 17.5 8.5V13.5H40.5C42.1 13.5 42.5 14.1667 42.5 14.5L43 16V39C43 40.2 42 40.8333 41.5 41H9C8.49954 41 7.19861 40.7 5.99861 39.5C4.79861 38.3 4.83194 36.3333 4.99861 35.5Z" fill="white"/>
<path d="M11.3311 40.0986L38.998 40.0986C39.966 40.0986 40.6016 40.0974 41.0723 40.0342C41.517 39.9744 41.6776 39.8742 41.7754 39.7764C41.8732 39.6786 41.9734 39.5181 42.0332 39.0732C42.0964 38.6026 42.0977 37.967 42.0977 36.999L42.0977 17.4434C42.0977 16.4754 42.0964 15.8398 42.0332 15.3691C41.9734 14.9243 41.8732 14.7638 41.7754 14.666C41.6776 14.5682 41.5171 14.468 41.0723 14.4082C40.6016 14.345 39.966 14.3438 38.998 14.3438L17.665 14.3437C17.168 14.3437 16.7646 13.9404 16.7646 13.4434C16.7646 12.9463 17.168 12.543 17.665 12.543L38.998 12.543C39.9154 12.543 40.694 12.5418 41.3125 12.625C41.9569 12.7116 42.5609 12.9046 43.0488 13.3926C43.5368 13.8806 43.7298 14.4845 43.8164 15.1289C43.8996 15.7474 43.8984 16.526 43.8984 17.4434L43.8984 36.999C43.8984 37.9163 43.8996 38.695 43.8164 39.3135C43.7298 39.9578 43.5368 40.5619 43.0488 41.0498C42.5609 41.5377 41.9569 41.7307 41.3125 41.8174C40.694 41.9005 39.9154 41.8984 38.998 41.8984L11.3311 41.8984C10.8342 41.8983 10.4317 41.4959 10.4316 40.999C10.4316 40.5021 10.8341 40.0988 11.3311 40.0986Z" fill="#232527"/>
<path d="M31.3553 34.2248C30.5597 34.2168 29.6285 33.8614 28.973 33.1059C28.2863 32.3146 27.9763 31.1737 28.2919 29.7639C28.4692 28.9722 28.9274 28.2582 29.4953 27.6237C29.8162 27.2651 30.1882 26.9175 30.5929 26.5771C30.4428 26.412 30.295 26.2382 30.1606 26.0551L29.8725 25.6733C29.5934 25.315 29.3425 25.0284 29.1156 24.8081C28.8065 24.5081 28.5897 24.379 28.4553 24.3327C28.3582 24.2992 28.3149 24.3089 28.256 24.3385C28.1595 24.387 27.9827 24.5241 27.7428 24.8763C26.9985 25.9679 26.4555 26.8556 26.1014 27.5473L26.0338 27.6579C25.8596 27.9033 25.5717 28.0479 25.2653 28.0359C24.9151 28.0222 24.604 27.8065 24.4691 27.4829C23.4375 25.0073 22.1972 24.1072 20.8753 24.0938L18.0913 24.0656C17.5943 24.0606 17.195 23.6532 17.2001 23.1562C17.2051 22.6592 17.6125 22.2599 18.1095 22.265L20.8935 22.2931C22.7958 22.3124 24.2604 23.4124 25.3561 25.2418C25.6227 24.8144 25.9213 24.353 26.2559 23.8622C26.5812 23.3848 26.9675 22.9711 27.4481 22.7296C27.9663 22.4693 28.5148 22.4498 29.0419 22.6315C29.5317 22.8003 29.9716 23.1304 30.369 23.5161C30.7731 23.9084 31.1858 24.4093 31.6119 24.9897C31.7306 25.1513 31.8725 25.3107 32.0366 25.4842C33.5492 24.4338 35.3558 23.4029 37.0347 22.4185C37.4635 22.1671 38.0145 22.3108 38.2659 22.7395C38.5173 23.1683 38.3736 23.7193 37.9448 23.9707C36.3114 24.9285 34.6732 25.8645 33.2889 26.8056C33.8995 27.5358 34.4438 28.4608 34.5171 29.739L34.5252 29.9999C34.5409 32.3834 33.192 34.2432 31.3553 34.2248ZM31.3736 32.4242C31.7645 32.4277 32.7375 31.8938 32.7252 30.0119C32.7196 29.1464 32.3897 28.5355 31.9071 27.9586C31.8855 27.9328 31.8624 27.9082 31.8405 27.8828C31.4512 28.2043 31.1125 28.5167 30.8367 28.8248C30.3793 29.336 30.1335 29.7795 30.0488 30.1577C29.8406 31.0878 30.07 31.6236 30.3327 31.9263C30.6265 32.2649 31.0555 32.4209 31.3736 32.4242Z" fill="#FBCD6C"/>
<path d="M16.7686 11.1113C16.7686 10.1433 16.7664 9.50779 16.7031 9.03711C16.6434 8.59253 16.544 8.4318 16.4463 8.33399C16.3485 8.23618 16.188 8.13598 15.7432 8.07617C15.2725 8.01291 14.6369 8.01172 13.6689 8.01172H9.22461C7.3898 8.01172 5.90234 9.49917 5.90234 11.334V32.8799C6.79677 32.117 7.95686 31.6562 9.22461 31.6562H13.6689C14.6369 31.6562 15.2725 31.6541 15.7432 31.5908C16.1876 31.5311 16.3485 31.4317 16.4463 31.334C16.5441 31.2362 16.6433 31.0753 16.7031 30.6309C16.7664 30.1601 16.7686 29.5239 16.7686 28.5557V11.1113ZM18.5684 28.5557C18.5684 29.473 18.5704 30.2516 18.4873 30.8701C18.4007 31.5145 18.2067 32.1185 17.7188 32.6064C17.2309 33.0942 16.6276 33.2884 15.9834 33.375C15.3649 33.4582 14.5862 33.4561 13.6689 33.4561H9.22461C7.447 33.4561 5.99504 34.8519 5.90625 36.6074L5.90234 36.7783L5.90625 36.9492C5.99536 38.7045 7.44722 40.1006 9.22461 40.1006H17.6689C18.1658 40.1008 18.5682 40.5032 18.5684 41C18.5684 41.4969 18.1659 41.9002 17.6689 41.9004H9.22461C6.39579 41.9004 4.10174 39.6071 4.10156 36.7783V11.334C4.10156 8.50506 6.39568 6.21094 9.22461 6.21094H13.6689C14.5862 6.21094 15.3649 6.20982 15.9834 6.29297C16.6275 6.37961 17.2309 6.57289 17.7188 7.06055C18.2067 7.54853 18.4007 8.15245 18.4873 8.79688C18.5705 9.41541 18.5684 10.194 18.5684 11.1113V28.5557Z" fill="#232527"/>
</svg>
