<svg width="48" height="48" viewBox="0 0 48 48" fill="none" xmlns="http://www.w3.org/2000/svg">
<path d="M24.8186 36.4997V37.5997H38.1886V25.3997C37.4686 25.2297 36.9586 24.5897 36.9686 23.8397V21.1897C36.9686 21.6897 36.7686 22.1697 36.3986 22.5197C36.0386 22.8697 35.5486 23.0497 35.0486 23.0197C34.0586 22.9297 33.2986 22.0897 33.3186 21.0897V20.5897H24.8086V33.3497L24.8186 36.4997C24.8186 37.5997 25.2086 35.5197 24.8086 36.4997H24.8186Z" fill="white"/>
<path d="M33.3286 21.0897C33.3086 22.0897 34.0586 22.9297 35.0586 23.0197C35.5586 23.0497 36.0486 22.8697 36.4086 22.5197C36.7686 22.1797 36.9786 21.6997 36.9786 21.1897V23.8397C36.9586 24.5897 37.4786 25.2297 38.1986 25.3997C38.2486 25.4097 38.2986 25.4297 38.3486 25.4297C38.7786 25.4697 39.1986 25.3397 39.5186 25.0497C39.8386 24.7597 40.0186 24.3497 40.0186 23.9197V19.3597C40.0186 18.0197 38.9286 16.9297 37.5886 16.9297H27.2586C25.9186 16.9297 24.8286 18.0197 24.8286 19.3597V20.5797H33.3386V21.0797L33.3286 21.0897Z" fill="white"/>
<path d="M39.1162 19.3594C39.116 18.5167 38.4296 17.8302 37.5869 17.8301H27.2568C26.414 17.8301 25.7267 18.5166 25.7266 19.3594V19.6797H33.3369C33.8338 19.6798 34.2363 20.0831 34.2363 20.5801V21.0801C34.2363 21.1169 34.233 21.1533 34.2285 21.1895C34.2574 21.676 34.6295 22.0702 35.124 22.1211C35.1476 22.1222 35.171 22.1219 35.1943 22.1211C35.4101 22.1114 35.6148 22.0244 35.7695 21.874L35.7783 21.8662C35.9645 21.6901 36.0664 21.4478 36.0664 21.1895C36.0665 20.6925 36.4698 20.29 36.9668 20.29H36.9766C37.4735 20.29 37.8768 20.6925 37.877 21.1895V23.8398C37.877 23.8477 37.8762 23.8555 37.876 23.8633C37.8679 24.167 38.0786 24.4467 38.4033 24.5234H38.4023C38.4109 24.5253 38.4187 24.5276 38.4258 24.5293C38.4316 24.5307 38.4372 24.5319 38.4424 24.5332C38.6309 24.5477 38.7926 24.4911 38.9121 24.3828C39.0424 24.2648 39.1161 24.0977 39.1162 23.9199V19.3594ZM25.707 33.3467L25.7139 35.7275C25.7451 35.7729 25.7689 35.8127 25.7842 35.8438C25.8339 35.9449 25.8561 36.035 25.8662 36.0859C25.8773 36.1419 25.8814 36.1914 25.8838 36.2275C25.8885 36.2991 25.8868 36.3651 25.8838 36.4141C25.8778 36.5115 25.8635 36.6115 25.8477 36.6992H37.2871V25.9941C36.5408 25.5542 36.0543 24.7448 36.0664 23.8281V23.7656C35.8125 23.8561 35.5455 23.9079 35.2734 23.9189C35.1804 23.9231 35.0869 23.9236 34.9932 23.918C34.984 23.9174 34.974 23.9169 34.9648 23.916C33.648 23.7962 32.6087 22.7743 32.4424 21.4893H25.707V33.3467ZM38.4844 24.5439C38.4886 24.5451 38.4902 24.5449 38.4902 24.5449C38.4899 24.5448 38.4869 24.544 38.4824 24.543L38.4844 24.5439ZM40.917 23.9199C40.9169 24.602 40.6307 25.255 40.1211 25.7168C39.8189 25.9906 39.4628 26.1703 39.0869 26.2627V37.5996C39.0869 38.0967 38.6836 38.5 38.1865 38.5H24.8164C24.3195 38.4999 23.917 38.0966 23.917 37.5996V36.627C23.9048 36.542 23.9045 36.4557 23.917 36.3701L23.9062 33.3525V20.5898C23.9062 20.5249 23.9137 20.4614 23.9268 20.4004V19.3594C23.9269 17.5225 25.4199 16.0293 27.2568 16.0293H37.5869C39.4237 16.0294 40.9168 17.5226 40.917 19.3594V23.9199Z" fill="#232527"/>
<path d="M33.4023 13.5V17H31.6016V13.5H33.4023Z" fill="#232527"/>
<path d="M39.02 40.65H20V37H42.67C42.67 39.02 41.03 40.65 39.02 40.65Z" fill="white"/>
<path d="M42.6719 36.0996C43.1689 36.0996 43.5723 36.5029 43.5723 37C43.5723 39.5187 41.5269 41.5498 39.0215 41.5498H20.002C19.505 41.5498 19.1018 41.1473 19.1016 40.6504V37C19.1016 36.5029 19.5049 36.0996 20.002 36.0996H42.6719ZM20.9023 39.75H39.0215C40.2216 39.75 41.2443 38.9776 41.6182 37.9004H20.9023V39.75Z" fill="#232527"/>
<path d="M26.3385 26.6545C26.2158 26.7772 26.0757 26.8998 25.918 27.0224C26.1106 26.9874 26.3033 26.9874 26.4784 26.9874C26.478 26.9874 26.4776 26.9874 26.4772 26.9874L26.4611 26.9874C26.464 26.9874 26.4669 26.9874 26.4698 26.9874C26.4723 26.9874 26.4748 26.9874 26.4772 26.9874C26.4776 26.9874 26.478 26.9874 26.4784 26.9874C26.3033 26.9874 26.1106 26.9874 25.918 27.0224C26.1075 27.0052 26.297 26.988 26.4698 26.9874C26.4669 26.9874 26.464 26.9874 26.4611 26.9874L26.4772 26.9874C26.4748 26.9874 26.4723 26.9874 26.4698 26.9874C27.4475 26.9897 28.3375 27.3747 28.9664 28.021C29.6146 28.6517 30 29.5452 30 30.5087C30 32.4534 28.4233 34.0301 26.4787 34.0301C26.3095 34.0301 26.124 34.0138 25.9379 33.9969C26.0946 34.119 26.234 34.241 26.356 34.363C27.74 35.747 27.74 37.972 26.356 39.356C26.0757 39.6363 25.7604 39.8465 25.4275 40.0042C24.1135 40.67 22.4667 40.4597 21.363 39.356C21.2404 39.2334 21.1177 39.0932 20.9951 38.9355C20.1192 37.8318 19.1556 35.9047 18.9629 34.3455C19.979 33.96 20.8024 33.1717 21.2404 32.1906C21.4681 31.6826 21.6083 31.1044 21.6083 30.5087C21.6083 29.9131 21.4681 29.335 21.2404 28.8269C20.8024 27.8283 19.979 27.0574 18.9629 26.672C19.1556 25.1128 20.1192 23.1857 20.9951 22.082C21.1177 21.9243 21.2404 21.7842 21.363 21.6615C22.4142 20.6279 23.9558 20.3826 25.2348 20.9257C25.6377 21.0834 26.0056 21.3287 26.3385 21.6615C27.7225 23.0456 27.7225 25.2705 26.3385 26.6545Z" fill="white"/>
<path d="M20.9776 22.082C20.1016 23.1857 19.138 25.1128 18.9453 26.672C19.9615 27.0574 20.7849 27.8458 21.2229 28.8269C21.4506 29.335 21.5908 29.9131 21.5908 30.5087C21.5908 31.1044 21.4506 31.6826 21.2229 32.1906C20.7852 33.1885 19.9626 33.959 18.9474 34.3447C19.1449 35.9009 20.1047 37.8183 20.9776 38.918C21.0126 39.1107 21.0127 39.3034 21.0127 39.4786C21.0127 41.4232 19.4359 43 17.4913 43C15.5466 43 13.9699 41.4232 13.9699 39.4786C13.9699 39.3171 13.9848 39.1407 14.0008 38.9631C13.8854 39.1096 13.77 39.2406 13.6545 39.356C12.5859 40.4422 10.9741 40.6699 9.67767 40.0568C9.30977 39.8816 8.95935 39.6538 8.66153 39.356C7.2775 37.972 7.2775 35.747 8.66153 34.363C8.77668 34.2478 8.90727 34.1327 9.05332 34.0175C8.8702 34.0476 8.6879 34.0477 8.52139 34.0477C6.57675 34.0477 5 32.4709 5 30.5263C5 30.0533 5.1051 29.5977 5.26278 29.1948C5.78836 27.8984 7.04977 26.9874 8.52139 26.9874C8.69059 26.9874 8.8761 27.0037 9.0622 27.0206C8.90546 26.8986 8.76603 26.7766 8.64399 26.6545C7.25997 25.2705 7.25997 23.0455 8.64399 21.6615C8.95934 21.3462 9.34477 21.1009 9.74771 20.9257C11.0266 20.3651 12.5684 20.6104 13.6195 21.6615C13.7421 21.7841 13.8648 21.9243 13.9874 22.082C14.8634 23.1857 15.8269 25.1128 16.0196 26.672C15.007 27.0561 14.1857 27.8404 13.7466 28.8168C13.751 28.8202 13.7553 28.8235 13.7596 28.8269C14.1976 27.8283 15.021 27.0574 16.0371 26.672C15.8444 25.1128 14.8809 23.1857 14.0049 22.082C13.9699 21.8893 13.9699 21.6965 13.9699 21.5213C13.9699 19.5767 15.5466 18 17.4913 18C19.4359 18 21.0127 19.5767 21.0127 21.5213C21.0127 21.6962 20.9952 21.8884 20.9777 22.0807L20.9776 22.082Z" fill="white"/>
<path d="M12.4941 30.5088C12.4941 30.0516 12.5603 29.6067 12.6768 29.1885C11.5776 28.5253 10.0447 28.0401 8.96484 27.917C8.95969 27.9164 8.95436 27.9147 8.94922 27.9141C8.77266 27.8982 8.6378 27.8877 8.52344 27.8877C7.43423 27.8877 6.4926 28.5614 6.09863 29.5332C5.97659 29.8483 5.90234 30.1886 5.90234 30.5264C5.90239 31.9739 7.07588 33.1475 8.52344 33.1475C8.64634 33.1475 8.73696 33.1438 8.81445 33.1377C8.86895 33.1206 8.92518 33.1071 8.98242 33.1006C10.0574 32.978 11.5806 32.4955 12.6787 31.8369C12.5609 31.4164 12.4941 30.9688 12.4941 30.5088ZM18.2598 35.4609C18.0109 35.502 17.7549 35.5254 17.4932 35.5254C17.2386 35.5254 16.9895 35.5038 16.7471 35.4648C16.3695 36.8651 15.6083 38.3186 14.8779 39.2988C14.8737 39.3652 14.8721 39.4244 14.8721 39.4785C14.8721 40.9261 16.0456 42.0996 17.4932 42.0996C18.9407 42.0996 20.1143 40.9261 20.1143 39.4785C20.1143 39.3936 20.1136 39.3239 20.1113 39.2637C19.3873 38.2866 18.6362 36.8481 18.2598 35.4609ZM13.4756 33.4746C12.2145 34.2014 10.64 34.6967 9.43359 34.873C9.38517 34.916 9.3407 34.9581 9.2998 34.999C8.26725 36.0316 8.26725 37.6872 9.2998 38.7197C9.50984 38.9298 9.76906 39.1023 10.0645 39.2432L10.248 39.3213C11.1778 39.6755 12.2753 39.4761 13.0146 38.7246L13.0205 38.7197C13.08 38.6602 13.1401 38.5914 13.2041 38.5156C13.2317 38.4605 13.2631 38.4071 13.3018 38.3584C13.9813 37.5021 14.7137 36.0926 15.0225 34.8564C14.4139 34.5082 13.8873 34.0347 13.4756 33.4746ZM21.5371 33.4629C21.123 34.0297 20.5915 34.5085 19.9766 34.8594C20.2605 36.0075 20.9133 37.3086 21.5508 38.1777L21.7021 38.376L21.708 38.3828H21.707C21.8101 38.5154 21.9084 38.6272 22.001 38.7197C22.8201 39.5388 24.0437 39.6971 25.0225 39.2012C25.0296 39.1976 25.0367 39.1938 25.0439 39.1904C25.2947 39.0717 25.5225 38.9189 25.7217 38.7197C26.7542 37.6872 26.7542 36.0316 25.7217 34.999C25.6751 34.9525 25.6237 34.9047 25.5674 34.8555C24.3642 34.6792 22.7957 34.1863 21.5371 33.4629ZM24.8848 21.7539C23.9298 21.3485 22.7789 21.5339 21.9961 22.3037L21.9951 22.3027C21.9041 22.3943 21.8081 22.5049 21.707 22.6348L21.7021 22.6416C21.0196 23.5016 20.2832 24.9183 19.9766 26.1572C20.5912 26.5055 21.1252 26.9798 21.541 27.5518C22.7915 26.834 24.3469 26.3429 25.5459 26.1641C25.5473 26.1628 25.5494 26.1624 25.5508 26.1611L25.7041 26.0186C26.7367 24.986 26.7367 23.3304 25.7041 22.2979C25.4513 22.0451 25.1865 21.8722 24.9092 21.7637C24.9012 21.7605 24.8927 21.7573 24.8848 21.7539ZM12.9854 22.2979C12.2034 21.5159 11.0598 21.3344 10.1113 21.75L10.1084 21.751C9.79134 21.8888 9.50512 22.075 9.28223 22.2979C8.2497 23.3304 8.24968 24.986 9.28223 26.0186C9.32846 26.0648 9.37961 26.1122 9.43555 26.1611C10.6349 26.3367 12.1968 26.8278 13.4531 27.5469C13.8663 26.9834 14.3967 26.5077 15.0088 26.1582C14.7023 24.9191 13.9669 23.5018 13.2842 22.6416L13.2793 22.6348C13.1763 22.5023 13.078 22.3905 12.9854 22.2979ZM17.4932 18.9004C16.0456 18.9004 14.8721 20.0739 14.8721 21.5215C14.8721 21.6059 14.8718 21.6753 14.874 21.7354C15.6007 22.7157 16.3543 24.1619 16.7295 25.5547C16.9774 25.5139 17.2325 25.4912 17.4932 25.4912C17.7535 25.4912 18.0082 25.514 18.2559 25.5547C18.6297 24.1668 19.3792 22.7253 20.1035 21.7451C20.1096 21.6612 20.1143 21.5881 20.1143 21.5215C20.1143 20.0739 18.9408 18.9004 17.4932 18.9004ZM14.2939 30.5088C14.294 30.9186 14.3813 31.3257 14.5303 31.6973C14.5576 31.7389 14.5831 31.7824 14.6035 31.8291C14.9247 32.5613 15.5151 33.1381 16.252 33.4531C16.2892 33.4622 16.3261 33.4743 16.3623 33.4883C16.7288 33.6292 17.1099 33.708 17.4932 33.708C17.8764 33.708 18.2575 33.6292 18.624 33.4883L18.7227 33.4561C18.7368 33.4524 18.7513 33.4502 18.7656 33.4473C19.4962 33.1309 20.0812 32.5568 20.4004 31.8291L20.4033 31.8223C20.5845 31.4181 20.6924 30.965 20.6924 30.5088C20.6924 30.0525 20.5845 29.5995 20.4033 29.1953V29.1934C20.0616 28.4281 19.4168 27.8129 18.6279 27.5137L18.624 27.5117C18.2575 27.3708 17.8764 27.292 17.4932 27.292C17.1099 27.292 16.7288 27.3708 16.3623 27.5117L16.3584 27.5137C15.5638 27.8151 14.9249 28.4155 14.5859 29.1885L14.583 29.1953C14.4019 29.5995 14.2939 30.0526 14.2939 30.5088ZM22.5098 30.5088C22.5098 30.9658 22.4425 31.4101 22.3262 31.8281C23.4254 32.4916 24.9588 32.9775 26.0391 33.1006C26.0438 33.1011 26.049 33.1019 26.0537 33.1025C26.2308 33.1185 26.3659 33.1299 26.4805 33.1299C27.928 33.1299 29.1015 31.9564 29.1016 30.5088C29.1016 29.7854 28.8128 29.1253 28.3408 28.666C28.3349 28.6603 28.329 28.6543 28.3232 28.6484C27.8674 28.18 27.2115 27.8899 26.4717 27.8877C26.3495 27.8883 26.2062 27.8998 26.0166 27.917C24.9418 28.0404 23.4207 28.522 22.3242 29.1797C22.4422 29.6005 22.5098 30.0483 22.5098 30.5088ZM30.9023 30.5088C30.9023 32.5073 29.5752 34.1949 27.7549 34.7422C28.6739 36.4236 28.4209 38.5655 26.9941 39.9922C26.6388 40.3475 26.2425 40.6101 25.835 40.8057L25.8359 40.8066C25.8335 40.8079 25.8306 40.8083 25.8281 40.8096C25.8234 40.8118 25.8191 40.8152 25.8145 40.8174L25.8135 40.8164C24.5305 41.4575 22.9992 41.4355 21.7305 40.7402C21.1873 42.5671 19.4964 43.9004 17.4932 43.9004C15.4981 43.9004 13.812 42.5782 13.2617 40.7627C12.0287 41.4291 10.5449 41.4613 9.29492 40.8701L9.29297 40.8691C8.85345 40.6598 8.41245 40.3773 8.02734 39.9922C6.60628 38.5711 6.34874 36.4401 7.25488 34.7617C5.43151 34.2163 4.1016 32.527 4.10156 30.5264C4.10156 29.9219 4.23592 29.355 4.42676 28.8672L4.43066 28.8564L4.56445 28.5586C5.1024 27.4693 6.07192 26.6328 7.25 26.2764C6.3302 24.5947 6.58274 22.4524 8.00977 21.0254C8.36659 20.6686 8.78219 20.3908 9.20801 20.1846L9.39062 20.1006C10.6265 19.5596 12.0559 19.6187 13.251 20.2725C13.79 18.4389 15.4852 17.0996 17.4932 17.0996C19.5038 17.0996 21.1997 18.4429 21.7363 20.2803C22.8634 19.671 24.197 19.5848 25.3799 20.0176C25.4584 20.0287 25.537 20.0499 25.6133 20.083C26.1019 20.2955 26.5864 20.6 26.9941 21.0078C28.4251 22.4388 28.6748 24.5888 27.7461 26.2725C28.4515 26.481 29.0873 26.8596 29.5957 27.376C30.4201 28.1781 30.9023 29.3051 30.9023 30.5088Z" fill="#232527"/>
<path d="M32.5105 13.51C34.1905 13.51 35.5504 12.15 35.5504 10.47V5L33.4405 5.71C32.4305 6.05 31.5204 6.61 30.7704 7.36C29.9404 8.19 29.4805 9.31 29.4805 10.47C29.4805 12.15 30.8404 13.51 32.5204 13.51H32.5105Z" fill="white"/>
<path d="M34.6484 6.25108L33.7256 6.5626V6.56163C32.845 6.85808 32.0553 7.34529 31.4053 7.99522C30.7445 8.65597 30.379 9.54708 30.3789 10.4689C30.3789 11.6502 31.333 12.6059 32.5137 12.6085C33.6942 12.6057 34.6484 11.6501 34.6484 10.4689V6.25108ZM36.4482 10.4689C36.4482 12.6399 34.6952 14.3987 32.5264 14.4083L32.5186 14.4093H32.5088C32.5059 14.4093 32.5028 14.4083 32.5 14.4083C30.3315 14.3984 28.5781 12.6397 28.5781 10.4689C28.5782 9.07089 29.1328 7.72186 30.1318 6.72276C30.9817 5.87289 32.0122 5.24005 33.1514 4.85655L35.2617 4.14659C35.5363 4.05423 35.838 4.09966 36.0732 4.26866C36.3085 4.43774 36.4482 4.70938 36.4482 4.99913V10.4689Z" fill="#FBCD6C"/>
</svg>
