<svg width="48" height="48" viewBox="0 0 48 48" fill="none" xmlns="http://www.w3.org/2000/svg">
<path fill-rule="evenodd" clip-rule="evenodd" d="M32.1846 4.50488C34.5006 4.60071 36.4999 6.16723 36.5 8.28418V11.6162C39.5876 13.7451 41.4999 17.466 41.5 23.2656C41.5 30.0178 38.9098 38.0112 35.0205 42.668C34.5605 43.2188 33.8807 43.4999 33.1924 43.5H14.8076C14.1193 43.4999 13.4395 43.2188 12.9795 42.668C9.09016 38.0112 6.5 30.0178 6.5 23.2656C6.50007 17.466 8.41239 13.7451 11.5 11.6162V8.28418C11.5001 6.09908 13.6302 4.50016 16.04 4.5H31.96L32.1846 4.50488Z" fill="white"/>
<path d="M6.10156 23.2651C6.10164 17.1651 8.19072 13.2419 11.6152 11.061C12.0345 10.794 12.5904 10.9172 12.8574 11.3364C13.1244 11.7556 13.0012 12.3115 12.582 12.5785C9.80936 14.3443 7.90242 17.6041 7.90234 23.2651C7.90234 29.7473 10.4112 37.4062 14.0557 41.7699C14.224 41.9715 14.4943 42.099 14.8096 42.099H33.1943C33.5096 42.099 33.7799 41.9715 33.9482 41.7699C37.5927 37.4062 40.1016 29.7473 40.1016 23.2651C40.1015 17.6041 38.1945 14.3443 35.4219 12.5785C35.0027 12.3115 34.8795 11.7556 35.1465 11.3364C35.4135 10.9172 35.9694 10.794 36.3887 11.061C39.8132 13.2419 41.9023 17.1651 41.9023 23.2651C41.9023 30.0943 39.2893 38.1837 35.3301 42.9242C34.7867 43.5748 33.9893 43.8988 33.1943 43.8989H14.8096C14.0146 43.8988 13.2172 43.5748 12.6738 42.9242C8.71457 38.1837 6.10156 30.0943 6.10156 23.2651Z" fill="#232527"/>
<path d="M36 8.89844H12V11.8215H36V8.89844Z" fill="white"/>
<path d="M36.002 7.99805C36.499 7.99805 36.9023 8.40138 36.9023 8.89844V11.8213C36.9023 12.3183 36.499 12.7217 36.002 12.7217H12.002C11.5049 12.7217 11.1016 12.3183 11.1016 11.8213V8.89844C11.1016 8.40138 11.5049 7.99805 12.002 7.99805H36.002ZM12.9023 10.9219H35.1016V9.79883H12.9023V10.9219Z" fill="#232527"/>
<path d="M16.0404 5H31.9596C34.1953 5 36 6.46701 36 8.28436V8.89744H12V8.28436C12 6.46701 13.8047 5 16.0404 5Z" fill="white"/>
<path d="M31.9619 4.09961C34.5113 4.09977 36.9022 5.80472 36.9023 8.28418V8.89746C36.9023 9.39451 36.499 9.79785 36.002 9.79785H12.002C11.5049 9.79785 11.1016 9.39451 11.1016 8.89746V8.28418C11.1017 5.80472 13.4927 4.09977 16.042 4.09961H31.9619ZM16.042 5.90039C14.2795 5.90053 13.1116 6.93471 12.9297 7.99707H35.0742C34.8923 6.93471 33.7244 5.90053 31.9619 5.90039H16.042Z" fill="#232527"/>
<path d="M23.9984 18.0996C23.1569 18.0996 22.0734 18.213 21.1097 18.5938C20.1435 18.9756 19.165 19.6876 18.8441 20.9463C18.632 21.7786 18.5286 22.5716 18.6498 23.3691C18.7728 24.1782 19.1151 24.9176 19.6732 25.6641L25.4427 33.3828C25.7154 33.7476 25.9793 34.1035 26.2318 34.3545C26.4999 34.6209 26.8949 34.9115 27.4476 34.8994C28.0006 34.8873 28.382 34.5791 28.638 34.3008C28.879 34.0389 29.1264 33.6712 29.3822 33.2949L29.7787 32.7119C30.1058 32.2305 30.4002 31.8004 30.5941 31.4199C30.7993 31.0171 30.946 30.5703 30.8841 30.0547C30.8223 29.5399 30.5744 29.1406 30.2806 28.7969C30.0026 28.4717 29.6154 28.1204 29.183 27.7266L21.3744 20.457C21.4936 20.3893 21.6257 20.3253 21.7718 20.2676C22.4496 19.9999 23.2853 19.9004 23.9984 19.9004V18.0996ZM27.9632 29.0508L27.9701 29.0576C28.4369 29.4829 28.7246 29.7471 28.9125 29.9668C29.0841 30.1677 29.0939 30.2433 29.097 30.2695C29.1001 30.2952 29.1091 30.3697 28.9906 30.6025C28.8603 30.8582 28.6439 31.18 28.2904 31.7002L27.8939 32.2832C27.6693 32.6137 27.5211 32.8283 27.4056 32.9736C27.2834 32.8334 27.1252 32.6259 26.8851 32.3047L21.1146 24.5859C20.6932 24.0223 20.4993 23.5544 20.43 23.0986C20.3831 22.79 20.3894 22.4541 20.4505 22.0566L27.9632 29.0508Z" fill="#FBCD6C"/>
<path d="M22.07 27.1592L20.0368 29.0508L20.0299 29.0576C19.5631 29.4829 19.2754 29.7471 19.0875 29.9668C18.9159 30.1677 18.9061 30.2433 18.903 30.2695C18.8999 30.2952 18.8909 30.3697 19.0094 30.6025C19.1397 30.8582 19.3561 31.18 19.7096 31.7002L20.1061 32.2832C20.3307 32.6137 20.4789 32.8283 20.5944 32.9736C20.7166 32.8334 20.8748 32.6259 21.1149 32.3047L23.2809 29.4082L24.7223 30.4854L22.5573 33.3828C22.2846 33.7476 22.0207 34.1035 21.7682 34.3545C21.5001 34.6209 21.1051 34.9115 20.5524 34.8994C19.9994 34.8873 19.618 34.5791 19.362 34.3008C19.121 34.0389 18.8736 33.6712 18.6178 33.2949L18.2213 32.7119C17.8942 32.2305 17.5998 31.8004 17.4059 31.4199C17.2007 31.0171 17.054 30.5703 17.1159 30.0547C17.1777 29.5399 17.4256 29.1406 17.7194 28.7969C17.9974 28.4717 18.3846 28.1204 18.817 27.7266L20.8434 25.8408L22.07 27.1592ZM24.0016 18.0996C24.8431 18.0996 25.9266 18.213 26.8903 18.5938C27.8565 18.9756 28.835 19.6876 29.1559 20.9463C29.368 21.7786 29.4714 22.5716 29.3502 23.3691C29.2272 24.1782 28.8849 24.9176 28.3268 25.6641L27.2995 27.0391L25.8581 25.9609L26.8854 24.5859C27.3068 24.0223 27.5007 23.5544 27.57 23.0986C27.6168 22.7903 27.6104 22.4547 27.5495 22.0576L24.6149 24.79L23.3883 23.4717L26.6256 20.457C26.5064 20.3893 26.3743 20.3253 26.2282 20.2676C25.5504 19.9999 24.7147 19.9004 24.0016 19.9004V18.0996Z" fill="#FBCD6C"/>
</svg>
