<svg width="48" height="48" viewBox="0 0 48 48" fill="none" xmlns="http://www.w3.org/2000/svg">
<path d="M12.5 8.5C14.5 7.7 15.6667 5.83333 16 5L21 9L23 11H24.5L25.5 10.5L32 5.5C32.3333 5.83333 33.4 6.8 35 8C37 9.5 38.5 9.5 41 10C43 10.4 43.1667 12.1667 43 13C42.1667 20.5 40.4 35.9 40 37.5C39.6 39.1 37.1667 40.1667 36 40.5C28.5 40.6667 13.1 40.9 11.5 40.5C9.5 40 8.5 38 8 37C7.5 36 5 15.5 5 13.5C5 11.5 5.5 11 6 10C6.5 9 10 9.5 12.5 8.5Z" fill="white"/>
<path d="M25.002 10.0996C25.499 10.0996 25.9023 10.5029 25.9023 11C25.9023 11.4971 25.499 11.9004 25.002 11.9004H23.002C22.5049 11.9004 22.1016 11.4971 22.1016 11C22.1016 10.5029 22.5049 10.0996 23.002 10.0996H25.002Z" fill="#777777"/>
<path d="M15.8181 4.31733C16.1406 4.03973 16.6198 4.02422 16.9607 4.29194L21.0554 7.50972C21.8495 8.13357 22.5221 8.65898 22.992 9.14936C23.4816 9.66045 23.8543 10.2365 23.905 10.9843C23.9556 11.7308 23.6657 12.3537 23.2517 12.9296C22.8537 13.4834 22.2596 14.1023 21.5574 14.8378L20.5047 15.9404C20.1635 16.2977 19.8427 16.6376 19.5466 16.871C19.2324 17.1188 18.8125 17.3565 18.2732 17.3164C17.7357 17.2763 17.3553 16.9809 17.0798 16.6914C16.8225 16.4208 16.5552 16.0438 16.2693 15.6445L11.9509 9.86226C11.5371 10.0246 11.1135 10.1277 10.7068 10.1992C10.0661 10.3117 9.34925 10.3661 8.77907 10.4326C7.52485 10.5787 6.72697 10.8101 6.24879 11.5087C5.96129 11.9289 5.72863 12.5456 5.89528 13.8896C6.89037 21.9151 7.28413 26.2229 8.39235 33.871C8.64002 35.5803 8.87656 36.4864 9.13551 37.0654C9.37489 37.6004 9.64614 37.8903 10.1257 38.3515C10.4947 38.7062 10.9825 38.9496 11.4685 39.1035C11.9573 39.2582 12.3793 39.3017 12.5545 39.3017H20.4998C20.9968 39.3018 21.3992 39.7051 21.3992 40.2021C21.3991 40.6991 20.9967 41.1015 20.4998 41.1015H12.5545C12.1807 41.1015 11.5759 41.0251 10.9256 40.8193C10.2727 40.6126 9.50856 40.255 8.8777 39.6484C8.35741 39.1481 7.87851 38.6625 7.49293 37.8007C7.12696 36.9827 6.86335 35.8697 6.6111 34.1289C5.49974 26.459 5.09706 22.0858 4.10817 14.1103C3.90295 12.4547 4.16462 11.3647 4.76246 10.4912C5.73803 9.06586 7.31908 8.79027 8.57008 8.64448C9.25246 8.56497 9.81998 8.5268 10.3953 8.42573C10.9497 8.32834 11.3903 8.18871 11.7361 7.96577C13.0715 7.10487 13.4334 6.84802 13.7722 6.51753C13.9528 6.34137 14.1282 6.14279 14.4382 5.79683C14.7412 5.4587 15.1459 5.01174 15.7556 4.3769L15.8181 4.31733ZM16.4949 6.21577C16.1985 6.53357 15.9687 6.78638 15.7791 6.998C15.4914 7.31902 15.2646 7.57687 15.0291 7.80659C14.6535 8.17293 14.2575 8.46548 13.5183 8.95308L17.7117 14.5673L17.7224 14.582C18.0439 15.031 18.2312 15.289 18.3845 15.4501C18.3927 15.4588 18.4018 15.4654 18.4089 15.4726C18.4156 15.4676 18.4239 15.4638 18.4314 15.458C18.6038 15.322 18.8234 15.0947 19.2029 14.6972L20.2556 13.5947C20.9949 12.8204 21.4824 12.3065 21.7898 11.8789C22.081 11.4737 22.1199 11.2659 22.1091 11.1064C22.0984 10.9482 22.0333 10.7505 21.6922 10.3945C21.3312 10.0178 20.7807 9.58202 19.9441 8.92476L16.4949 6.21577Z" fill="#777777"/>
<path d="M32.1897 4.31733C31.8672 4.03973 31.388 4.02422 31.0471 4.29194L26.9524 7.50972C26.1583 8.13357 25.4857 8.65898 25.0159 9.14936C24.5262 9.66045 24.1535 10.2365 24.1028 10.9843C24.0522 11.7308 24.3421 12.3537 24.7561 12.9296C25.1541 13.4834 25.7482 14.1023 26.4504 14.8378L27.5032 15.9404C27.8443 16.2977 28.1651 16.6376 28.4612 16.871C28.7754 17.1188 29.1954 17.3565 29.7346 17.3164C30.2721 17.2763 30.6525 16.9809 30.928 16.6914C31.1853 16.4208 31.4526 16.0438 31.7385 15.6445L36.0569 9.86226C36.4707 10.0246 36.8943 10.1277 37.301 10.1992C37.9417 10.3117 38.6586 10.3661 39.2287 10.4326C40.483 10.5787 41.2808 10.8101 41.759 11.5087C42.0465 11.9289 42.2792 12.5456 42.1125 13.8896C41.1174 21.9151 40.7237 26.2229 39.6155 33.871C39.3678 35.5803 39.1312 36.4864 38.8723 37.0654C38.6329 37.6004 38.3617 37.8903 37.8821 38.3515C37.5131 38.7062 37.0253 38.9496 36.5393 39.1035C36.0505 39.2582 35.6285 39.3017 35.4534 39.3017H27.508C27.011 39.3018 26.6086 39.7051 26.6086 40.2021C26.6087 40.6991 27.0111 41.1015 27.508 41.1015H35.4534C35.8271 41.1015 36.432 41.0251 37.0823 40.8193C37.7351 40.6126 38.4992 40.255 39.1301 39.6484C39.6504 39.1481 40.1293 38.6625 40.5149 37.8007C40.8809 36.9827 41.1445 35.8697 41.3967 34.1289C42.5081 26.459 42.9108 22.0858 43.8996 14.1103C44.1049 12.4547 43.8432 11.3647 43.2453 10.4912C42.2698 9.06586 40.6887 8.79027 39.4377 8.64448C38.7553 8.56497 38.1878 8.5268 37.6125 8.42573C37.0582 8.32834 36.6175 8.18871 36.2717 7.96577C34.9363 7.10487 34.5744 6.84802 34.2356 6.51753C34.055 6.34137 33.8796 6.14279 33.5696 5.79683C33.2666 5.4587 32.8619 5.01174 32.2522 4.3769L32.1897 4.31733ZM31.5129 6.21577C31.8093 6.53357 32.0391 6.78638 32.2287 6.998C32.5164 7.31902 32.7432 7.57687 32.9787 7.80659C33.3543 8.17293 33.7503 8.46548 34.4895 8.95308L30.2961 14.5673L30.2854 14.582C29.9639 15.031 29.7766 15.289 29.6233 15.4501C29.6151 15.4588 29.606 15.4654 29.5989 15.4726C29.5922 15.4676 29.5839 15.4638 29.5764 15.458C29.404 15.322 29.1844 15.0947 28.8049 14.6972L27.7522 13.5947C27.013 12.8204 26.5254 12.3065 26.218 11.8789C25.9268 11.4737 25.8879 11.2659 25.8987 11.1064C25.9094 10.9482 25.9745 10.7505 26.3157 10.3945C26.6766 10.0178 27.2271 9.58202 28.0637 8.92476L31.5129 6.21577Z" fill="#777777"/>
<path d="M26.4863 14.0351C26.742 13.609 27.2945 13.4709 27.7207 13.7265C28.1468 13.9822 28.2849 14.5347 28.0293 14.9609L26.0019 18.3418C25.8932 18.5231 25.8363 18.6179 25.7998 18.6904C25.7929 18.704 25.7886 18.7149 25.7851 18.7226C25.786 18.7311 25.7866 18.743 25.789 18.7588C25.8013 18.8391 25.8256 18.9471 25.873 19.1533L29.5361 35.0859L29.541 35.1074L29.5449 35.1299C30.0984 38.2441 28.3539 39.8713 27.0888 41.4531C26.5434 42.1351 26.0781 42.7206 25.6552 43.124C25.2242 43.5352 24.6942 43.8994 24.0009 43.8994C23.3078 43.8993 22.7777 43.5352 22.3466 43.124C21.9239 42.7206 21.4584 42.135 20.9131 41.4531C19.648 39.8714 17.9036 38.244 18.457 35.1299L18.4609 35.1074L18.4668 35.0859L22.1299 19.1533C22.1773 18.947 22.2015 18.8391 22.2138 18.7588C22.2163 18.7424 22.2169 18.7302 22.2177 18.7217C22.2143 18.714 22.2097 18.7035 22.2031 18.6904C22.1666 18.6179 22.1097 18.5231 22.0009 18.3418L19.9736 14.9609C19.7181 14.5348 19.8563 13.9823 20.2822 13.7265C20.7085 13.4709 21.2619 13.6089 21.5175 14.0351L23.5449 17.415C23.692 17.6603 23.881 17.9529 23.9687 18.293L23.999 18.4414L24.0009 18.4629C24.002 18.4557 24.0027 18.4485 24.0039 18.4414L24.0351 18.293C24.1228 17.9532 24.3109 17.6611 24.458 17.416L26.4863 14.0351ZM24.0009 18.9609C23.9751 19.1755 23.9249 19.3779 23.8838 19.5566L20.2265 35.4599C19.8516 37.6014 20.8871 38.5383 22.3193 40.3291C22.8981 41.0527 23.2759 41.5218 23.5898 41.8213C23.8924 42.1099 23.9939 42.0998 24.0009 42.0996C24.0062 42.0996 24.1074 42.1129 24.4131 41.8213C24.727 41.5218 25.1048 41.0527 25.6836 40.3291C27.1158 38.5383 28.1494 37.6016 27.7744 35.4599L24.1191 19.5566C24.078 19.3779 24.0268 19.1755 24.0009 18.9609Z" fill="#777777"/>
<path d="M30 23C30 22.4477 30.4477 22 31 22H36C36.5523 22 37 22.4477 37 23V24.5C37 25.0523 36.5523 25.5 36 25.5H31C30.4477 25.5 30 25.0523 30 24.5V23Z" fill="white"/>
<path d="M36.3008 23C36.3008 22.8343 36.1667 22.7002 36.001 22.7002H31.001C30.8353 22.7002 30.7012 22.8343 30.7012 23V24.5C30.7012 24.6657 30.8353 24.7998 31.001 24.7998H36.001C36.1667 24.7998 36.3008 24.6657 36.3008 24.5V23ZM37.7012 24.5C37.7012 25.4389 36.9399 26.2002 36.001 26.2002H31.001C30.0621 26.2002 29.3008 25.4389 29.3008 24.5V23C29.3008 22.0611 30.0621 21.2998 31.001 21.2998H36.001C36.9399 21.2998 37.7012 22.0611 37.7012 23V24.5Z" fill="#FBCD6C"/>
<path d="M22.9458 10.1474C23.4417 10.1137 23.8711 10.4884 23.9048 10.9843C23.9553 11.7307 23.6654 12.3537 23.2515 12.9296C22.8534 13.4834 22.2594 14.1022 21.5571 14.8378L20.5044 15.9403C20.1631 16.2978 19.8415 16.6375 19.5454 16.871C19.2312 17.1187 18.812 17.3564 18.2729 17.3163C17.7354 17.2763 17.355 16.9808 17.0796 16.6913C16.8191 16.4175 16.5481 16.0346 16.2583 15.6298C15.969 15.2258 16.0615 14.6634 16.4653 14.3739C16.8695 14.0846 17.4318 14.1778 17.7212 14.5819C18.0428 15.0312 18.2309 15.2889 18.3843 15.4501C18.3921 15.4584 18.4008 15.4646 18.4077 15.4716C18.4145 15.4665 18.4235 15.4629 18.4311 15.4569C18.6035 15.321 18.8233 15.0945 19.2026 14.6972L20.2554 13.5946C20.9946 12.8203 21.4822 12.3065 21.7895 11.8788C22.081 11.4733 22.1197 11.2649 22.1089 11.1054C22.0755 10.6097 22.4502 10.1812 22.9458 10.1474Z" fill="#777777"/>
<path d="M25.062 10.1474C24.5661 10.1137 24.1367 10.4884 24.103 10.9843C24.0525 11.7307 24.3424 12.3537 24.7564 12.9296C25.1544 13.4834 25.7484 14.1022 26.4507 14.8378L27.5034 15.9403C27.8447 16.2978 28.1663 16.6375 28.4624 16.871C28.7766 17.1187 29.1958 17.3564 29.7349 17.3163C30.2724 17.2763 30.6528 16.9808 30.9282 16.6913C31.1887 16.4175 31.4597 16.0346 31.7495 15.6298C32.0388 15.2258 31.9463 14.6634 31.5425 14.3739C31.1384 14.0846 30.576 14.1778 30.2866 14.5819C29.965 15.0312 29.7769 15.2889 29.6235 15.4501C29.6157 15.4584 29.607 15.4646 29.6001 15.4716C29.5933 15.4665 29.5843 15.4629 29.5767 15.4569C29.4043 15.321 29.1845 15.0945 28.8052 14.6972L27.7525 13.5946C27.0132 12.8203 26.5257 12.3065 26.2183 11.8788C25.9268 11.4733 25.8881 11.2649 25.8989 11.1054C25.9324 10.6097 25.5576 10.1812 25.062 10.1474Z" fill="#777777"/>
</svg>
