<svg width="48" height="48" viewBox="0 0 48 48" fill="none" xmlns="http://www.w3.org/2000/svg">
<path d="M6.24122 35.3583H8.52954L39.534 35.5725H41.639C42 35.5725 42.3461 35.4292 42.6014 35.174C42.8566 34.9188 43 34.5725 43 34.2115V30.3022C43 29.9637 42.9053 29.632 42.7267 29.3446C42.5481 29.0571 41.9892 28.6754 41.9892 28.6754L35.8379 13.6176C35.6803 13.3361 35.4505 13.1016 35.1722 12.9384C34.8939 12.7753 34.5772 12.6895 34.2546 12.6895H7.27742C6.67341 12.6895 6.09414 12.9293 5.66704 13.3564C5.23995 13.7835 5 14.3629 5 14.9669V34.1154C4.99988 34.2785 5.03189 34.44 5.0942 34.5907C5.15651 34.7415 5.24792 34.8785 5.36318 34.9939C5.47844 35.1093 5.61529 35.201 5.76595 35.2635C5.91661 35.326 6.0781 35.3582 6.24122 35.3583Z" fill="white"/>
<path d="M12.15 38.9231C14.1141 38.9231 15.7063 37.3309 15.7063 35.3668C15.7063 33.4028 14.1141 31.8105 12.15 31.8105C10.186 31.8105 8.59375 33.4028 8.59375 35.3668C8.59375 37.3309 10.186 38.9231 12.15 38.9231Z" fill="white"/>
<path d="M35.5407 38.8665C37.5048 38.8665 39.097 37.2743 39.097 35.3102C39.097 33.3461 37.5048 31.7539 35.5407 31.7539C33.5766 31.7539 31.9844 33.3461 31.9844 35.3102C31.9844 37.2743 33.5766 38.8665 35.5407 38.8665Z" fill="white"/>
<path d="M29.0557 12.5V11.3906C29.0556 11.2606 29.0032 11.136 28.9111 11.0439C28.8191 10.9519 28.6945 10.9004 28.5645 10.9004C28.4344 10.9004 28.3098 10.9519 28.2178 11.0439C28.1257 11.136 28.0742 11.2605 28.0742 11.3906V12.502C28.0742 12.999 27.6709 13.4023 27.1738 13.4023C26.6768 13.4023 26.2734 12.999 26.2734 12.502V11.3906C26.2735 10.7831 26.5148 10.2001 26.9443 9.77051C27.3739 9.341 27.9569 9.09962 28.5645 9.09961C29.172 9.09961 29.755 9.34102 30.1846 9.77051C30.6141 10.2 30.8555 10.783 30.8555 11.3906V12.5C30.8554 12.997 30.4521 13.3994 29.9551 13.3994C29.4582 13.3993 29.0558 12.9969 29.0557 12.5Z" fill="#232527"/>
<path d="M4.09766 14.9668C4.09768 14.1242 4.43246 13.3156 5.02832 12.7197C5.62422 12.1238 6.43277 11.7891 7.27539 11.7891H34.2529C34.7349 11.7891 35.2085 11.918 35.625 12.1621C36.0414 12.4062 36.3855 12.7569 36.6211 13.1777L36.6426 13.2158L36.6602 13.2568L43.5303 28.9414C43.7698 29.3545 43.8984 29.8232 43.8984 30.3018V34.2119C43.8983 34.8113 43.6593 35.3866 43.2354 35.8105C42.8112 36.2345 42.236 36.4727 41.6367 36.4727H39.5322C39.0352 36.4727 38.6318 36.0693 38.6318 35.5723C38.632 35.0753 39.0353 34.6729 39.5322 34.6729H41.6367C41.759 34.6729 41.8766 34.6242 41.9629 34.5381C42.0492 34.4518 42.0975 34.3341 42.0977 34.2119V30.3018C42.0976 30.1314 42.0499 29.9641 41.96 29.8193L41.9258 29.7646L41.9004 29.7061L35.0371 14.0361C34.9582 13.9037 34.8477 13.7928 34.7148 13.7148C34.575 13.6329 34.4157 13.5899 34.2529 13.5898H7.27539C6.91005 13.5899 6.56002 13.7349 6.30176 13.9932C6.04349 14.2514 5.89846 14.6015 5.89844 14.9668V34.1162C5.89843 34.1611 5.90668 34.2056 5.92383 34.2471C5.94097 34.2885 5.96627 34.3266 5.99805 34.3584C6.02983 34.3902 6.06806 34.4155 6.10938 34.4326C6.15046 34.4496 6.19514 34.458 6.24023 34.458H8.52734C9.0244 34.458 9.42773 34.8613 9.42773 35.3584C9.42768 35.8554 9.02437 36.2588 8.52734 36.2588H6.23828C5.9574 36.2585 5.67896 36.2027 5.41895 36.0947C5.1591 35.9869 4.92327 35.8288 4.72461 35.6299C4.5259 35.4309 4.36823 35.1946 4.26074 34.9346C4.15328 34.6746 4.09745 34.3956 4.09766 34.1143V14.9668Z" fill="#232527"/>
<path d="M31.5146 34.6719C32.0115 34.6721 32.4141 35.0753 32.4141 35.5723C32.4141 36.0692 32.0115 36.4725 31.5146 36.4727H16.0801C15.583 36.4727 15.1797 36.0693 15.1797 35.5723C15.1797 35.0752 15.583 34.6719 16.0801 34.6719H31.5146Z" fill="#232527"/>
<path d="M14.8086 35.3672C14.8086 33.9003 13.6192 32.7111 12.1523 32.7109C10.6853 32.7109 9.49609 33.9002 9.49609 35.3672C9.49628 36.8341 10.6854 38.0234 12.1523 38.0234C13.6191 38.0232 14.8084 36.8339 14.8086 35.3672ZM16.6084 35.3672C16.6082 37.8281 14.6132 39.8231 12.1523 39.8232C9.69132 39.8232 7.6955 37.8282 7.69531 35.3672C7.69531 32.906 9.6912 30.9102 12.1523 30.9102C14.6133 30.9103 16.6084 32.9062 16.6084 35.3672Z" fill="#232527"/>
<path d="M14.8086 35.3672C14.8086 33.9003 13.6192 32.7111 12.1523 32.7109C10.6853 32.7109 9.49609 33.9002 9.49609 35.3672C9.49628 36.8341 10.6854 38.0234 12.1523 38.0234C13.6191 38.0232 14.8084 36.8339 14.8086 35.3672ZM16.6084 35.3672C16.6082 37.8281 14.6132 39.8231 12.1523 39.8232C9.69132 39.8232 7.6955 37.8282 7.69531 35.3672C7.69531 32.906 9.6912 30.9102 12.1523 30.9102C14.6133 30.9103 16.6084 32.9062 16.6084 35.3672Z" fill="#232527"/>
<path d="M38.1992 35.3105C38.1992 33.8436 37.0098 32.6545 35.543 32.6543C34.0759 32.6543 32.8867 33.8435 32.8867 35.3105C32.8869 36.7774 34.0761 37.9668 35.543 37.9668C37.0097 37.9666 38.199 36.7773 38.1992 35.3105ZM39.999 35.3105C39.9988 37.7714 38.0038 39.7664 35.543 39.7666C33.0819 39.7666 31.0861 37.7715 31.0859 35.3105C31.0859 32.8494 33.0818 30.8535 35.543 30.8535C38.004 30.8537 39.999 32.8495 39.999 35.3105Z" fill="#232527"/>
<path d="M42.5879 30.4023C43.0849 30.4024 43.4883 30.8057 43.4883 31.3027C43.4883 31.7998 43.0849 32.2031 42.5879 32.2031H41.4355C40.9385 32.2031 40.5352 31.7998 40.5352 31.3027C40.5352 30.8057 40.9385 30.4023 41.4355 30.4023H42.5879Z" fill="#232527"/>
<path d="M12.6484 24.4736V19.4785C12.6484 18.9815 13.0518 18.5781 13.5488 18.5781C14.0459 18.5781 14.4492 18.9815 14.4492 19.4785V24.4736C14.4491 24.9706 14.0458 25.373 13.5488 25.373C13.0519 25.373 12.6486 24.9706 12.6484 24.4736Z" fill="#FBCD6C"/>
<path d="M16.0439 21.0742C16.5409 21.0744 16.9434 21.4776 16.9434 21.9746C16.9434 22.4716 16.5409 22.8749 16.0439 22.875H11.0488C10.5518 22.875 10.1484 22.4717 10.1484 21.9746C10.1484 21.4776 10.5518 21.0742 11.0488 21.0742H16.0439Z" fill="#FBCD6C"/>
<path d="M27.4023 18.5244C27.4023 18.1796 27.1231 17.9004 26.7783 17.9004H23.5811C23.2363 17.9004 22.957 18.1796 22.957 18.5244V24.7119C22.9573 25.0565 23.2364 25.3359 23.5811 25.3359H26.7783C27.123 25.3359 27.4021 25.0565 27.4023 24.7119V18.5244ZM29.2031 24.7119C29.2029 26.0506 28.1171 27.1357 26.7783 27.1357H23.5811C22.2423 27.1357 21.1565 26.0506 21.1562 24.7119V18.5244C21.1562 17.1855 22.2421 16.0996 23.5811 16.0996H26.7783C28.1172 16.0996 29.2031 17.1855 29.2031 18.5244V24.7119Z" fill="#232527"/>
<path d="M36.998 16.125C37.4951 16.125 37.8984 16.5283 37.8984 17.0254C37.8984 17.5224 37.4951 17.9258 36.998 17.9258H32.9014C32.786 17.9378 32.6783 17.99 32.5986 18.0752C32.5151 18.1646 32.4688 18.2829 32.4688 18.4053V24.8525C32.4686 24.9157 32.4807 24.9786 32.5049 25.0371C32.5292 25.0958 32.5649 25.1488 32.6094 25.1934C32.654 25.238 32.707 25.2736 32.7656 25.2979C32.8242 25.322 32.8869 25.3351 32.9502 25.335H40.998C41.495 25.335 41.8983 25.7374 41.8984 26.2344C41.8984 26.7314 41.4951 27.1348 40.998 27.1348H32.9522V27.1338C32.6526 27.1342 32.356 27.0762 32.0791 26.9619C31.8018 26.8474 31.5493 26.6791 31.3369 26.4668C31.1244 26.2543 30.9564 26.0018 30.8418 25.7246C30.7272 25.4472 30.6675 25.1499 30.668 24.8496V18.4043L30.6787 18.1885C30.7263 17.6887 30.9377 17.2164 31.2832 16.8467C31.6781 16.4242 32.2187 16.1673 32.7959 16.1279L32.8262 16.125H36.998Z" fill="#232527"/>
<path d="M21.0586 28.3535C21.5554 28.3538 21.958 28.757 21.958 29.2539C21.958 29.7508 21.5554 30.154 21.0586 30.1543H5.00195C4.5049 30.1543 4.10156 29.751 4.10156 29.2539C4.10156 28.7568 4.5049 28.3535 5.00195 28.3535H21.0586Z" fill="#232527"/>
</svg>
