<svg width="48" height="48" viewBox="0 0 48 48" fill="none" xmlns="http://www.w3.org/2000/svg">
<path d="M12.6016 41.1V38.25L19.2516 39.2V41.1C19.2516 42.1493 18.4009 43 17.3516 43H14.5016C13.4522 43 12.6016 42.1493 12.6016 41.1Z" fill="white"/>
<path d="M18.3535 39.9795L13.5039 39.2871V41.0996C13.5039 41.6519 13.9516 42.0996 14.5039 42.0996H17.3535C17.9058 42.0996 18.3535 41.6519 18.3535 41.0996V39.9795ZM20.1533 41.0996C20.1533 42.646 18.8999 43.9004 17.3535 43.9004H14.5039C12.9575 43.9004 11.7031 42.646 11.7031 41.0996V38.25C11.7031 37.9892 11.8167 37.7412 12.0137 37.5703C12.2107 37.3994 12.4723 37.3226 12.7305 37.3594L19.3809 38.3086C19.8242 38.3719 20.1533 38.7523 20.1533 39.2002V41.0996Z" fill="#777777"/>
<path d="M35.4 41.1V38.25L28.75 39.2V41.1C28.75 42.1493 29.6007 43 30.65 43H33.5C34.5493 43 35.4 42.1493 35.4 41.1Z" fill="white"/>
<path d="M34.502 39.2871L29.6523 39.9795V41.0996C29.6523 41.6519 30.1001 42.0996 30.6523 42.0996H33.502C34.0542 42.0996 34.502 41.6519 34.502 41.0996V39.2871ZM36.3018 41.0996C36.3018 42.646 35.0484 43.9004 33.502 43.9004H30.6523C29.1059 43.9004 27.8516 42.646 27.8516 41.0996V39.2002C27.8516 38.7523 28.1816 38.372 28.625 38.3086L35.2744 37.3594C35.5326 37.3225 35.7941 37.3995 35.9912 37.5703C36.1883 37.7413 36.3018 37.9891 36.3018 38.25V41.0996Z" fill="#777777"/>
<path d="M8.80078 20.2C8.80078 13.0347 8.80078 9.45198 11.0268 7.22599C13.2528 5 16.8354 5 24.0008 5C31.1661 5 34.7488 5 36.9748 7.22599C39.2008 9.45198 39.2008 13.0347 39.2008 20.2V24C39.2008 31.1653 39.2008 34.748 36.9748 36.974C34.7488 39.2 31.1661 39.2 24.0008 39.2C16.8354 39.2 13.2528 39.2 11.0268 36.974C8.80078 34.748 8.80078 31.1653 8.80078 24V20.2Z" fill="white"/>
<path d="M38.2988 20.2002C38.2988 16.5921 38.2966 13.9761 38.0283 11.9805C37.7635 10.011 37.2547 8.78015 36.3369 7.8623C35.419 6.9444 34.1876 6.43475 32.2178 6.16992C30.2222 5.90167 27.6068 5.90039 23.999 5.90039C20.3909 5.90039 17.775 5.90161 15.7793 6.16992C13.8096 6.43476 12.579 6.94443 11.6611 7.8623C10.7433 8.78018 10.2336 10.0108 9.96875 11.9805C9.70044 13.9761 9.69922 16.5921 9.69922 20.2002V24C9.69922 27.6081 9.70044 30.2241 9.96875 32.2197C10.2336 34.1893 10.7433 35.42 11.6611 36.3379C12.579 37.2557 13.8097 37.7645 15.7793 38.0293C17.775 38.2976 20.3909 38.2998 23.999 38.2998C27.6068 38.2998 30.2222 38.2976 32.2178 38.0293C34.1876 37.7645 35.419 37.2558 36.3369 36.3379C37.2547 35.4201 37.7635 34.1892 38.0283 32.2197C38.2966 30.2241 38.2988 27.6081 38.2988 24V20.2002ZM40.0986 24C40.0986 27.5571 40.1007 30.3155 39.8125 32.459C39.5208 34.6283 38.9174 36.3023 37.6094 37.6104C36.3013 38.9184 34.6274 39.5218 32.458 39.8135C30.3146 40.1017 27.5562 40.0996 23.999 40.0996C20.442 40.0996 17.6835 40.1016 15.54 39.8135C13.3707 39.5218 11.6967 38.9184 10.3887 37.6104C9.08059 36.3023 8.47721 34.6284 8.18555 32.459C7.89738 30.3155 7.89844 27.5572 7.89844 24V20.2002C7.89844 16.6431 7.89741 13.8847 8.18555 11.7412C8.47721 9.57183 9.08059 7.89793 10.3887 6.58984C11.6968 5.28176 13.3707 4.67839 15.54 4.38672C17.6835 4.09858 20.442 4.09961 23.999 4.09961C27.5562 4.09961 30.3146 4.09854 32.458 4.38672C34.6274 4.67839 36.3013 5.28177 37.6094 6.58984C38.9173 7.8979 39.5208 9.57193 39.8125 11.7412C40.1006 13.8847 40.0986 16.6432 40.0986 20.2002V24Z" fill="#777777"/>
<path d="M39.1992 24.9995C39.6961 24.9997 40.0986 25.403 40.0986 25.8999C40.0986 26.3968 39.6961 26.8001 39.1992 26.8003H8.79883C8.30177 26.8003 7.89844 26.397 7.89844 25.8999C7.89844 25.4028 8.30177 24.9995 8.79883 24.9995H39.1992Z" fill="#777777"/>
<path d="M33.5 30.6997C33.9971 30.6997 34.4004 31.103 34.4004 31.6001C34.4004 32.0972 33.9971 32.5005 33.5 32.5005H30.6504C30.1533 32.5005 29.75 32.0972 29.75 31.6001C29.75 31.103 30.1533 30.6997 30.6504 30.6997H33.5Z" fill="#FBCD6C"/>
<path d="M17.3516 30.6997C17.8486 30.6997 18.252 31.103 18.252 31.6001C18.252 32.0972 17.8486 32.5005 17.3516 32.5005H14.502C14.0049 32.5005 13.6016 32.0972 13.6016 31.6001C13.6016 31.103 14.0049 30.6997 14.502 30.6997H17.3516Z" fill="#FBCD6C"/>
<path d="M42.1016 22.0999V20.2004C42.1016 19.6483 41.6537 19.2007 41.1016 19.2004H39.2012C38.7041 19.2004 38.3008 18.7971 38.3008 18.3C38.3008 17.803 38.7041 17.3997 39.2012 17.3997H41.1016C42.6478 17.3999 43.9014 18.6542 43.9014 20.2004V22.0999C43.9014 22.9812 43.4863 23.8113 42.7812 24.3401L39.7412 26.6204C39.3436 26.9185 38.7796 26.8373 38.4814 26.4397C38.1833 26.0421 38.2635 25.4781 38.6611 25.1799L41.7012 22.8997C41.9529 22.7108 42.1016 22.4145 42.1016 22.0999Z" fill="#777777"/>
<path d="M4.10156 22.0999V20.2004C4.10156 18.654 5.35595 17.3997 6.90234 17.3997H8.80176C9.29881 17.3997 9.70215 17.803 9.70215 18.3C9.70215 18.7971 9.29881 19.2004 8.80176 19.2004H6.90234C6.35006 19.2004 5.90234 19.6482 5.90234 20.2004V22.0999C5.90234 22.4145 6.05014 22.7108 6.30176 22.8997L9.3418 25.1799C9.73944 25.4782 9.81972 26.0421 9.52148 26.4397C9.22325 26.8373 8.65936 26.9186 8.26172 26.6204L5.22168 24.3401C4.51672 23.8113 4.10156 22.9811 4.10156 22.0999Z" fill="#777777"/>
<path d="M38.252 9.79956C38.749 9.79956 39.1523 10.2029 39.1523 10.7C39.1523 11.197 38.749 11.6003 38.252 11.6003H9.75195C9.2549 11.6003 8.85156 11.197 8.85156 10.7C8.85156 10.2029 9.2549 9.79956 9.75195 9.79956H38.252Z" fill="#777777"/>
</svg>
