<svg width="67" height="18" viewBox="0 0 67 18" fill="none" xmlns="http://www.w3.org/2000/svg">
<g clip-path="url(#clip0_5811_28681)">
<path d="M52.7031 11.0413C52.7819 11.0805 52.8511 11.1368 52.9057 11.2061C52.9984 11.3339 53.0577 11.4831 53.078 11.64V16.1562C53.078 17.4014 53.6986 17.5619 54.4613 17.5619H65.6308C66.5702 17.5619 67.0012 17.1063 67.0012 16.1562V1.13237C67.0012 0.698534 66.6952 0.494629 66.1091 0.494629H64.0493C64.1038 0.576107 64.1459 0.665307 64.1743 0.759278C64.2796 1.2815 64.3202 1.81485 64.295 2.34712V3.43606H61.7396V4.98053H64.295V6.5814H61.7396V8.13021H64.295V12.4296H55.8058V11.679C55.8058 11.2452 55.4998 11.0413 54.9181 11.0413H52.7031ZM64.2907 16.0304H55.7972V13.9784H64.2907V16.0304Z" fill="#0056A7"/>
<path d="M54.4055 0.17334C54.4864 0.211214 54.5572 0.267688 54.6124 0.338201C54.7452 0.539294 54.8102 0.778128 54.7977 1.01932V1.41411H50.5703V2.96292H53.0438C51.751 3.65273 50.8892 4.77638 50.8892 6.09959C50.8892 8.30783 53.2377 9.76552 56.1335 9.76552C59.0293 9.76552 61.3779 8.30783 61.3779 6.09959C61.3779 4.77638 60.5376 3.65273 59.2233 2.96292H61.7011V1.41411H57.5082V0.724311C57.5082 0.355548 57.2453 0.17334 56.7368 0.17334H54.4055ZM56.1508 8.3729C54.6425 8.3729 53.423 7.46184 53.423 6.16032C53.4776 5.46968 53.7887 4.8251 54.2942 4.35503C54.7997 3.88496 55.4626 3.62392 56.1508 3.62392C56.8389 3.62392 57.5018 3.88496 58.0074 4.35503C58.5129 4.8251 58.8239 5.46968 58.8785 6.16032C58.8785 7.46184 57.659 8.3729 56.1508 8.3729Z" fill="#0056A7"/>
<path d="M28.438 0.841677C28.5162 0.883575 28.5863 0.939436 28.6448 1.00654C28.7761 1.20815 28.8396 1.44696 28.8258 1.68767V3.07162C28.8258 5.60524 27.3779 7.41002 23.9219 7.68333V9.41869C27.2486 9.41869 29.0111 8.256 30.2004 6.32107C32.062 9.57053 35.7636 9.42303 38.0131 9.42303V15.9653H30.2047C30.1078 15.9781 30.0092 15.9708 29.9151 15.944C29.821 15.9171 29.7334 15.8712 29.6575 15.8091C29.5617 15.6744 29.5159 15.5101 29.5282 15.3449V11.5749C29.5385 11.423 29.5024 11.2716 29.4248 11.141C29.3732 11.0868 29.3096 11.0455 29.2393 11.0206C29.1689 10.9958 29.0936 10.988 29.0197 10.9979H26.5591C26.6821 11.1115 26.7614 11.2651 26.7832 11.4317C26.8122 11.5979 26.8266 11.7663 26.8263 11.935V16.3471C26.8224 16.4803 26.8456 16.613 26.8945 16.7368C26.9434 16.8607 27.017 16.9732 27.1107 17.0673C27.3035 17.2354 27.5282 17.3625 27.7711 17.4408C28.014 17.5191 28.2702 17.547 28.5241 17.5228H39.5256C40.2065 17.5228 40.7279 17.1584 40.7279 16.1128V1.09765C40.7279 0.663814 40.4219 0.455566 39.8359 0.455566H37.7631C37.8177 0.538575 37.8598 0.629203 37.8881 0.724545C37.9957 1.24644 38.0363 1.7801 38.0088 2.3124V7.70069C34.6217 7.60525 31.5449 7.16706 31.9155 3.14103V1.40568C31.9155 1.03691 31.6526 0.854705 31.1442 0.854705L28.438 0.841677Z" fill="#0056A7"/>
<path d="M18.3946 10.5943C17.4983 12.8416 15.9901 13.4794 15.9901 13.4794C20.4243 8.95877 17.7138 3.74402 17.7138 3.74402C17.0588 2.57699 17.8905 2.06941 17.8905 2.06941C15.9858 2.54663 16.5977 4.13449 16.5977 4.13449C17.346 5.80138 17.4982 7.67761 17.0286 9.44468L16.4038 9.09327C16.4038 9.09327 17.8905 3.19739 11.8274 1.12797V0.017344H10.5346V7.32754L16.4856 10.7419C16.3736 10.9631 16.2616 11.1757 16.1409 11.3666L10.164 7.89587L4.16554 11.3666C4.04027 11.1643 3.92521 10.9558 3.82081 10.7419L9.77186 7.32754V0H8.47909V1.11063C2.416 3.18004 3.90268 9.07591 3.90268 9.07591L3.27353 9.42732C2.80641 7.66003 2.9586 5.78465 3.70446 4.11713C3.70446 4.11713 4.29913 2.52928 2.41168 2.05205C2.41168 2.05205 3.24337 2.55965 2.58837 3.72668C2.58837 3.72668 -0.117834 8.93275 4.31206 13.462C4.31206 13.462 2.80814 12.8243 1.90751 10.577C1.72691 10.2362 1.43854 9.96582 1.08808 9.80865C0.737611 9.65149 0.345083 9.61653 -0.0273438 9.70931C0.190508 9.84867 0.378821 10.0301 0.526736 10.243C0.674652 10.456 0.779248 10.6963 0.834503 10.9501C0.834503 10.9501 2.12728 15.0716 7.08721 15.7006V17.974H9.53054V14.6204C7.78317 14.5054 6.1478 13.714 4.96706 12.4121L5.57898 12.0521C6.83754 13.1906 8.44442 13.8625 10.1338 13.9566H10.1812C11.8701 13.8601 13.4762 13.1885 14.7361 12.0521L15.348 12.4121C14.1673 13.714 12.5319 14.5054 10.7845 14.6204V17.974H13.2236V15.7006C18.1921 15.0716 19.4806 10.9501 19.4806 10.9501C19.5358 10.6963 19.6404 10.456 19.7883 10.243C19.9362 10.0301 20.1246 9.84867 20.3424 9.70931C19.9663 9.6202 19.5714 9.65865 19.2192 9.81869C18.867 9.97873 18.5771 10.2514 18.3946 10.5943ZM15.2187 8.42515L11.8575 6.54229V2.49891C11.8575 2.49891 15.9039 3.59653 15.2187 8.41648V8.42515ZM8.45754 2.48589V6.52928L5.10065 8.42515C4.42841 3.59652 8.45754 2.48589 8.45754 2.48589ZM10.1812 9.39262L13.5252 11.3666H13.495C12.5763 12.1825 11.3934 12.6327 10.1683 12.6327C8.94323 12.6327 7.76029 12.1825 6.84158 11.3666H6.81141L10.1812 9.39262Z" fill="#0056A7"/>
</g>
<defs>
<clipPath id="clip0_5811_28681">
<rect width="67" height="18" fill="white"/>
</clipPath>
</defs>
</svg>
