<svg width="27" height="26" viewBox="0 0 27 26" fill="none" xmlns="http://www.w3.org/2000/svg">
<path d="M6.53094 0.32149C6.17377 0.498799 5.85546 0.745428 5.59457 1.047C5.33368 1.34858 5.13542 1.69906 5.01136 2.07803L0.155179 16.664C-0.0989295 17.428 -0.0391711 18.2617 0.321311 18.9816C0.681793 19.7016 1.31348 20.2489 2.07743 20.5031L17.9949 25.8473C18.7586 26.0988 19.5907 26.0378 20.3096 25.6776C21.0284 25.3174 21.5754 24.6873 21.8311 23.9251L26.6852 9.33911C26.9384 8.57523 26.8785 7.74216 26.5188 7.02231C26.1591 6.30245 25.5287 5.75447 24.7659 5.49833L8.84842 0.158678C8.47062 0.030871 8.07118 -0.0205523 7.67333 0.00739823C7.27548 0.0353488 6.88716 0.142115 6.53094 0.32149Z" fill="white"/>
<path d="M10.7695 1.91749C13.5543 2.94988 15.5871 5.9244 15.3895 9.16738C15.3196 10.3762 14.948 11.5482 14.3087 12.5765C13.4319 11.5947 12.3351 10.8346 11.1079 10.3584L10.3966 10.0792V16.8444L11.1183 16.5643C12.3432 16.0836 13.4364 15.319 14.3083 14.3334C15.1616 15.7013 15.5389 17.3129 15.3816 18.9175C15.2243 20.522 14.5411 22.0296 13.4383 23.2057L13.4453 23.2003L13.4383 23.2086L2.39399 19.5153C1.89367 19.3507 1.47882 18.9948 1.24005 18.5253C1.00128 18.0558 0.958005 17.511 1.11967 17.0097L5.98828 2.4138C6.14749 1.91856 6.49684 1.50682 6.95955 1.2691C7.42225 1.03138 7.96041 0.987138 8.45573 1.1461L8.47147 1.15149L10.7695 1.91749Z" fill="#0092D8"/>
<path d="M7.91709 17.2527H6.82422V9.67432H7.91709V17.2527Z" fill="white"/>
<path d="M13.6685 13.4538C13.0534 12.7203 12.2991 12.1159 11.4492 11.6753V15.2381C12.2985 14.7942 13.0525 14.188 13.6685 13.4538Z" fill="#E43D30"/>
<path d="M24.415 6.46872L14.2734 3.08447C15.5486 4.4751 16.3153 6.25648 16.4488 8.1385C16.5822 10.0205 16.0745 11.8923 15.0084 13.4489C16.0485 14.9546 16.5648 16.7605 16.4778 18.5884C16.3908 20.4164 15.7054 22.1651 14.527 23.5652L18.3342 24.8366C18.58 24.9174 18.8392 24.9489 19.0972 24.9294C19.3551 24.9099 19.6067 24.8398 19.8376 24.723C20.0684 24.6062 20.274 24.4451 20.4425 24.2489C20.6111 24.0526 20.7393 23.8251 20.8199 23.5793V23.5739L25.6885 8.97884C25.8502 8.47706 25.8071 7.93171 25.5686 7.46156C25.3301 6.99141 24.9154 6.63455 24.415 6.46872ZM21.7222 17.2305H20.3551L17.538 13.4489L20.4015 9.65826H21.7893L18.9159 13.4489L21.7222 17.2305Z" fill="#004B9D"/>
</svg>
