<svg width="90" height="20" viewBox="0 0 90 20" fill="none" xmlns="http://www.w3.org/2000/svg">
<path d="M52.2958 9.75716H51.6022V7.00391H50.3555V15.502H51.6022V10.6721H52.2958V15.502H53.5426V7.00391H52.2958V9.75716Z" fill="#0B386A"/>
<path d="M48.3067 9.51478V7.29346H46.9918V9.51478C46.9918 11.0893 46.4302 11.9489 45.2812 12.3617V13.2808C46.3536 13.0383 47.2301 12.5191 47.6471 11.6893C48.0641 12.5191 48.9407 13.0425 50.013 13.2808V12.3617C48.8641 11.9446 48.3024 11.0893 48.3024 9.51478H48.3067Z" fill="#0B386A"/>
<path d="M62.013 7.00391H60.7109V15.502H62.013V10.6721H63.3662V9.75716H62.013V7.00391Z" fill="#0B386A"/>
<path d="M58.8754 7.39111H54.7734V12.4125C54.7734 12.838 55.1224 13.187 55.5436 13.187H59.3095V7.82516C59.3095 7.58261 59.118 7.39111 58.8754 7.39111ZM58.0074 12.3146H56.0755V8.25922H58.0074V12.3146Z" fill="#0B386A"/>
<path d="M64.6953 8.59593C64.6953 9.62149 65.9208 10.3364 67.7846 10.3364C69.6484 10.3364 70.8738 9.62149 70.8738 8.59593C70.8738 7.57038 69.6484 6.85547 67.7846 6.85547C65.9208 6.85547 64.6953 7.57038 64.6953 8.59593ZM69.5207 8.59593C69.5207 9.06828 68.8271 9.46404 67.7803 9.46404C66.7336 9.46404 66.0442 9.06828 66.0442 8.59593C66.0442 8.12358 66.7378 7.72783 67.7803 7.72783C68.8229 7.72783 69.5207 8.12358 69.5207 8.59593Z" fill="#0B386A"/>
<path d="M72.0328 10.7231H63.5352V11.5912H72.0328V10.7231Z" fill="#0B386A"/>
<path d="M64.5003 13.3498V14.7328C64.5003 15.1583 64.8493 15.5073 65.2705 15.5073H71.1597V14.6945H65.8492V14.1328H71.0619V12.4604C71.0619 12.2179 70.8704 12.0264 70.6278 12.0264H64.4961V12.8392H69.7087V13.3498H64.4961H64.5003Z" fill="#0B386A"/>
<path d="M80.1176 9.12754V7.72751C80.1176 7.48495 79.9262 7.29346 79.6836 7.29346H73.5519V8.16156H78.8155V9.12754C78.8155 9.70628 78.7177 10.102 78.5262 10.3829H72.5859V11.251H81.0836V10.3829H79.7815C79.973 10.102 80.1176 9.70628 80.1176 9.12754Z" fill="#0B386A"/>
<path d="M80.1205 15.503V12.4604C80.1205 12.2179 79.929 12.0264 79.6864 12.0264H73.5547V14.7328C73.5547 15.1583 73.9036 15.5073 74.3291 15.5073H80.1247L80.1205 15.503ZM74.8568 12.8945H78.8141V14.6349H74.8568V12.8945Z" fill="#0B386A"/>
<path d="M87.3295 12.703H88.5848C88.8146 12.2008 88.972 11.5455 88.972 10.6731V7.91989C88.972 7.67733 88.7805 7.48584 88.538 7.48584H82.4062V8.35394H87.6699V10.6731C87.6699 11.5412 87.5465 12.2008 87.3338 12.703H87.3295Z" fill="#0B386A"/>
<path d="M85.8197 10.6724H84.5048V13.6682H81.4453V14.5363H89.9429V13.6682H85.8197V10.6724Z" fill="#0B386A"/>
<path d="M40.2303 12.2423H42.1324V13.3104C41.5579 13.8423 40.8005 14.0934 40.0473 14.0934C38.5835 14.0934 37.4431 13.1615 37.4431 11.2295C37.4431 9.73162 38.1623 8.36989 40.0516 8.36989C41.0047 8.36989 41.8047 8.75287 42.0813 9.80822H43.4727C43.3238 8.25925 42.0898 7.06348 40.1367 7.06348C37.6091 7.06348 35.9453 8.62947 35.9453 11.2934C35.9453 13.9572 37.7963 15.4509 40.1367 15.4509C41.2303 15.4509 42.5877 14.9743 43.5493 13.8764V10.9402H40.2345V12.2423H40.2303Z" fill="#0B386A"/>
<path d="M31.0318 13.2342L28.8148 7.1958H26.9766V15.3109H28.3765V9.80437L30.3765 15.213H31.6913L33.6913 9.80437V15.3109H35.0912V7.1958H33.253L31.0318 13.2342Z" fill="#0B386A"/>
<path d="M7.74871 15.9146C5.9828 15.9146 4.5488 14.4805 4.5488 12.7145C4.5488 11.8762 4.8722 11.1102 5.39984 10.54C4.84667 9.5272 4.53604 8.36547 4.53604 7.1314C4.53604 6.94416 4.54455 6.75267 4.55731 6.56543C1.90207 7.53141 0 10.0804 0 13.0762C0 16.8976 3.09778 19.9998 6.9232 19.9998C8.1487 19.9998 9.2976 19.6806 10.2976 19.1232V14.6507C9.71035 15.4167 8.79123 15.9146 7.74871 15.9146Z" fill="url(#paint0_linear_5811_28652)"/>
<path d="M7.74818 9.51085C8.10987 9.51085 8.45879 9.57042 8.78219 9.68106C8.42475 9.13637 8.21199 8.48104 8.21199 7.77889C8.21199 5.87247 9.75663 4.32775 11.663 4.32775C13.0544 4.32775 14.2501 5.14905 14.799 6.33631C15.3139 6.2129 15.8501 6.14907 16.4032 6.14907C17.2373 6.14907 18.033 6.29375 18.7691 6.5661C18.4798 2.89368 15.4075 0 11.663 0C7.72265 0 4.53125 3.19156 4.53125 7.12782C4.53125 8.36189 4.84188 9.52361 5.39505 10.5364C5.98227 9.90234 6.81629 9.50659 7.74392 9.50659L7.74818 9.51085Z" fill="url(#paint1_linear_5811_28652)"/>
<path d="M16.4053 6.14941C15.8521 6.14941 15.3159 6.21325 14.8011 6.33665C15.0053 6.77496 15.1159 7.26433 15.1159 7.77924C15.1159 8.48138 14.9074 9.13246 14.5457 9.67715C14.8691 9.56651 15.2181 9.50693 15.5798 9.50693C17.3499 9.50693 18.7797 10.941 18.7797 12.7113C18.7797 14.4815 17.3457 15.9113 15.5798 15.9113C14.5415 15.9113 13.6181 15.4177 13.0352 14.6517V19.1199C14.0351 19.6774 15.184 19.9965 16.4095 19.9965C20.2349 19.9965 23.3327 16.8986 23.3327 13.073C23.3327 9.24735 20.2307 6.14941 16.4095 6.14941H16.4053Z" fill="url(#paint2_linear_5811_28652)"/>
<defs>
<linearGradient id="paint0_linear_5811_28652" x1="6.18705" y1="20.0679" x2="3.80391" y2="6.5527" gradientUnits="userSpaceOnUse">
<stop offset="0.15" stop-color="#44C8F5"/>
<stop offset="0.31" stop-color="#3FC2F1"/>
<stop offset="0.52" stop-color="#32B1E6"/>
<stop offset="0.75" stop-color="#1D96D4"/>
<stop offset="1" stop-color="#0072BC"/>
</linearGradient>
<linearGradient id="paint1_linear_5811_28652" x1="4.06318" y1="7.11079" x2="17.4715" y2="2.23453" gradientUnits="userSpaceOnUse">
<stop offset="0.15" stop-color="#44C8F5"/>
<stop offset="0.31" stop-color="#3FC2F1"/>
<stop offset="0.52" stop-color="#32B1E6"/>
<stop offset="0.75" stop-color="#1D96D4"/>
<stop offset="1" stop-color="#0072BC"/>
</linearGradient>
<linearGradient id="paint2_linear_5811_28652" x1="19.486" y1="6.7707" x2="17.1114" y2="20.2433" gradientUnits="userSpaceOnUse">
<stop offset="0.15" stop-color="#44C8F5"/>
<stop offset="0.31" stop-color="#3FC2F1"/>
<stop offset="0.52" stop-color="#32B1E6"/>
<stop offset="0.75" stop-color="#1D96D4"/>
<stop offset="1" stop-color="#0072BC"/>
</linearGradient>
</defs>
</svg>
