<svg width="51" height="22" viewBox="0 0 51 22" fill="none" xmlns="http://www.w3.org/2000/svg">
<path d="M50.4426 0.0839844C48.9143 6.39762 43.4351 9.84809 40.2183 11.6835L40.0781 11.4966C41.4129 10.4221 45.9311 7.07838 47.3793 1.53226L50.4426 0.0839844Z" fill="#F58220"/>
<path d="M13.8113 0.0161133C13.7312 0.59008 12.5566 8.75243 12.4766 9.51327H15.0927C15.1728 8.93263 16.3474 0.776953 16.4275 0.0161133H13.8113Z" fill="#043B72"/>
<path d="M35.2215 0.0161133C35.1414 0.59008 33.9668 8.75243 33.8867 9.51327H40.02C40.0801 9.0928 40.2336 7.99158 40.3137 7.46433H36.5963L36.8499 5.70906H40.1868C40.2469 5.30195 40.3871 4.31419 40.4605 3.79362H37.1235L37.3705 2.06505H40.9877C41.0478 1.64458 41.208 0.543362 41.2814 0.0161133H35.2215Z" fill="#043B72"/>
<path d="M6.07989 5.46865C6.07989 5.46865 8.26892 0.463109 8.43577 0.0292969H11.766C11.766 0.6967 11.3322 8.85237 11.3322 9.52645H8.963L9.35676 2.85242L6.50702 9.52645H4.63833L3.79743 2.85242C3.73069 3.15943 2.84307 7.59766 2.36255 9.52645H0C0.246933 8.67885 2.05555 0.516501 2.1957 0.0292969H5.36579L6.07989 5.46865Z" fill="#043B72"/>
<path d="M30.6305 7.60433C30.6305 7.60433 30.7974 9.15271 30.8575 9.52645H33.3668C33.2267 8.74559 31.8519 0.583241 31.7584 0.0292969H28.5817C28.3948 0.423065 24.7709 8.59209 24.3438 9.52645H26.8932C27.0266 9.2061 27.674 7.60433 27.674 7.60433H30.6305ZM28.3881 5.64216L29.8897 2.11827L30.3769 5.64216H28.3881Z" fill="#043B72"/>
<path d="M20.0743 1.81119H20.6549C20.8567 1.78677 21.0614 1.80634 21.255 1.86855C21.4485 1.93076 21.6263 2.03415 21.7761 2.1716C21.8795 2.30524 21.9517 2.46027 21.9875 2.62539C22.0233 2.7905 22.0217 2.96153 21.983 3.12598C21.983 3.12598 21.9096 3.84677 21.429 4.08036C21.1618 4.22955 20.8608 4.30768 20.5548 4.30727H19.3735L21.6026 9.52637H24.1453L22.2232 5.52195C23.3845 5.30838 24.2921 4.96133 24.5257 3.15934C24.5582 2.93838 24.5738 2.71527 24.5724 2.49194C24.6007 1.91027 24.4156 1.33828 24.0519 0.883494C23.7158 0.573657 23.3196 0.336181 22.888 0.185784C22.4563 0.0353884 21.9983 -0.0247189 21.5425 0.00919809H17.952C17.8719 0.583165 16.6973 8.74551 16.6172 9.50635H18.9998C19.0798 8.97243 20.101 1.79117 20.101 1.79117" fill="#043B72"/>
<path d="M28.4832 16.0016L28.6234 15.9683L28.4766 16.0016H28.4832Z" fill="#043B72"/>
<path d="M32.6618 12.2104C32.6018 12.6042 32.4216 13.8589 32.3281 14.4663C34.4389 13.8952 36.4956 13.1404 38.4748 12.2104H32.6618Z" fill="#043B72"/>
<path d="M15.4488 16.435C15.1959 16.2454 14.9229 16.0842 14.6346 15.9545L13.9672 15.6141C13.747 15.4873 13.2264 15.187 13.2264 14.6797C13.2248 14.5637 13.2485 14.4487 13.2957 14.3426C13.343 14.2366 13.4127 14.1421 13.5001 14.0657C13.6296 13.9749 13.7765 13.912 13.9316 13.881C14.0867 13.8499 14.2466 13.8515 14.4011 13.8855C14.9791 14.0262 15.5091 14.3188 15.936 14.7331L16.857 12.8778C16.2232 12.3471 15.4532 12.0048 14.6346 11.89C13.5654 11.6976 12.4636 11.9376 11.5713 12.5574C11.2398 12.8181 10.9639 13.1426 10.7598 13.5117C10.5558 13.8808 10.4278 14.287 10.3834 14.7064C10.3834 14.8599 10.3834 15.0068 10.3834 15.1536C10.3755 15.5345 10.4506 15.9126 10.6036 16.2615H10.7705C11.9584 16.3483 13.5868 16.4217 15.4422 16.435" fill="#043B72"/>
<path d="M27.8259 14.2731H31.4432C31.5033 13.8526 31.6567 12.7514 31.7368 12.2241H25.7304C25.697 12.4711 25.4634 14.0862 25.2031 15.9215C26.0374 15.8148 26.8649 15.6946 27.6725 15.5478L27.8259 14.2731Z" fill="#043B72"/>
<path d="M33.6363 14.5867L32.802 14.847L32.6686 14.8937L32.3082 15.0005L32.1614 15.0406C31.7676 15.154 31.3738 15.2742 30.9534 15.3876L30.7532 15.441L30.3928 15.5345L30.1592 15.5945L29.8055 15.6879L29.5385 15.7547L28.9379 15.8948L28.6242 15.9683L28.4841 16.0016C27.4162 16.2419 26.2683 16.4755 25.0604 16.669H24.9936L24.3262 16.7892H24.1794L23.4586 16.8959H23.4119C22.1127 17.0917 20.7446 17.2519 19.3075 17.3765L18.6401 17.4299H18.5734L17.906 17.4766H17.8593L17.1452 17.5166L16.4177 17.5567C15.2097 17.6101 13.9617 17.6435 12.6737 17.6435H11.5391C10.498 17.6435 9.43017 17.5901 8.33565 17.53C6.68721 17.4432 4.99873 17.3097 3.22348 17.1095L5.22564 15.2008C6.1503 15.4706 7.08807 15.6934 8.03533 15.8682C7.72166 14.0328 7.4547 12.4177 7.40799 12.1841H4.23123C4.05103 12.5778 0.427127 20.7469 0 21.6812H2.54274C2.68289 21.3609 3.53714 19.3186 3.53714 19.3186H6.20669C6.20669 19.3186 6.46697 21.3208 6.52036 21.6812H9.02974C8.97635 21.3742 8.73609 19.9393 8.45579 18.2775C10.2444 18.3776 12.033 18.3909 13.7081 18.3709C13.7924 18.5072 13.8364 18.6645 13.8349 18.8248C13.8415 18.8846 13.8415 18.9451 13.8349 19.0049C13.8009 19.2086 13.6883 19.3908 13.5212 19.5122C13.1569 19.7074 12.7307 19.7529 12.3333 19.639C11.5529 19.4326 10.8543 18.9924 10.3311 18.3776C10.0041 18.9115 9.31672 20.0261 9.10315 20.3798C9.94894 21.1996 11.0245 21.742 12.1865 21.9349C13.2406 22.1145 14.3231 21.875 15.2031 21.2674C15.6422 20.9112 15.9917 20.4569 16.2235 19.9412C16.4553 19.4254 16.563 18.8624 16.5378 18.2975C18.3331 18.2174 19.8214 18.1106 20.7757 18.0239C20.915 18.1092 21.031 18.2275 21.1137 18.3684C21.1963 18.5092 21.243 18.6683 21.2496 18.8314C21.2529 18.8915 21.2529 18.9516 21.2496 19.0116C21.2318 19.1138 21.1937 19.2113 21.1375 19.2984C21.0814 19.3855 21.0083 19.4605 20.9226 19.5189C20.5607 19.7144 20.1364 19.7599 19.7413 19.6457C18.9621 19.4365 18.2642 18.9968 17.7391 18.3843L16.5111 20.3865C17.3579 21.2048 18.433 21.7471 19.5945 21.9415C20.6486 22.1219 21.7314 21.8823 22.6111 21.2741C22.9653 21.0107 23.263 20.6789 23.4865 20.2982C23.7101 19.9176 23.8549 19.496 23.9125 19.0583C24.0017 18.5973 23.9811 18.1217 23.8524 17.6701L25.0203 17.4899C24.7333 19.4922 24.4664 21.3475 24.4197 21.6946H30.5596C30.613 21.2741 30.7732 20.1796 30.8466 19.6457H27.1293L27.3829 17.8837H30.7532C30.8066 17.5233 30.9267 16.6891 31.0068 16.1485C31.4673 16.0083 31.6742 15.9149 31.6742 15.9149C31.6742 15.9149 32.8154 15.5745 34.297 15.0339C34.0768 16.5155 33.4294 21.0405 33.336 21.7079H36.0055L37.0333 14.5734H38.8819C38.9353 14.1596 39.1222 12.8582 39.209 12.2642C37.4259 13.1977 35.5632 13.9705 33.643 14.5734" fill="#043B72"/>
<path d="M22.0673 15.9618L21.3999 15.6148C21.173 15.488 20.6525 15.1877 20.6525 14.6804C20.6504 14.5643 20.6738 14.4491 20.7211 14.343C20.7684 14.237 20.8384 14.1425 20.9261 14.0664C21.055 13.9744 21.202 13.9108 21.3573 13.8798C21.5126 13.8487 21.6727 13.8509 21.8271 13.8862C22.4051 14.0269 22.9351 14.3195 23.3621 14.7338C23.6357 14.2132 24.1429 13.2255 24.3365 12.8718C23.7019 12.3423 22.9323 12.0002 22.1141 11.884C21.5846 11.7884 21.0416 11.7981 20.5159 11.9126C19.9903 12.0271 19.4924 12.2442 19.0507 12.5514C18.716 12.8076 18.4377 13.13 18.2333 13.4987C18.0289 13.8673 17.9028 14.2742 17.8628 14.6938C17.853 14.8427 17.853 14.9921 17.8628 15.1409C17.8522 15.5883 17.9604 16.0305 18.1765 16.4223C19.5913 16.389 21.0796 16.3222 22.5812 16.1954C22.4371 16.1105 22.2877 16.0347 22.1341 15.9685" fill="#043B72"/>
</svg>
