<svg width="32" height="22" viewBox="0 0 32 22" fill="none" xmlns="http://www.w3.org/2000/svg">
<path d="M8.74014 10.9898C12.2933 13.2745 12.6376 15.3193 11.8739 17.0047C11.5579 17.7084 10.8903 18.3215 10.8903 18.3215C10.8903 18.3215 13.9061 16.8667 14.8605 14.74C15.9275 12.3645 14.7717 9.84908 11.5399 7.66869C8.86255 5.86429 9.97493 4.15743 9.97493 4.15743C9.97493 4.15743 10.8576 1.90876 14.1543 1.90973C17.5251 1.90973 17.7738 4.17645 17.7738 4.17645L19.0905 1.56739C19.2749 1.15628 16.9448 0.00097535 13.5949 0C10.2968 0 7.25517 1.32599 6.06963 3.96772C4.62027 7.19369 6.45977 9.52575 8.74014 10.9898Z" fill="#1277BD"/>
<path d="M30.4211 14.6463C30.8839 13.3486 33.5237 6.82498 28.9815 6.82401C25.8814 6.82401 22.3735 9.25604 22.3735 9.25604L25.4517 2.09308C25.4517 2.09308 26.3037 0.375975 24.334 0.375H21.1602C21.1602 0.375 22.3379 0.839754 21.2972 3.15816L16.7068 13.6139C16.7068 13.6139 14.1006 19.2675 8.8591 19.2665C1.96045 19.2665 2.49446 12.2562 2.49446 12.2562L0 17.7611C0 17.7611 2.23014 21.999 7.68429 22C10.9824 22 13.0746 20.6096 14.0909 19.5128C14.0909 19.5128 13.1063 21.8049 15.7187 21.8049H18.4009C18.4009 21.8049 17.6455 21.2782 17.7016 20.6106C17.7577 19.9429 18.655 17.8338 19.2622 16.7297C19.8693 15.6256 22.8773 10.2689 26.3827 9.93245C29.5428 9.63009 24.7807 19.5562 24.7807 19.5562C24.7807 19.5562 23.8609 21.7049 26.2501 21.7683C28.6392 21.8317 29.0786 21.8293 29.0786 21.8293C29.0786 21.8293 28.1798 21.1573 28.6236 19.9332C29.0674 18.7091 29.9579 15.945 30.4211 14.6463Z" fill="#1277BD"/>
</svg>
