<svg width="35" height="22" viewBox="0 0 35 22" fill="none" xmlns="http://www.w3.org/2000/svg">
<g clip-path="url(#clip0_9076_28843)">
<path d="M27.0533 16.6541L27.0243 16.6468L26.9784 16.5808H26.9542L26.8383 16.4414L26.7658 16.3681V16.3485L26.7175 16.3045V16.2801L26.7006 16.2752L26.6764 16.2385L26.6522 16.2312L26.6402 16.2068L26.5773 16.1823V16.1701L26.529 16.1505V16.1383L26.4783 16.1139L26.4662 16.0894L26.3937 16.0503V16.0405L26.3527 16.0259L26.3406 15.9966L26.2947 15.977L26.2778 15.9525L26.256 15.9477L26.2415 15.9232L26.2053 15.9037L26.1811 15.867L26.1521 15.8597L26.1449 15.8352L26.1159 15.8303L26.0676 15.7619H26.0458L25.9444 15.6348H25.9226V15.6201L25.884 15.5908V15.5688L25.7849 15.4685V15.4465L25.7559 15.427L25.7148 15.3732H25.7197L25.7148 15.3488L25.7825 15.2803L25.8066 15.2852L25.8308 15.2559L25.855 15.2608L25.8695 15.2388H25.9057V15.2217L25.9299 15.229L25.9419 15.207H25.9637L25.9806 15.1899L26.0023 15.1948L26.0144 15.1728L26.0555 15.1679L26.0893 15.1263L26.1135 15.1337L26.128 15.1117L26.1521 15.119L26.2246 15.0505L26.2657 15.0432V15.0212L26.3382 14.965L26.3865 14.9381L26.3986 14.9039L26.4348 14.8892V14.8648L26.4735 14.8477V14.8232L26.5 14.8159V14.7914L26.5242 14.7841V14.7621L26.5483 14.7548L26.5604 14.723H26.5701L26.5846 14.6814L26.6087 14.6741L26.6232 14.6301H26.6595L26.6933 14.5861L26.7199 14.5934L26.744 14.5592L26.7682 14.5665L26.7803 14.5445L26.8044 14.5519L26.8552 14.5005L26.8842 14.5054L26.9687 14.4297L26.9929 14.4345L27.005 14.4125L27.0436 14.3954V14.3734H27.0557L27.1064 14.327L27.1306 14.3319V14.3074L27.1548 14.2781L27.2007 14.2537V14.2317L27.2393 14.2121V14.1925L27.278 14.1754V14.151L27.3045 14.1437V14.107L27.3287 14.1143V14.0777L27.4374 14.0043V13.9799L27.5365 13.953V13.9285L27.6114 13.9065V13.8845L27.7249 13.8357V13.8137H27.7491L27.8409 13.7061L27.8626 13.711V13.6865H27.8892L27.8868 13.667L27.9134 13.6719L27.9617 13.6108V13.5741L28.0003 13.557L28.0221 13.491L28.0511 13.4983L28.0728 13.4201L28.097 13.425V13.3785H28.1211V13.337H28.1477L28.1598 13.2832L28.1719 13.2881L28.1864 13.2074H28.1984V13.1879H28.2081V13.1439H28.2202V13.1243H28.2323V13.0681L28.2564 13.0608V12.9777L28.2806 12.9728V12.8677L28.3023 12.8628V12.6599H28.3144V12.6134L28.3265 12.6208L28.2975 12.4594V12.259L28.2709 12.2492V12.1417L28.2468 12.1245V12.039L28.2178 12.0243V11.9657H28.2057V11.9412H28.1936V11.8899H28.1815V11.8532L28.1646 11.8483V11.8288H28.155V11.7774H28.1405L28.1284 11.7163L28.1042 11.709V11.7017L28.1284 11.709L28.1429 11.7334L28.1646 11.7383L28.1936 11.7799H28.2178L28.2274 11.8092H28.2516L28.2999 11.8801L28.3241 11.8874L28.428 12.0097L28.5029 12.0683L28.5391 12.1343L28.5633 12.1392L28.5753 12.1759L28.6382 12.2345V12.259L28.701 12.3177V12.3372L28.7251 12.3543V12.3788L28.7614 12.4057V12.4301L28.7855 12.4448L28.7904 12.4692L28.8145 12.4839L28.8266 12.5205L28.8387 12.5254L29.6045 13.3834L29.6287 13.3957V13.4201L29.6529 13.4372L29.6649 13.4714H29.677L29.851 13.6792L29.8751 13.6865L29.8993 13.7232L29.9259 13.7305L29.9669 13.7819L29.9887 13.7868L30.0297 13.8405L30.0491 13.8454L30.1288 13.9408L30.2883 14.1094L30.3366 14.1779L30.5516 14.4028L30.5637 14.4272L30.612 14.4468L30.6241 14.4712L30.6724 14.4932L30.6869 14.5177L31.1749 15.0017H31.1991L31.2353 15.0701H31.2474V15.0945L31.274 15.1117V15.1214L31.2981 15.1385V15.1605L31.3223 15.1801L31.3271 15.2021L31.3634 15.2314L31.5663 15.4441L31.588 15.449L31.6001 15.4734L31.6243 15.4808L31.6484 15.5174L31.6726 15.5223L31.6968 15.559L31.7233 15.5663L31.7596 15.6201H31.7837L31.8828 15.7472L31.9094 15.7521V15.7619L31.9456 15.7937V15.8157L32.0592 15.9305L32.2234 16.087V16.0992H32.2476V16.1163L32.2693 16.1286L32.3201 16.153L32.3853 16.197L32.3974 16.2239L32.4385 16.2557L32.4626 16.2605L32.5013 16.2874L32.5085 16.3168L32.5472 16.3437L32.5738 16.3485L32.5979 16.3779L32.61 16.4048L32.8105 16.6028L33.1004 16.8985L33.1246 16.9279H33.1463L33.1632 16.9548L33.7986 17.5512V17.561L33.8373 17.5903L34.2118 18.0059L34.2359 18.0108L34.2867 18.0792H34.3108L34.3229 18.1085L34.4002 18.1794L34.4485 18.2357L34.5114 18.3139L34.5621 18.3823L34.5983 18.4361L34.6225 18.4752L34.6636 18.551L34.7095 18.617L34.7336 18.6683L34.7481 18.6928L34.7868 18.7685V18.8052H34.7988L34.8109 18.8541H34.823V18.8908H34.8351V18.9177H34.8472V18.9543H34.8592L34.8641 18.991H34.8713L34.8762 19.0277H34.8834L34.9656 19.3772V19.5165H34.9776L34.9656 19.8172H34.9559V19.8954H34.9438V19.9517H34.9317V20.0079H34.9172L34.9196 20.0519H34.9076V20.0934H34.8955V20.1277L34.8834 20.1228L34.8713 20.201H34.8592V20.223H34.8448V20.2523H34.8327L34.8375 20.2743H34.8254V20.3085H34.8133L34.7916 20.3697H34.7771V20.3917L34.765 20.3868V20.4112H34.7529V20.4332L34.7384 20.4283L34.7191 20.4919H34.707L34.695 20.5212L34.6708 20.5286L34.6587 20.5725L34.6346 20.5774V20.5994L34.5983 20.6165V20.641L34.5621 20.6557V20.6801L34.5162 20.7045V20.729L34.405 20.7974L34.306 20.8854L34.2818 20.8805L34.2432 20.9172L34.2166 20.9123L34.1949 20.9441L34.1659 20.9392L34.1417 20.9661H34.12L34.1079 20.9832L34.0716 20.9881V21.0003H34.0209L34.0088 21.0223L33.9339 21.0321L33.9219 21.0517L33.8131 21.0663V21.0786H33.7624V21.0932L33.7237 21.0859V21.0981L33.7044 21.0932V21.103L33.6633 21.0981V21.1079L33.6247 21.103V21.1128L33.5885 21.1079V21.1177L33.5522 21.1103V21.1226L33.5015 21.1128V21.125L33.4507 21.1152V21.1274L33.3903 21.1152V21.1274C33.3903 21.1274 33.0183 21.0785 32.8709 21.0419C32.7211 21.0028 32.3442 20.861 32.3442 20.861L32.2911 20.8439L32.2718 20.8365V20.8243L32.2089 20.8023V20.7901L32.163 20.7705V20.7583L32.122 20.7534V20.7412L32.0712 20.7217V20.707L32.0205 20.6874L32.0084 20.663L31.9335 20.6263V20.6165L31.5735 20.3868V20.3745L31.5252 20.3672V20.355L31.4866 20.3477V20.3354L31.4503 20.3305V20.3183L31.4117 20.3012L30.8391 19.9028H30.8125L30.7618 19.8294H30.7352L30.3873 19.5557V19.5434L30.3414 19.5214V19.5117L30.3003 19.5068V19.4921L30.2279 19.4554V19.4457L30.2013 19.4408V19.4286L30.1505 19.409L30.136 19.3821L30.0636 19.3454L30.0467 19.321H30.0249V19.3014L29.9887 19.2868L29.9766 19.2574H29.9524L29.9234 19.2159L29.9017 19.211L29.8872 19.189L29.863 19.1817L29.8075 19.1132H29.7833L29.3726 18.7685V18.7563L29.2977 18.7172V18.705L29.2736 18.7001V18.6879L29.2494 18.6805V18.6708L29.1745 18.6365L29.1624 18.6097L29.1117 18.5901L29.0996 18.5608L29.0513 18.5412L29.0271 18.4972H29.0005L28.9885 18.4728L28.9619 18.4654L28.9353 18.4263C28.9353 18.4263 28.5125 18.0865 28.3482 17.935C28.1936 17.7859 27.6814 17.3214 27.621 17.2603L27.5751 17.2163V17.1919L27.5123 17.1357L27.5002 17.099L27.4761 17.0599L27.0267 16.6517L27.0533 16.6541Z" fill="#A3CF62"/>
<path d="M18.0702 13.9209V13.9429L18.1692 14.0114V14.0334L18.2731 14.0969V14.1214L18.3094 14.1311V14.1409L18.3214 14.1678L18.3601 14.2069L18.3842 14.2142V14.2485L18.4132 14.2534L18.4398 14.3169L18.4519 14.3194V14.3414L18.4761 14.3609V14.3927L18.5002 14.4V14.422L18.5244 14.4269L18.5534 14.4905L18.5775 14.4954V14.5174L18.6041 14.5247L18.6645 14.6298L18.6911 14.6322V14.6567L18.7925 14.7325L18.795 14.7569L18.8191 14.7642V14.7862L18.8844 14.8205V14.8449L18.9085 14.8498V14.8742L18.9955 14.9256L19.01 14.95L19.0462 14.9598L19.0607 14.9842L19.0849 14.9891V14.9989L19.1259 15.0209V15.0429L19.1719 15.0527V15.0771L19.2371 15.1114L19.4159 15.3314V15.3558L19.4424 15.3607L19.5777 15.5147V15.5367L19.6067 15.5416V15.566L19.6454 15.5709V15.5978L19.6671 15.6027V15.6247L19.8338 15.7396L19.8846 15.7836V15.7934L19.9111 15.7982V15.808L19.9377 15.8154L19.9474 15.8374L19.9884 15.8471L19.9981 15.874L20.0368 15.8789V15.8936L20.0851 15.9131V15.9351L20.1503 15.9742V15.9962L20.1769 16.0011V16.0231L20.1986 16.028L20.2421 16.072V16.094L20.2639 16.0989V16.1234L20.2904 16.1258L20.3557 16.1967V16.2211L20.3798 16.2236L20.5804 16.4045V16.4289L20.6214 16.4338V16.4582L20.6842 16.4925V16.5022L20.7205 16.5145V16.5242L20.7712 16.5438V16.5682L20.8244 16.578V16.6L20.9113 16.6294L20.9234 16.6538L20.9742 16.666V16.6856L21.037 16.7002L21.0491 16.7271L21.1167 16.7369V16.7491L21.1529 16.7565V16.7687L21.2013 16.7785V16.7882L21.2882 16.8078L21.3027 16.8322L21.4429 16.8591L21.4549 16.886L21.5781 16.9056V16.9178L21.6168 16.9251V16.9374L21.6796 16.9471V16.9618L21.7086 16.9667L21.7207 16.9936L21.8222 17.0205V17.0449L22.2739 17.1794L22.4358 17.2087V17.1965L22.46 17.2014V17.1891L22.7016 17.2087V17.1867L22.9263 17.172V17.1476L22.9601 17.15L22.9504 17.1549V17.1794L22.8876 17.216L22.8175 17.2698V17.2894L22.7789 17.2967L22.6967 17.3749L22.6702 17.37L22.6315 17.4067L22.6073 17.4018L22.5687 17.4409L22.5445 17.436L22.5204 17.4654L22.4938 17.4629L22.4817 17.4825L22.4479 17.4874V17.4996L22.4213 17.4947L22.4092 17.5142L22.373 17.5216V17.5314L22.3005 17.5387L22.286 17.5607H22.2353V17.5729L22.2135 17.568V17.5827L22.1894 17.5754V17.59L22.1145 17.5998V17.6096L22.0807 17.6022V17.612L22.0734 17.6438L22.0468 17.6389L21.9889 17.6976L21.9309 17.6902V17.7122L21.8584 17.7562L21.7497 17.8516L21.7207 17.8467L21.6216 17.9102L21.4767 17.9787L21.4404 17.9836V17.9958L21.4139 17.9885L21.4018 18.0129H21.351L21.3438 18.0325H21.3148L21.2906 18.0496L21.2665 18.0422V18.0545L21.2423 18.0496V18.0618L21.2182 18.0569V18.0691L21.194 18.0642V18.0765L21.1674 18.0716V18.0814L21.1409 18.0789V18.0887L21.0684 18.0985V18.1107L21.0297 18.1034V18.1131L21.008 18.1107V18.1229L20.9717 18.1131V18.1254L20.9355 18.1376V18.1498L20.8993 18.1425V18.1522L20.863 18.1474V18.1571L20.6891 18.2305L20.6408 18.2769L20.6142 18.2745L20.5659 18.3234L20.5393 18.316L20.5175 18.3454L20.4934 18.3429L20.4668 18.3722L20.4426 18.3674L20.4306 18.3869L20.3798 18.3894L20.3677 18.4114L20.3315 18.4162V18.4285H20.2808L20.2711 18.4529L20.1938 18.4578V18.47L20.1721 18.4651V18.4774L20.1455 18.4725V18.4847L20.1213 18.4822V18.4945L20.0464 18.5018V18.514L20.0126 18.5018V18.5165L19.9884 18.514V18.5238L19.9474 18.5165L19.9498 18.5287L19.9232 18.5238V18.5385L19.887 18.5287L19.8894 18.5385L19.8532 18.5336V18.5458L19.614 18.6387L19.5922 18.6362L19.5439 18.6827L19.5197 18.6778L19.4932 18.7096L19.469 18.7047L19.4424 18.734L19.4183 18.7291L19.4086 18.7511L19.3845 18.7462L19.3579 18.7756L19.3096 18.778L19.2975 18.8L19.2492 18.8025L19.2371 18.822L19.1622 18.8318L19.1501 18.8514L19.1139 18.844L19.0994 18.866L18.6935 18.9394L18.6452 18.9296V18.9418L18.592 18.932V18.9442L18.5437 18.9345V18.9442L18.4954 18.9345V18.9467L18.435 18.9345V18.9467L18.3722 18.9345V18.9467L18.2731 18.9296V18.9418L17.8141 18.866V18.8562L17.6667 18.8269V18.8147L17.5652 18.7951L17.5628 18.7878L17.4928 18.7731V18.7585L17.442 18.7511V18.7389L17.3792 18.7267V18.7145L17.2415 18.668V18.6558L17.2028 18.6485V18.6362L17.1159 18.6094V18.5996L17.0917 18.5947V18.5825L17.0555 18.5751V18.5629L17.0313 18.558V18.5458L16.9951 18.5385V18.5287L16.9443 18.5067V18.4945L16.9081 18.4896V18.4774L16.8308 18.4407V18.4285L16.809 18.4236V18.4114L16.7583 18.3918L16.7462 18.3674L16.6689 18.3282L16.6568 18.3038L16.6085 18.2842V18.2696L16.5699 18.2525L16.5578 18.228L16.5336 18.2231L16.5191 18.1962L16.495 18.1914L16.4708 18.1522L16.4466 18.1498L16.4201 18.1107L16.3959 18.1058L16.3693 18.0642L16.3331 18.0471L16.222 17.9102L16.1954 17.9078L16.1036 17.7856L16.0843 17.7807L16.0214 17.7V17.6756L15.9949 17.6609V17.6487L15.9707 17.6316V17.6096L15.9345 17.5802V17.5558L15.8982 17.5289V17.502L15.8692 17.4874L15.8572 17.4507L15.8427 17.4482V17.4262L15.8185 17.4067L15.8064 17.3749L15.7943 17.37L15.7774 17.3211L15.7557 17.3016V17.282L15.7291 17.2527V17.2331L15.717 17.2282V17.2038L15.7049 17.2014V17.1794H15.6929L15.6663 17.1036H15.6542L15.6421 17.04L15.6301 17.0376V17.0131H15.6156V16.9789L15.6035 16.9765L15.5914 16.9276H15.5769L15.5527 16.8078L15.5407 16.8054V16.7687H15.5262V16.7345L15.5141 16.7296L15.4996 16.6465L15.4899 16.644L15.4875 16.5976L15.4754 16.5951L15.4609 16.4534L15.4875 15.4805H15.4996V15.4487H15.5117V15.4145L15.5238 15.4169L15.5576 15.2727L15.5745 15.2751V15.2531L15.5842 15.258V15.2214L15.5962 15.2238L15.6083 15.1774L15.6156 15.1822V15.148L15.6325 15.1505L15.647 15.104L15.659 15.1089V15.0722L15.6808 15.0649V15.0429L15.7049 15.0258V15.0014L15.717 15.0038V14.9794L15.7267 14.9818V14.9598L15.7533 14.9525L15.7629 14.9085L15.7895 14.9036V14.8791L15.8137 14.8694L15.8257 14.8302L15.8499 14.8205V14.796L15.8861 14.7838V14.7569L15.9224 14.7422V14.7178L15.9828 14.6836V14.664L16.0311 14.6371V14.6127L16.0577 14.5956L16.0939 14.5907V14.5687L16.1205 14.5589L16.1422 14.5296L16.2051 14.5076V14.4856L16.2292 14.466L16.2534 14.4709L16.2896 14.4294L16.3186 14.4367L16.3621 14.3878L16.3887 14.3902L16.4128 14.3609L16.4394 14.3682L16.4636 14.3365L16.4901 14.3414L16.4998 14.3218L16.5481 14.3194L16.5602 14.2974L16.5989 14.2949V14.2802H16.6496L16.6617 14.2582L16.6834 14.2631L16.7076 14.2436L16.7366 14.2485V14.2362L16.7583 14.2436V14.2314L16.7849 14.2362L16.7945 14.2142L16.8308 14.2216V14.2094L16.8815 14.2069V14.1947L16.9202 14.202V14.1922L16.9661 14.1898V14.1776L17.0047 14.1849V14.1727L17.0313 14.1776V14.1678L17.1908 14.1629V14.1507L17.2294 14.1556V14.1434L17.2657 14.1531V14.1409L17.413 14.1434L17.4275 14.1262L17.4517 14.1311L17.4734 14.0994L17.5 14.1067L17.5218 14.0725L17.5483 14.0774L17.5725 14.0456L17.5966 14.0529L17.6111 14.0334L17.6595 14.0309L17.674 14.0114L17.6957 14.0138L17.7102 13.9918L17.7319 13.9967L17.744 13.9771L17.7706 13.982L17.7972 13.9649L17.8189 13.9674V13.96H17.8455V13.9502L17.8696 13.9551L18.0484 13.9087L18.0702 13.9209Z" fill="#A3CF62"/>
<path d="M22.076 11.9314L22.0398 11.968L22.0132 11.9778L22.0156 11.9974L21.9915 12.0169L21.9673 12.0145L21.9528 12.034L21.9287 12.0292V12.0414L21.9045 12.034V12.0487L21.8658 12.0414V12.0536L21.7934 12.0609V12.0732L21.7668 12.0683L21.7692 12.0829L21.6943 12.0903L21.6822 12.1098L21.6315 12.1147L21.6218 12.1343L21.5977 12.1294L21.5856 12.1514L21.5614 12.144L21.5469 12.166L21.5228 12.1612L21.5107 12.1807L21.4865 12.1783L21.472 12.1978L21.4141 12.2149V12.2174V12.2443L21.4672 12.276V12.298L21.5663 12.3763V12.3983L21.5928 12.4056V12.4276L21.6194 12.4349V12.4545L21.6436 12.4618L21.646 12.4838L21.6702 12.4912L21.733 12.5938L21.7571 12.5987L21.7861 12.6598L21.8127 12.6696V12.6892L21.8344 12.694L21.8973 12.8358L21.9238 12.8383L21.977 12.9458L22.0253 13.002L22.105 13.0387V13.0632L22.1533 13.0827V13.1047L22.2162 13.1414V13.1634L22.2403 13.1683V13.1927L22.2669 13.1976L22.2693 13.222L22.3321 13.2905L22.3587 13.2954V13.3198L22.3829 13.3247V13.3467L22.407 13.3516L22.4964 13.4983L22.523 13.5007V13.5276L22.5471 13.53V13.5643L22.5713 13.5692L22.6003 13.6449L22.61 13.6474L22.6365 13.7109L22.6631 13.7158L22.6873 13.7794L22.7138 13.7843L22.7912 13.8454V13.8674L22.8153 13.8723V13.8967L22.9023 13.948V13.9725L22.9289 13.9774L22.9675 14.0409L22.9917 14.0458L22.9941 14.0727L23.0183 14.0752L23.0569 14.1412L23.0811 14.1436V14.1705L23.1052 14.1729L23.1463 14.2634L23.1729 14.2683V14.2952L23.197 14.2976L23.2357 14.3832L23.2599 14.3905V14.4247L23.284 14.4296L23.2985 14.4663L23.3106 14.4687L23.3251 14.5298L23.3492 14.5469V14.5714L23.3758 14.5885V14.6227L23.4024 14.6374L23.4145 14.7132L23.4411 14.7278V14.7767H23.4507L23.4652 14.8378L23.4918 14.8427L23.5063 14.9625L23.5184 14.9674V14.9894H23.5304V15.0603L23.557 15.0774L23.5691 15.1874L23.5957 15.202L23.6222 15.3023L23.6464 15.3047L23.673 15.4049L23.6971 15.4074L23.7141 15.4929L23.7382 15.4978L23.7527 15.6176L23.7769 15.6249L23.8179 16.0405L23.8059 16.038L23.8107 16.2238L23.7962 16.2214V16.3069L23.7841 16.302V16.3729L23.7624 16.3778L23.7503 16.4707L23.7261 16.4658L23.6657 16.6516L23.6367 16.6467L23.5425 16.8178L23.5159 16.8252L23.499 16.8227L23.5039 16.8569L23.4773 16.8545V16.8667L23.4266 16.8936L23.3903 16.918L23.3952 16.9547L23.3033 16.9816V17.0036L23.3227 17.006L23.3323 16.984L23.3589 16.9889L23.3686 16.9669L23.3976 16.9743L23.4072 16.9547H23.4314V16.9449L23.4676 16.9425L23.4797 16.9229L23.5063 16.9254L23.5449 16.8863L23.5691 16.8936L23.6174 16.8447H23.644L23.7286 16.7689L23.7527 16.7763V16.764L23.789 16.7469L23.8034 16.7127L23.888 16.6614V16.6394L23.946 16.6027V16.5807L23.9726 16.5758V16.5636L23.9991 16.5587L23.9967 16.5343L24.0257 16.5269V16.5025L24.0475 16.4952V16.4707L24.0837 16.456L24.1224 16.4023L24.1683 16.3754L24.1803 16.3558L24.2045 16.3583L24.2142 16.3192L24.2432 16.3265L24.2528 16.3069L24.277 16.3094L24.2891 16.2874L24.3156 16.2947L24.3277 16.2727L24.3664 16.2678L24.4147 16.2214L24.4413 16.2238L24.492 16.1749L24.5113 16.1798V16.1676L24.5355 16.1603V16.1383L24.5621 16.1432L24.608 16.0943L24.62 16.0967V16.0747L24.6708 16.0576V16.038L24.7336 16.0014V15.9769L24.7819 15.9525V15.9305L24.8181 15.9329V15.9109L24.9148 15.8474L24.9679 15.8449L24.9776 15.8034H25.0283V15.7912L25.0646 15.7887L25.0791 15.7667L25.1008 15.7716V15.7594L25.1395 15.7545L25.1491 15.7349L25.1757 15.7398L25.1975 15.708L25.224 15.7154L25.2361 15.6909L25.2506 15.6958L25.2627 15.6738L25.2868 15.6787V15.6689L25.3352 15.6543V15.6298L25.5671 15.4783V15.4563L25.6009 15.4416V15.4147L25.6372 15.4L25.6831 15.356L25.6517 15.3047L25.6347 15.3023L25.6227 15.2534L25.5864 15.224L25.5743 15.1629L25.5623 15.1605L25.5091 15.0798L25.3472 14.9674V14.9429L25.3086 14.9258L25.2965 14.8989L25.2675 14.894L25.2313 14.8427L25.2047 14.8378L25.1443 14.7645L25.1153 14.7254L25.0936 14.7205L25.0525 14.6545L25.0283 14.652L24.9655 14.5592L24.951 14.5543V14.5298L24.8737 14.4589V14.4369L24.852 14.4174V14.3929L24.8254 14.3783V14.3563L24.7964 14.3269L24.7747 14.322L24.6829 14.1314L24.6611 14.1265L24.5524 13.8845L24.5282 13.8649V13.8429L24.5162 13.8405L24.5041 13.7672L24.492 13.7647V13.7305L24.4799 13.728V13.6914H24.4654V13.6572L24.4533 13.6547L24.4509 13.6058H24.4413L24.4243 13.53L24.4123 13.5276V13.5056L24.4002 13.5007V13.4567L24.3881 13.4543L24.3857 13.3834L24.3736 13.3809L24.3712 13.3223L24.3615 13.3198L24.3591 13.2245L24.347 13.222L24.3325 12.9409L24.318 12.9385V12.9043L24.2939 12.8872L24.277 12.8016L24.2528 12.7967L24.2407 12.7478L24.2287 12.7454V12.6989L24.2142 12.6965V12.6598L24.1876 12.6452V12.584L24.161 12.5816L24.1489 12.4618L24.1368 12.4594V12.4349H24.1248L24.1224 12.3518L24.0958 12.3323V12.2076L24.0692 12.1929L24.0644 11.8238L24.0909 11.8214V11.6869L24.1151 11.6943L24.1248 11.5818H24.1368V11.5354L24.1489 11.5403V11.4767L24.1731 11.4718V11.4254L24.1997 11.4205L24.2117 11.3398L24.2383 11.3447L24.2721 11.22L24.2963 11.2249V11.1932L24.3205 11.1956L24.4219 11.0392L24.4461 11.044L24.4847 10.9683L24.5089 10.9732V10.9487L24.5331 10.9512L24.5959 10.8705L24.6176 10.8754V10.8509L24.6611 10.8607L24.6974 10.8314L24.6925 10.8069L24.7167 10.8143V10.7898L24.7433 10.7947L24.7698 10.7654L24.7916 10.7678L24.8061 10.7483L24.8423 10.7409V10.7189L24.9051 10.6847L25.0163 10.67V10.648L25.1443 10.6383V10.6114L25.2554 10.5967L25.2965 10.6065V10.5943L25.3207 10.5967V10.5845L25.3666 10.5943L25.3835 10.5747L25.5188 10.5894L25.5284 10.5674L25.6444 10.5894L25.6589 10.5674L25.857 10.6065L25.886 10.5967L26.2218 10.6749V10.6969L26.5021 10.7849V10.8069L26.5649 10.8192V10.8436L26.7171 10.9072V10.9292L26.8403 10.9903V11.0147L26.891 11.0343L26.8959 11.0465L26.9321 11.0538L26.9563 11.0929L26.9949 11.1003V11.1125H27.0239V11.1272L27.1206 11.1443V11.1589L27.2075 11.1736V11.1858L27.2728 11.2005V11.2103L27.3477 11.2249V11.2347L27.3984 11.2469L27.4105 11.2689L27.4612 11.2812V11.2934L27.4974 11.3007V11.3105L27.5385 11.3178V11.3325L27.5893 11.3398V11.352L27.7656 11.4303V11.4547L28.0169 11.5965V11.6185L28.0604 11.638L28.0435 11.6209V11.6014L28.0193 11.5818V11.5598L27.9951 11.5305V11.5085L27.9686 11.4914L27.9565 11.4425L27.9323 11.4254V11.4034L27.9202 11.3985L27.9082 11.3643L27.8816 11.3472V11.3252L27.8309 11.2812V11.2567L27.7777 11.2127V11.1932L27.6907 11.1052L27.6811 11.0685L27.6569 11.0612V11.0392L27.6303 11.0343L27.454 10.8656L27.4322 10.8265L27.4081 10.8192L27.3911 10.7947L27.3694 10.7898L27.3428 10.7507L27.2921 10.7287L27.2824 10.7043L27.2414 10.6847V10.6749L27.1665 10.6383V10.6236L27.1447 10.6212V10.6089L27.0698 10.5723V10.5625L27.007 10.5356V10.5283L26.9828 10.5209V10.5087L26.9442 10.5038V10.4916L26.92 10.4867V10.4745L26.8838 10.4672V10.4549H26.8572V10.4403L26.7702 10.4109V10.3987L26.7316 10.3938V10.3816L26.6833 10.3743V10.362L26.6205 10.3523V10.3376L26.5601 10.3254V10.3156L26.3619 10.2667V10.2569L25.8184 10.1763V10.186L25.7507 10.1763V10.186L25.6927 10.1763V10.186L25.6565 10.1812V10.1934L25.6058 10.1812V10.1958L25.555 10.1836V10.1983L25.5284 10.1909V10.2032L25.456 10.2007V10.2129L25.4318 10.208V10.2178L25.398 10.2154V10.2252H25.3472V10.2374L25.3086 10.2325V10.2423L25.2337 10.252V10.2643L25.212 10.2569V10.2716L25.1612 10.274L25.1491 10.2936L25.1008 10.296L25.0887 10.3156L25.0597 10.3132V10.3229L25.0235 10.3254L25.0138 10.3498L24.9873 10.3425L24.9655 10.3743L24.9389 10.3694L24.9148 10.3987L24.8906 10.3938L24.852 10.4354L24.8278 10.4305L23.5039 11.1809L23.4507 11.1858V11.2005L23.4145 11.2029L23.4024 11.2225L23.3758 11.2152V11.2298L23.3275 11.2543L22.9216 11.5036L22.924 11.5232L22.8999 11.5305L22.8636 11.572L22.8371 11.5647L22.8153 11.5818L22.076 11.9314Z" fill="#A3CF62"/>
<path d="M6.60282 10.5967L6.62939 10.5453H6.63906L6.65114 10.5038H6.66563L6.66322 10.4793L6.6753 10.4842V10.4476L6.68738 10.45L6.71153 10.3864L6.72361 10.3889V10.3644L6.73811 10.3693V10.3449L6.75019 10.3498L6.74777 10.3253H6.75985V10.3033L6.77677 10.3082V10.2838L6.79609 10.2642V10.2422L6.82025 10.2349L6.83233 10.1909L6.85891 10.1836L6.86857 10.1396L6.89756 10.1322L6.89273 10.1127H6.90481V10.0907L6.93139 10.0833V10.0589L6.95313 10.054V10.0296L6.98212 10.0222L6.97729 9.99778L7.00387 9.99044V9.96844L7.04252 9.95378V9.92933L7.07876 9.91467V9.88778L7.14158 9.856V9.834L7.16574 9.82667V9.81444L7.18748 9.80711V9.78511L7.49431 9.40378H7.50639L7.53779 9.36711L7.54987 9.36956V9.33289L7.56195 9.33533L7.55954 9.31578H7.57162V9.27911L7.58853 9.284L7.61027 9.218H7.62235V9.19844L7.63443 9.20089V9.17889H7.64651V9.15689H7.65618V9.13489L7.67067 9.13733V9.11289L7.68275 9.11778V9.09333L7.69241 9.09578V9.07133L7.71899 9.05422V9.02978L7.74315 9.02489L7.75523 8.98089L7.77697 8.97356L7.79388 8.92955L7.81321 8.92222V8.90022H7.82771V8.88067L7.86395 8.86355L7.87361 8.81467L7.91468 8.80244L7.91227 8.778L7.94851 8.76578L8.01374 8.69489V8.67044L8.0379 8.67533L8.05964 8.63622H8.07172V8.61422L8.0838 8.61667L8.12245 8.57756L8.14662 8.57267V8.54578L8.15628 8.54822L8.19493 8.50911L8.21668 8.51644L8.54283 8.15711L8.54042 8.13756L8.55491 8.14L8.56458 8.09356L8.57666 8.096V8.074L8.59115 8.07644V8.052L8.60323 8.05444V8.03244L8.61531 8.03489V8.01044L8.62739 8.01533V7.99333H8.63947V7.96644L8.64913 7.97378V7.94933L8.66363 7.95178L8.66121 7.92978L8.68779 7.90778V7.88578L8.71195 7.88089L8.72403 7.83689L8.76027 7.81978L8.76993 7.77578L8.79651 7.77089V7.74644L8.80859 7.74889V7.72444L8.83275 7.71956L8.84483 7.68533L8.88348 7.67067V7.64867L8.91972 7.63156L8.9318 7.58756L8.99462 7.55089V7.52889L9.0526 7.49467V7.47267L9.23621 7.26244L9.24588 7.26489V7.24289L9.25796 7.24533L9.27245 7.16711L9.28695 7.16956L9.28211 7.14511L9.29903 7.14756L9.30869 7.08156L9.32077 7.084V7.05956L9.33285 7.06444V7.03022H9.34493L9.35459 6.98867H9.36667V6.95444L9.37875 6.95689L9.40533 6.89333L9.41741 6.89578V6.87133L9.42949 6.87378V6.85178H9.44157V6.82733L9.45365 6.83222V6.81022H9.46331V6.78822L9.47781 6.79067V6.76622L9.48747 6.77111V6.74667L9.51405 6.72956V6.70511L9.53821 6.69778L9.56478 6.63178L9.58653 6.62689V6.60244L9.62277 6.58778L9.63485 6.54378L9.66142 6.53644V6.51444L9.69766 6.49733V6.47533H9.70732L9.7194 6.44356L9.74598 6.43622V6.41422L9.79671 6.38978V6.36533L9.8547 6.33356V6.30911L9.92959 6.26511V6.24067L10.0721 6.01578H10.089L10.0842 5.99378L10.0987 5.99867L10.1229 5.896L10.1349 5.89844V5.87644L10.147 5.87889V5.84467L10.1591 5.84711L10.1712 5.80311L10.1857 5.80556V5.76889L10.1929 5.77133L10.2171 5.70778L10.2316 5.71022V5.68822L10.2437 5.69067V5.66622H10.2582L10.2557 5.64422L10.2727 5.64911L10.2654 5.62467L10.2823 5.62711L10.2799 5.60267L10.2944 5.60511L10.2896 5.58311L10.3041 5.58556V5.55867L10.3282 5.544V5.522L10.3548 5.51222L10.3669 5.47067L10.3886 5.46089L10.4007 5.41933L10.4273 5.412V5.39L10.4514 5.38267V5.36067L10.4756 5.35333V5.32889L10.4973 5.324V5.29711L10.5263 5.29222L10.5167 5.25556L10.5505 5.236V5.21644L10.6012 5.192L10.6133 5.15778L10.722 5.00622V4.95L10.7365 4.95244V4.91578L10.7486 4.92067L10.7438 4.884L10.7607 4.88644V4.84L10.7703 4.84489V4.80822L10.8018 4.81311V4.77889L10.8162 4.78378L10.8138 4.74711H10.8259V4.72511L10.838 4.73L10.8501 4.66156L10.8622 4.664L10.8597 4.63956L10.8742 4.642V4.60778L10.8887 4.61267L10.8984 4.56622L10.9129 4.57111L10.9105 4.54422L10.9226 4.54911V4.51489L10.9346 4.51978L10.9588 4.45378H10.9733V4.43178H10.9854L10.9805 4.41222H10.9974L11.0192 4.34622L11.0458 4.33889V4.30467L11.0675 4.29733L11.082 4.25578L11.1037 4.24844V4.224L11.1279 4.21911V4.19467L11.1545 4.18733V4.16533L11.1762 4.158V4.136L11.2028 4.12867V4.10667H11.2173L11.2245 4.07489L11.2535 4.07V4.04556L11.2874 4.03089V4.004L11.3502 3.97222V3.95022L11.5314 3.68378V3.64956H11.5435V3.61533L11.5531 3.62022V3.57133H11.5676L11.5652 3.55178L11.5773 3.55422V3.52L11.5918 3.52244V3.498L11.6014 3.50044V3.46378L11.6135 3.46867V3.44422L11.628 3.44667V3.41244L11.6377 3.41489L11.6498 3.37089L11.6618 3.37333V3.35133H11.6739V3.31711L11.7005 3.30978V3.278L11.7102 3.28044V3.256H11.7246L11.7222 3.234L11.7488 3.22667L11.7464 3.20467L11.7706 3.18756V3.16311H11.785V3.14111L11.7971 3.146V3.12156L11.8213 3.11422L11.8334 3.07022L11.8575 3.06533V3.04089L11.8817 3.03356V3.01156L11.9083 3.00422L11.9058 2.97978L11.93 2.97489V2.95044L11.9566 2.94311V2.92111L11.9928 2.904V2.88444L12.0266 2.86489V2.84044L12.1861 2.61556L12.1982 2.62044V2.58622L12.2127 2.58867V2.552L12.2223 2.55689V2.52022L12.2344 2.52267V2.47867L12.2465 2.48111V2.45667H12.2586L12.2852 2.35889L12.2948 2.36133V2.33933H12.3093L12.3069 2.30511L12.319 2.31L12.3311 2.266H12.3431L12.3552 2.21467H12.3673L12.389 2.14867L12.4011 2.15111V2.12667L12.418 2.13156L12.4156 2.10956L12.4301 2.112L12.4277 2.08756L12.4398 2.09V2.068L12.4663 2.04844V2.024L12.4881 2.01667L12.5002 1.97267L12.5243 1.96778L12.5364 1.92378L12.5606 1.914L12.5751 1.87L12.6113 1.85778L12.6089 1.83333L12.6331 1.826V1.80156L12.6572 1.79667L12.6693 1.76244L12.7055 1.74778V1.72333L12.7345 1.71844L12.7297 1.70622L12.7538 1.70133V1.67689L12.8046 1.65V1.628L13.1332 1.18067V1.15867L13.1452 1.16356V1.13911L13.1718 1.13178V1.10978L13.196 1.09022V1.06578L13.2056 1.06822V1.04622L13.2298 1.03889L13.2419 0.994889L13.254 0.997333L13.2684 0.968L13.2902 0.958222L13.3047 0.914222L13.3385 0.897111V0.875111L13.3627 0.867778V0.840889L13.4013 0.828667V0.804222L13.4472 0.782222V0.755333L13.498 0.730889V0.711333L13.6115 0.638L13.6067 0.613556L13.6357 0.608667L13.6574 0.576889L13.684 0.581778L13.783 0.496222L13.8072 0.501111L13.8434 0.462L13.8676 0.466889L13.9159 0.418L13.9377 0.422889L13.9642 0.393556L13.9908 0.396L14.0053 0.376444L14.0391 0.371556V0.359333L14.0633 0.366667L14.0754 0.347111L14.102 0.352L14.114 0.327556L14.1527 0.322667V0.310444L14.2252 0.303111L14.2348 0.283556L14.2614 0.288444L14.2832 0.266444L14.3097 0.271333V0.261556L14.3339 0.266444V0.256667L14.3629 0.259111L14.3725 0.237111L14.4064 0.244444V0.234667L14.4571 0.229778V0.22L14.4933 0.227333V0.215111L14.5441 0.212667V0.202889L14.5827 0.207778V0.198L14.6069 0.202889V0.190667L14.6455 0.198V0.185778L14.6649 0.190667V0.176L14.8775 0.139333L14.8992 0.144222L14.9137 0.119778H14.9645L14.9765 0.0977778L15.0248 0.0953333V0.0831111L15.049 0.088V0.0782222L15.1215 0.0684444V0.0586667L15.1601 0.0611111V0.0513333L15.2109 0.0488889V0.0391111L15.2471 0.0464444V0.0317778L15.2737 0.0391111V0.0244444L15.3438 0.0293333L15.3462 0.0195556L15.3824 0.0244444V0.0122222L15.4187 0.0195556V0.00977778L15.4573 0.0146667V0.00244444L15.5056 0.0122222V0L15.5564 0.00977778V0L15.6168 0.00977778V0L16.5976 0.229778V0.242L16.6339 0.249333V0.259111L16.6701 0.266444V0.278667L16.7088 0.286V0.295778L16.7474 0.303111V0.315333L16.7716 0.320222V0.33L16.8102 0.337333V0.352L16.8586 0.371556V0.381333L16.8972 0.388667V0.403333L16.9721 0.44V0.449778L17.0204 0.469333L17.0325 0.493778L17.0832 0.515778L17.0953 0.540222L17.1219 0.545111L17.134 0.572L17.1581 0.576889L17.1726 0.601333L17.1944 0.606222L17.2089 0.630667L17.233 0.635556L17.2475 0.662444L17.2717 0.667333L17.3079 0.718667L17.3345 0.723556L17.3828 0.792L17.4094 0.796889V0.804222L17.4336 0.823778V0.848222L17.6341 1.08044L17.6703 1.11222V1.13178L17.7114 1.16356V1.18556L17.7331 1.20022L17.7452 1.24178H17.7597V1.26622L17.7839 1.28089L17.7984 1.31756L17.808 1.32244V1.34444L17.837 1.37378V1.39333L17.8491 1.39578V1.42022L17.8612 1.42511V1.44711H17.8733V1.46911L17.8853 1.474V1.496L17.895 1.49844L17.924 1.57178L17.9361 1.57667V1.60844L17.9482 1.61333V1.63533L17.9602 1.63778V1.672L17.9723 1.67444V1.70133H17.9892V1.73556L17.9989 1.738V1.77222L18.0134 1.77467L18.0279 1.85778H18.0376L18.168 2.25133L18.1753 2.25622L18.1946 2.30267L18.2043 2.30511L18.2188 2.37844H18.2308V2.40289H18.2429L18.284 2.56178L18.2912 2.56422V2.60089H18.3081V2.63756H18.3202V2.68156L18.3323 2.68644L18.3589 2.86489V3.82067L18.3347 3.97956L18.3226 3.97467V4.01133L18.3106 4.00889V4.04311L18.2043 4.64444L18.1946 4.642L18.1994 4.78378H18.1825L18.1873 4.884L18.1728 4.88156V4.95H18.1608V5.016H18.1463V5.07222L18.1366 5.06978V5.11378H18.1269L17.9941 5.54156L17.9844 5.53667L17.9699 5.58311L17.9578 5.58067V5.61489L17.9457 5.61244L17.9337 5.65644L17.9216 5.65156V5.676L17.9071 5.67356L17.9119 5.70778L17.8853 5.71511V5.73711L17.8612 5.75667L17.7259 6.05489L17.7162 6.08422L17.7041 6.05489L17.6679 6.02556L17.6558 5.97422L17.6172 5.94733V5.92289L17.593 5.90578V5.88133L17.5544 5.852L17.5278 5.81289L17.5157 5.808V5.786L17.465 5.742L17.4022 5.64911L17.378 5.64422L17.3635 5.60511H17.3514V5.57089L17.3369 5.566V5.52933H17.3248V5.49267L17.3103 5.49022V5.456L17.2983 5.45356V5.41933H17.2862V5.38267L17.2741 5.38022L17.2499 5.30444H17.233V5.28L17.2234 5.27756V5.25556L17.2089 5.25067V5.22867L17.1944 5.22622V5.20178L17.1847 5.19933V5.17733L17.1581 5.15044V5.126L17.134 5.10889L17.1098 5.03556L17.0688 5.00378V4.97933L17.018 4.93778L17.0059 4.89867L16.9794 4.88156V4.85956L16.9407 4.82778V4.80578L16.9045 4.77644V4.752L16.8151 4.664L16.803 4.62978L16.7788 4.62244V4.60044L16.7281 4.56622L16.6653 4.48556L16.6363 4.48067V4.47089L16.5735 4.41956V4.4L16.5397 4.378V4.36822L16.4986 4.35111L16.4889 4.32422L16.4116 4.28756L16.3995 4.25822L16.3609 4.24356V4.23133L16.3391 4.22644L16.3077 4.19711L16.286 4.19467V4.18244L16.2618 4.17756L16.2473 4.15067L16.2232 4.14822V4.136L16.1966 4.13111L16.17 4.10422L16.1459 4.09689L16.1338 4.07244L16.0226 4.01622V4.004L15.9961 3.99911V3.98689L15.9212 3.96244L15.6313 3.82556L15.496 3.78889V3.77911L15.0925 3.68867L14.3435 3.70089L14.3025 3.69356V3.70578L14.2324 3.718V3.72533L14.1817 3.73022L14.1696 3.74978L14.1454 3.74489V3.75711L14.1213 3.75222V3.76444L14.0947 3.75956L14.0705 3.77911L14.0464 3.77178L14.0319 3.79378L13.9594 3.806L13.9328 3.83289L13.8821 3.83778L13.8724 3.85733L13.8314 3.86222V3.872L13.7951 3.87933L13.7975 3.90133L13.7323 3.92578V3.93556L13.7106 3.93067L13.6478 3.99178L13.5994 4.004V4.03089H13.5608V4.05289L13.5366 4.06267V4.07489L13.51 4.07L13.4472 4.12622V4.15067L13.44 4.14822L13.4158 4.19222L13.3892 4.18489L13.3772 4.21667H13.3627L13.3506 4.24844L13.324 4.25578L13.3144 4.29978L13.2805 4.31689L13.2515 4.378L13.225 4.38778L13.2298 4.41222L13.2056 4.43178V4.45378H13.1936V4.47578H13.1791V4.49533L13.167 4.49289V4.51978L13.1549 4.51489V4.53689L13.1404 4.53444L13.1162 4.60044H13.1042L12.9834 4.95978L12.964 5.18956L12.9495 5.18711L12.9423 5.45356H12.952L12.9665 5.69067L12.9809 5.69556L12.9954 5.83733H13.0051L13.0075 5.88378L13.0196 5.88622V5.93267L13.0317 5.93756L13.0365 5.98156L13.0462 5.984L13.0486 6.01822L13.0607 6.02311V6.05733L13.0728 6.05978V6.09644H13.0848V6.13311H13.0993V6.16978L13.109 6.17222V6.20644L13.1235 6.21133V6.24556H13.1356L13.1646 6.32133L13.1766 6.32378V6.34578H13.1863L13.1887 6.37022L13.2008 6.37511V6.39956H13.2153V6.42644H13.225V6.44844L13.2515 6.47778V6.49978L13.2805 6.51689L13.3047 6.59022L13.3385 6.622L13.3554 6.67089L13.3796 6.688L13.3917 6.72467L13.4037 6.72711L13.4182 6.76622L13.44 6.77111V6.79067L13.4786 6.82244V6.84444L13.5076 6.86156V6.886L13.5439 6.91778V6.93L13.568 6.93244L13.5946 6.96178L13.6067 6.996L13.6574 7.04244V7.07667L13.6695 7.08156V7.11333L13.684 7.11822L13.6864 7.15L13.6985 7.15489V7.18911L13.7106 7.19156V7.216L13.7226 7.21844L13.7347 7.28933L13.7492 7.29178L13.7782 7.36756L13.7903 7.37V7.392L13.8024 7.39689V7.41889H13.8096V7.44333L13.8265 7.44822V7.46778L13.8507 7.49956V7.52156L13.8749 7.53622L13.9014 7.612L13.9377 7.64378L13.9522 7.69022L13.9787 7.70733L13.9908 7.74644L14.0416 7.788V7.81489L14.1044 7.87356V7.89311L14.1938 7.98111L14.2058 8.01778L14.2324 8.02267L14.2711 8.11311L14.2952 8.22067L14.3097 8.22311V8.24756L14.3218 8.25V8.28422L14.3339 8.28667L14.3629 8.36L14.3725 8.36244V8.38689L14.3846 8.38933V8.41378L14.3991 8.41622V8.43822L14.4088 8.44067V8.47489L14.4354 8.492L14.4499 8.54089L14.4764 8.558L14.5006 8.63133L14.5247 8.64845V8.67289L14.5513 8.69L14.5658 8.73889L14.5876 8.75356V8.778L14.6383 8.81956V8.84644L14.6914 8.888V8.91244L14.7301 8.94422L14.7446 8.96867L14.7688 8.97356V8.98578L14.7905 9.00289V9.02489L14.8316 9.042L14.8461 9.08111L14.8678 9.086L14.8823 9.11289H14.8944V9.13733L14.9185 9.15444L14.9306 9.22533L14.9451 9.22778V9.25222L14.9596 9.25467V9.28889L14.9717 9.29133L14.9983 9.36711L15.0079 9.36956V9.39155L15.0224 9.394V9.41844L15.0345 9.42089V9.44289H15.049V9.46978H15.0611V9.49667L15.0852 9.52356V9.54556L15.1142 9.56267L15.136 9.63844L15.1746 9.66778L15.1867 9.70444H15.2012V9.72889L15.2375 9.76067V9.78511L15.2906 9.82911V9.85111L15.3389 9.89511V9.91956L15.4283 10.01L15.4404 10.0442L15.4646 10.0467V10.0711L15.5032 10.0907V10.1004L15.5684 10.1616V10.1836L15.5926 10.2007V10.2227L15.6047 10.2251V10.2496L15.6168 10.252V10.2862L15.6313 10.2887L15.6675 10.384H15.6627L15.653 10.45L15.6409 10.4476V10.472L15.6288 10.4671V10.5038L15.6143 10.4989V10.5356H15.6047V10.5576L15.5926 10.5527V10.5893L15.5781 10.5844L15.5684 10.6284L15.5564 10.626V10.6627L15.5443 10.6602L15.5177 10.7238L15.5056 10.7213V10.7458L15.496 10.7409V10.7776L15.4718 10.7849V10.8069L15.4597 10.8044V10.8411L15.4356 10.846V10.8704L15.4235 10.868V10.8876L15.3993 10.9096V10.9316L15.3752 10.9389L15.351 11.0024L15.3244 11.0122V11.0342L15.2906 11.0513L15.2785 11.0929L15.2423 11.1124V11.1344L15.2157 11.1393L15.2036 11.1736L15.1891 11.1687V11.1931L15.1529 11.2102V11.2347L15.0925 11.2909L14.9548 11.4791L14.933 11.5158L14.921 11.5133V11.5451L14.9113 11.5427V11.5891H14.8968V11.6233L14.8871 11.6209L14.8678 11.6527L14.8557 11.6478V11.6844L14.8461 11.682V11.7162L14.8316 11.7138V11.7358L14.8195 11.7333V11.77L14.8074 11.7651V11.7896L14.7953 11.7847L14.7615 11.8482H14.7543L14.7374 11.8922L14.7301 11.8873V11.9118L14.7156 11.9093V11.946L14.7035 11.9436L14.6794 11.9533H14.6866L14.689 11.9778L14.6721 11.9753L14.6528 12.0389L14.6262 12.0462L14.6021 12.1122L14.5755 12.1196L14.5537 12.1807L14.5296 12.1929V12.21L14.503 12.2173V12.2442L14.4788 12.2491V12.2736H14.4643L14.4523 12.3053L14.4281 12.3102V12.3322L14.3943 12.3493V12.3738L14.3701 12.3787V12.4031L14.3435 12.4104L14.3677 12.4251L14.3387 12.43V12.4544L14.2904 12.5351V12.5596L14.2058 12.6084V12.6353L14.1575 12.6573L13.9014 12.9922L13.8893 12.9898L13.8749 13.0338L13.8676 13.0313V13.0558L13.8507 13.0533V13.0851H13.8434L13.8169 13.1487H13.8024V13.1682L13.7927 13.1658V13.1902L13.7782 13.1878L13.783 13.2098H13.771V13.2318L13.7444 13.2489V13.2733L13.7202 13.2807V13.3149L13.7082 13.31L13.6937 13.3467L13.6695 13.3491L13.6574 13.3956L13.6357 13.4029V13.4249L13.6212 13.4224V13.4469L13.5994 13.4542V13.4762L13.5608 13.4933L13.5487 13.5373L13.51 13.552V13.5764L13.4762 13.5936V13.6156L13.4521 13.6229V13.6449L13.4013 13.6718V13.6913L13.3385 13.728V13.7524L13.1549 13.9798H13.1404V14.0262L13.1283 14.0213V14.0458H13.1162L13.0728 14.1411L13.0607 14.1362L13.0486 14.1949L13.0365 14.1924V14.2144L13.0269 14.2096V14.2438H13.0148L12.9882 14.3073L12.9761 14.3049V14.3269L12.964 14.3244V14.3489H12.952V14.3807L12.9254 14.3904V14.4222L12.9061 14.4296V14.454L12.8916 14.4491V14.4736L12.8795 14.4711V14.4956L12.8674 14.4931V14.5151L12.8432 14.5347V14.5591L12.8191 14.564L12.807 14.608L12.7828 14.6153L12.7708 14.6593L12.7345 14.6764L12.72 14.718L12.6886 14.7327L12.6741 14.7669L12.65 14.7767L12.6355 14.8182L12.5968 14.8329V14.8573L12.5388 14.894V14.916L12.476 14.9478V14.9747L12.2707 15.2093L12.2586 15.2436L12.2465 15.2411V15.2876L12.2344 15.2827L12.2223 15.3267L12.2127 15.3242L12.1982 15.3927L12.1861 15.3902L12.174 15.4489L12.1619 15.444L12.1499 15.4856L12.1378 15.4831V15.5076L12.1233 15.5051V15.5418L12.1112 15.5369L12.0895 15.6053L12.0774 15.6029V15.6249H12.0653L12.0387 15.686L12.0146 15.6909V15.7178L11.9928 15.7349V15.7569L11.9807 15.7544V15.7789H11.9687V15.7984L11.9469 15.8082L11.9324 15.8498L11.9083 15.8571V15.8791L11.8817 15.8864V15.9109L11.8575 15.9158V15.9378L11.8334 15.9476V15.9696L11.8092 15.9769V16.0013L11.7706 16.016L11.773 16.0404L11.7488 16.0453V16.0722L11.7005 16.0967V16.1187L11.6377 16.1529V16.1749L11.5918 16.2018V16.214L11.5652 16.2213L11.3526 16.4902L11.3405 16.5098L11.3139 16.5758H11.3043L11.2946 16.6198L11.2825 16.6173V16.6491L11.268 16.6467V16.6711L11.256 16.6687V16.7029H11.2439L11.2004 16.764L11.1883 16.7591V16.7836L11.1762 16.7811V16.8153L11.1545 16.8227V16.8447L11.1279 16.8618V16.8862H11.1158V16.9058H11.1037V16.9278L11.0796 16.9473V16.9693L11.0554 16.9767L11.0409 17.0207L11.0192 17.028V17.05L10.995 17.0573V17.0793L10.9685 17.0867L10.9564 17.1331L10.9177 17.1478L10.9105 17.1918L10.8718 17.2089L10.809 17.2773V17.3018L10.7897 17.2944L10.7631 17.3384L10.751 17.336V17.3556L10.7269 17.3629V17.3751L10.7003 17.3824V17.4069L10.5674 17.4973V17.5193L10.5408 17.5242L10.4828 17.5829L10.4563 17.5804L10.4418 17.6L10.0504 17.9667L10.0383 17.9618L10.0431 17.9838H10.0286V18.0058L10.0045 18.0253V18.0498L9.97791 18.0547L9.96583 18.0987L9.94409 18.106L9.92959 18.15L9.89335 18.1647L9.88369 18.2087L9.84503 18.2258L9.83295 18.2698L9.79913 18.2844V18.3089L9.76048 18.326V18.348L9.70974 18.3724L9.70249 18.4067L9.688 18.4042V18.4262L9.66384 18.4213L9.41741 18.6536L9.39083 18.6487L9.37875 18.6682L9.28211 18.7196V18.744L9.27004 18.7391L9.22172 18.766V18.7782L9.19997 18.7733V18.7929L9.14682 18.81V18.8222L9.12266 18.8149L9.11058 18.8369L9.0985 18.8344L9.08642 18.8564L8.83999 19.0984L8.81825 19.1058L8.80375 19.1498L8.7796 19.1547V19.1791L8.75544 19.1864V19.2084L8.73128 19.2158V19.2378L8.70712 19.2476V19.2671L8.68296 19.2769V19.2989L8.6443 19.3136V19.338L8.62014 19.3453V19.3673L8.5984 19.3722V19.3844L8.57424 19.3942V19.4162L8.5235 19.4431V19.4651L8.43895 19.5189V19.5409L8.35197 19.5947L8.33989 19.6264L8.31815 19.624L8.30607 19.6533L8.26741 19.6607L8.15628 19.7291L7.83737 20.0493L7.79147 20.1129V20.1349L7.76489 20.1422L7.75281 20.1862L7.72865 20.1936L7.73107 20.2156L7.70449 20.2229L7.68275 20.2547V20.2742L7.65618 20.2816L7.63685 20.284L7.61269 20.2889V20.3109L7.58853 20.3207V20.3427L7.54987 20.3598L7.48947 20.4282V20.4527L7.46531 20.4453L7.45082 20.4796L7.417 20.4942V20.5187L7.35418 20.5529L7.11983 20.7289V20.7509L7.1005 20.768L7.07151 20.7656L7.04977 20.7949L6.92414 20.8536L6.92897 20.8731L6.89032 20.8804L6.81542 20.9122L6.79126 20.9416L6.7671 20.9367L6.72845 20.9538L6.71637 20.9758L6.70912 20.9904L6.69945 21.0124L6.61248 21.032V21.0564L6.56658 21.0589V21.0687L6.54 21.0638L6.52792 21.0833L6.50135 21.0784V21.0931L6.4796 21.0858L6.45303 21.0931L5.70408 21.5869L5.68234 21.582L5.64126 21.6236L5.61952 21.6187V21.6284L5.58328 21.648L5.56879 21.6651L5.54463 21.6602L5.53496 21.6847L5.50597 21.6773L5.48181 21.7067L5.45765 21.7042L5.43349 21.7336H5.38276L5.36101 21.7653L5.33444 21.7629L5.32477 21.78L5.27404 21.7849L5.25954 21.8044L5.21364 21.8069L5.20156 21.8264L5.17498 21.8216L5.15083 21.8436L5.12667 21.8362V21.8484L5.10251 21.8436L5.09043 21.8656L5.03728 21.868L5.04211 21.8778L5.01553 21.8753V21.8827L4.94305 21.8949V21.9096L4.9044 21.8973V21.912L4.88024 21.9096V21.9169L4.80776 21.9267V21.9389L4.73286 21.934V21.9462L4.70629 21.9413V21.956L4.59515 21.9584V21.9658L4.57099 21.9633V21.9756L4.52268 21.9658V21.9756L4.48644 21.9682V21.9829L4.44778 21.9756V21.9878L4.41154 21.9804V21.9902L4.36322 21.9829L4.15545 22L4.03224 21.9878V22L3.28812 21.8949V21.8827L3.02478 21.8216L2.52709 21.6382V21.6236L2.36522 21.5624V21.5502L2.34348 21.5453V21.5307L2.30483 21.5258V21.5136L2.22993 21.4891V21.4769L2.20335 21.472V21.4622L2.1647 21.4524V21.4427L2.1188 21.4207V21.4109L2.09464 21.406V21.3938L2.05598 21.3889V21.3767L2.00525 21.3547V21.3424L1.9835 21.3376V21.3302L1.94243 21.3204L1.93277 21.296L1.90136 21.2911V21.2789L1.88203 21.274V21.2618L1.85546 21.2593V21.2447L1.8313 21.2398L1.80472 21.2153L1.78056 21.208L1.76848 21.1836L1.69359 21.1444L1.68151 21.1224L1.63077 21.1029L1.60661 21.0613L1.58245 21.0564L1.56554 21.032L1.5438 21.0271L1.54138 21.0149L1.50514 20.9978L1.49306 20.9709L1.4689 20.966L1.44474 20.9269L1.41817 20.922L1.40609 20.8976L1.37951 20.8927L1.35535 20.8536L1.33119 20.8487L1.28046 20.7802L1.2563 20.7778L1.19348 20.6971L1.16932 20.6922L1.00745 20.5016L0.905985 20.3989V20.3769L0.816594 20.2889V20.2669L0.770691 20.2229V20.2009L0.719956 20.1544L0.715124 20.1349L0.690964 20.1178V20.0933L0.654725 20.064V20.042L0.628149 20.0249L0.61607 19.9882L0.60399 19.9858V19.9638L0.577414 19.9467V19.9247L0.553255 19.9051V19.8831L0.531511 19.866L0.504935 19.7927L0.47836 19.778L0.4542 19.7047L0.427625 19.6876L0.413129 19.6411L0.401049 19.6362V19.6142L0.388969 19.6118V19.5873L0.374474 19.5849V19.5629L0.367226 19.5604L0.362394 19.536L0.350314 19.5336V19.4993L0.323739 19.4847V19.4504L0.311659 19.4456L0.299579 19.3991H0.287499V19.3624H0.275419L0.26334 19.3111L0.25126 19.3087L0.236764 19.2378L0.222268 19.2329V19.2109L0.210188 19.2084V19.162L0.198109 19.1596V19.1376L0.188445 19.1351V19.0911L0.171533 19.0862V19.052L0.159453 19.0496V19.0129H0.147374L0.132878 18.9298L0.123214 18.9273L0.108718 18.8222L0.0942224 18.8198V18.7733L0.0845586 18.7709V18.722H0.0700628V18.6536L0.057983 18.6511L0.0434873 18.4849L0.0314075 18.4824L0 18.04L0.0120798 18.0424L0.0314075 17.6196L0.0434873 17.622V17.5511L0.057983 17.556V17.4851L0.0700628 17.4876L0.0797267 17.3849L0.0918064 17.3898L0.0893905 17.3311L0.103886 17.3336L0.10147 17.2896H0.115966L0.128046 17.2089L0.13771 17.2162V17.1796H0.149789V17.1453L0.164285 17.1478V17.1038H0.176365L0.171533 17.0793L0.188445 17.0818L0.210188 16.9816L0.222268 16.984L0.236764 16.9424L0.246428 16.9449L0.258508 16.874L0.273003 16.8813L0.297163 16.8153L0.311659 16.8178V16.7958L0.318907 16.7982L0.330986 16.742L0.355146 16.7347L0.367226 16.6809L0.396217 16.6711L0.391385 16.6491L0.415545 16.632V16.6051L0.427625 16.61V16.588L0.442121 16.5904V16.566L0.463864 16.5611L0.492856 16.4927L0.500104 16.4951L0.512183 16.4633L0.538759 16.4584V16.434L0.562918 16.4291V16.4047L0.601574 16.3876L0.613654 16.3411L0.649893 16.3313V16.3069L0.683716 16.2898V16.2653L0.744115 16.2311V16.2091L0.80693 16.1724V16.1504L0.852834 16.126V16.1016L0.93256 16.0722V16.0478L1.01712 15.994L1.0292 15.9744L1.05336 15.9769L1.07993 15.9598L1.07752 15.9353L1.19832 15.8767V15.8547L1.29737 15.8156L1.30945 15.796L1.33361 15.7984L1.36019 15.7691L1.38434 15.7764L1.4085 15.7447L1.43508 15.7471L1.44474 15.73L1.48098 15.7227V15.7129L1.50514 15.7178L1.51964 15.6958L1.5438 15.7031L1.55588 15.6811L1.58245 15.686L1.89894 15.466L2.08256 15.2729H2.09705L2.18161 15.1873H2.19369V15.1653L2.24201 15.1287L2.27825 15.1238L2.36522 15.048L2.72279 14.7913V14.7693L2.74211 14.74L2.76869 14.7204V14.696L2.78077 14.6984V14.6764L2.80493 14.6691V14.6471L2.8315 14.6276L2.82667 14.6056L2.85083 14.5982V14.5738L2.87741 14.5689V14.5444L2.90157 14.5151L2.92814 14.5078L2.98854 14.4393L3.06102 14.3611V14.3367L3.0876 14.3416L3.15283 14.3073L3.16249 14.3098V14.2878L3.20839 14.2609V14.2487L3.23255 14.2438V14.2218L3.30986 14.1753L3.45241 14.0213H3.47657L3.55388 13.9553L3.57804 13.9602L3.59736 13.8942L3.62394 13.9016L3.67467 13.8502L3.69883 13.8551L3.71091 13.8356L3.73749 13.838L3.75923 13.8087L3.86312 13.7353L3.88728 13.7182L3.90177 13.7109L4.00083 13.6033L4.01049 13.5569L4.02257 13.5593L4.03707 13.5276L4.06123 13.5227V13.4982L4.08297 13.4933V13.4689L4.13612 13.442L4.14579 13.398L4.16995 13.3907L4.18203 13.3613L4.24484 13.3247V13.3027L4.30524 13.2684V13.244L4.42604 13.1633L4.43812 13.1316L4.90681 12.6427L4.93339 12.6378L4.95755 12.5718L4.98412 12.5644L5.00587 12.4984L5.01553 12.5009L5.03003 12.4691L5.05419 12.4618L5.06627 12.4178L5.10251 12.4031L5.11459 12.3591L5.15083 12.342V12.32L5.18706 12.3053V12.2784L5.21364 12.2736V12.2491L5.27645 12.2149L5.27404 12.1929L5.33444 12.1587V12.1367L5.86595 11.374L5.88045 11.3496L5.90702 11.3447L5.9191 11.2958L5.94568 11.2933L5.95776 11.2469L5.98191 11.242V11.2176L6.00849 11.2102L6.00366 11.1858L6.02782 11.1809V11.1564L6.05439 11.1516V11.1296L6.08822 11.1124V11.0904L6.12687 11.0709L6.12446 11.0513L6.18969 11.0171V10.9902L6.25009 10.9584V10.9364L6.30082 10.9096L6.29841 10.8851L6.32498 10.868L6.34914 10.8729" fill="#00B9AD"/>
<path d="M15.6806 10.3329L15.7169 10.2009L15.741 10.2058L15.7773 10.0518L15.8014 10.0395L15.8135 10.0102H15.8256L15.8401 9.97842L15.8642 9.98087L15.915 9.9002L15.9391 9.90509L15.985 9.80731L16.0116 9.8122L16.0599 9.70464L16.0865 9.70953L16.1372 9.62398V9.58975L16.1614 9.58487L16.159 9.55064L16.1807 9.54331L16.1952 9.48464L16.2073 9.48953V9.46509L16.2339 9.4602L16.2459 9.38931L16.2701 9.39664L16.2822 9.31598L16.3039 9.30864L16.3184 9.2182L16.3426 9.21087L16.3547 9.11798L16.3812 9.11309V9.05442L16.3885 9.05687V9.01287L16.4175 9.00309L16.4271 8.86375L16.4513 8.85887L16.4489 8.76598H16.461V8.73175L16.4755 8.7342L16.4875 8.68042L16.4972 8.68287L16.5238 8.67309L16.5359 8.61931L16.5721 8.61442L16.5697 8.5802L16.5963 8.58264L16.6108 8.52642L16.6494 8.52398L16.6446 8.48731L16.6687 8.4922L16.6953 8.41642L16.7195 8.42131L16.734 8.35287L16.7581 8.35775L16.8427 8.16464L16.8668 8.16953L16.8789 8.10109L16.9031 8.10598L16.9176 8.02775L16.9393 8.03264L16.9514 7.92998L16.9756 7.93487L17.0118 7.77598L17.0263 7.77842L17.0384 7.66353L17.0601 7.65864L17.0698 7.49731L17.0988 7.48998V7.44353H17.1109L17.1447 7.3702L17.1713 7.37509L17.2075 7.3482L17.2703 7.21864L17.2921 7.22353L17.3428 7.11353L17.367 7.12087L17.7052 6.14798L17.7197 6.15042L17.7293 6.12598H17.7414V6.15042H17.7535V6.17731H17.7656V6.19931L17.7777 6.20175V6.2262L17.7922 6.22864V6.25309H17.8042V6.27753L17.8163 6.27998V6.30198L17.8284 6.30442L17.855 6.37775L17.8671 6.38264L18.0942 6.77864V6.80553L18.1425 6.84953V6.87153L18.1811 6.90087V6.92287L18.2198 6.95464V6.97909L18.2439 6.99375V7.0182L18.2705 7.03287L18.2826 7.07198H18.2947V7.09642L18.3213 7.12087V7.14531L18.3333 7.14775V7.17464L18.3599 7.18687L18.372 7.23575L18.3817 7.24064L18.4082 7.31398L18.4227 7.31642V7.35309H18.4348L18.4469 7.39953L18.459 7.40442L18.6764 7.70753V7.73198L18.7368 7.7882V7.81264L18.7875 7.85664V7.87864L18.8238 7.90798V7.92998L18.8504 7.94709V7.97398L18.8866 8.00331V8.02775L18.9132 8.03998L18.9252 8.09131L18.9518 8.10598L18.976 8.17931L19.0001 8.19887L19.0122 8.24531L19.0243 8.24775L19.0412 8.29664H19.0533V8.33331H19.0654L19.0799 8.38464L19.0895 8.38709L19.1016 8.44575L19.1161 8.4482L19.3287 8.75375V8.7782L19.3915 8.83442V8.85642L19.4302 8.8882V8.9102L19.464 8.94198V8.96398L19.4906 8.97864L19.5075 9.01775L19.5196 9.0202V9.0422L19.5437 9.05687L19.5558 9.1082L19.5776 9.12287L19.6065 9.19864H19.6186V9.22064L19.6307 9.22553V9.24753H19.6452V9.27442L19.6573 9.27687L19.679 9.3502L19.6935 9.35264V9.38687L19.7056 9.38931V9.41131L19.7177 9.41375L19.7225 9.44798L19.7346 9.45042V9.47487L19.7467 9.47731V9.50909L19.7588 9.51398V9.54575L19.7708 9.55064V9.58487L19.7829 9.58731L19.8578 9.70464L19.9206 9.79753L19.9327 9.79998L19.9472 9.83664L19.9834 9.86842V9.88798L20.0124 9.90753V9.92953L20.0463 9.96131V9.98087L20.0704 9.99798L20.0849 10.0371H20.097L20.1115 10.086L20.1381 10.1055V10.1275L20.1622 10.1544V10.1789H20.1743V10.2033L20.184 10.2058L20.1864 10.2302L20.213 10.2449V10.2791L20.225 10.2815V10.3035L20.2371 10.3084L20.2492 10.3549L20.2613 10.3573V10.394H20.2734V10.4184H20.2854L20.3023 10.4795H20.3144V10.5162L20.3289 10.5186L20.4763 10.79L20.5246 10.8315V10.8584L20.5657 10.8878V10.9098L20.5898 10.9269V10.9489L20.6768 11.0931L20.701 11.1078V11.1322L20.73 11.1615V11.1811L20.742 11.186V11.208L20.7565 11.2104V11.2349H20.7686V11.2569L20.7783 11.2593L20.8049 11.3351L20.8169 11.34L21.0295 11.6431L21.0561 11.6846H21.0682V11.7066L21.1214 11.7506V11.7751L21.1552 11.8044V11.8289L21.1962 11.8582V11.8802L21.2204 11.8998V11.9218L21.247 11.9364L21.2591 11.9731L21.2711 11.9755L21.2832 12.0269L21.3074 12.0415L21.3195 12.0904L21.3823 12.2151H21.4016L21.3992 12.2273L21.3605 12.2444V12.2542L21.3388 12.2518V12.264L21.3098 12.2566L21.2881 12.2884L21.2736 12.286V12.3104L21.2663 12.308L21.247 12.3275L21.2277 12.3251L21.2132 12.3569L21.1769 12.3862L21.16 12.3813V12.396L21.1383 12.3886V12.4009L21.102 12.418V12.44L21.0779 12.4498V12.4718L21.0271 12.4986L20.9643 12.5451V12.5671L20.9522 12.5646V12.5891L20.916 12.6062V12.616L20.8894 12.6135L20.8773 12.6355L20.8266 12.638L20.701 12.6722L20.6647 12.6991V12.7113L20.6406 12.7064V12.7162L20.614 12.7113L20.5898 12.7431L20.5657 12.7406L20.5512 12.7578H20.5246L20.4521 12.8213L20.428 12.8189L20.3893 12.858L20.3531 12.8629L20.3386 12.8946L20.3023 12.8995V12.924L20.2637 12.9533L20.254 12.9484V12.9606L20.2154 12.968L20.2057 12.9851L20.1646 12.9802L20.155 13.0022L20.1308 12.9973V13.0095L20.1018 13.0046V13.0144L20.0535 13.0071V13.0169L19.9762 13.0266V13.0389L19.9399 13.0315L19.9424 13.0462L19.9182 13.0389L19.9037 13.0609L19.853 13.0633L19.7225 13.1489L19.551 13.232L19.2659 13.3738L19.2272 13.4006L19.0799 13.5375L19.0436 13.5644L18.9301 13.5791L18.9059 13.6084L18.7924 13.6231L18.7803 13.6451H18.7296L18.7078 13.6769L18.6812 13.6744L18.6692 13.6915L18.6136 13.6964L18.5918 13.7258L18.5435 13.7526L18.5194 13.7478V13.7698L18.4952 13.7649L18.4686 13.7991L18.4396 13.7918L18.4445 13.804L18.4179 13.7991V13.8089L18.3913 13.8186L18.3937 13.8406L18.3696 13.848V13.8602L18.3188 13.8626L18.3068 13.8798L18.0507 13.9042L17.9057 13.7184L17.8671 13.6891L17.855 13.6549L17.8018 13.6084V13.5864L17.7656 13.5522V13.5351L17.7245 13.5009V13.4789L17.7004 13.4618V13.4373L17.6738 13.4226L17.6617 13.3762L17.6375 13.3566L17.6255 13.3102L17.6134 13.3078L17.6013 13.2613L17.5892 13.254V13.2344L17.5747 13.2295L17.553 13.2026H17.5433L17.4298 13.0462L17.338 12.9338V12.9191L17.2848 12.8775V12.858L17.164 12.7284V12.704L17.1326 12.6624V12.6404L17.1084 12.6233V12.6013L17.0795 12.5842V12.5646L17.0553 12.5451V12.5231L17.0311 12.5084V12.484L17.0046 12.4669V12.4424H16.9925L16.978 12.3935L16.9538 12.3764L16.9393 12.3275H16.9297L16.8813 12.2493L16.8693 12.2469V12.2102H16.8596L16.8451 12.1589H16.8306L16.5963 11.824V11.802L16.5334 11.7458V11.7213L16.4948 11.692V11.6675L16.4561 11.6382V11.6162L16.432 11.6015V11.5746L16.4078 11.56L16.3909 11.5233L16.3837 11.5184L16.3547 11.4451L16.3305 11.4304L16.0792 10.9806L16.0648 10.9415L15.9657 10.8438V10.8193L15.915 10.7778V10.7533L15.8642 10.7093V10.6849L15.8401 10.6678L15.8256 10.6311H15.8135V10.6091L15.7893 10.592V10.5675L15.7628 10.5529V10.5284L15.741 10.5113V10.4918L15.6758 10.3989V10.3891L15.683 10.3915L15.6806 10.3329Z" fill="#B2C23E"/>
<path d="M17.7293 6.08887V6.10353L17.7148 6.08887H17.7293Z" fill="#81BB45"/>
<path d="M15.6776 10.3887H15.668V10.3838L15.6776 10.3862V10.3887Z" fill="#81BB45"/>
<path d="M15.6159 10.286V10.2518L15.6038 10.2494V10.2249L15.5917 10.2225V10.2005L15.5676 10.1834V10.1614L15.5023 10.1003V10.0905L15.4637 10.0709V10.0465L15.4395 10.044L15.4274 10.0098L15.338 9.91937V9.89492L15.2897 9.85092V9.82892L15.2366 9.78492V9.76048L15.2003 9.7287V9.70425H15.1858L15.1738 9.66759L15.1351 9.63825L15.1134 9.56248L15.0844 9.54537V9.52337L15.0602 9.49648V9.46959H15.0481V9.4427H15.0336V9.4207L15.0215 9.41825V9.39381L15.0071 9.39137V9.36937L14.9974 9.36692L14.9708 9.29114L14.9587 9.2887V9.25448L14.9442 9.25203V9.22759L14.9297 9.22514L14.7896 9.0247V9.0027L14.7679 8.98559V8.97337L14.7437 8.96848L14.7292 8.94403L14.6906 8.91225V8.88781L14.6374 8.84625V8.81937L14.5867 8.77781V8.75337L14.5649 8.7387L14.5504 8.68981L14.5239 8.6727V8.64825L14.4997 8.63114L14.4755 8.55781L14.449 8.5407L14.4345 8.49181L14.4079 8.4747V8.44048L14.3982 8.43803V8.41603L14.3837 8.41359V8.38914L14.3717 8.3867V8.36225L14.362 8.35981L14.333 8.28648L14.3209 8.28403V8.24981L14.3088 8.24737V8.22292L14.2943 8.22048L14.1035 7.89292V7.87337L14.0407 7.8147V7.78781L13.9899 7.74625L13.9779 7.70714L13.9513 7.69003L13.9368 7.64359L13.9005 7.61181L13.874 7.53603L13.8498 7.52137V7.49937L13.8256 7.46759V7.44803L13.8087 7.44314V7.4187H13.8015V7.3967L13.7894 7.39181V7.36981L13.7773 7.36737L13.7483 7.29159L13.7338 7.28914L13.7218 7.21825L13.7097 7.21581L13.6976 7.18892L13.6855 7.14981L13.6058 6.99581L13.5671 6.93225L13.543 6.92981V6.91759L13.5067 6.88581V6.86137L13.4777 6.84425V6.82225L13.4391 6.79048V6.77092L13.4174 6.76603L13.4029 6.72692L13.3908 6.72448L13.3787 6.68781L13.3545 6.6707L13.3376 6.62181L13.3038 6.59003L13.2796 6.5167L13.2506 6.49959V6.47759L13.2241 6.44825V6.42625H13.2144V6.39937H13.1999V6.37492L13.1878 6.37003L13.1854 6.34559H13.1758V6.32359L13.1637 6.32114L13.1347 6.24537H13.1226V6.21114L13.1081 6.20625V6.17203L13.0984 6.16959V6.13292H13.0839V6.09625H13.0719V6.05959L13.0598 6.05714V6.02292L13.0477 6.01803L13.0453 5.98381L13.0356 5.98137L13.0308 5.93737L13.0187 5.93248V5.88603L13.0066 5.88359L13.0042 5.83714H12.9946L12.9801 5.69537L12.9656 5.69048L12.9511 5.45337H12.9414L12.9487 5.18692L12.9631 5.18937L12.9825 4.95959L13.1033 4.60025H13.1154L13.1395 4.53425L13.154 4.5367V4.5147L13.1661 4.51959V4.4927L13.1782 4.49514V4.47559H13.1927V4.45359H13.2047V4.43159L13.2289 4.41203L13.2241 4.38759L13.2506 4.37781L13.2796 4.3167L13.3135 4.29959L13.3231 4.25559L13.3497 4.24825L13.3618 4.21648H13.3763L13.3884 4.1847L13.4149 4.19203L13.4391 4.14803L13.4463 4.15048V4.12603L13.5092 4.06981L13.5357 4.0747V4.06248L13.5599 4.0527V4.0307H13.5985V4.00381L13.6469 3.99159L13.7097 3.93048L13.7314 3.93537V3.92559L13.7967 3.90114L13.7942 3.87914L13.8305 3.87181V3.86203L13.8716 3.85714L13.8812 3.83759L13.9319 3.8327L13.9585 3.80581L14.031 3.79359L14.0455 3.77159L14.0697 3.77892L14.0938 3.75937L14.1204 3.76425V3.75203L14.1446 3.75692V3.7447L14.1687 3.74959L14.1808 3.73003L14.2315 3.72514V3.71781L14.3016 3.70559V3.69337L14.3427 3.7007L15.0916 3.68848L15.4951 3.77892V3.7887L15.6304 3.82537L15.9203 3.96225L15.9952 3.9867V3.99892L16.0218 4.00381V4.01603L16.1329 4.07225L16.145 4.0967L16.1691 4.10403L16.1957 4.13092L16.2223 4.13581V4.14803L16.2464 4.15048L16.2609 4.17737L16.2851 4.18225V4.19448L16.3068 4.19692L16.3382 4.22625L16.36 4.23114V4.24337L16.3986 4.25803L16.4107 4.28737L16.488 4.32403L16.4977 4.35092L16.5388 4.36803V4.37781L16.5726 4.39981V4.41937L16.6354 4.4707V4.48048L16.6644 4.48537L16.7272 4.56603L16.7779 4.60025V4.62225L16.8021 4.62959L16.8142 4.66381L16.9036 4.75181V4.77625L16.9398 4.80559V4.82759L16.9785 4.85937V4.88137L17.005 4.89848L17.0171 4.93759L17.0679 4.97914V5.00359L17.1089 5.03537L17.1331 5.1087L17.1573 5.12581V5.15025L17.1838 5.17714V5.19914L17.1935 5.20159V5.22603L17.208 5.22848V5.25048L17.2225 5.25537V5.27737L17.2322 5.27981V5.30425H17.2491L17.2853 5.38248L17.5148 5.78581V5.80781L17.5269 5.8127L17.5535 5.85181L17.5921 5.88114V5.90559L17.6163 5.9227V5.94714L17.6549 5.97403L17.667 6.02537L17.7033 6.0547L17.7153 6.08403V6.08892L17.7298 6.10359V6.12559L17.7202 6.15003L17.7057 6.14759L17.3674 7.12048L17.3433 7.11314L17.2925 7.22314L17.2708 7.21825L17.208 7.34781L17.0606 7.65825L17.0389 7.66314L17.0268 7.77803L17.0123 7.77559L16.9761 7.93448L16.9519 7.92959L16.9398 8.03225L16.9181 8.02737L16.9036 8.10559L16.8794 8.1007L16.8673 8.16914L16.8432 8.16425L16.7586 8.35737L16.7345 8.35248L16.72 8.42092L16.6958 8.41603L16.6692 8.49181L16.6499 8.52359L16.5968 8.58225L16.5726 8.61403L16.4518 8.85848L16.418 9.0027L16.389 9.01248V9.05648L16.3817 9.05403V9.1127L16.3552 9.11759L16.3431 9.21048L16.3189 9.21781L16.3044 9.30825L16.2827 9.31559L16.2706 9.39625L16.2464 9.38892L16.2344 9.45981L16.2078 9.4647V9.48914L16.1957 9.48425L16.1812 9.54292L16.1595 9.55025L16.1619 9.58448L16.1377 9.58937V9.62359L16.087 9.70914L16.0604 9.70425L16.0121 9.81181L15.9855 9.80692L15.9396 9.9047L15.7415 10.2054L15.6811 10.3325L15.6835 10.3911L15.6763 10.3887V10.3863L15.6666 10.3838L15.6304 10.2885L15.6159 10.286Z" fill="#009194"/>
<path d="M25.7029 15.3633L25.7102 15.3755L25.6908 15.3706L25.6836 15.356L25.7029 15.3535V15.3633Z" fill="#81BB45"/>
<path d="M28.0948 11.6675L28.1045 11.67V11.6968L28.0586 11.6382L28.0948 11.6675Z" fill="#81BB45"/>
<path d="M25.6329 15.3023L25.6208 15.2534L25.5846 15.224L25.5725 15.1629L25.5604 15.1605L25.5072 15.0798L25.3454 14.9674V14.9429L25.3067 14.9258L25.2946 14.8989L25.2656 14.894L25.2294 14.8427L25.2028 14.8378L25.1424 14.7645L25.1134 14.7254L25.0917 14.7205L25.0506 14.6545L25.0265 14.652L24.9637 14.5592L24.9492 14.5543V14.5298L24.8718 14.4589V14.4369L24.8501 14.4174V14.3929L24.8235 14.3783V14.3563L24.7728 14.3318L24.681 14.1314L24.6592 14.1265L24.5505 13.8845L24.5264 13.8649V13.8429L24.5143 13.8405L24.5022 13.7672L24.4901 13.7647V13.7305L24.478 13.728V13.6914H24.4636V13.6572L24.4515 13.6547L24.4491 13.6058H24.4394L24.4225 13.53L24.4104 13.5276V13.5056L24.3983 13.5007V13.4567L24.3862 13.4543L24.3838 13.3834L24.3717 13.3809L24.3693 13.3223L24.3597 13.3198L24.3572 13.2245L24.3452 13.222L24.1591 12.5816L24.1471 12.4618L24.135 12.4594V12.4349H24.1229L24.1205 12.3518L24.0939 12.3323V12.2076L24.0673 12.1929L24.0625 11.8238L24.0891 11.8214V11.6869L24.1132 11.6943L24.1229 11.5818H24.135V11.5354L24.1471 11.5403V11.4767L24.1712 11.4718V11.4254L24.1978 11.4205L24.2099 11.3398L24.2364 11.3447L24.2703 11.22L24.2944 11.2249V11.1932L24.3186 11.1956L24.4201 11.0392L24.4442 11.044L24.4829 10.9683L24.507 10.9732V10.9487L24.5312 10.9512L24.594 10.8705L24.6158 10.8754V10.8509L24.6592 10.8607L24.6955 10.8314L24.6906 10.8069L24.7148 10.8143V10.7898L24.7414 10.7947L24.768 10.7654L24.7897 10.7678L24.8042 10.7483L24.8404 10.7409V10.7189L24.9033 10.6847L25.0144 10.67V10.648L25.1424 10.6383V10.6114L25.2536 10.5967L25.2946 10.6065V10.5943L25.3188 10.5967V10.5845L25.3647 10.5943L25.3816 10.5747L25.5169 10.5894L25.5266 10.5674L25.6425 10.5894L25.657 10.5674L25.8551 10.6065L25.8841 10.5967L26.22 10.6749V10.6969L26.5002 10.7849V10.8069L26.563 10.8192V10.8436L26.7684 10.9072L27.2612 11.176L27.3458 11.2249V11.2347L27.3965 11.2469L27.4086 11.2689L27.4593 11.2812V11.2934L27.4956 11.3007V11.3105L27.5367 11.3178V11.3325L27.5874 11.3398V11.352L27.7637 11.4303V11.4547L28.015 11.5965V11.6185L28.0585 11.638L28.1044 11.6967V11.704L28.131 11.7114L28.1431 11.7725H28.1576V11.8214L28.1672 11.8238V11.8434L28.1841 11.8483V11.8849H28.1962V11.9363H28.2083V11.9583L28.2204 11.9607V12.0194L28.2469 12.034L28.2494 12.1196L28.2735 12.1367V12.2443L28.2977 12.254L28.3001 12.4545L28.3291 12.6158L28.317 12.6085V12.6574L28.3049 12.6549V12.8578L28.2808 12.8627L28.2832 12.9678L28.2566 12.9727V13.0558L28.2324 13.0632V13.1218H28.2204V13.1414H28.2083V13.1878L28.1986 13.1854V13.2098L28.1865 13.2074L28.172 13.288L28.16 13.2832L28.1479 13.3394L28.1237 13.3369V13.3834L28.0996 13.3785V13.4249L28.0754 13.42L28.0512 13.4983L28.0247 13.4934L28.0029 13.5569L27.9643 13.5765V13.6107L27.9135 13.6718L27.887 13.6669L27.8894 13.6889L27.8652 13.6865V13.7109L27.8435 13.706L27.7517 13.816L27.7275 13.8136V13.8356L27.614 13.8845V13.9065L27.5391 13.9285V13.9529L27.3289 14.1143L27.3023 14.1069L27.3047 14.1436L27.2806 14.1485V14.1729L27.2395 14.19V14.2096L27.2008 14.2292V14.2512L27.1549 14.278L27.1308 14.3074V14.3318L27.1066 14.3269L27.0559 14.3758L27.0438 14.3734V14.3978L27.0051 14.4125L26.9931 14.4345L26.9689 14.4296L26.5703 14.7278H26.5582L26.5461 14.7596L26.5219 14.7669V14.7889L26.4978 14.7963V14.8207L26.4712 14.828V14.85L26.4326 14.8672V14.894L26.3963 14.9063L26.3842 14.9405L26.3335 14.9674L26.2586 15.0236L26.261 15.0456L26.22 15.0529L26.1475 15.1214L26.1233 15.114L26.1088 15.136L26.0847 15.1287L26.0508 15.1703L26.0098 15.1752L25.9953 15.1972L25.9759 15.1923L25.959 15.2094H25.9373L25.9252 15.2289L25.901 15.224V15.2363L25.8648 15.2412L25.8503 15.2632L25.8237 15.2583L25.7996 15.2876L25.7754 15.2827L25.7078 15.3512L25.7126 15.3756H25.7078L25.7005 15.3634V15.3536L25.6812 15.356L25.6498 15.3047L25.6329 15.3023Z" fill="#59B35A"/>
<path d="M18.0478 13.9087L18.043 13.9038H18.0502L18.055 13.9087H18.0478Z" fill="#81BB45"/>
<path d="M18.3214 13.8624L18.3721 13.86V13.8477L18.3963 13.8404L18.3938 13.8184L18.4204 13.8086V13.7988L18.447 13.8037L18.4422 13.7915L18.4712 13.7988L18.4977 13.7646L18.5219 13.7695V13.7475L18.5461 13.7524L18.5944 13.7255L18.6161 13.6962L18.6717 13.6913L18.6838 13.6742L18.7103 13.6766L18.7321 13.6448H18.7828L18.7949 13.6228L18.9084 13.6082L18.9326 13.5788L19.0462 13.5642L19.0824 13.5373L19.2298 13.4004L19.2684 13.3735L19.4931 13.2391L19.5342 13.2464V13.2244L19.7057 13.1413L19.8555 13.0631L19.9062 13.0606L19.9207 13.0386L19.9449 13.046L19.9425 13.0313L19.9787 13.0386V13.0264L20.056 13.0166V13.0068L20.1043 13.0142V13.0044L20.1333 13.0093V12.9971L20.1575 13.002L20.1672 12.98L20.2082 12.9848L20.2179 12.9677L20.2566 12.9604V12.9482L20.2662 12.9531L20.3049 12.9237V12.8993L20.3411 12.8944L20.3556 12.8626L20.3918 12.8577L20.4305 12.8186L20.4547 12.8211L20.5271 12.7575H20.5537L20.5682 12.7404L20.5924 12.7428L20.6165 12.7111L20.6431 12.716V12.7062L20.6673 12.7111V12.6988L20.7035 12.672L20.8291 12.6377L21.0297 12.4984L21.0804 12.4715V12.4495L21.1046 12.4397V12.4177L21.1408 12.4006V12.3884L21.1625 12.3957V12.3811L21.1794 12.386L21.2157 12.3566L21.2302 12.3248L21.2495 12.3273L21.2688 12.3077L21.2761 12.3102V12.2857L21.2906 12.2882L21.3123 12.2564L21.3413 12.2637V12.2515L21.3631 12.254V12.2442L21.4017 12.2271L21.4041 12.2148H21.4138V12.2173V12.2442L21.4669 12.276V12.298L21.566 12.3762V12.3982L21.5926 12.4055V12.4275L21.6192 12.4348V12.4544L21.6433 12.4617L21.6457 12.4837L21.6699 12.4911L21.7327 12.5937L21.7569 12.5986L21.7859 12.6597L21.8124 12.6695V12.6891L21.8342 12.694L21.9236 12.8382L22.1048 13.0386V13.0631L22.1531 13.0826V13.1046L22.2159 13.1413V13.1633L22.2401 13.1682V13.1926L22.2666 13.1975L22.269 13.222L22.3319 13.2904L22.3584 13.2953V13.3197L22.3826 13.3246V13.3466L22.4068 13.3515L22.4961 13.4982L22.5227 13.5006V13.5275L22.5469 13.53V13.5642L22.571 13.5691L22.902 13.948V13.9724L22.9286 13.9773L22.9673 14.0408L22.9914 14.0457L22.9938 14.0726L23.018 14.0751L23.0566 14.1411L23.0808 14.1435V14.1704L23.105 14.1728L23.146 14.2633L23.1726 14.2682V14.2951L23.1968 14.2975L23.2354 14.3831L23.2596 14.3904V14.4246L23.2838 14.4295L23.2982 14.4662L23.3103 14.4686L23.3248 14.5297L23.349 14.5468V14.5713L23.3756 14.5884V14.6226L23.4021 14.6373L23.4142 14.7131L23.4408 14.7277V14.7766H23.4504L23.4649 14.8377L23.4915 14.8426L23.506 14.9624L23.5181 14.9673V14.9893H23.5302V15.0602L23.5568 15.0773L23.622 15.3022L23.6461 15.3046L23.6727 15.4048L23.6969 15.4073L23.7138 15.4928L23.7379 15.4977L23.7524 15.6175L23.7766 15.6248L23.8177 16.0404L23.8056 16.038L23.8104 16.2237L23.7959 16.2213V16.3068L23.7839 16.302V16.3728L23.7621 16.3777L23.75 16.4706L23.7259 16.4657L23.6655 16.6515L23.6365 16.6466L23.5423 16.8177L23.5157 16.8251L23.4988 16.8226L23.5036 16.8568L23.477 16.8544V16.8666L23.4263 16.8935L23.3901 16.918L23.3949 16.9546L23.3031 16.9815V17.0035L23.2982 17.0011L23.2934 17.006H23.291L23.2668 17.0182H23.2596L23.2378 17.0353L23.2137 17.0328V17.0402L23.1871 17.0377V17.05L23.163 17.0451L23.1509 17.0671L23.076 17.0768L23.0615 17.0964L23.0397 17.0915L23.0301 17.1135L22.9624 17.1502L22.9286 17.1477V17.1722L22.7039 17.1868V17.2088L22.4623 17.1893V17.2015L22.4382 17.1966V17.2088L22.2763 17.1795L21.8245 17.0451V17.0206L21.723 16.9937L21.711 16.9668L21.682 16.962V16.9473L21.6192 16.9375V16.9253L21.5805 16.918V16.9057L21.4573 16.8862L21.4452 16.8593L21.3051 16.8324L21.2906 16.808L21.2036 16.7884V16.7786L21.1553 16.7688V16.7566L21.1191 16.7493V16.7371L21.0514 16.7273L21.0393 16.7004L20.9765 16.6857V16.6662L20.9258 16.654L20.9137 16.6295L20.8267 16.6002V16.5782L20.7736 16.5684V16.544L20.7228 16.5244V16.5146L20.6866 16.5024V16.4926L20.6238 16.4584V16.434L20.5827 16.4291V16.4046L20.3822 16.2237L20.358 16.2213V16.1968L20.2928 16.126L20.2662 16.1235V16.0991L20.2445 16.0942V16.0722L20.0005 15.8742L19.9497 15.8375L19.9401 15.8155L19.9135 15.8082V15.7984L19.8869 15.7935V15.7837L19.8362 15.7397L19.6695 15.6248V15.6028L19.6477 15.598V15.5711L19.6091 15.5662V15.5417L19.5801 15.5368V15.5148L19.4448 15.3608L19.4182 15.356V15.3315L19.1742 15.0773V15.0528L19.1283 15.0431V15.0211L19.0872 14.9991V14.9893L19.0631 14.9844L19.0486 14.96L19.0123 14.9502L18.9978 14.9257L18.9109 14.8744V14.85L18.8867 14.8451V14.8206L18.8215 14.7864V14.7644L18.7973 14.7571L18.7949 14.7326L18.6934 14.6568V14.6324L18.6669 14.63L18.6065 14.5248L18.5799 14.5175V14.4955L18.5557 14.4906L18.5267 14.4271L18.5026 14.4222V14.4002L18.4784 14.3928V14.3611L18.4542 14.3415V14.3195L18.4422 14.3171L18.4156 14.2535L18.3866 14.2486V14.2144L18.3624 14.2071L18.3238 14.168L18.3117 14.1411V14.1313L18.2755 14.1215V14.0971L18.1716 14.0335V14.0115L18.0725 13.9431V13.9211L18.0508 13.9088H18.058L18.0532 13.904L18.3093 13.8795L18.3214 13.8624Z" fill="#5CA038"/>
</g>
<defs>
<clipPath id="clip0_9076_28843">
<rect width="35" height="22" fill="white"/>
</clipPath>
</defs>
</svg>
