<svg width="22" height="27" viewBox="0 0 22 27" fill="none" xmlns="http://www.w3.org/2000/svg">
<g clip-path="url(#clip0_6118_28297)">
<path d="M11.0021 10.2488L5.51953 0L11.0021 2.70679L16.4875 0L11.0021 10.2488Z" fill="#FFC20E"/>
<path d="M18.2266 8.02504L21.9701 6.4623V1.07812L15.261 3.88014L11.5438 10.8131C14.3214 11.077 16.4861 13.384 16.4861 16.1818C16.4861 19.1673 14.031 21.5772 11.0007 21.5772C7.97043 21.5772 5.51246 19.1673 5.51246 16.1818C5.51246 13.3847 7.68356 11.077 10.454 10.8131L6.74109 3.88014L0.0320326 1.07812V6.463L3.77487 8.02574C1.46496 10.0072 0 12.9268 0 16.1811C0 22.1576 4.92377 26.9999 11.0007 26.9999C17.0777 26.9999 22 22.1576 22 16.1811C22 12.9268 20.5393 10.0065 18.2266 8.02504Z" fill="#FFC20E"/>
</g>
<defs>
<clipPath id="clip0_6118_28297">
<rect width="22" height="27" fill="white"/>
</clipPath>
</defs>
</svg>
