<svg width="76" height="18" viewBox="0 0 76 18" fill="none" xmlns="http://www.w3.org/2000/svg">
<g clip-path="url(#clip0_5811_28551)">
<path d="M8.95248 -0.00585887C7.18064 -0.00645688 5.44843 0.521037 3.97495 1.50991C2.50147 2.49877 1.35293 3.90459 0.674604 5.54953C-0.00372469 7.19446 -0.181368 9.00461 0.164155 10.751C0.509678 12.4974 1.36284 14.1016 2.61572 15.3607C3.8686 16.6197 5.46491 17.4771 7.20274 17.8244C8.94056 18.1716 10.7418 17.9931 12.3787 17.3114C14.0155 16.6297 15.4144 15.4755 16.3984 13.9947C17.3824 12.514 17.9074 10.7732 17.9068 8.99263C17.9072 7.81082 17.6758 6.64051 17.226 5.54859C16.7761 4.45666 16.1166 3.46451 15.285 2.62885C14.4534 1.79318 13.4662 1.13038 12.3796 0.6783C11.293 0.226224 10.1285 -0.00625618 8.95248 -0.00585887ZM9.13903 16.3432C7.74925 16.4804 6.35167 16.1758 5.1433 15.4724C4.25227 14.9156 3.53983 14.1125 3.09129 13.1593C2.6851 12.3066 2.48952 11.2725 2.9258 11.3239C3.1304 11.3481 3.30491 11.7351 3.69907 12.231C3.96986 12.5757 4.21659 12.866 4.40313 12.9083C4.48437 12.9264 4.55358 12.8871 4.61376 12.7722C4.7547 12.437 4.9323 12.1186 5.1433 11.8228C5.35994 11.5718 5.62171 11.4539 5.77516 12.0677C5.84656 12.3669 5.90181 12.6697 5.94065 12.9748C5.98879 13.3649 6.01285 13.5977 6.14825 13.6642C6.28365 13.7307 6.49427 13.6461 6.8463 13.513C7.10205 13.4163 7.424 13.2984 7.83621 13.1774C8.24842 13.0565 8.45603 13.126 8.21231 13.7156C8.045 14.1097 7.82973 14.4814 7.57143 14.8223C7.5538 14.8443 7.54066 14.8696 7.53277 14.8967C7.52489 14.9239 7.52242 14.9523 7.52549 14.9804C7.52857 15.0085 7.53713 15.0357 7.5507 15.0604C7.56426 15.0852 7.58256 15.107 7.60453 15.1247C7.84237 15.3152 8.10834 15.4672 8.39284 15.5752C8.65825 15.6875 8.93061 15.7825 9.20823 15.8594C9.54522 15.9592 9.47903 16.3009 9.13903 16.3493V16.3432ZM13.7365 14.4081C13.2613 15.0811 12.6106 15.6095 11.856 15.935C11.7266 15.9925 11.5882 15.9743 11.5551 15.8715C11.522 15.7687 11.5972 15.675 11.6815 15.5691C12.7857 14.1299 11.9643 12.8085 10.1771 11.7835C8.86222 11.0276 8.02275 10.5922 7.0509 10.0177C4.20455 8.33346 3.65394 6.86698 3.54261 5.99616C3.26279 3.80399 5.06809 2.1591 6.92453 1.763C6.97869 1.763 7.12913 1.72672 7.17727 1.85069C7.22542 1.97466 7.11409 2.06234 7.0509 2.10165C6.22046 2.56125 5.40507 3.5379 5.49233 4.62038C5.54348 5.22511 5.79321 6.09594 7.43002 7.26308C8.4139 7.9676 9.61743 8.54512 12.0456 10.0086C14.6241 11.5688 14.3232 13.4556 13.7365 14.4141V14.4081ZM14.1367 6.17758C13.55 6.89722 12.9663 6.63113 12.5149 5.61517C12.2321 4.98322 11.862 4.83204 11.6123 4.99532C11.3626 5.1586 11.4378 5.60006 11.7567 6.11106C11.8477 6.25567 11.8875 6.42694 11.8694 6.59709C11.8514 6.76724 11.7767 6.92628 11.6574 7.0484C11.5244 7.17264 11.3618 7.26043 11.1853 7.30332C11.0088 7.34621 10.8243 7.34277 10.6495 7.29332C9.92735 7.13307 9.21726 6.15944 9.74682 4.03983C9.95443 3.18111 9.54523 2.83036 9.28647 2.48566C9.15709 2.32238 9.14204 2.2226 9.18717 2.15607C9.2323 2.08955 9.35867 2.07746 9.5723 2.12282C9.84911 2.18329 10.2613 2.3254 10.5983 2.37681C10.8354 2.41105 11.0751 2.42319 11.3144 2.41309C11.9369 2.36533 12.5607 2.48757 13.1197 2.76686C14.0434 3.22344 14.1367 4.01564 13.6252 3.95214C13.4141 3.898 13.2116 3.81455 13.0234 3.7042C12.9782 3.67104 12.9247 3.65121 12.8689 3.64693C12.8131 3.64266 12.7572 3.65412 12.7075 3.68001C12.6669 3.71363 12.6393 3.76043 12.6294 3.81232C12.6196 3.86421 12.628 3.91794 12.6533 3.96424C12.7677 4.20614 13.1558 4.33011 13.6793 4.47525C14.597 4.73831 14.6241 5.59401 14.1367 6.18363V6.17758Z" fill="#0046FF"/>
<path d="M9.14013 16.3488C7.75035 16.486 6.35277 16.1814 5.1444 15.478C4.25337 14.9212 3.54093 14.1181 3.09239 13.1649C2.6862 12.3122 2.49062 11.2781 2.9269 11.3295C3.1315 11.3537 3.30601 11.7407 3.70017 12.2366C3.97096 12.5813 4.21768 12.8716 4.40423 12.9139C4.48547 12.9321 4.55468 12.8928 4.61485 12.7779C4.75579 12.4426 4.9334 12.1242 5.1444 11.8284C5.36104 11.5775 5.62281 11.4595 5.77626 12.0733C5.84766 12.3725 5.90291 12.6753 5.94175 12.9804C5.98989 13.3705 6.01395 13.6033 6.14935 13.6699C6.28475 13.7364 6.49537 13.6517 6.8474 13.5187C7.10315 13.4219 7.4251 13.304 7.83731 13.183C8.24952 13.0621 8.45713 13.1316 8.21341 13.7212C8.0461 14.1153 7.83083 14.4871 7.57253 14.8279C7.55489 14.8499 7.54175 14.8752 7.53387 14.9024C7.52599 14.9295 7.52351 14.9579 7.52659 14.986C7.52966 15.0141 7.53823 15.0413 7.5518 15.0661C7.56536 15.0908 7.58366 15.1126 7.60563 15.1303C7.84346 15.3208 8.10944 15.4728 8.39394 15.5808C8.65934 15.6932 8.93171 15.7881 9.20933 15.865C9.54632 15.9588 9.48012 16.3005 9.14013 16.3488ZM13.7376 14.4137C13.2624 15.0868 12.6117 15.6151 11.8571 15.9406C11.7277 15.9981 11.5893 15.9799 11.5562 15.8771C11.5231 15.7743 11.5983 15.6806 11.6826 15.5748C12.7868 14.1355 11.9654 12.8141 10.1782 11.7891C8.86332 11.0332 8.02385 10.5978 7.052 10.0233C4.20565 8.33909 3.65504 6.8726 3.54371 6.00178C3.26389 3.80961 5.06919 2.16472 6.92563 1.76862C6.97979 1.76862 7.13023 1.73234 7.17837 1.85631C7.22651 1.98028 7.11518 2.06796 7.052 2.10727C6.22156 2.56687 5.40617 3.54353 5.49343 4.626C5.54458 5.23074 5.79431 6.10156 7.43111 7.2687C8.415 7.97322 9.61853 8.55075 12.0467 10.0142C14.6252 11.5684 14.3243 13.4552 13.7376 14.4137ZM14.1378 6.1832C13.5511 6.90284 12.9674 6.63675 12.516 5.62079C12.2332 4.98884 11.8631 4.83766 11.6134 5.00094C11.3637 5.16422 11.4389 5.60568 11.7578 6.11668C11.8488 6.26129 11.8886 6.43257 11.8705 6.60272C11.8525 6.77287 11.7778 6.93191 11.6585 7.05402C11.5255 7.17827 11.3629 7.26604 11.1864 7.30894C11.0099 7.35183 10.8254 7.34838 10.6506 7.29894C9.92844 7.13869 9.21836 6.16506 9.74792 4.04545C9.95552 3.18673 9.54632 2.83598 9.28756 2.49128C9.15819 2.328 9.14314 2.22822 9.18827 2.1617C9.2334 2.09518 9.35977 2.08308 9.5734 2.12844C9.85021 2.18891 10.2624 2.33102 10.5994 2.38243C10.8367 2.41464 11.0764 2.42477 11.3155 2.41266C11.938 2.36491 12.5618 2.48715 13.1208 2.76644C14.0445 3.22302 14.1378 4.01522 13.6263 3.95172C13.4152 3.89758 13.2127 3.81412 13.0245 3.70377C12.9793 3.67061 12.9258 3.65078 12.87 3.64651C12.8142 3.64224 12.7583 3.65369 12.7086 3.67959C12.668 3.71321 12.6404 3.76 12.6305 3.81189C12.6207 3.86379 12.6291 3.91752 12.6544 3.96382C12.7688 4.20571 13.1569 4.32968 13.6804 4.47482C14.5981 4.73788 14.6252 5.59358 14.1378 6.1832Z" fill="white"/>
<path d="M22.0618 4.61719V3.04184H28.4194V4.61719H26.4065V7.81322C26.4065 9.89049 27.5438 11.1756 28.946 12.1099L28.1546 13.1984C27.9741 13.4494 27.0865 12.896 26.6292 12.4304C26.1004 11.9218 25.6672 11.3216 25.3504 10.6585C25.0776 11.3766 24.6689 12.0348 24.1469 12.5967C23.5451 13.28 22.6425 13.8818 22.4529 13.6429L21.4961 12.5151C23.1901 11.357 24.204 9.64255 24.204 7.81322V4.61719H22.0618ZM27.4355 6.8789H29.3913V4.03361C29.4249 3.66297 29.3268 3.29234 29.1145 2.98742C28.946 2.76366 29.0453 2.59736 29.2679 2.59736H31.4042V15.2636H29.3913V8.48447H27.4355V6.8789ZM34.5815 2.5127V15.6385H32.5566V2.5127H34.5815Z" fill="#0046FF"/>
<path d="M48.9263 10.2747V11.85H43.4382V15.6297H41.1876V11.85H35.6875V10.2747H48.9263ZM37.2521 4.42993V2.85156H47.3708V4.42993H43.4593V4.49645C43.4593 6.10203 46.068 7.44151 48.3577 8.01299L47.8191 9.32526C47.7078 9.62763 45.8874 9.0229 45.069 8.62679C43.9588 8.06741 42.9177 7.34475 42.3761 6.57674C41.8616 7.35987 40.8898 8.00089 39.8487 8.54213C38.9069 9.05918 36.9061 9.7002 36.7556 9.33736L36.2411 8.05532C38.4496 7.48385 41.1545 6.2139 41.1545 4.49645V4.42993H37.2521Z" fill="#0046FF"/>
<path d="M62.8013 8.83213V10.344H49.5625V8.83213H62.8013ZM51.2384 12.3184C51.2331 12.047 51.1255 11.7877 50.9375 11.5927C50.7721 11.3841 50.8834 11.1876 51.079 11.1876H53.4409V13.4916C53.4409 13.7547 53.5943 13.8938 53.8711 13.8938H61.4624V15.4721H52.9053C51.8372 15.4721 51.2384 14.8311 51.2384 13.8817V12.3184ZM61.2638 5.27325C61.2638 6.91813 59.7233 8.17599 56.1819 8.17599C52.6405 8.17599 51.103 6.91813 51.103 5.27325C51.103 3.62836 52.6435 2.37354 56.1819 2.37354C59.7203 2.37354 61.2638 3.62232 61.2638 5.27325ZM59.1246 5.27325C59.1246 4.42359 58.2941 3.86421 56.1819 3.86421C54.0697 3.86421 53.2393 4.42359 53.2393 5.27325C53.2393 6.1229 54.0727 6.68229 56.1819 6.68229C58.2911 6.68229 59.1366 6.12593 59.1366 5.27325H59.1246Z" fill="#0046FF"/>
<path d="M65.9362 3.53145C65.9362 3.0265 65.9091 2.79065 65.6594 2.49735C65.4788 2.2736 65.6022 2.08008 65.8098 2.08008H68.1026V3.57075H70.5728V5.10679H69.6431C69.9775 5.5527 70.1572 6.09653 70.1546 6.65492C70.1546 8.46913 68.9902 9.65442 66.9201 9.65442C64.85 9.65442 63.6856 8.44494 63.6856 6.65492C63.6857 6.09842 63.8617 5.55634 64.1881 5.10679H63.0898V3.57075H65.9362V3.53145ZM66.9201 8.15769C67.8227 8.15769 68.1988 7.41688 68.1988 6.6791C68.1988 5.94132 67.8227 5.16726 66.9201 5.16726C66.0174 5.16726 65.6443 5.90504 65.6443 6.6791C65.6443 7.45316 66.0204 8.15769 66.9201 8.15769ZM76.0067 12.9593C76.0067 14.7886 74.3158 15.862 70.997 15.862C67.6783 15.862 65.9873 14.7886 65.9873 12.9593C65.9873 11.13 67.6813 10.0596 70.997 10.0596C74.3128 10.0596 76.0067 11.133 76.0067 12.9593ZM73.7742 12.9593C73.7742 12.1369 73.1062 11.5805 70.997 11.5805C68.8878 11.5805 68.2199 12.1369 68.2199 12.9593C68.2199 13.7817 68.8878 14.3411 70.997 14.3411C73.1062 14.3411 73.7652 13.7817 73.7652 12.9593H73.7742ZM76.0067 2.51246V9.76931H74.0239V6.79703H73.0942V9.39135H71.1084V3.89429C71.1359 3.56737 71.0367 3.24241 70.8316 2.98718C70.6631 2.74831 70.7744 2.59713 70.9549 2.59713H73.0942V5.16121H74.0239V2.51246H76.0067Z" fill="#0046FF"/>
</g>
<defs>
<clipPath id="clip0_5811_28551">
<rect width="76" height="18" fill="white"/>
</clipPath>
</defs>
</svg>
