<svg width="40" height="20" viewBox="0 0 40 20" fill="none" xmlns="http://www.w3.org/2000/svg">
<path d="M7.09774 7.09619H0V19.9951H7.09774V7.09619Z" fill="#00C4A6"/>
<mask id="mask0_5811_28448" style="mask-type:luminance" maskUnits="userSpaceOnUse" x="7" y="0" width="21" height="20">
<path d="M7.10156 7.0973C10.5216 7.10103 13.8006 8.46122 16.2189 10.8794C18.6373 13.2976 19.9976 16.5764 20.0013 19.9963H27.0991C27.0991 17.3703 26.5818 14.7701 25.5768 12.344C24.5719 9.91796 23.0989 7.71358 21.2419 5.85676C19.385 3.99994 17.1805 2.52703 14.7543 1.52212C12.3281 0.517218 9.72767 0 7.10156 0V7.0973Z" fill="white"/>
</mask>
<g mask="url(#mask0_5811_28448)">
<path d="M27.0991 0.000976562H7.10156V19.9972H27.0991V0.000976562Z" fill="url(#paint0_linear_5811_28448)"/>
</g>
<path d="M40.0006 1.23727e-06V7.0973C36.5805 7.10103 33.3016 8.46122 30.8832 10.8794C28.4649 13.2976 27.1046 16.5764 27.1009 19.9963H19.9961C19.9961 17.3697 20.5136 14.7689 21.519 12.3424C22.5244 9.91587 23.998 7.7112 25.8557 5.85428C27.7134 3.99737 29.9187 2.5246 32.3458 1.52011C34.7728 0.515615 37.3739 -0.000922688 40.0006 1.23727e-06Z" fill="#00C4A6"/>
<defs>
<linearGradient id="paint0_linear_5811_28448" x1="7.15352" y1="10.3257" x2="27.1287" y2="10.3257" gradientUnits="userSpaceOnUse">
<stop stop-color="#00C4A6"/>
<stop offset="0.11" stop-color="#0FC7A1"/>
<stop offset="0.31" stop-color="#38CE94"/>
<stop offset="0.6" stop-color="#78DB7F"/>
<stop offset="0.95" stop-color="#D1EB63"/>
<stop offset="1" stop-color="#DFEE5E"/>
</linearGradient>
</defs>
</svg>
