<svg width="66" height="19" viewBox="0 0 66 19" fill="none" xmlns="http://www.w3.org/2000/svg">
<path d="M14.096 6.31998C13.3708 6.2731 12.6463 6.4217 11.9981 6.75028C11.3499 7.07885 10.8018 7.57535 10.4108 8.18799C9.81187 7.01541 8.59364 6.31998 6.89318 6.31998C5.59881 6.31998 4.07094 6.99003 3.47197 8.04586V6.67532H0V18.5687H3.63948V11.726C3.62192 11.4594 3.65978 11.1921 3.75069 10.9409C3.84159 10.6896 3.98356 10.46 4.16765 10.2663C4.35174 10.0727 4.57394 9.91931 4.82026 9.81584C5.06658 9.71237 5.33167 9.66106 5.59881 9.66514C6.91856 9.66514 7.51753 10.5535 7.51753 11.6956V18.589H11.0859V11.7007C11.0725 11.4344 11.1144 11.1682 11.2088 10.9188C11.3031 10.6694 11.4481 10.4423 11.6345 10.2516C11.8208 10.0609 12.0446 9.91084 12.2918 9.81079C12.539 9.71074 12.8041 9.66289 13.0707 9.67022C14.365 9.67022 14.964 10.5585 14.964 11.7007V18.594H18.4817V10.8885C18.502 7.6347 16.3497 6.31998 14.096 6.31998Z" fill="#E7310E"/>
<path d="M36.463 8.27921V6.67517H32.9453V18.5685H36.5848V13.3756C36.5848 11.0051 37.8995 10.1472 39.3614 10.1472C39.747 10.1408 40.1321 10.1799 40.5085 10.264V6.67517C40.1956 6.59182 39.873 6.55084 39.5492 6.55333C38.6152 6.55333 37.1076 6.93911 36.463 8.27921Z" fill="#E7310E"/>
<path d="M45.4129 6.66992H41.7734V18.5683H45.4129V6.66992Z" fill="#E7310E"/>
<path d="M51.9999 3.20361H48.7462V4.72645C48.7462 5.82797 48.1473 6.66553 46.8986 6.66553H46.3047V9.87364H48.4061V14.9498C48.4061 17.3152 49.9289 18.7772 52.3806 18.7772C53.0288 18.8071 53.6755 18.6926 54.274 18.4421V15.4574C53.959 15.5289 53.6376 15.568 53.3146 15.5741C52.5228 15.5741 51.9999 15.3152 51.9999 14.3305V9.87364H54.3197V6.67569H51.9999V3.20361Z" fill="#E7310E"/>
<path d="M43.5709 0.00013706C43.1072 0.00514514 42.6553 0.147239 42.2722 0.408513C41.8891 0.669787 41.5918 1.03856 41.4178 1.46843C41.2438 1.8983 41.2009 2.37004 41.2944 2.82426C41.3879 3.27847 41.6137 3.69487 41.9434 4.02102C42.2731 4.34717 42.6919 4.56851 43.147 4.65716C43.6022 4.74581 44.0735 4.6978 44.5014 4.5192C44.9294 4.34059 45.2949 4.03936 45.5521 3.65343C45.8092 3.26751 45.9464 2.81413 45.9465 2.35038C45.9465 2.0396 45.8849 1.7319 45.7652 1.44508C45.6455 1.15827 45.4701 0.898043 45.2492 0.679468C45.0282 0.460893 44.7661 0.288308 44.4781 0.171701C44.19 0.0550936 43.8817 -0.00321916 43.5709 0.00013706Z" fill="#E7310E"/>
<path d="M25.6924 6.24365C22.5707 6.24365 19.6875 8.71572 19.6875 12.5888C19.6875 16.6497 22.6417 18.9999 25.9614 18.9999C28.6872 18.9999 30.4993 17.6091 31.2709 15.8223L28.2608 14.6802C28.0415 15.0766 27.7117 15.4008 27.3117 15.6135C26.9116 15.8261 26.4584 15.9181 26.0071 15.8781C25.3401 15.9145 24.6847 15.6937 24.1757 15.2611C23.6667 14.8286 23.3429 14.2173 23.2711 13.5533H31.6465C31.7014 13.1768 31.7269 12.7966 31.7226 12.4162C31.7226 8.54314 29.4232 6.24365 25.6924 6.24365ZM23.3473 11.1827C23.4125 10.6026 23.6968 10.0693 24.1422 9.69187C24.5875 9.31445 25.1602 9.12142 25.7431 9.15226C27.4842 9.15226 28.1136 10.269 28.1644 11.1827H23.3473Z" fill="#E7310E"/>
<path d="M60.1352 15.3856L65.5716 9.66483V6.66992H55.8257V9.78158V9.85773H60.856L55.6836 15.3602V18.5683H65.663V15.4313V15.3856H60.1352Z" fill="#E7310E"/>
</svg>
