<svg width="70" height="16" viewBox="0 0 70 16" fill="none" xmlns="http://www.w3.org/2000/svg">
<path fill-rule="evenodd" clip-rule="evenodd" d="M54.3346 12.6907H70V13.8378H54.3346V12.6907ZM6.35502 10.3125H9.13655C9.87056 13.3447 13.486 14.7497 14.8123 14.943L14.1206 15.959C12.7648 15.7949 9.67802 14.8174 7.7458 12.719C5.81298 14.8174 2.72552 15.7949 1.37032 15.959L0.678614 14.943C2.00436 14.7497 5.618 13.3447 6.35502 10.3125ZM36.5512 10.2038V10.2262L36.5379 10.2086L36.5512 10.2038ZM37.1434 0.602498H46.2243C46.2374 1.68007 46.1256 2.65697 45.8887 3.53321C45.6518 4.40938 45.3195 5.2013 44.8918 5.90871C44.464 6.61625 43.9574 7.24756 43.3717 7.80264C42.7861 8.35778 42.1576 8.84482 41.4864 9.26393C40.8152 9.68296 40.121 10.0449 39.4038 10.3496C38.6865 10.6544 37.9791 10.9156 37.2816 11.1333L36.5512 10.2843C37.3408 9.95776 38.0449 9.61223 38.6635 9.24757C39.282 8.88294 39.8281 8.50197 40.3019 8.10471C40.7758 7.70737 41.1903 7.29382 41.5457 6.86385C41.901 6.43394 42.2103 5.99583 42.4735 5.54956H37.1237V4.45564H42.967C43.1776 3.95497 43.3223 3.47059 43.4014 3.00257C43.4803 2.53454 43.5264 2.09916 43.5395 1.69642H37.1434V0.602498ZM55.7194 0.598734H68.4428V1.7459H58.1988V7.23066C58.1988 7.54778 58.4535 7.80154 58.7717 7.80154H68.6403V8.94919H56.8624C56.232 8.94919 55.7194 8.43572 55.7194 7.80879V0.598734ZM1.34088 0.270591H14.1279V4.13571H3.81758V5.13827C3.81758 5.45725 4.07694 5.71641 4.3964 5.71641H14.3445V6.85742H9.06928V8.4295H15.6875V9.57728H0V8.4295H6.57903V6.85742H2.49003C1.85592 6.85742 1.34088 6.34149 1.34088 5.7134V2.98375H11.6482V1.41892H1.34088V0.270591ZM30.871 0.0394184H33.2711V16H30.871V0.0394184ZM48.421 0.0205304H50.9204V4.92859H53.5216V6.0824H50.9204V15.9969H48.421V0.0205304ZM27.043 0H29.4443V15.9605H27.0425L27.043 11.0099C26.6193 11.2764 25.9638 11.4179 25.1538 11.4179H19.8269C19.1909 11.4179 18.6765 10.9044 18.6765 10.2726V0.596955H25.5469V1.74529H21.16V9.69208C21.16 10.011 21.4194 10.269 21.74 10.269H25.1538C25.9307 10.269 26.4562 10.1433 27.043 9.9134V6.53194H24.039V5.11103H27.043V0Z" fill="#2C2A26"/>
</svg>
