<svg width="57" height="24" viewBox="0 0 57 24" fill="none" xmlns="http://www.w3.org/2000/svg">
<path d="M4.2384 14.0688C1.70522 14.0688 0 16.0558 0 19.0343C0 22.0128 1.70571 23.9998 4.2384 23.9998C6.25903 23.9998 7.90313 22.6401 8.27572 20.5381H6.35612C6.07668 21.622 5.3596 22.3965 4.29458 22.3965C2.76974 22.3965 1.83483 21.0052 1.83483 18.9725C1.83483 16.9398 2.77122 15.5485 4.29458 15.5485C5.3596 15.5485 6.07668 16.3246 6.35612 17.407H8.25009C7.8366 15.3778 6.22157 14.0688 4.2384 14.0688Z" fill="#1666FF"/>
<path d="M24.7211 2.48291C23.4335 2.48291 22.648 3.13074 22.3097 3.50955C21.8449 2.77847 21.076 2.48291 20.1732 2.48291C19.2331 2.48291 18.5901 2.87837 18.2185 3.20463V2.65879H16.5508V9.93112H18.2185V5.77461C18.2185 4.74901 18.6812 3.84257 19.718 3.7973C20.725 3.75359 21.0977 4.54868 21.0977 5.3063V9.92904H22.7649V5.77253C22.7649 4.74693 23.2281 3.84049 24.2649 3.79522C25.2548 3.75203 25.632 4.5237 25.643 5.26988V9.928H27.3092V5.12054C27.3102 3.28892 26.0947 2.48291 24.7211 2.48291Z" fill="#1666FF"/>
<path d="M39.5863 6.28272C39.5863 7.1199 39.3854 8.63504 37.9886 8.63504C36.7923 8.63504 36.5499 7.66934 36.5499 7.01324V2.48291H34.7578V7.28536C34.7578 8.99353 35.8427 9.93112 37.4414 9.93112C38.3673 9.93112 39.1037 9.59917 39.5863 9.09291V9.75578H41.3784V2.48291H39.5863V6.28272Z" fill="#1666FF"/>
<path d="M46.0668 2.48291C45.0338 2.48291 44.3805 2.87889 43.9835 3.2473V2.65827H42.207V9.9306H43.9835V5.77409C43.9835 4.74849 44.5108 3.84101 45.6152 3.79678C46.6687 3.75463 47.0372 4.54868 47.0495 5.29641V9.93112H48.8276V5.07371C48.8276 3.39039 47.5328 2.48291 46.0668 2.48291Z" fill="#1666FF"/>
<path d="M31.729 5.58866C30.4506 5.25182 29.9719 5.00966 29.9719 4.5368C29.9719 4.00464 30.5458 3.70568 31.1367 3.74305C31.8436 3.78739 32.2304 4.16309 32.3237 4.68678H33.8151C33.7067 3.44109 32.6726 2.48291 31.0571 2.48291C29.5647 2.48291 28.3043 3.31702 28.3271 4.63346C28.3432 5.55826 28.9535 6.13626 29.8474 6.48904C30.8242 6.87421 32.1414 7.01621 32.2564 7.67493C32.3715 8.33365 31.7219 8.70088 30.9861 8.61717C30.3493 8.54442 29.9875 8.21855 29.819 7.656H28.1367C28.4165 9.12342 29.5297 9.93112 31.1106 9.93112C32.7763 9.93112 33.9576 8.93457 33.9292 7.63906C33.8975 6.20801 32.4046 5.76754 31.729 5.58866Z" fill="#1666FF"/>
<path d="M54.6214 3.26683V3.28314C54.1504 2.78975 53.5174 2.48291 52.7135 2.48291C50.7414 2.48291 49.6523 3.89681 49.6523 6.06048C49.6523 8.22414 50.7414 9.63856 52.7135 9.63856C53.5278 9.63856 54.1668 9.32305 54.6393 8.81896V9.13956C54.6393 10.108 54.2815 10.9653 53.1517 11.0311C51.9294 11.1019 51.5732 10.2772 51.526 10.0988H49.9008C50.1129 11.2161 51.0485 12.4139 53.0399 12.4139C55.1605 12.4139 56.2729 10.9052 56.2729 8.89695V2.7296H54.6214V3.26683ZM52.9256 8.30519C51.8614 8.28582 51.3054 7.36021 51.3054 6.06252C51.3054 4.74903 51.8728 3.81577 52.9594 3.81577C54.046 3.81577 54.599 4.75973 54.599 6.05283C54.597 7.33115 53.9924 8.28582 52.9256 8.30519Z" fill="#1666FF"/>
<path d="M13.3099 3.25335V3.26929C12.8574 2.78441 12.201 2.48291 11.4277 2.48291C9.53168 2.48291 8.27734 4.00833 8.27734 6.20702C8.27734 8.4057 9.53168 9.93112 11.4277 9.93112C12.201 9.93112 12.8574 9.62913 13.3099 9.14474V9.16069V9.68893H14.8979V2.7251H13.3099V3.25335ZM11.5988 8.62298C10.5531 8.62298 9.86487 7.65619 9.86487 6.20702C9.86487 4.75784 10.5541 3.79056 11.5988 3.79056C12.6435 3.79056 13.2847 4.87246 13.2847 6.20702C13.2847 7.54158 12.645 8.62298 11.6002 8.62298H11.5988Z" fill="#1666FF"/>
<path d="M27.1732 17.0533V17.0699C26.6641 16.5655 25.9256 16.2518 25.0556 16.2518C22.923 16.2518 21.5117 17.8386 21.5117 20.1258C21.5117 22.413 22.923 23.9998 25.0556 23.9998C25.9256 23.9998 26.6641 23.6856 27.1732 23.1818V23.1984V23.7479H28.9599V14.0688H27.1732V17.0533ZM25.2481 22.639C24.0716 22.639 23.2978 21.6333 23.2978 20.1258C23.2978 18.6183 24.0727 17.6121 25.2481 17.6121C26.4235 17.6121 27.1449 18.7375 27.1449 20.1258C27.1449 21.5141 26.4256 22.639 25.2497 22.639H25.2481Z" fill="#1666FF"/>
<path d="M14.1341 17.3222V17.3381C13.6816 16.8533 13.0252 16.5518 12.2519 16.5518C10.3559 16.5518 9.10156 18.0772 9.10156 20.2759C9.10156 22.4745 10.3559 24 12.2519 24C13.0252 24 13.6816 23.698 14.1341 23.2136V23.2295V23.7578H15.7221V16.794H14.1341V17.3222ZM12.423 22.6918C11.3773 22.6918 10.6891 21.725 10.6891 20.2759C10.6891 18.8267 11.3783 17.8594 12.423 17.8594C13.4677 17.8594 14.1089 18.9413 14.1089 20.2759C14.1089 21.6104 13.4692 22.6918 12.4244 22.6918H12.423Z" fill="#1666FF"/>
<path d="M4.28002 4.17333C2.61505 3.67802 2.30286 3.23163 2.23835 2.68588C2.17019 2.11541 2.60256 1.35631 3.71965 1.35631C4.83674 1.35631 5.21865 2.16081 5.30502 2.61325H7.20621C6.96791 0.830732 5.49284 0 3.72641 0C1.95998 0 0.25495 0.93867 0.25495 2.7338C0.25495 4.44873 1.74666 5.05399 3.37677 5.57705C4.92103 6.07438 5.49857 6.38407 5.49857 7.15831C5.49857 7.8695 4.86172 8.47276 3.8643 8.47276C2.86687 8.47276 2.18007 8.08387 1.91992 7.22187H0C0.156091 8.21854 1.11553 9.93095 3.69832 9.93095C6.23584 9.93095 7.44815 8.51865 7.44815 7.00548C7.44971 5.28652 5.88047 4.65149 4.28002 4.17333Z" fill="#1666FF"/>
<path d="M20.026 16.826C19.6196 17.0084 19.3137 17.2543 19.1083 17.5636V16.6482H17.3828V24H19.1083C19.1083 24 19.1166 21.3713 19.1114 20.9488C19.1047 20.3951 19.0687 19.8316 19.3139 19.3173C19.7148 18.4758 20.6298 18.015 21.5207 18.0401V16.5649C21.4334 16.556 21.3457 16.5516 21.2579 16.5518C20.8326 16.551 20.4122 16.6446 20.026 16.826Z" fill="#1666FF"/>
</svg>
