<svg width="60" height="15" viewBox="0 0 60 15" fill="none" xmlns="http://www.w3.org/2000/svg">
<path d="M12.2049 0H8.5917L2.88507 6.64221V0H0V14.4909H2.88507V7.8318L8.78009 14.4909H12.3933L5.97969 7.24547L12.2049 0Z" fill="#140064"/>
<path d="M59.9986 14.4909L55.6657 9.4786L59.8695 4.46624H56.7579L53.0939 8.80337V0H50.2109V14.4909H53.0939V10.1432L56.8278 14.4909H59.9986Z" fill="#140064"/>
<path d="M19.3042 4.11699C18.0914 4.11699 17.0563 4.63981 16.2054 5.35738V0H13.3203V9.54422C13.3203 12.4187 15.2253 14.8233 18.7983 14.8233C22.0136 14.8233 24.2764 12.6029 24.2764 9.4913C24.2764 6.54485 22.329 4.11699 19.3042 4.11699ZM18.7983 12.2155C18.0848 12.2131 17.4001 11.9336 16.8887 11.436C16.3773 10.9384 16.0792 10.2616 16.0572 9.54845C16.0572 9.52305 16.0572 9.49765 16.0572 9.47225C16.0572 8.92801 16.2186 8.39599 16.521 7.94348C16.8233 7.49096 17.2531 7.13827 17.7559 6.92999C18.2587 6.72172 18.812 6.66723 19.3458 6.77341C19.8795 6.87958 20.3698 7.14166 20.7547 7.52649C21.1395 7.91132 21.4016 8.40163 21.5078 8.93541C21.6139 9.46919 21.5594 10.0225 21.3512 10.5253C21.1429 11.0281 20.7902 11.4579 20.3377 11.7602C19.8852 12.0626 19.3532 12.224 18.8089 12.224L18.7983 12.2155Z" fill="#140064"/>
<path d="M44.6674 4.11705C43.4372 4.10217 42.2474 4.55627 41.34 5.38708V4.43244H38.457V14.4889H41.34V8.85212C41.34 8.28793 41.5641 7.74684 41.963 7.3479C42.362 6.94896 42.9031 6.72483 43.4673 6.72483C44.0315 6.72483 44.5725 6.94896 44.9715 7.3479C45.3704 7.74684 45.5946 8.28793 45.5946 8.85212V14.4889H48.4966V8.04777C48.4966 8.00756 48.4966 7.96945 48.4966 7.93135C48.4888 6.91958 48.0824 5.95169 47.3655 5.23763C46.6487 4.52356 45.6792 4.12092 44.6674 4.11705Z" fill="#140064"/>
<path d="M31.1779 4.11719C27.9267 4.11719 25.6406 6.33761 25.6406 9.45128C25.6406 12.3956 27.6092 14.8277 30.6678 14.8277C31.3339 14.816 31.9889 14.6547 32.5843 14.3557C33.1796 14.0567 33.7002 13.6277 34.1074 13.1005V14.489H36.7173V9.45763H36.694L36.7173 9.40048C36.7173 6.52811 34.7954 4.11719 31.1779 4.11719ZM31.2393 12.1924C30.6951 12.1924 30.1631 12.031 29.7105 11.7287C29.258 11.4263 28.9053 10.9965 28.6971 10.4937C28.4888 9.99092 28.4343 9.43764 28.5405 8.90386C28.6466 8.37008 28.9087 7.87977 29.2935 7.49494C29.6784 7.11011 30.1687 6.84803 30.7025 6.74186C31.2363 6.63568 31.7895 6.69017 32.2923 6.89844C32.7952 7.10672 33.2249 7.45941 33.5273 7.91192C33.8296 8.36444 33.991 8.89646 33.991 9.44069C33.9916 9.80206 33.9209 10.16 33.7832 10.4941C33.6454 10.8281 33.4432 11.1318 33.1881 11.3877C32.9329 11.6436 32.6299 11.8468 32.2963 11.9856C31.9626 12.1244 31.6049 12.1961 31.2435 12.1966L31.2393 12.1924Z" fill="#140064"/>
</svg>
