<svg width="85" height="23" viewBox="0 0 85 23" fill="none" xmlns="http://www.w3.org/2000/svg">
<g clip-path="url(#clip0_5811_28864)">
<mask id="mask0_5811_28864" style="mask-type:luminance" maskUnits="userSpaceOnUse" x="0" y="7" width="8" height="14">
<path d="M0.145142 8.13532C-0.0957568 9.2289 0.0166951 18.6255 0.102921 19.7129C0.163368 20.5115 0.503825 20.9779 1.45098 20.9594C8.05703 20.8544 9.78999 12.936 5.70938 9.20824C5.05602 8.61309 4.26043 8.12344 3.30172 7.79026C2.82081 7.6228 2.02655 7.3784 1.34875 7.3784C0.768724 7.3784 0.27137 7.5604 0.145142 8.13532Z" fill="white"/>
</mask>
<g mask="url(#mask0_5811_28864)">
<path d="M0.145142 8.13532C-0.0957568 9.2289 0.0166951 18.6255 0.102921 19.7129C0.163368 20.5115 0.503825 20.9779 1.45098 20.9594C8.05703 20.8544 9.78999 12.936 5.70938 9.20824C5.05602 8.61309 4.26043 8.12344 3.30172 7.79026C2.82081 7.6228 2.02655 7.3784 1.34875 7.3784C0.768724 7.3784 0.27137 7.5604 0.145142 8.13532Z" fill="url(#paint0_linear_5811_28864)"/>
</g>
<mask id="mask1_5811_28864" style="mask-type:luminance" maskUnits="userSpaceOnUse" x="8" y="0" width="8" height="13">
<path d="M8.22062 0.690226C8.00238 1.68008 8.10639 10.2116 8.18239 11.201C8.23973 11.9241 8.54552 12.3469 9.40555 12.3342C15.4058 12.2362 16.9814 5.04569 13.2768 1.6634C12.6839 1.12276 11.955 0.677061 11.0923 0.376853C10.6527 0.222572 9.93269 0.000595093 9.31755 0.000595093C8.78553 0.000595093 8.33707 0.170685 8.22062 0.690226Z" fill="white"/>
</mask>
<g mask="url(#mask1_5811_28864)">
<path d="M8.22062 0.690226C8.00238 1.68008 8.10639 10.2116 8.18239 11.201C8.23973 11.9241 8.54552 12.3469 9.40555 12.3342C15.4058 12.2362 16.9814 5.04569 13.2768 1.6634C12.6839 1.12276 11.955 0.677061 11.0923 0.376853C10.6527 0.222572 9.93269 0.000595093 9.31755 0.000595093C8.78553 0.000595093 8.33707 0.170685 8.22062 0.690226Z" fill="url(#paint1_linear_5811_28864)"/>
</g>
<mask id="mask2_5811_28864" style="mask-type:luminance" maskUnits="userSpaceOnUse" x="9" y="7" width="10" height="17">
<path d="M9.57259 8.3695C9.29391 9.61605 9.42813 20.3343 9.52592 21.5769C9.59792 22.4912 9.9806 23.0173 11.0611 23.0006C18.6005 22.8819 20.5824 13.8458 15.9275 9.59362C15.1826 8.91453 14.2643 8.35412 13.1816 7.97699C12.6278 7.78271 11.7216 7.50536 10.9526 7.50536C10.2859 7.50536 9.71704 7.71414 9.57259 8.3695Z" fill="white"/>
</mask>
<g mask="url(#mask2_5811_28864)">
<path d="M9.57259 8.3695C9.29391 9.61605 9.42813 20.3343 9.52592 21.5769C9.59792 22.4912 9.9806 23.0173 11.0611 23.0006C18.6005 22.8819 20.5824 13.8458 15.9275 9.59362C15.1826 8.91453 14.2643 8.35412 13.1816 7.97699C12.6278 7.78271 11.7216 7.50536 10.9526 7.50536C10.2859 7.50536 9.71704 7.71414 9.57259 8.3695Z" fill="url(#paint2_linear_5811_28864)"/>
</g>
<path d="M28.6494 12.7649C28.6494 14.9403 27.1884 16.3459 24.9932 16.3459H23.0629V9.16992H24.9923C27.2547 9.16992 28.6494 10.5224 28.6494 12.7649ZM25.043 7.58405H21.2148V17.9331H25.0443C28.2036 17.9331 30.4966 15.7648 30.4966 12.7777C30.4966 9.66968 28.3049 7.58317 25.043 7.58405Z" fill="#00854A"/>
<path d="M34.7853 11.8309C34.4466 11.9122 34.2421 12.117 34.1883 12.4304C34.147 12.6695 34.2017 12.9223 34.3346 13.106C34.4421 13.2515 34.587 13.3442 34.7595 13.3719C34.9981 13.411 35.2626 13.4229 35.5422 13.4348C36.3644 13.4712 37.2369 13.5082 37.6263 14.2308C37.8569 14.6598 37.8223 15.2176 37.5391 15.6202C37.2485 16.0369 36.6764 16.2887 35.8386 16.3375C35.732 16.3437 35.6213 16.3463 35.5017 16.3463H33.1714L33.1705 9.16987H35.2817C36.6738 9.16987 37.2342 9.5659 37.2342 10.4046C37.2351 10.8665 37.0578 11.2911 36.7058 11.5421C36.3884 11.7689 35.9293 11.7737 35.4853 11.779C35.2871 11.7812 35.0044 11.7856 34.7853 11.8309ZM37.952 12.5768C38.6334 12.1183 39.0828 11.2019 39.0828 10.2393C39.0828 8.57605 37.7343 7.58268 35.4737 7.584H31.3242V17.9326H35.5484C38.1005 17.9326 39.6263 16.8272 39.6255 14.9762C39.6255 13.8699 39.077 13.0836 37.952 12.5768Z" fill="#00854A"/>
<path d="M50.7623 11.5718H41.7859C41.6197 11.5718 41.4792 11.6285 41.3641 11.7419C41.3074 11.7979 41.2628 11.8647 41.2332 11.9383C41.2035 12.012 41.1894 12.0908 41.1916 12.17C41.1916 12.3339 41.2494 12.4733 41.3641 12.5862C41.4792 12.6996 41.6197 12.7563 41.7859 12.7563H50.7623C50.9289 12.7563 51.0685 12.6996 51.1832 12.5862C51.2983 12.4733 51.3556 12.3339 51.3556 12.17C51.3556 11.9981 51.2983 11.8557 51.1832 11.7419C51.1285 11.6865 51.063 11.6429 50.9906 11.6136C50.9182 11.5844 50.8405 11.5701 50.7623 11.5718Z" fill="#00854A"/>
<path d="M42.9131 8.93313H48.4036V10.5278C48.4036 10.7238 48.4734 10.8878 48.6111 11.0205C48.6773 11.0855 48.756 11.1367 48.8426 11.171C48.9292 11.2053 49.0219 11.222 49.1152 11.2201C49.3045 11.2201 49.4663 11.1537 49.6014 11.0205C49.7361 10.8878 49.8027 10.7238 49.8027 10.5278V7.80701H42.9131C42.7625 7.80701 42.6296 7.86372 42.5158 7.97712C42.4615 8.02751 42.4182 8.08839 42.3886 8.15597C42.359 8.22356 42.3438 8.29642 42.3438 8.37007C42.3438 8.44372 42.359 8.51658 42.3886 8.58417C42.4182 8.65175 42.4615 8.71263 42.5158 8.76302C42.5666 8.81685 42.6282 8.85973 42.6965 8.889C42.7649 8.91826 42.8386 8.93329 42.9131 8.93313Z" fill="#00854A"/>
<path d="M44.0405 14.797H48.523V16.2395C48.523 16.4738 48.4043 16.5912 48.1674 16.5912H44.3966C44.1592 16.5912 44.0405 16.4738 44.0405 16.2395V14.797ZM42.332 13.8001C42.332 14.0581 42.4431 14.2299 42.6649 14.3161V16.5094C42.6649 17.3142 43.1067 17.7173 43.9925 17.7173H48.5585C49.4519 17.7173 49.8986 17.3142 49.8986 16.5094V13.6827H42.332V13.8001Z" fill="#00854A"/>
<path d="M58.993 14.3032C58.993 14.3063 58.9952 14.309 58.9952 14.312C58.853 14.2474 58.7063 14.1872 58.5485 14.1393C58.1773 14.0283 57.7914 13.973 57.4036 13.9754C57.0159 13.9731 56.6301 14.0283 56.2591 14.1393C56.0933 14.1904 55.9314 14.2531 55.7746 14.327C55.7751 14.3186 55.7795 14.312 55.7795 14.3032V13.3771H58.993V14.3032ZM58.5423 16.9484C58.2498 17.1708 57.8707 17.2825 57.4036 17.2825C56.9373 17.2825 56.5586 17.1708 56.2649 16.9484C55.9733 16.7256 55.8266 16.4654 55.8266 16.1682C55.8266 15.8628 55.9733 15.5995 56.2649 15.3766C56.5586 15.1538 56.9373 15.043 57.4036 15.043C57.8707 15.043 58.2498 15.1538 58.5423 15.3766C58.8356 15.5995 58.981 15.8628 58.981 16.1682C58.981 16.4654 58.8356 16.7256 58.5423 16.9484ZM61.8984 12.2629H52.8616C52.7043 12.2629 52.5709 12.3161 52.4647 12.4216C52.3576 12.5271 52.3047 12.662 52.3047 12.8259C52.3047 12.9749 52.3576 13.1037 52.4647 13.2132C52.5155 13.2665 52.5772 13.3086 52.6455 13.3369C52.7139 13.3651 52.7875 13.3788 52.8616 13.3771H54.3923V14.3032C54.3923 14.4914 54.459 14.6514 54.5941 14.7841C54.6888 14.8791 54.8035 14.9278 54.927 14.9551C54.8313 15.0652 54.7473 15.1848 54.6763 15.312C54.5281 15.5777 54.4505 15.8762 54.4506 16.1797C54.4506 16.4768 54.5261 16.7625 54.6763 17.0359C54.8324 17.3158 55.0466 17.5598 55.3048 17.7519C55.596 17.9538 55.9182 18.1081 56.2591 18.2086C56.6301 18.3197 57.0159 18.3751 57.4036 18.373C57.8071 18.373 58.1889 18.318 58.5485 18.2086C58.9085 18.0992 59.2268 17.9471 59.5032 17.7519C59.7614 17.5599 59.9755 17.3158 60.1312 17.0359C60.2815 16.7625 60.3561 16.4768 60.3561 16.1797C60.3561 15.8755 60.2815 15.5858 60.1312 15.312C60.0591 15.1827 59.9737 15.0611 59.8766 14.9489C59.9877 14.9191 60.0912 14.8711 60.1792 14.7841C60.3135 14.6514 60.3801 14.4914 60.3801 14.3032V13.3771H61.8984C62.0562 13.3771 62.1909 13.3226 62.302 13.2132C62.4118 13.1037 62.4678 12.9749 62.4678 12.8259C62.4678 12.662 62.4118 12.5271 62.302 12.4216C62.1909 12.3161 62.0562 12.2629 61.8984 12.2629Z" fill="#00854A"/>
<path d="M55.7149 9.04342C55.806 8.88299 55.9336 8.74014 56.1003 8.6153C56.2785 8.49213 56.4772 8.40092 56.6874 8.34586C56.9209 8.2822 57.1621 8.25055 57.4043 8.2518C57.6577 8.2518 57.8968 8.28345 58.1226 8.34586C58.3322 8.40127 58.5304 8.49246 58.7084 8.6153C58.875 8.74014 59.0035 8.88299 59.0946 9.04342C59.1853 9.20385 59.2315 9.37 59.2315 9.54186C59.2315 9.72164 59.1853 9.8913 59.0946 10.0522C58.9989 10.2176 58.867 10.3597 58.7084 10.468C58.533 10.5979 58.3342 10.6935 58.1226 10.7497C57.8886 10.8134 57.6469 10.845 57.4043 10.8438C57.1514 10.8438 56.9127 10.8121 56.6874 10.7497C56.4752 10.6939 56.2759 10.5982 56.1003 10.468C55.9419 10.3597 55.8102 10.2176 55.7149 10.0522C55.6253 9.89668 55.5782 9.72082 55.578 9.54186C55.578 9.37 55.6242 9.20385 55.7149 9.04342ZM55.1162 11.2306C55.4091 11.4416 55.7518 11.6077 56.1478 11.729C56.555 11.852 56.9786 11.9132 57.4043 11.9106C57.8483 11.9106 58.2661 11.8503 58.6621 11.729C59.0568 11.6077 59.4013 11.4416 59.6928 11.2306C59.9674 11.0246 60.1939 10.7626 60.3569 10.4623C60.516 10.1691 60.5942 9.86273 60.5942 9.54186C60.5948 9.22199 60.5132 8.90723 60.3569 8.62717C60.1922 8.32961 59.966 8.06974 59.6928 7.86456C59.4013 7.64611 59.0568 7.47777 58.6621 7.36041C58.2661 7.24305 57.8483 7.18459 57.4043 7.18459C56.979 7.18207 56.5557 7.24131 56.1478 7.36041C55.7518 7.47777 55.4091 7.64611 55.1162 7.86456C54.8435 8.07045 54.6171 8.33015 54.4513 8.62717C54.2963 8.90769 54.215 9.2222 54.2148 9.54186C54.2148 9.86273 54.2944 10.1691 54.4513 10.4623C54.6155 10.762 54.8421 11.0239 55.1162 11.2306Z" fill="#00854A"/>
<path d="M64.8869 8.48675V11.8528C64.8869 12.6506 65.3295 13.0483 66.2154 13.0483H71.7414C71.8996 13.0483 72.0361 12.9943 72.1498 12.8848C72.2645 12.7754 72.3223 12.6422 72.3223 12.4857C72.3223 12.3372 72.2645 12.2066 72.1498 12.0932C72.0972 12.0387 72.0338 11.9954 71.9635 11.9661C71.8932 11.9369 71.8176 11.9222 71.7414 11.9231H66.6296C66.3927 11.9231 66.2745 11.8018 66.2745 11.5592V10.9965H71.6467C71.8045 10.9965 71.9365 10.9438 72.0441 10.8383C72.1498 10.7324 72.2036 10.6018 72.2036 10.4449C72.2036 10.2968 72.1498 10.1658 72.0441 10.0528C71.9941 9.99792 71.9327 9.95426 71.8641 9.92484C71.7956 9.89541 71.7214 9.88091 71.6467 9.88231H66.2745V8.97948H71.6711C71.8289 8.97948 71.9627 8.92498 72.0734 8.81553C72.1845 8.70609 72.2392 8.57291 72.2392 8.41643C72.2392 8.26786 72.1845 8.13732 72.0734 8.02348C72.0221 7.96891 71.9598 7.92561 71.8905 7.89639C71.8212 7.86716 71.7465 7.85265 71.6711 7.85381H64.5664V7.97073C64.5664 8.22874 64.6735 8.4006 64.8869 8.48675Z" fill="#00854A"/>
<path d="M73.0113 13.9516H63.9869C63.8215 13.9516 63.6846 14.0044 63.5775 14.1103C63.4713 14.2158 63.418 14.3503 63.418 14.5147C63.418 14.6786 63.4713 14.8136 63.5775 14.9191C63.6846 15.0241 63.8215 15.0773 63.9869 15.0773H67.8173V17.1651C67.8173 17.3453 67.8844 17.5031 68.019 17.6398C68.0812 17.7055 68.1564 17.7577 68.2401 17.793C68.3237 17.8282 68.4139 17.8458 68.5048 17.8447C68.6951 17.8447 68.8564 17.7765 68.9915 17.6398C69.1253 17.5031 69.1933 17.3453 69.1933 17.1651V15.0773H73.0113C73.1775 15.0773 73.3135 15.0241 73.4206 14.9191C73.5268 14.8136 73.5802 14.6786 73.5802 14.5147C73.5802 14.3503 73.5268 14.2158 73.4206 14.1103C73.3135 14.0044 73.1775 13.9516 73.0113 13.9516Z" fill="#00854A"/>
<path d="M80.8358 13.7053C80.2544 13.2012 79.7403 12.6259 79.3059 11.9933C78.8161 11.2663 78.5752 10.414 78.5832 9.43647V9.24879H80.3971C80.5553 9.24879 80.6922 9.19253 80.8073 9.07912C80.9207 8.96572 80.978 8.83078 80.978 8.6743C80.978 8.51035 80.9207 8.3697 80.8073 8.2519C80.6922 8.13498 80.5553 8.07608 80.3971 8.07608H75.2982C75.2205 8.07582 75.1437 8.09128 75.0723 8.12151C75.0009 8.15175 74.9365 8.19613 74.8831 8.2519C74.8258 8.30654 74.7805 8.37222 74.7499 8.44487C74.7193 8.51753 74.7041 8.59561 74.7053 8.6743C74.7053 8.83078 74.764 8.96572 74.8831 9.07912C75.0013 9.19253 75.1395 9.24879 75.2982 9.24879H77.1836V9.37757C77.1836 10.4101 76.9383 11.2975 76.4489 12.0399C76.0054 12.697 75.4516 13.2829 74.788 13.7989C74.7205 13.8497 74.6642 13.9135 74.6226 13.9866C74.5842 14.0514 74.56 14.1234 74.5515 14.198C74.538 14.2737 74.5405 14.3513 74.5589 14.426C74.5772 14.5007 74.6111 14.5708 74.6582 14.6319C74.7604 14.773 74.9186 14.8512 75.1315 14.8666C75.2818 14.8745 75.428 14.8389 75.5707 14.7611C76.2747 14.2996 76.9623 13.584 77.6334 12.6148C77.7374 12.4662 77.8321 12.3137 77.9192 12.1577C77.9586 12.2439 78.0059 12.3263 78.0606 12.4038C78.741 13.3888 79.4175 14.1317 80.0886 14.6319C80.135 14.6781 80.192 14.7123 80.2549 14.7317C80.318 14.7514 80.4007 14.7611 80.5038 14.7611C80.6856 14.7611 80.8442 14.6868 80.978 14.5378C81.0887 14.413 81.1282 14.2605 81.0967 14.0807C81.0867 14.0132 81.0606 13.949 81.0207 13.8934C80.9762 13.831 80.9149 13.7677 80.8358 13.7053Z" fill="#00854A"/>
<path d="M84.8183 10.9373C84.6952 10.8204 84.5471 10.7615 84.3725 10.7615H83.2V7.60731H81.5039V7.73566C81.5039 7.98664 81.6061 8.15806 81.8119 8.25168V17.1648C81.8119 17.345 81.8813 17.5028 82.0195 17.6399C82.1573 17.7762 82.3213 17.8447 82.5124 17.8447C82.6928 17.8447 82.8533 17.7762 82.9915 17.6399C83.1298 17.5028 83.2 17.345 83.2 17.1648V11.9812H84.3725C84.5471 11.9812 84.6952 11.9206 84.8183 11.7997C84.9409 11.6784 85.0018 11.5355 85.0018 11.3716C85.0018 11.1993 84.9409 11.0551 84.8183 10.9373Z" fill="#00854A"/>
</g>
<defs>
<linearGradient id="paint0_linear_5811_28864" x1="7.94811" y1="14.3402" x2="-0.230909" y2="14.2613" gradientUnits="userSpaceOnUse">
<stop stop-color="#F47920"/>
<stop offset="0.0996612" stop-color="#F47920"/>
<stop offset="0.440321" stop-color="#F47920"/>
<stop offset="0.999661" stop-color="#C9242B"/>
<stop offset="1" stop-color="#C9242B"/>
</linearGradient>
<linearGradient id="paint1_linear_5811_28864" x1="7.99687" y1="6.77489" x2="15.3026" y2="6.84517" gradientUnits="userSpaceOnUse">
<stop stop-color="#15B1E7"/>
<stop offset="0.0555792" stop-color="#15B1E7"/>
<stop offset="1" stop-color="#0060AF"/>
</linearGradient>
<linearGradient id="paint2_linear_5811_28864" x1="8.59791" y1="15.3734" x2="19.4103" y2="15.4776" gradientUnits="userSpaceOnUse">
<stop stop-color="#8CC63F"/>
<stop offset="0.378511" stop-color="#8CC63F"/>
<stop offset="1" stop-color="#009559"/>
</linearGradient>
<clipPath id="clip0_5811_28864">
<rect width="85" height="23" fill="white"/>
</clipPath>
</defs>
</svg>
