<svg width="41" height="24" viewBox="0 0 41 24" fill="none" xmlns="http://www.w3.org/2000/svg">
<g clip-path="url(#clip0_5811_28694)">
<path d="M8.96394 19.0263C8.66719 20.6649 9.50117 21.1922 10.9497 21.1922C11.9764 21.1922 13.1282 20.8006 13.3603 19.7671C13.6415 18.54 11.8203 18.3053 10.0595 17.737C8.29872 17.1687 6.56044 16.2752 7.13706 13.7191C7.82337 10.6767 10.968 9.48486 13.4235 9.48486C16.0267 9.48486 18.3459 10.8322 17.6539 13.975H14.2463C14.5866 12.7026 13.56 12.2954 12.5164 12.2954C11.7823 12.2954 10.8049 12.5669 10.5995 13.4858C10.3562 14.5589 12.2 14.7582 13.9748 15.3237C15.7497 15.8892 17.4289 16.8237 16.8635 19.3402C16.0661 22.8746 12.989 24.0056 10.1129 24.0056C7.10612 24.0056 4.76872 22.6017 5.55067 19.032L8.96394 19.0263Z" fill="#005EA1"/>
<path d="M32.5495 9.77783H35.9571L32.8167 23.7076H29.4062L32.5495 9.77783Z" fill="#005EA1"/>
<path d="M20.1248 9.77896H26.2439C28.5068 9.74079 30.84 10.3628 30.1818 13.271C29.9005 14.5193 28.9751 15.533 27.8261 16.0801C29.1228 16.5042 29.6938 17.7978 29.338 19.377C28.5926 22.6951 26.0738 23.713 23.2695 23.713H16.9844L20.1248 9.77896ZM22.2962 15.2615H24.9346C25.5211 15.2615 26.4015 14.9279 26.6223 13.934C26.8431 12.9401 26.2496 12.5867 25.5351 12.5867H22.8982L22.2962 15.2615ZM21.046 20.8006H23.7786C24.8587 20.8006 25.7011 20.3892 25.9627 19.2455C26.2439 18.0155 25.5253 17.6055 24.4986 17.6055H21.7675L21.046 20.8006Z" fill="#005EA1"/>
<path d="M40.7159 4.18336C38.8314 -0.8468 28.0501 -1.42078 16.6388 2.89967C8.50012 5.98167 2.24035 10.722 0 15.0142C3.09402 11.7625 8.0979 8.56743 14.1326 6.27997C25.5454 1.9581 36.3252 2.5335 38.2098 7.56508C38.7526 9.00711 38.5009 10.6598 37.5994 12.3874C40.3587 9.49204 41.6033 6.55283 40.7159 4.18761" fill="#EC303C"/>
</g>
<defs>
<clipPath id="clip0_5811_28694">
<rect width="41" height="24" fill="white"/>
</clipPath>
</defs>
</svg>
