<svg width="90" height="13" viewBox="0 0 90 13" fill="none" xmlns="http://www.w3.org/2000/svg">
<g clip-path="url(#clip0_5811_28639)">
<path d="M8.18359 0L5.61118 1.28668L3.04297 0L5.61118 4.87181L8.18359 0Z" fill="#FABE00"/>
<path d="M9.08276 3.76866L9.04513 3.74776L10.8785 2.98161V0.391637L7.69218 1.74488L5.9258 5.0761C7.33577 5.24145 8.372 6.47433 8.28886 7.88747C8.20585 9.30078 7.03223 10.4044 5.61252 10.4044C4.19281 10.4044 3.01918 9.30078 2.93618 7.88747C2.85304 6.47433 3.88927 5.24142 5.29928 5.0761L3.53701 1.74488L0.338265 0.391602V2.96496L2.18822 3.74773L2.14644 3.7852C0.487317 5.22718 -0.100472 7.54433 0.671652 9.5995C1.44374 11.6546 3.41376 13.0164 5.61462 13.0164C7.81558 13.0164 9.78546 11.6546 10.5576 9.59953C11.3297 7.54433 10.7419 5.22718 9.08276 3.78524V3.76866Z" fill="#FABE00"/>
<path d="M77.0515 7.82399H65.9016L65.4297 7.0786H77.0515C77.1725 7.0786 77.1977 7.22843 77.1977 7.4533C77.1977 7.67816 77.1767 7.82399 77.0515 7.82399ZM71.4473 6.08759C68.5575 6.08759 66.3651 5.35466 66.3651 3.82236C66.3651 2.28992 68.5575 1.55711 71.4473 1.55711C74.3371 1.55711 76.5295 2.28992 76.5295 3.82236C76.5295 5.35466 74.3371 6.08759 71.4473 6.08759ZM76.6505 11.6882H67.1545C66.7116 11.6882 66.3527 11.3302 66.3527 10.8887V8.49018H67.689C67.9196 8.49018 68.1066 8.67657 68.1066 8.90653V10.5721C68.1063 10.7942 68.2808 10.9775 68.5033 10.9886H76.6505C76.7676 10.9886 76.7967 11.1343 76.7967 11.3633C76.7967 11.5923 76.7592 11.6882 76.6505 11.6882V11.6882ZM71.4473 2.30253C69.5473 2.30253 68.1567 2.76883 68.1567 3.82236C68.1567 4.8759 69.5473 5.3422 71.4473 5.3422C73.3474 5.3422 74.738 4.8759 74.738 3.82236C74.738 2.76883 73.3474 2.30253 71.4473 2.30253ZM89.0992 8.68174H87.0529C87.2731 8.78442 87.4595 8.94735 87.5904 9.15155C87.7212 9.35576 87.7912 9.59284 87.7921 9.83517C87.7921 10.9636 86.4474 11.4508 84.6184 11.4508C82.7892 11.4508 81.4446 10.9636 81.4446 9.83517C81.4446 8.70679 82.7892 8.20283 84.6184 8.20283H89.5627V1.95688C89.5627 1.72692 89.3758 1.54053 89.1451 1.54053H87.8923V3.68911H86.9569V1.95688C86.9569 1.72692 86.7699 1.54053 86.5392 1.54053H85.2865V7.02447H86.9569V4.48859H87.8923V7.53243H84.6184C81.7369 7.53243 79.5738 8.31951 79.5738 9.85592C79.5738 11.3925 81.7369 12.1796 84.6184 12.1796C87.4997 12.1796 89.6629 11.3925 89.6629 9.85592C89.6615 9.6309 89.6102 9.40897 89.5127 9.206C89.4153 9.00302 89.274 8.82401 89.0992 8.68174Z" fill="#005BAC"/>
<path d="M84.6271 4.66793C84.6226 4.22711 84.4762 3.79939 84.2094 3.44781H82.539C82.8286 3.78202 82.9781 4.21442 82.9567 4.6555C82.9567 5.45069 82.6058 6.29598 81.6204 6.29598C80.7851 6.29598 80.2631 5.50493 80.2631 4.6555C80.2631 3.80589 80.756 2.9649 81.6078 2.9649H84.8443C84.9445 2.9649 84.9653 2.77326 84.9653 2.57348C84.9653 2.37352 84.9653 2.22365 84.8443 2.22365H82.4638V1.59076C82.4661 1.5005 82.4329 1.41293 82.3713 1.34678C82.3097 1.28063 82.2245 1.24116 82.1341 1.23682H80.6808V2.22368H78.0791L78.4717 2.9649H79.4572C79.1927 3.16261 78.9791 3.42008 78.8339 3.71615C78.6887 4.01222 78.6161 4.33843 78.622 4.66793C78.622 5.98369 79.8039 7.03722 81.6078 7.03722C83.4118 7.03722 84.6271 5.98369 84.6271 4.66793ZM48.626 7.95753C48.8733 8.09891 49.0783 8.30344 49.22 8.55008C49.3617 8.79671 49.4348 9.07653 49.4319 9.36072C49.4319 10.7141 47.9703 11.3345 46.1621 11.3345C44.354 11.3345 42.8924 10.7141 42.8924 9.36072C42.8924 8.00748 44.3331 7.39117 46.1621 7.39117H51.591C51.6294 7.38899 51.6655 7.37226 51.6919 7.3444C51.7183 7.31654 51.733 7.27966 51.733 7.24133C51.7551 7.0894 51.7551 6.9351 51.733 6.78318C51.7289 6.7482 51.7123 6.71588 51.6862 6.69215C51.6601 6.66843 51.6263 6.65491 51.591 6.6541H47.0098V5.24259H51.353C51.391 5.24145 51.4271 5.22559 51.4536 5.19837C51.4801 5.17114 51.4949 5.13469 51.4949 5.09675C51.517 4.94349 51.517 4.78786 51.4949 4.6346C51.4898 4.59966 51.4722 4.56775 51.4453 4.54478C51.4184 4.5218 51.3841 4.50933 51.3487 4.50966H43.1136C42.8831 4.50966 42.6962 4.32327 42.6962 4.09331V2.10286C42.6962 1.8729 42.5091 1.6865 42.2785 1.6865H40.984V4.47215C40.9954 4.90069 41.3518 5.2394 41.7815 5.23001H45.2977V6.66249H40.2531L40.7417 7.39949H42.2409C41.9187 7.59836 41.6529 7.87608 41.4687 8.20625C41.2845 8.53642 41.1881 8.90807 41.1886 9.28587C41.1886 11.2137 43.4144 12.0924 46.1621 12.0924C48.9099 12.0924 51.1357 11.2137 51.1357 9.28587C51.1506 8.81266 51.0033 8.34852 50.7181 7.96997L48.626 7.95753ZM58.0638 3.45209C58.1533 3.55451 58.2317 3.66615 58.2975 3.78514C58.4536 4.05484 58.5357 4.36074 58.5357 4.67211C58.5357 5.65409 57.7372 6.45014 56.7524 6.45014C55.7677 6.45014 54.9694 5.65409 54.9694 4.67211C54.9553 3.69481 55.735 2.88966 56.7148 2.86901H60.5526C60.5906 2.86793 60.6268 2.8521 60.6533 2.8249C60.6798 2.79769 60.6946 2.76125 60.6946 2.72331C60.7189 2.56597 60.7189 2.4059 60.6946 2.24869C60.6905 2.21299 60.6733 2.18007 60.6463 2.15624C60.6193 2.13241 60.5845 2.11937 60.5484 2.11961H57.6252V1.70312C57.6252 1.47315 57.4382 1.28676 57.2077 1.28676H55.8797V2.11961H52.5388C52.6057 2.2195 53.0149 2.84411 53.0359 2.86901H54.2886C53.9824 3.06421 53.7278 3.32988 53.5461 3.64367C53.3644 3.95746 53.261 4.31017 53.2446 4.67211C53.2446 6.07115 54.6603 7.20382 56.7524 7.20382C58.1598 7.20382 59.1912 6.69161 59.7926 5.92542H62.223V8.6737H55.7752V7.91173C55.7752 7.68174 55.5883 7.49524 55.3577 7.49524H54.0339V10.9139C54.0371 11.0196 54.0613 11.1236 54.1052 11.22C54.149 11.3163 54.2116 11.403 54.2892 11.475C54.3669 11.5471 54.4582 11.6031 54.5577 11.6397C54.6572 11.6763 54.763 11.6929 54.869 11.6885H64.0229V1.92383C64.0229 1.69384 63.8359 1.50748 63.6052 1.50748H62.2731V3.45209H58.0638ZM62.2396 10.9472H56.0132C55.9824 10.9483 55.9516 10.9432 55.9228 10.9322C55.894 10.9212 55.8677 10.9045 55.8454 10.8832C55.8232 10.8618 55.8056 10.8362 55.7935 10.8078C55.7815 10.7795 55.7752 10.749 55.7752 10.7182V9.42324H62.223L62.2396 10.9472ZM62.2396 5.18421H60.1809C60.2278 5.02035 60.2517 4.8508 60.252 4.6804C60.2513 4.52319 60.2316 4.36663 60.1934 4.2141H62.223L62.2396 5.18421ZM37.8437 1.76567H36.3027V5.72979H29.9886V1.76567H28.4644C28.067 1.80301 27.7732 2.15156 27.8047 2.5484V10.9306C27.7756 11.3267 28.0681 11.6738 28.4644 11.7134H29.9886V7.45358H36.3027V11.7134H37.8437C38.2416 11.6759 38.5367 11.3282 38.5076 10.9306V2.5484C38.5156 2.45354 38.5048 2.35802 38.4758 2.26733C38.4467 2.17663 38.4001 2.09253 38.3384 2.01983C38.2768 1.94713 38.2013 1.88726 38.1165 1.84365C38.0316 1.80004 37.9389 1.77354 37.8437 1.76567ZM25.2364 1.76567H23.6955V9.38573L19.0644 3.29801C18.296 2.41103 17.7655 1.76571 16.5337 1.76571H14.9551V10.9264C14.9261 11.3241 15.2211 11.6718 15.6191 11.7093H17.1684V4.05994L21.8288 10.1061C22.6138 11.0138 23.3154 11.7134 24.4555 11.7134H25.8961V2.55258C25.93 2.15422 25.6356 1.80304 25.2364 1.76567Z" fill="#005BAC"/>
</g>
<defs>
<clipPath id="clip0_5811_28639">
<rect width="90" height="13" fill="white"/>
</clipPath>
</defs>
</svg>
