<svg width="24" height="24" viewBox="0 0 24 24" fill="none" xmlns="http://www.w3.org/2000/svg">
<path d="M24 12.0014C24 18.6264 18.6229 24 12 24C5.37709 24 0 18.6264 0 12.0014C0 5.37634 5.37268 0 11.999 0C18.6253 0 24 5.37227 24 12.0014Z" fill="#E83E44"/>
<path d="M5.81642 9.15834C5.43853 8.93242 5.01145 8.8683 4.58063 8.93072C5.36695 8.09284 5.79403 7.18169 5.79403 6.26239C5.79499 6.17776 5.79092 6.09315 5.78182 6.009C5.74111 5.43673 5.47652 5.00761 5.06945 4.86276C4.66069 4.70943 3.91067 4.78712 2.71966 6.00493L2.00458 6.80583C1.80647 7.04668 1.05476 8.18477 0.915674 9.36967C0.682628 11.3843 0.831883 13.3949 1.34479 15.1775C1.40381 15.3858 1.59615 15.8899 2.05716 16.0747C2.54767 16.2749 3.01343 16.0337 3.42592 15.821L3.53651 15.7661L3.96121 15.5758L4.37405 15.3943L4.87678 15.1734C5.23839 15.0262 5.57761 14.8895 5.90835 14.6117C6.34917 14.2367 6.67151 13.7417 6.83613 13.1869C6.92709 12.8742 6.98586 12.553 7.0115 12.2283C7.03796 11.9505 7.06646 11.4111 6.96232 10.9369C6.73605 9.89309 6.21704 9.39444 5.81642 9.15834ZM1.99779 10.6631C1.99779 10.6713 2.02052 10.9277 2.02052 10.9277C2.01819 10.956 2.02479 10.9843 2.0394 11.0087C2.054 11.033 2.07588 11.0522 2.10193 11.0634C2.12656 11.0737 2.15365 11.0764 2.17984 11.0713C2.20602 11.0663 2.23013 11.0536 2.24916 11.0349C2.69659 10.6587 3.37504 10.3225 3.92051 10.5105C4.34725 10.6587 4.63762 11.099 4.78892 11.8212C5.0993 13.3352 4.06128 14.0649 3.41371 14.362L3.39132 14.3722L2.56158 14.7793C2.54579 14.7851 2.52899 14.7878 2.51215 14.7871C2.49532 14.7864 2.4788 14.7823 2.46355 14.7752C2.41266 14.7484 2.39842 14.7158 2.36178 14.6259C1.79799 12.5448 1.60599 10.3588 1.81631 8.31639C1.84428 8.1378 1.91672 7.96912 2.02697 7.82587L2.72339 7.08331L2.80107 6.99851C3.17931 6.63079 3.53481 6.44693 3.72681 6.52665C3.88625 6.59449 3.92492 6.84925 3.92695 7.04973C3.96087 8.13524 3.35299 9.2428 2.08192 10.4369C2.05139 10.4655 2.02791 10.5009 2.01332 10.5401C1.99872 10.5794 1.9934 10.6215 1.99779 10.6631Z" fill="white"/>
<path d="M15.2378 2.83399C15.0047 2.03512 14.6244 1.86754 14.5142 1.8309C13.5334 1.51597 12.4907 1.44437 11.4761 1.62228C9.96623 1.9001 8.66056 2.69287 7.79453 3.85335C6.88507 5.07455 6.53364 6.59732 6.80332 8.13807C7.07707 9.68459 7.85762 10.937 9.07136 11.7566C10.4934 12.7145 12.3852 13.0066 14.408 12.5815C15.6031 12.3224 16.5902 11.8576 17.3542 11.1985C17.6954 10.9024 17.7612 10.5255 17.7612 10.2609C17.7612 10.2609 17.7795 10.0472 17.614 9.3742C17.5692 9.21069 17.4977 9.1615 17.383 9.1615C17.2995 9.1615 17.2134 9.2575 17.1951 9.27786C16.6252 9.93798 15.7568 10.3973 14.6719 10.611C11.8872 11.1466 9.74608 9.84606 9.21485 7.29612C8.98791 6.19161 9.17584 5.13256 9.75184 4.31299C10.3285 3.47953 11.2783 2.92795 12.4205 2.7563C13.283 2.62816 14.1641 2.73625 14.9701 3.06907C14.9701 3.06907 15.311 3.16812 15.2378 2.83399Z" fill="white"/>
</svg>
