<svg width="40" height="24" viewBox="0 0 40 24" fill="none" xmlns="http://www.w3.org/2000/svg">
<g clip-path="url(#clip0_5811_28399)">
<path fill-rule="evenodd" clip-rule="evenodd" d="M35.1583 6.27751C33.866 4.33858 32.149 2.75583 30.1527 1.66315C28.1563 0.570469 25.9393 0 23.6892 0C21.4391 0 19.2222 0.570469 17.2258 1.66315C15.2295 2.75583 13.5125 4.33858 12.2201 6.27751L12.0859 6.48073H15.4055L15.4432 6.4386C16.5015 5.25312 17.7792 4.30836 19.1976 3.66255C20.616 3.01674 22.145 2.68357 23.6904 2.68357C25.2358 2.68357 26.7648 3.01674 28.1832 3.66255C29.6016 4.30836 30.8793 5.25312 31.9376 6.4386L31.9729 6.48073H35.2925L35.1583 6.27751Z" fill="#E60012"/>
<path d="M10.7703 19.3552L10.7091 19.4221C9.6873 20.5151 8.50778 21.095 7.29295 21.095C4.75499 21.095 2.91155 19.09 2.91155 16.3267C2.91155 13.5634 4.75499 11.551 7.29295 11.551C8.50778 11.551 9.6873 12.1309 10.7091 13.2263L10.7703 13.2933L12.4018 11.2164L12.3595 11.1594C11.001 9.4717 9.37182 8.65137 7.37065 8.65137C5.36947 8.65137 3.52368 9.36264 2.19113 10.634C0.752634 12.0244 -0.0078125 13.9847 -0.0078125 16.3094C-0.0078125 18.634 0.752634 20.5944 2.19113 21.9847C3.51426 23.2734 5.35063 23.9822 7.37065 23.9822C9.39066 23.9822 11.001 23.1594 12.3595 21.4717L12.4018 21.4172L10.7703 19.3552Z" fill="#004187"/>
<path d="M16.9325 8.89941H14.0508V23.7173H16.9325V8.89941Z" fill="#004187"/>
<path d="M28.2307 20.4921C27.602 20.9388 26.8693 21.1959 26.1118 21.2356C25.1701 21.2356 24.7581 20.7177 24.7581 19.5652V11.7016H27.6963V8.91097H24.7486V4.29883L21.9235 5.89239V8.91097H19.4844V11.7016H21.9235V20.0659C21.9235 22.3434 23.2066 23.9023 25.1206 23.9419C26.0188 23.9883 26.9098 23.7519 27.6798 23.2629L27.708 23.2406L28.4026 20.3856L28.2307 20.4921Z" fill="#004187"/>
<path d="M33.5012 8.89941H30.6172V23.7173H33.5012V8.89941Z" fill="#004187"/>
<path d="M39.7525 7.0573C39.7525 7.32552 39.6769 7.58772 39.5353 7.81071C39.3937 8.0337 39.1924 8.20745 38.957 8.30998C38.7215 8.41251 38.4625 8.43922 38.2126 8.38671C37.9627 8.3342 37.7333 8.20484 37.5533 8.015C37.3732 7.82516 37.2508 7.58338 37.2013 7.32025C37.1519 7.05712 37.1778 6.78447 37.2756 6.5368C37.3734 6.28913 37.5389 6.07758 37.751 5.92892C37.963 5.78026 38.2123 5.70117 38.4671 5.70166C38.637 5.69829 38.8057 5.73107 38.9633 5.79803C39.1209 5.865 39.264 5.96476 39.384 6.09136C39.504 6.21795 39.5986 6.36877 39.6619 6.53475C39.7252 6.70073 39.756 6.87847 39.7525 7.0573ZM39.9997 7.0573C40.0002 6.7375 39.9105 6.42475 39.742 6.15865C39.5735 5.89254 39.3338 5.68505 39.0532 5.56244C38.7726 5.43983 38.4638 5.40762 38.1658 5.46989C37.8678 5.53216 37.5941 5.6861 37.3793 5.91224C37.1645 6.13837 37.0182 6.42651 36.9591 6.74019C36.8999 7.05387 36.9305 7.37897 37.047 7.67433C37.1635 7.96969 37.3606 8.22203 37.6134 8.39939C37.8662 8.57676 38.1633 8.67118 38.4671 8.67069C38.6694 8.67472 38.8704 8.63575 39.0581 8.5561C39.2458 8.47645 39.4163 8.35776 39.5594 8.20713C39.7025 8.0565 39.8152 7.87703 39.8909 7.67947C39.9665 7.4819 40.0036 7.27028 39.9997 7.0573ZM39.1663 6.67564C39.1688 6.60139 39.156 6.52746 39.1289 6.4589C39.1017 6.39033 39.0608 6.32875 39.0089 6.27838C38.9571 6.22801 38.8955 6.19004 38.8283 6.16706C38.7612 6.14409 38.6902 6.13666 38.6201 6.14528H37.8855V7.90489H38.1681V7.22582H38.4906L38.8179 7.90489H39.1545L38.8108 7.19361C38.9186 7.16529 39.0134 7.09777 39.0784 7.00298C39.1435 6.9082 39.1746 6.79225 39.1663 6.67564ZM38.8791 6.67564C38.8791 6.8516 38.7637 6.92347 38.6107 6.92347H38.1681V6.42781H38.6107C38.6442 6.42281 38.6784 6.42551 38.7109 6.4357C38.7434 6.4459 38.7734 6.46336 38.7989 6.48689C38.8244 6.51042 38.8447 6.53947 38.8586 6.57204C38.8724 6.60462 38.8794 6.63995 38.8791 6.67564Z" fill="#004187"/>
</g>
<defs>
<clipPath id="clip0_5811_28399">
<rect width="40" height="24" fill="white"/>
</clipPath>
</defs>
</svg>
