<svg width="66" height="13" viewBox="0 0 66 13" fill="none" xmlns="http://www.w3.org/2000/svg">
<g clip-path="url(#clip0_9076_28861)">
<path fill-rule="evenodd" clip-rule="evenodd" d="M6.16004 0.578613C2.75714 0.578613 0 2.75839 0 5.44659C0 7.17412 1.14272 8.69097 2.85821 9.55614L2.27702 11.7247C2.25456 11.7921 2.27422 11.8623 2.32195 11.9101C2.35564 11.9438 2.40056 11.9606 2.44829 11.9606C2.48479 11.9606 2.52129 11.9466 2.55498 11.9213L5.05101 10.2359C5.4132 10.2865 5.78381 10.3174 6.16004 10.3174C9.56013 10.3174 12.3201 8.1376 12.3201 5.4494C12.3201 2.7612 9.56013 0.578613 6.16004 0.578613Z" fill="#1E1E1E"/>
<path d="M17.5072 9.48886V12.6321H15.2695V1.04223H16.8474L17.1226 1.77819C17.5971 1.30347 18.3187 0.797852 19.4839 0.797852C21.6766 0.797852 22.7183 2.4383 22.7014 5.08999C22.7014 7.86527 21.0926 9.64336 18.7932 9.64336C18.3496 9.64336 18.0126 9.61246 17.5072 9.48886ZM17.5072 2.91302V7.92707C17.6308 7.94111 17.9368 7.97201 18.2288 7.97201C19.8236 7.97201 20.4357 6.85403 20.4357 5.08999C20.4357 3.54223 20.0229 2.60684 18.751 2.60684C18.3383 2.60684 17.8779 2.73044 17.5101 2.91302H17.5072Z" fill="#1E1E1E"/>
<path d="M27.5776 4.30628H28.8495V4.031C28.8495 3.11246 28.3272 2.68268 27.4232 2.68268C26.7325 2.68268 25.8453 2.88212 25.1237 3.23605L24.5116 1.73324C25.309 1.17987 26.5331 0.797852 27.6225 0.797852C29.7676 0.797852 30.9328 1.93268 30.9328 4.0956V9.41583H29.3548L29.1246 8.71077C28.2205 9.37089 27.3923 9.64617 26.6426 9.64617C25.0029 9.64617 24.082 8.66583 24.082 7.00853C24.082 5.24448 25.309 4.30909 27.5748 4.30909L27.5776 4.30628ZM28.8495 7.26695V5.73324H27.8219C26.6735 5.73324 26.0895 6.14617 26.0895 6.97482C26.0895 7.60403 26.4124 7.91021 27.0694 7.91021C27.6815 7.91021 28.4648 7.60403 28.8467 7.26695H28.8495Z" fill="#1E1E1E"/>
<path d="M37.7038 8.55314C36.9233 10.6374 35.9884 12.1571 34.6238 12.9998L33.2453 11.7273C34.0426 11.0363 34.6098 10.3621 35.0983 9.45763L32.125 1.34808L34.3459 0.74977L36.2467 7.32842L38.1306 0.72168L40.3234 1.33404L37.7038 8.55595V8.55314Z" fill="#1E1E1E"/>
<path d="M43.8047 6.79209V5.83984H55.2965V6.79209H43.8047ZM52.6573 0.351074V0.938153C52.6573 1.35669 52.5225 1.73871 52.2558 2.08703C51.9862 2.43534 51.61 2.76119 51.1271 3.06737L54.0078 3.78647L53.6372 4.83141L49.9788 3.64321C49.3723 3.90444 48.6872 4.13759 47.932 4.34265C47.1739 4.5477 46.3541 4.72748 45.4753 4.88478L45.1973 3.91849C46.1042 3.77804 46.9352 3.60388 47.6877 3.3904C48.4402 3.17692 49.0887 2.9522 49.6362 2.71062C50.1809 2.47186 50.6077 2.23029 50.9109 1.98591C51.2141 1.74152 51.3658 1.5168 51.3658 1.30613H45.9217V0.351074H52.6601H52.6573ZM52.8538 10.264C52.8538 10.6123 52.778 10.9325 52.6292 11.2247C52.4804 11.5168 52.2642 11.7696 51.9834 11.9831C51.7027 12.1966 51.3573 12.3623 50.9474 12.4803C50.5375 12.5983 50.0742 12.6573 49.5548 12.6573C49.0354 12.6573 48.5721 12.5983 48.1622 12.4803C47.7523 12.3623 47.4069 12.1966 47.1262 11.9831C46.8454 11.7696 46.632 11.5168 46.486 11.2247C46.34 10.9325 46.267 10.6123 46.267 10.264C46.267 9.91568 46.34 9.62074 46.486 9.33141C46.632 9.03928 46.8454 8.78647 47.1262 8.57298C47.4069 8.3595 47.7551 8.19096 48.1622 8.07018C48.5721 7.94939 49.0354 7.88759 49.5548 7.88759C50.0742 7.88759 50.5403 7.94939 50.9474 8.07018C51.3573 8.19096 51.7027 8.3595 51.9834 8.57298C52.2642 8.78647 52.4804 9.03928 52.6292 9.33141C52.778 9.62355 52.8538 9.93534 52.8538 10.264ZM51.6774 10.264C51.6774 10.0814 51.6353 9.90444 51.5511 9.73591C51.4668 9.56737 51.3377 9.41568 51.1608 9.28647C50.9839 9.15444 50.7621 9.05051 50.4926 8.97186C50.223 8.89321 49.9058 8.85388 49.5351 8.85388C49.1645 8.85388 48.8613 8.89321 48.5974 8.97186C48.3335 9.05051 48.1145 9.15444 47.9432 9.28647C47.7719 9.41568 47.6428 9.56737 47.5614 9.73591C47.4771 9.90444 47.435 10.0814 47.435 10.264C47.435 10.4466 47.4771 10.6264 47.5614 10.8005C47.6456 10.9747 47.7719 11.1264 47.9432 11.2584C48.1145 11.3904 48.3335 11.4943 48.5974 11.573C48.8613 11.6516 49.173 11.691 49.5351 11.691C49.8973 11.691 50.223 11.6516 50.4926 11.573C50.7621 11.4943 50.9839 11.3904 51.1608 11.2584C51.3377 11.1292 51.4668 10.9747 51.5511 10.8005C51.6353 10.6264 51.6774 10.4466 51.6774 10.264Z" fill="#1E1E1E"/>
<path d="M58.8929 7.69101V5.74438C58.3201 5.76966 57.753 5.78933 57.1886 5.79775C56.6243 5.80618 56.0571 5.8118 55.4844 5.8118V4.82023C56.3913 4.82023 57.2953 4.8118 58.1938 4.79494C59.0922 4.77809 59.9935 4.73315 60.9032 4.66292C61.0183 4.1573 61.0969 3.62079 61.1418 3.05056C61.1868 2.48034 61.2064 1.96348 61.2064 1.50281H56.4895V0.522472H62.3295V1.1882C62.3295 1.72753 62.3042 2.29494 62.2565 2.88483C62.2088 3.47753 62.1358 4.03371 62.0375 4.55618C62.6018 4.50281 63.169 4.4382 63.7417 4.35955C63.7586 4.51685 63.7754 4.67416 63.7867 4.83708C63.8007 4.99719 63.8147 5.1573 63.8316 5.31461C63.2336 5.40169 62.6187 5.47472 61.9898 5.5309C61.3608 5.58708 60.7151 5.63764 60.0553 5.67978V7.69101H58.8929ZM58.3229 12.0281V8.51405H59.4853V11.0618H65.9991V12.0281H58.3229ZM64.5728 8.98596V7.57584H62.0628V6.64888H64.5728V0H65.7352V8.98596H64.5728Z" fill="#1E1E1E"/>
</g>
<defs>
<clipPath id="clip0_9076_28861">
<rect width="66" height="13" fill="white"/>
</clipPath>
</defs>
</svg>
