<svg width="95" height="14" viewBox="0 0 95 14" fill="none" xmlns="http://www.w3.org/2000/svg">
<g clip-path="url(#clip0_5811_28800)">
<path d="M8.40102 0L5.64945 1.38655L2.89844 0L5.64945 5.24875L8.40102 0Z" fill="#FDBB2F"/>
<path d="M9.3601 4.05664L9.31799 4.0205L11.2805 3.19101V0.422363L7.86962 1.88174C7.86962 1.88174 6.02342 5.39203 5.9802 5.47265C6.70686 5.55851 7.37334 5.91975 7.84329 6.48245C8.31324 7.04515 8.55112 7.76677 8.50826 8.49966C8.46539 9.23255 8.14503 9.92129 7.61272 10.425C7.0804 10.9287 6.37638 11.2092 5.6447 11.2092C4.91302 11.2092 4.209 10.9287 3.67669 10.425C3.14438 9.92129 2.82401 9.23255 2.78115 8.49966C2.73829 7.76677 2.97617 7.04515 3.44612 6.48245C3.91606 5.91975 4.58255 5.55851 5.30921 5.47265L3.422 1.88174L0.015515 0.422363V3.19101L1.97697 4.0205L1.93485 4.05664C1.06851 4.81495 0.453474 5.82052 0.171942 6.93894C-0.10959 8.05737 -0.0442079 9.23537 0.359356 10.3155C0.762919 11.3957 1.48544 12.3265 2.43035 12.9836C3.37525 13.6407 4.49753 13.9928 5.6472 13.9928C6.79686 13.9928 7.91914 13.6407 8.86405 12.9836C9.80896 12.3265 10.5315 11.3957 10.935 10.3155C11.3386 9.23537 11.404 8.05737 11.1225 6.93894C10.8409 5.82052 10.2259 4.81495 9.35954 4.05664" fill="#FDBB2F"/>
<path d="M81.9493 7.32171C81.9865 7.32245 82.0222 7.33682 82.0497 7.3621C82.0771 7.38739 82.0944 7.42185 82.0983 7.45903C82.1226 7.62344 82.1226 7.79054 82.0983 7.95494C82.0982 7.99572 82.0827 8.03494 82.0548 8.0646C82.0269 8.09425 81.9887 8.11209 81.9481 8.11449H76.1303L76.1552 8.11784C74.2004 8.11784 72.6579 8.78164 72.6579 10.2405C72.6579 11.6993 74.222 12.3642 76.1552 12.3642C78.0884 12.3642 79.6543 11.6971 79.6543 10.2405C79.657 9.93429 79.5786 9.63288 79.4271 9.36708C79.2756 9.10129 79.0565 8.88064 78.7921 8.72771H81.0084C81.3215 9.13325 81.4876 9.63363 81.4794 10.1465C81.4794 12.2247 79.0968 13.1709 76.1547 13.1709C73.2125 13.1709 70.8316 12.2258 70.8316 10.1465C70.831 9.73911 70.9345 9.33838 71.1323 8.98261C71.3301 8.62684 71.6156 8.32794 71.9614 8.11449H70.3546L69.8315 7.32171H81.9493ZM82.0811 5.73502L81.6124 6.46165C78.7156 6.46165 76.6716 5.60715 75.9763 4.51025C75.2798 5.60715 73.2352 6.46165 70.3385 6.46165L69.8692 5.73502C72.4263 5.73502 74.8398 4.56753 74.8398 2.98528H70.6648L70.1534 2.18749H81.3575C81.4849 2.18749 81.5137 2.34482 81.5137 2.5861C81.5137 2.82738 81.4849 2.98528 81.3575 2.98528H77.1116C77.1116 4.56697 79.5252 5.73502 82.0811 5.73502ZM89.0066 3.00362H84.2925L83.7816 2.20471H90.7398C90.8519 2.20768 90.9586 2.25378 91.0378 2.33345C91.117 2.41313 91.1626 2.5203 91.1653 2.63281V6.25205H93.1528V1.7772H94.5723C94.6845 1.78001 94.7912 1.82596 94.8705 1.90553C94.9498 1.9851 94.9956 2.09221 94.9984 2.20471V12.606H85.3436C85.1177 12.6053 84.9013 12.515 84.7416 12.3548C84.5819 12.1946 84.4917 11.9776 84.4908 11.751V9.32871H85.9115C86.0238 9.33139 86.1307 9.37737 86.21 9.45709C86.2894 9.53681 86.3351 9.64414 86.3376 9.75678V11.3807C86.3401 11.4932 86.3858 11.6003 86.465 11.6798C86.5443 11.7593 86.6511 11.8051 86.7631 11.8077H93.1528V9.27199H90.2561L89.7458 8.47476H93.1528V7.0493H88.1106V9.0446H86.2656V7.0493H83.8647L83.3539 6.25205H89.3174V3.29718C89.3174 3.0242 89.0049 3.00362 89.0049 3.00362M40.1388 1.90229H38.4899V6.1731H31.7501V1.90229H30.1011C29.8967 1.92138 29.7079 2.02033 29.5756 2.17779C29.4432 2.33525 29.3778 2.5386 29.3935 2.74399V11.7721C29.378 11.9776 29.4434 12.181 29.5757 12.3386C29.708 12.4962 29.8967 12.5954 30.1011 12.6149H31.7501V8.02832H38.4899V12.6149H40.1388C40.3435 12.5957 40.5325 12.4966 40.6652 12.339C40.7978 12.1814 40.8635 11.9778 40.8481 11.7721V2.74399C40.8645 2.53817 40.7992 2.33419 40.6663 2.17652C40.5334 2.01884 40.3438 1.92027 40.1388 1.90229ZM26.6442 1.90229H24.9953V10.1054L20.0379 3.55235C19.2145 2.59556 18.6477 1.90229 17.3306 1.90229H15.6507V11.7721C15.6351 11.9783 15.7011 12.1823 15.8344 12.34C15.9676 12.4978 16.1574 12.5965 16.3627 12.6149H18.0094V4.37405L22.9961 10.8826C23.8383 11.8611 24.5886 12.6149 25.8109 12.6149H27.3506V2.74399C27.3666 2.53845 27.3013 2.33486 27.1688 2.17731C27.0362 2.01977 26.8472 1.92096 26.6425 1.90229M54.7151 9.47658H49.6818V12.6161H47.8334V9.47658H42.8727L42.3607 8.67767H54.7167C54.8453 8.67767 54.873 8.83445 54.873 9.0774C54.873 9.32035 54.8453 9.47658 54.7167 9.47658M43.3553 6.63734V2.12911H54.0042C54.1322 2.12911 54.161 2.28588 54.161 2.52828C54.161 2.77067 54.1322 2.92802 54.0042 2.92802H45.2026V4.31012H53.9333C54.0612 4.31012 54.0895 4.46689 54.0895 4.70984C54.0895 4.95279 54.0612 5.10901 53.9333 5.10901H45.2026V6.26484C45.2051 6.37754 45.2508 6.48493 45.3301 6.56474C45.4095 6.64455 45.5164 6.69065 45.6287 6.69348H54.1466C54.274 6.69348 54.3034 6.84971 54.3034 7.0921C54.3034 7.3345 54.274 7.49183 54.1466 7.49183H44.2069C43.9808 7.4911 43.7642 7.40066 43.6044 7.24025C43.4445 7.07985 43.3544 6.8625 43.3536 6.63566M64.0569 11.7599C62.578 11.289 60.8859 10.0614 60.2753 8.62097C59.6658 10.0614 57.9708 11.2895 56.4926 11.7599L55.8664 11.175C56.9065 10.7745 57.7987 10.0626 58.4218 9.136C59.045 8.20939 59.369 7.11289 59.35 5.99521V2.99974H56.6621L56.1512 2.20083H64.1001C64.2275 2.20083 64.2563 2.3576 64.2563 2.6C64.2563 2.84239 64.2275 2.99974 64.1001 2.99974H61.1989V5.99521C61.1799 7.11295 61.504 8.2095 62.1273 9.13612C62.7505 10.0627 63.6428 10.7746 64.683 11.175L64.0569 11.7599ZM65.8205 12.6155V1.77441H67.2423C67.3546 1.77723 67.4614 1.82324 67.5409 1.90292C67.6203 1.9826 67.6661 2.08984 67.6689 2.20249V5.05565H69.0769C69.2048 5.05565 69.2331 5.21242 69.2331 5.45426C69.2331 5.6961 69.2048 5.85454 69.0769 5.85454H67.6689V12.6172L65.8205 12.6155Z" fill="#0078C1"/>
</g>
<defs>
<clipPath id="clip0_5811_28800">
<rect width="95" height="14" fill="white"/>
</clipPath>
</defs>
</svg>
