<svg width="34" height="24" viewBox="0 0 34 24" fill="none" xmlns="http://www.w3.org/2000/svg">
<g clip-path="url(#clip0_5823_28871)">
<path d="M33.4514 12.3149L33.1556 12.1317C32.1518 11.1407 30.7524 10.7103 28.889 10.8165C27.3361 10.9117 26.1031 11.5217 25.1621 12.0987C25.1621 12.0841 25.1621 12.0694 25.1621 12.0548C25.1728 11.5489 25.2092 11.0439 25.2712 10.5417C25.3351 10.0311 25.3722 9.51749 25.3821 9.00303C25.399 8.52628 25.3192 8.05101 25.1473 7.60538C25.1263 7.55313 25.0894 7.50865 25.0417 7.47813C24.994 7.4476 24.9379 7.43254 24.8811 7.43503C24.3783 7.44602 23.4022 7.78673 23.1601 7.99372L23.0306 8.27398C23.0306 8.82352 22.9012 10.364 22.7774 10.5509L22.7108 10.7341C22.5007 12.6576 22.4939 14.5976 22.6905 16.5225C22.7127 16.6874 23.0343 16.9383 23.2839 17.0281C23.5335 17.1178 24.4097 16.9017 24.9015 16.7167L25.0863 16.6892C25.1236 16.6841 25.1596 16.6716 25.192 16.6525C25.2243 16.6334 25.2526 16.6081 25.2749 16.5781C25.2973 16.5481 25.3134 16.5139 25.3223 16.4776C25.3312 16.4413 25.3327 16.4037 25.3266 16.3668L25.3359 15.8887C25.6927 14.4562 27.1328 12.7509 28.8335 12.4926C29.7966 12.3424 30.5564 12.5842 31.1554 13.2253C31.2367 13.3407 31.4123 14.3702 30.7857 15.5553C30.3124 16.4327 29.3696 17.1691 28.1273 17.6326C26.9516 18.074 25.6576 18.2535 24.0603 18.1967L22.5574 17.1948C21.2929 16.3137 19.7198 15.2164 18.2908 14.6797C18.0412 14.5863 17.5901 14.2163 17.3221 13.9946L17.1742 13.8756C16.3515 13.2198 14.7858 12.1867 13.5268 11.3569L12.8484 10.9063V10.7652C12.8835 10.7267 13.6729 10.2578 13.6729 10.2578C14.7821 9.61668 15.2904 9.30161 15.3995 9.13858C15.3773 9.16423 15.5474 9.05249 15.5474 9.05249L18.2889 7.51563C20.9195 6.08134 23.9032 4.45472 25.4708 2.84825L25.5466 2.60279L25.5799 2.38481C25.6829 2.08924 25.6913 1.76938 25.6039 1.46892C25.5902 1.41885 25.5632 1.37332 25.5259 1.33695C25.4885 1.30058 25.4421 1.27469 25.3913 1.26193C24.1694 1.14286 22.5907 1.86824 21.1543 3.20178C20.8903 3.44399 20.5928 3.64755 20.2706 3.80627L20.0507 3.92717C18.4682 4.81925 14.9004 7.01189 13.0259 8.19705C13.2031 5.78793 13.521 3.39101 13.9779 1.0183L13.9261 0.736203L13.7413 0.369846L13.5952 0.115229L13.5527 0.104239C13.414 0.0359229 13.2627 -0.00398857 13.108 -0.0131154C12.9534 -0.0222423 12.7984 -0.000396266 12.6524 0.0511182L12.2827 0.184837L11.7873 0.368016C11.7393 0.377292 11.6948 0.399201 11.6584 0.431436C11.6219 0.463671 11.5949 0.505041 11.5802 0.551194C10.6892 2.68705 9.94605 6.20407 9.77967 9.01036C8.40789 8.15757 6.98832 7.38269 5.52782 6.68949L5.50379 6.67667L5.40581 6.65652C5.11743 6.61805 4.76249 6.4074 4.42049 6.20224L3.74389 5.76811L2.71421 5.105C2.7253 5.105 2.44246 5.04456 2.44246 5.04456C1.99694 5.11966 1.14842 5.68934 0.891458 6.07402C0.859383 6.12367 0.843268 6.18179 0.845242 6.24071C0.8496 6.323 0.865145 6.40433 0.891458 6.4825L0.937673 6.69133L0.985738 6.81772C1.48117 7.32146 2.73269 8.16224 3.96203 8.81802L5.38548 9.56539L7.56131 10.7506C7.56131 10.7597 7.93104 11.0418 7.93104 11.0418L8.188 11.1883L8.23237 11.2158L4.2763 13.8389L2.20029 15.2073C1.81139 15.4197 1.41085 15.6105 1.00053 15.7788C0.604405 15.9124 0.271123 16.1846 0.0632716 16.5445L0.0078125 16.6635L0.0651203 16.7423L0.222254 16.8614L0.438543 17.0006L0.665925 17.1563L0.884063 17.1893C1.25379 17.2039 1.79359 16.9969 2.80849 16.5573C3.7328 16.147 6.27097 14.6358 7.35242 13.9928L7.81458 13.718C7.99944 13.7327 8.21573 13.5733 8.40244 13.4323C8.70805 13.2064 9.03565 13.0112 9.38037 12.8498C9.38037 12.8498 9.55414 12.7564 9.70572 12.6666C9.70572 12.7161 9.70572 12.7912 9.70572 12.7912C9.75379 16.07 9.94605 18.4532 10.3065 20.2905V20.3253L10.3417 20.3985C10.5265 20.6587 10.7225 21.4353 10.8962 22.1204L11.3085 23.4888C11.3085 23.5052 11.4268 23.6188 11.4268 23.6188C11.6616 23.7745 12.377 24.0475 12.8576 23.9852L12.976 23.9705L13.0517 23.8038C13.0911 23.5973 13.1097 23.3875 13.1072 23.1774C13.1072 22.9264 13.0887 22.6498 13.0647 22.3128L13.0333 21.8182C12.8817 19.5376 12.7375 16.2294 12.7375 14.0313C12.7375 13.9708 12.7375 13.9159 12.7375 13.8481C13.1275 14.0936 14.8468 15.1651 14.8468 15.1651C17.7694 17.0427 22.184 19.882 24.8515 20.633C24.918 20.6537 24.9889 20.6565 25.0568 20.641C25.1247 20.6256 25.1872 20.5925 25.2379 20.5451L25.6502 20.2831L25.7241 20.252C25.8794 20.1806 25.9829 19.9241 25.9995 19.6457C28.2493 19.5358 31.3865 18.6767 33.0632 16.5866C33.6652 15.8296 33.9968 14.8961 34.006 13.9324C34.006 13.2381 33.81 12.6355 33.4514 12.3057" fill="#F8B500"/>
</g>
<defs>
<clipPath id="clip0_5823_28871">
<rect width="34" height="24" fill="white"/>
</clipPath>
</defs>
</svg>
