<svg width="84" height="18" viewBox="0 0 84 18" fill="none" xmlns="http://www.w3.org/2000/svg">
<g clip-path="url(#clip0_5811_28782)">
<path d="M24.9757 9.23732C24.9022 9.19118 24.8287 9.14499 24.7552 9.09877C24.0064 8.35493 22.9642 8.03158 21.5703 8.11286C20.4098 8.18379 19.4892 8.64074 18.7866 9.06682C18.7866 9.05616 18.7855 9.04644 18.7855 9.03565C18.7855 8.67363 18.8271 8.28165 18.8674 7.90084C18.9085 7.51355 18.9499 7.11953 18.9499 6.74659C18.9499 6.36572 18.9065 6.00599 18.7747 5.69744C18.7415 5.61737 18.6688 5.5707 18.5762 5.5707C18.2003 5.57927 17.4683 5.83492 17.2912 5.98954C17.2912 5.98992 17.1947 6.19986 17.1947 6.19986C17.1876 6.61229 17.0975 7.76691 17.0057 7.9063C17.0091 7.90198 16.955 8.04631 16.955 8.04631C16.7978 9.69484 16.7945 11.1435 16.9409 12.3872C16.957 12.5116 17.1975 12.6991 17.383 12.7666C17.5858 12.8414 18.2239 12.6713 18.5914 12.5328C18.5878 12.5341 18.7308 12.5119 18.7308 12.5119C18.8473 12.499 18.9158 12.4017 18.909 12.2698C18.9085 12.2677 18.9172 11.912 18.9172 11.912C19.1839 10.838 20.2585 9.55743 21.5289 9.36458C22.2467 9.25148 22.8138 9.43367 23.2625 9.92128C23.3227 10.0082 23.4536 10.7806 22.9803 11.6686C22.628 12.326 21.9226 12.8793 20.9958 13.2263C20.1177 13.5573 19.1515 13.6924 17.9589 13.6507C17.9104 13.6186 16.8421 12.8998 16.8421 12.8998C15.8978 12.239 14.723 11.4163 13.6562 11.0137C13.471 10.9429 13.1341 10.6654 12.9331 10.4996L12.8232 10.4095C12.2088 9.91938 11.0398 9.14392 10.1004 8.52072C10.1004 8.52072 9.67627 8.23853 9.59378 8.18379C9.59493 8.14823 9.59691 8.07825 9.59691 8.07825C9.62307 8.04866 10.2127 7.69643 10.2127 7.69643C11.039 7.21535 11.4206 6.97976 11.502 6.85715C11.4853 6.87677 11.6123 6.79288 11.6123 6.79288C11.6183 6.78971 13.6594 5.64023 13.6594 5.64023C15.6241 4.56422 17.8514 3.34495 19.0211 2.13921C19.0229 2.13781 19.0778 1.95563 19.0778 1.95563L19.1037 1.79085C19.1802 1.53393 19.1856 1.33561 19.1214 1.10689C19.1037 1.0411 19.0431 0.965472 18.9623 0.950613C18.0496 0.861396 16.8711 1.40623 15.7993 2.40635C15.5571 2.63318 15.3538 2.74316 15.1389 2.86013L14.975 2.95042C13.7926 3.61889 11.1291 5.26443 9.73598 6.15229C9.82753 4.65998 10.1049 2.53793 10.446 0.768241L10.4079 0.557039C10.4034 0.549673 10.264 0.289767 10.264 0.289767L10.1551 0.0973611L10.1235 0.0889788C9.84584 -0.0509121 9.61828 0.00668334 9.45184 0.0488475C9.45267 0.0488475 9.17222 0.150829 9.17222 0.150829L8.80221 0.284813C8.72897 0.299291 8.67577 0.343615 8.64699 0.415116C7.98186 2.01684 7.42658 4.65109 7.29574 6.75891C5.96483 5.9155 4.73453 5.31085 4.13275 5.0178L4.11463 5.00866L4.04248 4.9931C3.82678 4.96554 3.56171 4.80628 3.30602 4.65248C3.28063 4.63699 2.80139 4.32666 2.80139 4.32666L2.02743 3.83378C2.03464 3.83841 1.82437 3.7878 1.82437 3.7878C1.49148 3.84419 0.854543 4.27078 0.665772 4.56123C0.639935 4.59971 0.630685 4.64182 0.630685 4.68512C0.630685 4.74545 0.649121 4.80806 0.665772 4.8668L0.699903 5.02415L0.73601 5.11807C1.10641 5.49634 2.04101 6.12727 2.95846 6.61775L4.02142 7.1782L5.64764 8.06276C5.64815 8.07025 5.92675 8.28165 5.92675 8.28165C5.9277 8.2819 6.11813 8.39201 6.11813 8.39201C6.11813 8.39201 6.13855 8.40471 6.15124 8.41334L3.19374 10.3804L1.63649 11.4062C1.49001 11.5064 0.874576 11.781 0.740349 11.8341C0.402169 11.9708 0.147432 12.1807 0.041021 12.4095L0 12.4981L0.041531 12.5576L0.159618 12.6475C0.155216 12.6467 0.320127 12.7512 0.320127 12.7512L0.491482 12.8685C0.494864 12.87 0.653522 12.8926 0.653522 12.8926C0.926823 12.9035 1.33237 12.7482 2.08982 12.4186C2.78481 12.1114 4.67495 10.9773 5.48266 10.493L5.82773 10.2866C5.97025 10.2984 6.12783 10.1785 6.26646 10.0731C6.42901 9.94472 6.78231 9.72951 6.99705 9.63522C7.00234 9.63287 7.12636 9.56422 7.24011 9.50117C7.23909 9.53762 7.23807 9.59337 7.23807 9.59337C7.27475 12.0534 7.41727 13.841 7.68648 15.219L7.69152 15.2439L7.71743 15.2989C7.85089 15.4943 8.0024 16.0771 8.13618 16.5915L8.444 17.618C8.44993 17.6291 8.53127 17.7136 8.53127 17.7136C8.70702 17.8319 9.2415 18.0371 9.59965 17.9948L9.68897 17.9845L9.74555 17.8594C9.77541 17.7056 9.7867 17.5546 9.7867 17.3889C9.7867 17.2011 9.7726 16.9941 9.75544 16.7416L9.73146 16.3707C9.61886 14.6542 9.50511 12.1733 9.50511 10.5245C9.50511 10.4791 9.50562 10.4377 9.50594 10.3938L11.0816 11.3814C13.2629 12.7903 16.5591 14.9194 18.5509 15.4821C18.6547 15.5132 18.7629 15.4887 18.8398 15.4162C18.8432 15.4131 19.147 15.2207 19.147 15.2207L19.2033 15.1973C19.3185 15.1435 19.3957 14.951 19.4086 14.7431C21.087 14.6587 23.4297 14.0156 24.682 12.4474C25.1675 11.8396 25.3858 11.0958 25.3858 10.4576C25.3858 9.93595 25.2399 9.48504 24.9757 9.23732Z" fill="#F8B500"/>
<path d="M73.7305 14.7602V10.3696H75.276V13.4314H83.9986V14.7602H73.7305Z" fill="#7C7366"/>
<path d="M82.2747 2.41943V9.01177H79.7891V10.2878H82.2747V11.4714H83.8128V2.41943H82.2747Z" fill="#7C7366"/>
<path d="M76.1963 11.0999V8.2656H72.3125V6.93673H78.6928V3.97597H73.0858V2.65479H80.2429V6.92822H81.4726V8.2656H77.7395V11.0999H76.1963Z" fill="#7C7366"/>
<path fill-rule="evenodd" clip-rule="evenodd" d="M58.6758 7.82617H71.2873V9.15225H58.6758V7.82617Z" fill="#7C7366"/>
<path d="M65.1003 9.71826C62.272 9.71826 59.9766 10.6504 59.9766 12.5461C59.9766 14.4287 62.272 15.3764 65.1003 15.3764C67.9309 15.3764 70.2252 14.4287 70.2252 12.5461C70.2252 10.6504 67.9309 9.71826 65.1003 9.71826ZM65.0951 14.0558C63.1544 14.0558 61.5854 13.5906 61.5854 12.5492C61.5854 11.516 63.1544 11.0447 65.0951 11.0447C67.0302 11.0447 68.6025 11.516 68.6025 12.5492C68.6025 13.5906 67.0302 14.0558 65.0951 14.0558Z" fill="#7C7366"/>
<path d="M70.3873 5.92131C70.0897 5.89826 66.885 5.68655 66.0905 3.94798H70.0686V2.62939H60.0112V3.94798H63.9887C63.1926 5.68655 59.9878 5.89826 59.6914 5.92131V7.19049C61.2843 7.09835 63.6924 6.63734 65.039 5.40111C66.3864 6.63734 68.7943 7.09835 70.3873 7.19049V5.92131Z" fill="#7C7366"/>
<path d="M31.1719 2.52002H33.1345V7.99875L39.7423 2.52002H42.5235L35.5393 8.04847L43.1022 14.7601H40.325L33.1345 8.20138V14.7601H31.1719V2.52002Z" fill="#7C7366"/>
<path d="M50.2621 13.3704H46.3996V9.06555H50.1593C52.3207 9.06555 53.2981 9.84407 53.2981 11.2517C53.2981 12.4358 52.6615 13.3704 50.2621 13.3704ZM46.3996 3.91334H50.1593C52.4201 3.91334 52.9589 4.67369 52.9589 5.80958C52.9589 7.11534 51.8652 7.67528 50.3854 7.67528H46.3996V3.91334ZM52.4429 8.36915V8.31797C53.821 8.04479 54.8583 7.02752 54.8583 5.55006C54.8583 3.47227 53.3551 2.52002 50.4825 2.52002H44.4414V14.7601H50.6743C54.0117 14.7601 55.3556 13.1783 55.3556 11.352C55.3556 9.89722 54.4205 8.6034 52.4429 8.36915Z" fill="#7C7366"/>
</g>
<defs>
<clipPath id="clip0_5811_28782">
<rect width="84" height="18" fill="white"/>
</clipPath>
</defs>
</svg>
