<svg width="45" height="22" viewBox="0 0 45 22" fill="none" xmlns="http://www.w3.org/2000/svg">
<g clip-path="url(#clip0_6118_28301)">
<path d="M0.0682685 10.9206C-0.0128979 10.9619 -0.0196617 11.0377 0.0615047 11.0927H0.0547408L6.99447 15.7613L8.98304 6.23828L0.0682685 10.9206Z" fill="#EE3124"/>
<path d="M41.1735 6.2315H39.4149C39.3269 6.2315 39.1849 6.26592 39.1037 6.30724L30.3039 10.9207C30.2228 10.962 30.2228 11.0378 30.2972 11.0928L37.1219 15.665C37.1963 15.7132 37.3316 15.7545 37.4263 15.7545H39.1781C39.2728 15.7545 39.2796 15.7132 39.2052 15.665L32.2384 10.9964L41.187 6.30035C41.2682 6.25904 41.2614 6.22461 41.1667 6.22461L41.1735 6.2315Z" fill="#F58220"/>
<path d="M37.4091 6.23145H25.18L23.1914 15.7613H35.4205C35.5152 15.7613 35.5219 15.72 35.4475 15.6718L28.4943 11.0033L37.4293 6.30719C37.5105 6.26587 37.5037 6.23145 37.4091 6.23145Z" fill="#EE3124"/>
<path d="M44.9245 6.2315H43.1727C43.0847 6.2315 42.9427 6.26592 42.8615 6.30724L34.0617 10.9207C33.9806 10.962 33.9806 11.0378 34.055 11.0928L40.8797 15.665C40.9541 15.7132 41.0962 15.7545 41.1841 15.7545H42.9359C43.0239 15.7545 43.0374 15.7132 42.963 15.665L35.9962 10.9964L44.9448 6.30035C45.026 6.25904 45.0192 6.22461 44.9245 6.22461V6.2315Z" fill="#FDB913"/>
<path d="M36.8704 0H8.07662C6.46682 0 5.34402 1.02598 5.08023 2.29984C4.93143 2.99531 5.19522 3.62191 5.7228 4.04194L16.0647 10.9966H16.0715L36.8839 0.0757434C36.9651 0.0344288 36.9583 0 36.8636 0H36.8704Z" fill="#EE3124"/>
<path d="M32.2975 21.9036L16.071 10.9966L2.8206 17.9512C2.11716 18.3781 1.59634 18.9978 1.44753 19.6933C1.17698 20.9603 1.87366 21.9931 3.48346 21.9931H32.2772C32.3719 21.9931 32.3787 21.9518 32.3043 21.9036H32.2975Z" fill="#EE3124"/>
</g>
<defs>
<clipPath id="clip0_6118_28301">
<rect width="45" height="22" fill="white"/>
</clipPath>
</defs>
</svg>
