<svg width="26" height="26" viewBox="0 0 26 26" fill="none" xmlns="http://www.w3.org/2000/svg">
<path d="M26 13C26 15.5703 25.238 18.083 23.8104 20.2204C22.3829 22.3578 20.3537 24.024 17.9794 25.0086C15.6052 25.9931 12.9923 26.2516 10.4711 25.7516C7.94989 25.2516 5.63348 24.0155 3.81462 22.1994C1.99575 20.3833 0.756062 18.0688 0.25222 15.5483C-0.251622 13.0279 0.00298318 10.4146 0.983886 8.03886C1.96479 5.66307 3.62795 3.63138 5.76318 2.20054C7.89841 0.769707 10.4099 0.00393026 12.9802 1.50829e-05C14.689 -0.00258789 16.3816 0.331744 17.9611 0.983889C19.5407 1.63603 20.9761 2.59321 22.1854 3.80063C23.3946 5.00805 24.354 6.44202 25.0085 8.02055C25.6631 9.59907 26 11.2912 26 13Z" fill="white"/>
<path d="M12.9838 25.3965C15.4359 25.3985 17.8335 24.6732 19.8734 23.3123C21.9132 21.9514 23.5036 20.016 24.4433 17.7511C25.383 15.4862 25.6299 12.9935 25.1528 10.5882C24.6756 8.183 23.4957 5.97333 21.7625 4.23872C20.0293 2.50411 17.8206 1.32252 15.4157 0.843413C13.0108 0.364307 10.5179 0.609195 8.25225 1.54713C5.98659 2.48507 4.05001 4.07389 2.68748 6.11262C1.32495 8.15135 0.597661 10.5484 0.59766 13.0005C0.596359 14.6279 0.915783 16.2396 1.53766 17.7435C2.15954 19.2474 3.07168 20.6141 4.22197 21.7653C5.37226 22.9165 6.73815 23.8297 8.24155 24.4528C9.74495 25.0758 11.3564 25.3965 12.9838 25.3965Z" fill="#0083CA"/>
<mask id="mask0_5823_28899" style="mask-type:luminance" maskUnits="userSpaceOnUse" x="0" y="0" width="26" height="26">
<path d="M12.9838 25.3958C15.4335 25.3958 17.8283 24.6694 19.8652 23.3084C21.9021 21.9474 23.4896 20.0129 24.4271 17.7496C25.3646 15.4864 25.6099 12.9959 25.1319 10.5933C24.654 8.19058 23.4744 5.98358 21.7421 4.25135C20.0099 2.51911 17.8029 1.33946 15.4002 0.861539C12.9975 0.383617 10.5071 0.628897 8.24382 1.56637C5.98055 2.50385 4.04612 4.09141 2.68512 6.1283C1.32411 8.16519 0.597656 10.5599 0.597656 13.0097C0.600278 16.2939 1.90609 19.4428 4.22837 21.7651C6.55065 24.0874 9.6996 25.3932 12.9838 25.3958Z" fill="white"/>
</mask>
<g mask="url(#mask0_5823_28899)">
<path d="M13.1157 18.9794C18.5712 18.9794 23.2246 20.5041 25.2345 22.6526C25.9024 21.0675 26.2394 19.3627 26.2246 17.6427C26.1307 14.2193 24.7047 10.9676 22.25 8.57939C19.7954 6.1912 16.5058 4.85498 13.0811 4.85498C9.65635 4.85498 6.36677 6.1912 3.91213 8.57939C1.45748 10.9676 0.0314693 14.2193 -0.0625 17.6427C-0.0546161 19.3462 0.299081 21.0304 0.977121 22.5932C3.01672 20.5041 7.6801 18.9794 13.1157 18.9794Z" fill="#0083CA"/>
<path d="M13.1191 18.9896C18.5547 18.9896 23.1983 20.5044 25.2082 22.6332C25.87 21.0671 26.2069 19.3828 26.1983 17.6827C26.1983 14.206 24.8172 10.8717 22.3588 8.41326C19.9004 5.95487 16.5661 4.57373 13.0894 4.57373C9.61267 4.57373 6.27837 5.95487 3.81997 8.41326C1.36157 10.8717 -0.0195312 14.206 -0.0195312 17.6827C-0.0180907 19.3869 0.335878 21.0723 1.02009 22.6332C3.07949 20.5044 7.69336 18.9896 13.1191 18.9896Z" fill="#0085CB"/>
<path d="M13.1174 19.0096C18.5332 19.0096 23.1768 20.5047 25.1669 22.6235C25.8371 21.06 26.1743 19.374 26.157 17.673C26.0632 14.2678 24.6447 11.0335 22.203 8.65808C19.7613 6.28268 16.4892 4.95361 13.0827 4.95361C9.67621 4.95361 6.40408 6.28268 3.96241 8.65808C1.52073 11.0335 0.102166 14.2678 0.00844924 17.673C-0.00889579 19.374 0.3283 21.06 0.998548 22.6235C3.07775 20.5047 7.70153 19.0096 13.1174 19.0096Z" fill="#0086CD"/>
<path d="M13.1127 19.0196C18.5187 19.0196 23.1424 20.5047 25.1325 22.6037C25.7955 21.0589 26.1326 19.3938 26.1226 17.7127C25.9913 14.3423 24.56 11.1536 22.1289 8.81552C19.6979 6.47739 16.456 5.17139 13.083 5.17139C9.71006 5.17139 6.46815 6.47739 4.03712 8.81552C1.60608 11.1536 0.174794 14.3423 0.043428 17.7127C0.0287513 19.391 0.366036 21.0538 1.03353 22.5938C3.07313 20.5047 7.7167 19.0196 13.1127 19.0196Z" fill="#0088CE"/>
<path d="M13.1221 19.0396C18.5082 19.0396 23.1221 20.505 25.1122 22.5941C25.7742 21.0628 26.1113 19.4108 26.1023 17.7426C25.971 14.38 24.543 11.1988 22.1175 8.86611C19.692 6.53343 16.4575 5.23047 13.0923 5.23047C9.72718 5.23047 6.49273 6.53343 4.06725 8.86611C1.64177 11.1988 0.213683 14.38 0.0824703 17.7426C0.0681252 19.4114 0.405483 21.0644 1.07257 22.5941C3.08247 20.505 7.73594 19.0396 13.1221 19.0396Z" fill="#008ACF"/>
<path d="M13.1098 19.0499C18.4959 19.0499 23.09 20.5054 25.0701 22.5747C25.7375 21.059 26.075 19.4188 26.0602 17.7628C26.0602 10.941 20.2484 5.32715 13.0801 5.32715C5.91176 5.32715 0.109772 10.941 0.109772 17.7727C0.0961397 19.4254 0.433616 21.0622 1.09987 22.5747C3.13947 20.5054 7.74344 19.0499 13.1098 19.0499Z" fill="#008CD0"/>
<path d="M13.1051 19.0593C18.4715 19.0593 23.0655 20.5147 25.0358 22.5543C25.6975 21.0543 26.0348 19.4314 26.0259 17.792C26.0259 11.0197 20.2239 5.43555 13.0754 5.43555C5.92693 5.43555 0.144753 11.0296 0.144753 17.792C0.134623 19.4315 0.472069 21.0546 1.13485 22.5543C3.15465 20.5147 7.74871 19.0593 13.1051 19.0593Z" fill="#008ED2"/>
<path d="M13.1057 19.0799C18.4621 19.0799 23.0067 20.5156 24.9869 22.5453C25.6496 21.056 25.9871 19.4426 25.977 17.8126C25.977 11.0997 20.1948 5.55518 13.1057 5.55518C6.01659 5.55518 0.234415 11.1096 0.234415 17.8225C0.230157 19.4487 0.56747 21.0577 1.22451 22.5453C3.18491 20.5156 7.76906 19.0799 13.1057 19.0799Z" fill="#008FD3"/>
<path d="M13.1057 19.0888C18.4423 19.0888 23.0067 20.5146 24.9869 22.5245C25.6494 21.0526 25.9871 19.4554 25.977 17.8413C25.977 11.1879 20.2047 5.66309 13.1057 5.66309C6.00669 5.66309 0.234416 11.1879 0.234416 17.8413C0.230086 19.4548 0.567523 21.0508 1.22451 22.5245C3.20471 20.5146 7.77897 19.0888 13.1057 19.0888Z" fill="#0091D4"/>
<path d="M13.1122 19.1091C18.4291 19.1091 23.0132 20.515 24.9439 22.515C25.6055 21.0534 25.9433 19.4659 25.934 17.8616C25.934 11.2675 20.1815 5.77246 13.0627 5.77246C5.94392 5.77246 0.191448 11.2675 0.191448 17.8616C0.187106 19.4654 0.524636 21.0518 1.18155 22.515C3.24095 20.515 7.79542 19.1091 13.1122 19.1091Z" fill="#0093D5"/>
<path d="M13.1091 19.1185C18.416 19.1185 22.9605 20.5145 24.911 22.4947C25.5677 21.0489 25.9054 19.4787 25.9011 17.8908C25.9011 11.3462 20.1585 5.88086 13.0892 5.88086C6.01993 5.88086 0.277385 11.3561 0.277385 17.8908C0.273065 19.4787 0.610752 21.0489 1.26748 22.4947C3.25758 20.5145 7.80212 19.1185 13.1091 19.1185Z" fill="#0095D7"/>
<path d="M13.0986 19.1288C18.3956 19.1288 22.9303 20.5149 24.8709 22.4753C25.5323 21.0451 25.8704 19.4867 25.861 17.911C25.861 11.4258 20.1382 6.02979 13.0788 6.02979C6.01942 6.02979 0.31644 11.4753 0.31644 17.911C0.312524 19.4861 0.650323 21.0434 1.30654 22.4753C3.28674 20.5149 7.82139 19.1288 13.0986 19.1288Z" fill="#0097D8"/>
<path d="M13.102 19.1482C18.3891 19.1482 22.904 20.5145 24.8446 22.465C25.5003 21.0469 25.8382 19.5026 25.8347 17.9403C25.8347 11.5145 20.1317 6.05908 13.0921 6.05908C6.05245 6.05908 0.359403 11.4749 0.359403 17.9403C0.355852 19.5026 0.693767 21.0469 1.3495 22.465C3.3099 20.5145 7.83464 19.1482 13.102 19.1482Z" fill="#0099D9"/>
<path d="M13.0996 19.1585C18.3669 19.1585 22.8719 20.5248 24.8125 22.4456C25.469 21.0418 25.8071 19.5102 25.8026 17.9605C25.8026 11.5941 20.1095 6.20801 13.0897 6.20801C6.06991 6.20801 0.386764 11.5941 0.386764 17.9605C0.382238 19.5102 0.720336 21.0418 1.37686 22.4456C3.33726 20.5248 7.8422 19.1585 13.0996 19.1585Z" fill="#009BDA"/>
<path d="M13.0972 19.1783C18.3448 19.1783 22.8497 20.5248 24.7705 22.4357C25.4259 21.042 25.764 19.5203 25.7606 17.9803C25.7606 11.6733 20.0873 6.31689 13.0873 6.31689C6.08733 6.31689 0.414074 11.6733 0.414074 17.9902C0.411792 19.5269 0.749923 21.0451 1.40417 22.4357C3.35467 20.5248 7.84971 19.1783 13.0972 19.1783Z" fill="#009DDC"/>
<path d="M13.1045 19.1876C18.3421 19.1876 22.8273 20.5243 24.7481 22.4154C25.4032 21.0392 25.7415 19.5336 25.7382 18.0094C25.7382 11.752 20.0748 6.42529 13.0946 6.42529C6.11438 6.42529 0.460938 11.7619 0.460938 18.0094C0.461881 19.5331 0.799997 21.0378 1.45104 22.4154C3.39163 20.5243 7.87676 19.1876 13.1045 19.1876Z" fill="#009FDD"/>
<path d="M13.1 19.198C18.3178 19.198 22.7931 20.5248 24.7139 22.396C25.3703 21.0344 25.7089 19.5414 25.704 18.0297C25.704 11.8416 20.0604 6.53467 13.1 6.53467C6.13964 6.53467 0.496094 11.8416 0.496094 18.0297C0.495958 19.5408 0.834271 21.0328 1.48619 22.396C3.40698 20.5248 7.88221 19.198 13.1 19.198Z" fill="#00A1DE"/>
<path d="M13.0899 19.2177C18.3077 19.2177 22.7631 20.5246 24.674 22.386C25.3272 21.0373 25.6658 19.5579 25.6641 18.0593C25.6641 11.9207 20.0305 6.65332 13.08 6.65332C6.12949 6.65332 0.515625 11.9207 0.515625 18.0593C0.517712 19.5574 0.856062 21.036 1.50572 22.386C3.42651 20.5246 7.89184 19.2177 13.0899 19.2177Z" fill="#00A3DF"/>
<path d="M13.0854 19.228C18.2834 19.228 22.729 20.525 24.6399 22.3666C25.2948 21.0326 25.6336 19.5656 25.63 18.0795C25.63 12.0003 20.0161 6.7627 13.0854 6.7627C6.15471 6.7627 0.550781 12.0003 0.550781 18.0795C0.552012 19.5651 0.890556 21.031 1.54088 22.3666C3.45177 20.525 7.90719 19.228 13.0854 19.228Z" fill="#00A5E1"/>
<path d="M13.0909 19.2473C18.2691 19.2473 22.7146 20.5246 24.6156 22.3562C25.265 21.0344 25.6037 19.5815 25.6057 18.1087C25.6057 12.079 20.0017 6.87109 13.0909 6.87109C6.17997 6.87109 0.585938 12.0889 0.585938 18.1087C0.587976 19.5815 0.926633 21.0344 1.57604 22.3562C3.47703 20.5246 7.92254 19.2473 13.0909 19.2473Z" fill="#00A7E2"/>
<path d="M13.0882 19.2577C18.2566 19.2577 22.6823 20.5349 24.5833 22.3369C25.2325 21.029 25.5713 19.5891 25.5734 18.129C25.5734 12.1884 19.9892 6.98047 13.0981 6.98047C6.20706 6.98047 0.632812 12.1686 0.632812 18.129C0.634917 19.5891 0.97373 21.029 1.62291 22.3369C3.5041 20.5844 7.92983 19.2577 13.0882 19.2577Z" fill="#00A9E3"/>
<path d="M13.0937 19.2666C18.2422 19.2666 22.6581 20.5339 24.5491 22.3161C25.1984 21.0259 25.5374 19.602 25.5392 18.1577C25.5392 12.2171 19.9749 7.08838 13.1036 7.08838C6.23232 7.08838 0.667969 12.2468 0.667969 18.1577C0.669803 19.602 1.00884 21.0259 1.65807 22.3161C3.52935 20.5834 7.94518 19.2666 13.0937 19.2666Z" fill="#00ABE5"/>
<path d="M13.0913 19.2868C18.2299 19.2868 22.626 20.5344 24.5171 22.3066C25.166 21.027 25.5051 19.6127 25.5072 18.1779C25.5072 12.3265 19.9527 7.19775 13.1012 7.19775C6.24976 7.19775 0.695312 12.3265 0.695312 18.1779C0.697378 19.6127 1.03652 21.027 1.68541 22.3066C3.5567 20.5839 7.96263 19.2868 13.0913 19.2868Z" fill="#00ADE6"/>
<path d="M13.077 19.297C18.2057 19.297 22.6017 20.5346 24.4829 22.2673C25.1275 21.0002 25.4666 19.5998 25.473 18.1782C25.473 12.3861 19.9384 7.28711 13.0968 7.28711C6.25521 7.28711 0.730469 12.396 0.730469 18.1782C0.73725 19.5998 1.07631 21.0001 1.72057 22.2673C3.57205 20.5841 7.96809 19.297 13.077 19.297Z" fill="#00AFE7"/>
<path d="M13.0767 19.3172C18.1955 19.3172 22.5718 20.535 24.4431 22.2875C25.0914 21.0395 25.4309 19.6543 25.4331 18.2479C25.4331 12.5153 19.9084 7.43604 13.0866 7.43604C6.26484 7.43604 0.75 12.5153 0.75 18.2479C0.756765 19.6537 1.09604 21.0379 1.7401 22.2875C3.60148 20.5845 8.02724 19.3172 13.0767 19.3172Z" fill="#00B2E9"/>
<path d="M13.078 19.3268C18.177 19.3268 22.5433 20.5347 24.4146 22.2971C25.0587 21.0582 25.3981 19.6835 25.4047 18.2872C25.4047 12.6139 19.8998 7.56445 13.0978 7.56445C6.29581 7.56445 0.800781 12.6139 0.800781 18.2872C0.807337 19.6835 1.14676 21.0582 1.79088 22.2971C3.62256 20.5843 8.02849 19.3268 13.078 19.3268Z" fill="#00B4EA"/>
<path d="M13.0795 19.3362C18.1587 19.3362 22.5152 20.5343 24.3865 22.2373C25.0291 21.0155 25.3686 19.6573 25.3765 18.2769C25.3765 12.6531 19.8815 7.6333 13.0993 7.6333C6.31716 7.6333 0.832031 12.6531 0.832031 18.2769C0.839959 19.6573 1.17953 21.0155 1.82213 22.2373C3.65381 20.5838 8.03004 19.3362 13.0795 19.3362Z" fill="#00B6EB"/>
<path d="M13.0733 19.3558C18.1426 19.3558 22.4792 20.5439 24.3406 22.2271C24.9926 21.009 25.3328 19.6483 25.3307 18.2667C25.3307 12.7024 19.8455 7.72217 13.0931 7.72217C6.3406 7.72217 0.855469 12.6727 0.855469 18.2667C0.858288 19.6477 1.19816 21.0072 1.84557 22.2271C3.66735 20.5835 8.02378 19.3558 13.0733 19.3558Z" fill="#00B8ED"/>
<path d="M13.0727 19.3658C18.1321 19.3658 22.4688 20.544 24.3203 22.2074C24.9627 21.0141 25.3027 19.6814 25.3104 18.3262C25.3104 12.8212 19.8351 7.86084 13.0925 7.86084C6.34995 7.86084 0.894531 12.8113 0.894531 18.3262C0.902242 19.6814 1.2422 21.0141 1.88463 22.2074C3.69651 20.5836 8.03313 19.3658 13.0727 19.3658Z" fill="#01BBEE"/>
<path d="M13.0662 19.3861C18.1157 19.3861 22.4326 20.5445 24.284 22.188C24.9263 21.0089 25.2664 19.6891 25.2741 18.3464C25.2741 12.9009 19.8187 7.97021 13.0959 7.97021C6.37314 7.97021 0.9375 12.9207 0.9375 18.3464C0.945199 19.6891 1.28536 21.0089 1.9276 22.188C3.71968 20.5841 8.02661 19.3861 13.0662 19.3861Z" fill="#11BDF0"/>
<path d="M13.0717 19.3954C18.1014 19.3954 22.4083 20.5439 24.2499 22.1776C24.8908 21.0123 25.2311 19.7056 25.24 18.3756C25.24 12.9796 19.8043 8.07861 13.1014 8.07861C6.3984 8.07861 0.972656 12.9796 0.972656 18.3658C0.980302 19.699 1.32062 21.0092 1.96275 22.1776C3.74493 20.5835 8.03206 19.3954 13.0717 19.3954Z" fill="#1AC0F1"/>
<path d="M13.0732 19.4058C18.0831 19.4058 22.3801 20.5444 24.2217 22.1583C24.8626 21.0072 25.2031 19.7133 25.2118 18.3959C25.2118 13.0593 19.7861 8.18799 13.1029 8.18799C6.41975 8.18799 1.00391 13.0593 1.00391 18.3959C1.01137 19.7135 1.35197 21.0077 1.994 22.1583C3.77618 20.584 8.03361 19.4058 13.0732 19.4058Z" fill="#1FC4F4"/>
<path d="M13.069 19.446C18.0789 19.446 22.366 20.5747 24.1977 22.1787C24.8385 21.0348 25.1792 19.7472 25.1878 18.4361C25.1878 13.1391 19.772 8.2876 13.0987 8.2876C6.42545 8.2876 1.01953 13.1391 1.01953 18.4361C1.03492 19.7463 1.37512 21.0323 2.00963 22.1787C3.78191 20.5846 8.02941 19.446 13.069 19.446Z" fill="#32C5F4"/>
<path d="M13.0669 19.4753C18.0669 19.4753 22.3541 20.5941 24.1858 22.1882C24.8218 21.0531 25.1622 19.7764 25.1759 18.4753C25.1759 13.208 19.7699 8.38623 13.0966 8.38623C6.42338 8.38623 1.02734 13.208 1.02734 18.4753C1.04099 19.7764 1.38145 21.0531 2.01744 22.1882C3.78972 20.5842 8.07685 19.4753 13.0669 19.4753Z" fill="#3FC7F4"/>
<path d="M13.0667 19.5045C18.0171 19.5045 22.3439 20.6134 24.1657 22.1976C24.8057 21.0749 25.1466 19.8067 25.1558 18.5144C25.1558 13.2768 19.7597 8.49463 13.0964 8.49463C6.43299 8.49463 1.04688 13.2768 1.04688 18.5144C1.06039 19.8061 1.40102 21.0733 2.03697 22.1976C3.80925 20.5837 8.08646 19.5045 13.0667 19.5045Z" fill="#4AC8F5"/>
<path d="M13.0721 19.5348C18.0226 19.5348 22.3295 20.6437 24.1612 22.218C24.796 21.1003 25.1366 19.8399 25.1513 18.5546C25.1513 13.3566 19.7652 8.59424 13.1117 8.59424C6.45826 8.59424 1.08203 13.3566 1.08203 18.5447C1.09549 19.8333 1.43618 21.0972 2.07213 22.218C3.8246 20.6437 8.10181 19.5348 13.0721 19.5348Z" fill="#54CAF5"/>
<path d="M13.0718 19.5936C18.0223 19.5936 22.3194 20.6926 24.1411 22.2569C24.7813 21.1487 25.1224 19.8932 25.1312 18.6134C25.1312 13.455 19.7451 8.7124 13.1016 8.7124C6.45799 8.7124 1.10156 13.4253 1.10156 18.6035C1.11959 19.882 1.46015 21.1352 2.09166 22.247C3.83423 20.6629 8.10156 19.5936 13.0718 19.5936Z" fill="#5CCCF5"/>
<path d="M13.0718 19.5945C18.0223 19.5945 22.3095 20.6935 24.1313 22.2479C24.7656 21.1445 25.1065 19.8968 25.1214 18.6242C25.1214 13.4954 19.7451 8.79248 13.1115 8.79248C6.4778 8.79248 1.10156 13.4955 1.10156 18.6044C1.11644 19.8771 1.45732 21.1247 2.09166 22.2281C3.84414 20.6935 8.11146 19.5945 13.0718 19.5945Z" fill="#64CDF6"/>
<path d="M13.0695 19.5936C18.02 19.5936 22.2972 20.6729 24.1091 22.2174C24.7435 21.1248 25.0846 19.8867 25.0992 18.6233C25.0992 13.5342 19.7329 8.85107 13.1091 8.85107C6.48534 8.85107 1.12891 13.5342 1.12891 18.6233C1.13154 19.8819 1.4553 21.1189 2.06951 22.2174C3.85169 20.7125 8.119 19.5936 13.0695 19.5936Z" fill="#6CCFF6"/>
<path d="M13.0718 19.6634C18.0223 19.6634 22.2798 20.7426 24.1016 22.2673C24.7356 21.1854 25.0769 19.9569 25.0917 18.703C25.0917 13.6436 19.7253 9 13.1115 9C6.4976 9 1.10156 13.6535 1.10156 18.703C1.11498 19.9571 1.45632 21.186 2.09166 22.2673C3.87384 20.7426 8.12136 19.6634 13.0718 19.6634Z" fill="#73D1F6"/>
<path d="M13.0718 19.6932C18.0223 19.6932 22.2699 20.7625 24.0817 22.2872C24.7155 21.2124 25.0568 19.9904 25.0718 18.7427C25.0718 13.713 19.7154 9.09912 13.1115 9.09912C6.5075 9.09912 1.10156 13.713 1.10156 18.7427C1.11659 19.9904 1.45793 21.2124 2.09166 22.2872C3.88374 20.7625 8.13126 19.6932 13.0718 19.6932Z" fill="#7AD2F7"/>
<path d="M13.0726 19.7235C18.0231 19.7235 22.2607 20.7928 24.0726 22.2977C24.6849 21.2272 25.009 20.0161 25.0132 18.7829C25.0132 13.8324 19.6666 9.19873 13.0726 9.19873C6.47853 9.19873 1.19141 13.7928 1.19141 18.7829C1.19563 20.0161 1.51973 21.2272 2.13201 22.2977C3.89439 20.7928 8.1419 19.7235 13.0726 19.7235Z" fill="#81D4F7"/>
<path d="M13.0681 19.7518C18.0186 19.7518 22.2463 20.8112 24.0483 22.3063C24.6815 21.2529 25.0232 20.0501 25.0384 18.8211C25.0384 13.8706 19.6919 9.29639 13.1077 9.29639C6.52359 9.29639 1.22656 13.8607 1.22656 18.8112C1.24155 20.0464 1.58315 21.2557 2.21666 22.3162C3.89983 20.8112 8.13744 19.7518 13.0681 19.7518Z" fill="#88D6F8"/>
<path d="M13.0702 19.792C18.0207 19.792 22.2287 20.8415 24.0405 22.3267C24.6526 21.2704 24.9769 20.0722 24.9811 18.8514C24.9811 13.9009 19.6445 9.396 13.0999 9.396C6.55538 9.396 1.21875 13.9306 1.21875 18.8514C1.223 20.0722 1.54733 21.2704 2.15936 22.3267C3.92173 20.8415 8.14944 19.792 13.0702 19.792Z" fill="#8ED8F8"/>
<path d="M13.0679 19.8222C18.0184 19.8222 22.2164 20.8123 24.0184 22.337C24.6475 21.2964 24.9891 20.1074 25.0085 18.8915C25.0085 14.0103 19.6817 9.50537 13.1273 9.50537C6.57282 9.50537 1.24609 14.0103 1.24609 18.8915C1.26063 20.1081 1.60264 21.2983 2.23619 22.337C3.92926 20.8618 8.15698 19.8222 13.0679 19.8222Z" fill="#94DAF8"/>
<path d="M13.0726 19.851C18.0231 19.851 22.2112 20.8411 23.9637 22.356C24.5952 21.3236 24.9372 20.1403 24.9538 18.9302C24.9538 14.0787 19.627 9.60352 13.0726 9.60352C6.51814 9.60352 1.19141 14.0787 1.19141 18.9302C1.19736 20.1351 1.52187 21.317 2.13201 22.356C3.94389 20.8807 8.1617 19.851 13.0726 19.851Z" fill="#9BDCF9"/>
<path d="M13.0674 19.8808C18.0179 19.8808 22.1961 20.8709 23.9585 22.366C24.5684 21.3377 24.8931 20.1655 24.8991 18.9699C24.8991 14.1482 19.5823 9.70264 13.0179 9.70264C6.45355 9.70264 1.13672 14.1581 1.13672 18.9699C1.14271 20.1655 1.46738 21.3377 2.07729 22.366C3.94858 20.9105 8.16641 19.8808 13.0674 19.8808Z" fill="#A1DDF9"/>
<path d="M13.0674 19.9107C18.0179 19.9107 22.1763 20.9008 23.9585 22.376C24.5682 21.3586 24.8931 20.1958 24.8991 19.0097C24.8991 14.2275 19.5922 9.80176 13.0179 9.80176C6.44365 9.80176 1.13672 14.2275 1.13672 19.0097C1.14384 20.1988 1.46855 21.3644 2.07729 22.3859C3.96838 20.9305 8.17631 19.9107 13.0674 19.9107Z" fill="#A7DFF9"/>
<path d="M13.0679 19.9405C18.0184 19.9405 22.1669 20.9306 23.959 22.3959C24.5849 21.3902 24.927 20.2338 24.9491 19.0494C24.9491 14.2969 19.652 9.90088 13.0679 9.90088C6.48372 9.90088 1.24609 14.2969 1.24609 19.0494C1.26713 20.234 1.60933 21.3906 2.23619 22.3959C3.97877 20.9603 8.17679 19.9504 13.0679 19.9405Z" fill="#ADE1FA"/>
<path d="M13.0712 19.9796C17.9623 19.9796 22.1603 20.9697 23.9623 22.4053C24.5717 21.4058 24.8969 20.259 24.9029 19.0885C24.9029 14.3657 19.6158 10.0093 13.091 10.0093C6.56627 10.0093 1.28906 14.3756 1.28906 19.0786C1.29032 20.2516 1.61215 21.4019 2.21976 22.4053C3.99203 20.9796 8.19004 19.9796 13.0712 19.9796Z" fill="#B3E3FA"/>
<path d="M13.071 20.0099C17.9522 20.0099 22.1502 21 23.9621 22.4158C24.5678 21.4262 24.8898 20.289 24.8927 19.1287C24.8927 14.4455 19.6155 10.1089 13.1007 10.1089C6.58582 10.1089 1.30859 14.4455 1.30859 19.1188C1.31493 20.2862 1.64019 21.4297 2.2492 22.4257C4.00167 21.0098 8.19968 20.0099 13.071 20.0099Z" fill="#B8E5FA"/>
<path d="M13.0665 20.0396C17.9477 20.0396 22.1259 21.0297 23.9576 22.4357C24.5665 21.4505 24.892 20.3166 24.8982 19.1584C24.8982 14.5149 19.621 10.2476 13.116 10.2476C6.61109 10.2476 1.34375 14.5545 1.34375 19.1584C1.3515 20.315 1.67318 21.4477 2.27444 22.4357C4.06652 21.0297 8.19523 20.0396 13.0665 20.0396Z" fill="#BEE7FB"/>
<path d="M13.0689 20.0688C17.9402 20.0688 22.1184 21.0589 23.9006 22.445C24.5017 21.4679 24.8236 20.3447 24.8312 19.1975C24.8312 14.5836 19.5639 10.2866 13.0689 10.2866C6.57382 10.2866 1.31641 14.5737 1.31641 19.1975C1.31943 20.3454 1.64167 21.4698 2.2471 22.445C4.06888 21.0589 8.20749 20.0688 13.0689 20.0688Z" fill="#C4E9FB"/>
<path d="M13.0668 20.0993C17.9282 20.0993 22.1064 21.0894 23.8787 22.4656C24.483 21.4972 24.8053 20.3795 24.8094 19.2379C24.8094 14.6637 19.5519 10.4062 13.0668 10.4062C6.58163 10.4062 1.32422 14.6637 1.32422 19.2379C1.33345 20.3787 1.65536 21.4951 2.25491 22.4656C4.06679 21.0795 8.21529 20.1092 13.0668 20.0993Z" fill="#CAEBFC"/>
<path d="M13.0665 20.138C17.9279 20.138 22.0962 21.1281 23.8685 22.4747C24.468 21.515 24.7901 20.4081 24.7992 19.2767C24.7992 14.7321 19.5418 10.5044 13.0665 10.5044C6.59127 10.5044 1.34375 14.7321 1.34375 19.2767C1.35281 20.4081 1.67494 21.515 2.27444 22.4747C4.06652 21.1083 8.21503 20.138 13.0665 20.138Z" fill="#CFEDFC"/>
<path d="M13.0663 20.1682C17.9177 20.1682 22.0762 21.1583 23.8484 22.4851C24.4475 21.5361 24.7698 20.4389 24.7791 19.3167C24.7791 14.8019 19.5316 10.6138 13.0663 10.6138C6.60091 10.6138 1.36328 14.8118 1.36328 19.3167C1.37044 20.4409 1.68921 21.5411 2.2841 22.495C4.06627 21.1286 8.22467 20.1682 13.0663 20.1682Z" fill="#D5EFFC"/>
<path d="M13.072 20.198C17.9135 20.198 22.072 21.1881 23.8442 22.505C24.4406 21.5627 24.7597 20.4716 24.765 19.3565C24.765 14.8812 19.5274 10.7129 13.072 10.7129C6.61652 10.7129 1.37891 14.8812 1.37891 19.3565C1.3872 20.4726 1.70976 21.5637 2.3096 22.505C4.07198 21.1485 8.24029 20.198 13.072 20.198Z" fill="#DAF1FD"/>
<path d="M13.0717 20.2279C17.9133 20.2279 22.0618 21.218 23.8242 22.515C24.4226 21.5841 24.7453 20.5028 24.7549 19.3961C24.7549 14.9506 19.5172 10.812 13.0717 10.812C6.62617 10.812 1.39844 14.9506 1.39844 19.3863C1.4032 20.4953 1.72251 21.5802 2.31925 22.515C4.07173 21.1784 8.24993 20.2279 13.0717 20.2279Z" fill="#E0F3FD"/>
<path d="M13.0714 20.2572C17.9031 20.2572 22.0417 21.1978 23.814 22.5344C24.4033 21.6035 24.7221 20.5271 24.7348 19.4255C24.7348 15.0294 19.5071 10.9106 13.0714 10.9106C6.63578 10.9106 1.41797 15.0294 1.41797 19.4255C1.4243 20.5281 1.74361 21.6062 2.33875 22.5344C4.07143 21.1978 8.24964 20.2671 13.0714 20.2572Z" fill="#E6F5FD"/>
<path d="M13.0693 20.2964C17.8911 20.2964 22.0298 21.2271 23.7921 22.544C24.3869 21.6266 24.7064 20.558 24.7129 19.4647C24.7129 15.0984 19.4951 11.0093 13.0693 11.0093C6.64361 11.0093 1.42578 15.0984 1.42578 19.4647C1.43664 20.5574 1.75584 21.6247 2.3466 22.544C4.11887 21.2271 8.25747 20.2964 13.0693 20.2964Z" fill="#EBF7FE"/>
<path d="M13.0652 20.3266C17.8869 20.3266 21.976 21.2473 23.7681 22.5543C24.3655 21.6486 24.6887 20.5897 24.6988 19.5048C24.6988 15.1682 19.481 11.1187 13.0652 11.1187C6.64931 11.1187 1.44141 15.1682 1.44141 19.5048C1.44891 20.5917 1.76851 21.6537 2.36219 22.5642C4.12457 21.2474 8.26318 20.3266 13.0652 20.3266Z" fill="#F1FAFE"/>
<path d="M13.0688 20.3569C17.8807 20.3569 21.9797 21.2777 23.7619 22.5747C24.3506 21.6729 24.6701 20.6219 24.6827 19.545C24.6827 15.248 19.4747 11.2183 13.0688 11.2183C6.66286 11.2183 1.46484 15.248 1.46484 19.545C1.47396 20.621 1.78998 21.6721 2.37575 22.5747C4.13812 21.2777 8.26682 20.3569 13.0688 20.3569Z" fill="#F7FCFE"/>
<path d="M13.0745 20.3863C17.8765 20.3863 21.9854 21.2971 23.7478 22.5843C24.3348 21.7037 24.6546 20.6722 24.6686 19.614C24.6686 15.3467 19.4705 11.3467 13.0745 11.3467C6.67848 11.3467 1.48047 15.307 1.48047 19.614C1.49443 20.6722 1.81421 21.7037 2.40125 22.5843C4.15373 21.2971 8.28244 20.3863 13.0745 20.3863Z" fill="white"/>
</g>
<path d="M12.977 16.1282C9.12077 16.094 5.2891 16.7443 1.66016 18.049C2.6337 20.2374 4.22085 22.0966 6.22942 23.4014C8.23799 24.7063 10.5818 25.4007 12.977 25.4007C15.3722 25.4007 17.716 24.7063 19.7245 23.4014C21.7331 22.0966 23.3203 20.2374 24.2938 18.049C20.6649 16.7443 16.8332 16.094 12.977 16.1282Z" fill="#0083CA"/>
</svg>
