<svg width="16" height="25" viewBox="0 0 16 25" fill="none" xmlns="http://www.w3.org/2000/svg">
<path d="M12.6215 5.16846C11.7134 5.16846 8.68359 7.39511 8.68359 7.39511C8.68359 7.39511 11.7134 9.62254 12.6215 9.62254C13.8872 9.62254 14.9423 8.76652 14.9423 7.39511C14.9423 6.02371 13.8872 5.16846 12.6215 5.16846Z" fill="#38D200"/>
<path d="M2.3204 25C3.2285 25 6.25833 22.7733 6.25833 22.7733C6.25833 22.7733 3.2312 20.5459 2.3204 20.5459C1.05469 20.5459 0 21.4019 0 22.7733C0 24.1447 1.05662 25 2.3204 25Z" fill="#0473EA"/>
<path d="M13.4114 12.6553L5.5687 7.44159L10.1007 4.26787C11.1473 3.53491 11.4725 2.08789 10.7565 1.02742C10.4135 0.51641 9.88162 0.162564 9.27777 0.0437031C8.67391 -0.0751576 8.04757 0.0507007 7.53651 0.393597L7.50025 0.418287L2.0856 4.2455C1.5745 4.60656 1.15911 5.08677 0.875415 5.64454C0.591716 6.20231 0.448252 6.82083 0.457447 7.44653C0.466642 8.07224 0.628219 8.68627 0.928185 9.23546C1.22815 9.78465 1.65747 10.2524 2.17895 10.5983L14.4364 18.7222C15.8301 16.5758 15.5601 14.0494 13.4114 12.6553Z" fill="#0473EA"/>
<path d="M0.880057 11.9507L14.397 20.6409C14.9135 20.9736 15.2767 21.4977 15.4069 22.0981C15.5371 22.6985 15.4236 23.326 15.0914 23.8428C14.7587 24.3592 14.2346 24.7225 13.6342 24.8527C13.0338 24.9829 12.4063 24.8694 11.8895 24.5372L2.2723 18.3556C1.23871 17.6908 0.51143 16.6428 0.250353 15.442C-0.0107232 14.2411 0.215778 12.9857 0.880057 11.9518V11.9507Z" fill="#38D200"/>
</svg>
