<svg width="27" height="24" viewBox="0 0 27 24" fill="none" xmlns="http://www.w3.org/2000/svg">
<path d="M17.2725 14.2354C17.214 13.8731 17.1104 13.5194 16.964 13.1828C16.5456 12.1752 15.8165 11.3275 14.8829 10.763C14.1511 10.3235 13.3125 10.0939 12.4589 10.0992C11.6052 10.1045 10.7695 10.3446 10.0433 10.7932C9.36758 11.1993 8.81865 11.786 8.45829 12.4871C8.33929 12.7266 8.24015 12.9755 8.16186 13.2312C7.94038 13.896 7.85516 14.5986 7.91129 15.2971C7.96741 15.9956 8.16374 16.6756 8.48854 17.2965C8.71152 17.678 9.05376 17.9756 9.46252 18.1435C9.66515 18.2272 9.88463 18.262 10.1032 18.2452C10.3218 18.2284 10.5334 18.1604 10.7208 18.0467C10.9301 17.8848 11.0867 17.6644 11.1707 17.4135C11.2547 17.1626 11.2624 16.8924 11.1927 16.6371C11.0276 15.9898 11.0443 15.3094 11.2411 14.671C11.314 14.4625 11.4317 14.2726 11.5859 14.1144C11.6837 14.0204 11.7961 13.9427 11.9186 13.8846C12.1761 13.7539 12.4681 13.7074 12.7535 13.7515C12.9974 13.8044 13.2253 13.9142 13.4187 14.0719C13.6121 14.2296 13.7656 14.4307 13.8666 14.6589C14.064 15.1197 14.1669 15.6155 14.1691 16.1169C14.177 18.325 13.8507 20.5217 13.2012 22.6322C13.1467 22.85 13.0862 23.0618 13.0257 23.2735C12.9652 23.4852 12.8926 23.6486 13.0257 23.8119C13.0759 23.8769 13.1428 23.9271 13.2193 23.9571C13.546 24.0902 13.8243 23.8905 14.0239 23.6728C15.2562 22.3557 16.1635 20.7688 16.6736 19.0388C16.8854 18.4033 17.0552 17.7546 17.1818 17.0969C17.3783 16.1496 17.411 15.1756 17.2786 14.2173" fill="#008485"/>
<path d="M26.4017 4.18734C26.3987 4.11205 26.3805 4.03816 26.3481 3.97013C26.3157 3.9021 26.2698 3.84135 26.2133 3.79158C26.1567 3.7418 26.0906 3.70403 26.019 3.68055C25.9474 3.65707 25.8718 3.64837 25.7967 3.65498C25.4847 3.69978 25.1821 3.79586 24.9014 3.93931C19.2935 6.06876 12.9717 6.47408 7.06122 5.62109C6.05095 5.4759 5.02857 5.27626 4.03644 5.11293C3.43148 5.01613 2.77208 4.87095 2.13082 4.82255C1.55374 4.71086 0.955814 4.82568 0.461146 5.14318C0.205715 5.42182 0.0471133 5.77552 0.00896069 6.1516C-0.0291919 6.52767 0.0551461 6.90601 0.249412 7.23028C0.682364 7.97018 1.31013 8.57703 2.06428 8.98466C2.7608 9.48088 3.58719 9.76265 4.44176 9.7953C6.69825 9.65616 8.95474 9.43232 11.1991 9.14194C15.0285 8.64588 19.0636 8.17401 22.6328 6.69186C23.8276 6.22079 24.953 5.58993 25.9782 4.8165C26.1597 4.67736 26.4259 4.44748 26.4259 4.21155" fill="#008485"/>
<path d="M10.3164 2.26425C10.346 2.82909 10.5912 3.36105 11.0015 3.7504C11.4118 4.13975 11.9559 4.3568 12.5215 4.3568C13.0871 4.3568 13.6311 4.13975 14.0414 3.7504C14.4517 3.36105 14.6969 2.82909 14.7265 2.26425C14.7283 2.0824 14.689 1.9025 14.6116 1.73793C14.4241 1.33261 14.2063 1.13297 14.2305 0.661106C14.2305 0.0138021 13.4259 0.00170518 12.9782 0.00170518C12.4803 -0.0144931 11.9854 0.0848967 11.5324 0.292082C11.1757 0.473477 10.8748 0.74815 10.6618 1.08689C10.4487 1.42563 10.3315 1.81578 10.3225 2.21585V2.26425" fill="#E90061"/>
</svg>
