<svg width="86" height="12" viewBox="0 0 86 12" fill="none" xmlns="http://www.w3.org/2000/svg">
<g clip-path="url(#clip0_5811_28481)">
<path d="M61.3429 0.248206H59.6722V6.2461H60.6372C60.7309 6.25187 60.8247 6.23797 60.9125 6.20533C61.0004 6.17268 61.0802 6.12202 61.1469 6.05668C61.2135 5.99134 61.2654 5.91279 61.2992 5.82619C61.333 5.73959 61.3479 5.64689 61.3429 5.5542V3.71824H62.8968V2.2461H61.3429V0.248206ZM63.5834 7.43643H74.8622V6.14095H63.5834V7.43643ZM67.2098 10.2545V8.34074H65.3732V10.6099C65.3732 11.2408 65.7877 11.7687 66.8399 11.7687H73.642V10.4732H67.4521C67.4216 10.4749 67.3911 10.4706 67.3623 10.4605C67.3335 10.4503 67.307 10.4346 67.2845 10.4143C67.2619 10.3939 67.2437 10.3693 67.2309 10.3418C67.218 10.3144 67.2109 10.2847 67.2098 10.2545ZM47.7855 1.57523H45.9532V2.83706H47.7834V3.92644H45.9532V5.17565H47.7834V6.43748H48.7505C48.844 6.44359 48.9377 6.42998 49.0254 6.39757C49.1131 6.36515 49.1929 6.31465 49.2594 6.24943C49.326 6.18421 49.3777 6.10576 49.4113 6.01926C49.4448 5.93276 49.4594 5.84019 49.4541 5.74768V0.248206H47.7834L47.7855 1.57523ZM45.7789 6.58049C43.9019 6.58049 42.3778 7.78763 42.3778 9.29342C42.3778 10.7992 43.9104 12.0021 45.7789 12.0063C47.6473 12.0106 49.1799 10.7992 49.1799 9.29342C49.1799 7.78763 47.6537 6.58049 45.7789 6.58049ZM45.7789 10.6814C44.8584 10.6814 44.1208 10.0505 44.1208 9.29342C44.1208 8.53632 44.8584 7.9033 45.7789 7.9033C46.6993 7.9033 47.4305 8.53422 47.4326 9.29342C47.4347 10.0526 46.695 10.6751 45.7789 10.6751V10.6814ZM69.227 5.31866C71.1401 5.31866 72.6919 4.13884 72.694 2.6604C72.6961 1.18195 71.1316 0.00845351 69.227 0.00635046C67.3224 0.00424741 65.7601 1.18616 65.7558 2.6604C65.7516 4.13464 67.3182 5.31866 69.227 5.31866ZM69.227 1.2808C70.2027 1.2808 70.9807 1.91171 70.9828 2.6604C70.9849 3.40908 70.2027 4.04 69.227 4.04C68.2513 4.04 67.4691 3.40908 67.4691 2.6604C67.4691 1.91171 68.2492 1.27659 69.227 1.27449V1.2808ZM45.7406 0.691947V0.633062H39.7887V1.90961H43.7722C43.4279 3.51003 41.5743 4.82444 39.5613 5.34179L39.5039 5.35651L39.8164 6.4501H39.8738C42.8837 5.82759 45.6237 4.1052 45.7406 0.691947ZM53.7692 10.6183C53.7692 11.2493 54.1816 11.7771 55.238 11.7771H59.8869C60.9497 11.7771 61.3515 11.2535 61.3515 10.6183V7.14831H53.7607L53.7692 10.6183ZM55.5505 8.43538H59.5893V10.2629C59.5849 10.3213 59.558 10.3758 59.514 10.415C59.47 10.4541 59.4125 10.475 59.3533 10.4732H55.778C55.7188 10.475 55.6613 10.4541 55.6173 10.415C55.5733 10.3758 55.5464 10.3213 55.542 10.2629L55.5505 8.43538ZM58.6221 5.26188L58.6497 5.24715V4.05683L58.5562 4.11151C58.1523 4.35756 57.5571 4.44379 56.7877 4.44379H54.0944C54.0643 4.44463 54.0343 4.43958 54.0061 4.42894C53.9779 4.41829 53.9521 4.40226 53.9302 4.38175C53.9083 4.36124 53.8907 4.33666 53.8784 4.30942C53.8661 4.28217 53.8593 4.2528 53.8585 4.22297V0.624647H51.9454V4.56997C51.9454 5.20089 52.3705 5.72875 53.4121 5.72875H56.5305C57.3871 5.73927 58.046 5.59205 58.6136 5.25346L58.6221 5.26188ZM81.2944 4.2482C81.2964 3.89273 81.214 3.54176 81.0537 3.22358C80.8935 2.90541 80.6599 2.62894 80.3719 2.41645H81.4156V1.25767H79.5025V0.25241H77.7169V1.25767H75.7868V2.41645H76.8496C76.5611 2.6286 76.327 2.90495 76.1664 3.22317C76.0058 3.54138 75.9231 3.89252 75.925 4.2482C75.925 5.56261 77.1005 6.62255 78.6097 6.62255C80.1189 6.62255 81.2859 5.5542 81.2859 4.23979L81.2944 4.2482ZM78.6118 5.47849C78.3587 5.48266 78.1101 5.41222 77.8976 5.27613C77.685 5.14004 77.5183 4.94446 77.4185 4.71429C77.3187 4.48412 77.2904 4.22977 77.3371 3.98363C77.3839 3.73749 77.5037 3.51069 77.6812 3.33211C77.8587 3.15353 78.0859 3.03125 78.3338 2.98084C78.5818 2.93042 78.8393 2.95415 79.0736 3.049C79.3079 3.14386 79.5083 3.30555 79.6495 3.51348C79.7906 3.72142 79.8659 3.96621 79.866 4.21666C79.8719 4.38248 79.8433 4.54772 79.782 4.70216C79.7207 4.8566 79.6279 4.99693 79.5096 5.11445C79.3912 5.23198 79.2496 5.32418 79.0938 5.38535C78.9379 5.44653 78.7709 5.47536 78.6033 5.47008L78.6118 5.47849ZM84.4234 0.25241V2.44799H83.6454V0.243996H82.0618V6.13253H82.9652C83.0556 6.13867 83.1462 6.12568 83.2311 6.09443C83.316 6.06318 83.3932 6.01439 83.4576 5.95132C83.5219 5.88824 83.572 5.81232 83.6044 5.72862C83.6367 5.64491 83.6507 5.55534 83.6454 5.46587V3.84652H84.4234V6.14095H85.3268C85.4172 6.14708 85.5078 6.13409 85.5927 6.10284C85.6776 6.07159 85.7548 6.02281 85.8192 5.95973C85.8836 5.89665 85.9336 5.82074 85.966 5.73703C85.9984 5.65333 86.0123 5.56375 86.007 5.47428V0.243996L84.4234 0.25241ZM82.4359 6.63517C80.5632 6.63517 79.0348 7.8318 79.0348 9.32286C79.0348 10.8139 80.5674 12.0042 82.4359 12.0085C84.3043 12.0127 85.8369 10.8139 85.8369 9.32286C85.8369 7.8318 84.3043 6.63096 82.4274 6.62675L82.4359 6.63517ZM82.4359 10.7151C81.507 10.7151 80.763 10.0842 80.7609 9.32286C80.7587 8.56156 81.507 7.92854 82.4359 7.92854C83.3648 7.92854 84.113 8.55946 84.1173 9.32286C84.1215 10.0863 83.3648 10.7067 82.4274 10.7067L82.4359 10.7151Z" fill="#655C4F"/>
<path d="M34.4924 2.61811H35.4384C35.4682 2.61811 35.4969 2.60637 35.518 2.58546C35.5392 2.56456 35.551 2.53621 35.551 2.50665V0.742189C35.551 0.727649 35.5481 0.713256 35.5424 0.699849C35.5367 0.686442 35.5284 0.67429 35.5179 0.664108C35.5074 0.653925 35.495 0.645918 35.4813 0.640547C35.4677 0.635177 35.4531 0.632553 35.4384 0.632833H34.1098C32.573 0.632833 31.7588 1.11864 31.2933 2.15123L28.4046 9.15229C28.3464 9.34522 28.2225 9.51227 28.054 9.625C27.8854 9.73773 27.6825 9.78918 27.4799 9.77059V0.742189C27.4799 0.727649 27.477 0.713256 27.4713 0.699849C27.4656 0.686442 27.4573 0.67429 27.4468 0.664108C27.4363 0.653925 27.4238 0.645918 27.4102 0.640547C27.3965 0.635177 27.3819 0.632553 27.3672 0.632833H25.2416C25.2269 0.632553 25.2123 0.635177 25.1986 0.640547C25.185 0.645918 25.1725 0.653925 25.162 0.664108C25.1515 0.67429 25.1432 0.686442 25.1375 0.699849C25.1318 0.713256 25.1289 0.727649 25.1289 0.742189V11.5624C25.1295 11.6139 25.1505 11.6631 25.1876 11.6993C25.2246 11.7355 25.2745 11.7559 25.3266 11.7559H27.7095C29.2442 11.7559 29.9478 11.2701 30.4112 10.2375L33.2638 3.32263C33.4934 2.83262 33.8229 2.61811 34.4924 2.61811Z" fill="#D7191F"/>
<path d="M8.54305 6.19538C9.39332 5.84417 10.099 5.05552 10.099 3.75163C10.099 1.81052 8.41551 0.632812 6.38551 0.632812H0.110556C0.0812402 0.632812 0.0531247 0.644336 0.0323955 0.664845C0.0116662 0.685353 2.04433e-05 0.713165 2.04433e-05 0.742169V2.50663C-0.000262176 2.52117 0.002388 2.53561 0.0078162 2.54912C0.0132444 2.56264 0.0213425 2.57494 0.0316349 2.58532C0.0419272 2.5957 0.0542082 2.60394 0.0677593 2.60957C0.0813105 2.6152 0.0958595 2.61809 0.110556 2.61809H5.95187C6.89354 2.61809 7.53124 3.18802 7.53124 3.87992C7.53124 4.57182 6.89354 5.15226 5.95187 5.15226H2.48067V3.84627C2.48096 3.83156 2.47824 3.81694 2.47268 3.80328C2.46712 3.78963 2.45883 3.77722 2.44831 3.76682C2.43779 3.75641 2.42526 3.74821 2.41146 3.74271C2.39766 3.73721 2.38288 3.73452 2.36801 3.73481H0.110556C0.0958595 3.73481 0.0813105 3.73771 0.0677593 3.74333C0.0542082 3.74896 0.0419272 3.7572 0.0316349 3.76758C0.0213425 3.77796 0.0132444 3.79027 0.0078162 3.80378C0.002388 3.81729 -0.000262176 3.83173 2.04433e-05 3.84627V11.6423C2.04433e-05 11.6713 0.0116662 11.6991 0.0323955 11.7196C0.0531247 11.7401 0.0812402 11.7516 0.110556 11.7516H6.29623C8.60895 11.7516 10.2648 10.6854 10.2648 8.50873C10.2696 7.99072 10.1043 7.48517 9.79381 7.06802C9.48334 6.65088 9.04444 6.34467 8.54305 6.19538ZM6.07304 9.81893H2.48067V7.21115H6.07304C7.03809 7.21115 7.69279 7.7958 7.69279 8.51504C7.69279 9.23429 7.03809 9.81893 6.07304 9.81893Z" fill="#D7191F"/>
<path d="M36.6918 11.6275L33.0505 7.02187C33.049 7.01924 33.0469 7.01705 33.0443 7.01552C33.0417 7.01399 33.0387 7.01318 33.0356 7.01318C33.0326 7.01318 33.0296 7.01399 33.027 7.01552C33.0244 7.01705 33.0222 7.01924 33.0208 7.02187L32.0408 9.39411C32.0371 9.40088 32.0352 9.40847 32.0352 9.41618C32.0352 9.4239 32.0371 9.43149 32.0408 9.43827L33.6329 11.5413C33.679 11.6101 33.7425 11.6658 33.8171 11.7027C33.8917 11.7396 33.9748 11.7565 34.0581 11.7516H36.6216C36.6371 11.7541 36.653 11.7518 36.6671 11.745C36.6812 11.7382 36.6928 11.7274 36.7005 11.7138C36.7081 11.7003 36.7114 11.6848 36.7099 11.6693C36.7083 11.6539 36.702 11.6393 36.6918 11.6275Z" fill="#D7191F"/>
<path d="M14.25 3.73926H12.1244C12.0945 3.73926 12.0658 3.751 12.0447 3.77191C12.0236 3.79281 12.0117 3.82116 12.0117 3.85072V11.6467C12.0117 11.6613 12.0146 11.6757 12.0203 11.6891C12.026 11.7025 12.0344 11.7146 12.0448 11.7248C12.0553 11.735 12.0678 11.743 12.0814 11.7484C12.0951 11.7537 12.1097 11.7564 12.1244 11.7561H14.25C14.2796 11.7561 14.3079 11.7446 14.329 11.7242C14.35 11.7037 14.3621 11.6759 14.3627 11.6467V3.84652C14.3616 3.81769 14.3492 3.79041 14.3282 3.7704C14.3072 3.7504 14.2792 3.73924 14.25 3.73926Z" fill="#D7191F"/>
<path d="M22.9989 0.632833H20.8733C20.8587 0.632833 20.8444 0.635661 20.831 0.641157C20.8175 0.646653 20.8054 0.65471 20.7951 0.664865C20.7848 0.67502 20.7767 0.687076 20.7711 0.700344C20.7656 0.713612 20.7627 0.727828 20.7627 0.742189V9.77059C20.5601 9.78918 20.3572 9.73773 20.1887 9.625C20.0201 9.51227 19.8962 9.34522 19.8381 9.15229L16.945 2.15123C16.4816 1.11864 15.6696 0.632833 14.1307 0.632833H12.1283C12.1136 0.632553 12.099 0.635177 12.0853 0.640547C12.0717 0.645918 12.0592 0.653925 12.0487 0.664108C12.0383 0.67429 12.0299 0.686442 12.0242 0.699849C12.0185 0.713256 12.0156 0.727649 12.0156 0.742189V2.50665C12.0156 2.53621 12.0275 2.56456 12.0486 2.58546C12.0697 2.60637 12.0984 2.61811 12.1283 2.61811H13.7459C14.4176 2.61811 14.745 2.82842 14.9745 3.32263L17.8272 10.2375C18.2927 11.2701 18.9942 11.7559 20.531 11.7559H22.9118C22.9638 11.7559 23.0138 11.7355 23.0508 11.6993C23.0878 11.6631 23.1089 11.6139 23.1095 11.5624V0.742189C23.1095 0.713185 23.0978 0.685374 23.0771 0.664865C23.0563 0.644356 23.0282 0.632833 22.9989 0.632833Z" fill="#D7191F"/>
</g>
<defs>
<clipPath id="clip0_5811_28481">
<rect width="86" height="12" fill="white"/>
</clipPath>
</defs>
</svg>
