<svg width="75" height="14" viewBox="0 0 75 14" fill="none" xmlns="http://www.w3.org/2000/svg">
<path d="M13.9941 0H0V13.9938H13.9941V0Z" fill="#0091D0"/>
<path d="M0 0L3.49779 3.50066L6.99559 0H0Z" fill="#0091D0"/>
<path d="M0 0V6.9954L3.49779 3.50066L0 0Z" fill="#009CD8"/>
<path d="M6.99559 6.99526L3.50075 3.49756L0 6.99526H6.99559Z" fill="#0091D0"/>
<path d="M6.99483 6.9954V0L3.5 3.4977L6.99483 6.9954Z" fill="#0082C9"/>
<path d="M6.99609 0V6.9954L10.4939 3.50066L6.99609 0Z" fill="#0070BB"/>
<path d="M13.9917 6.99526L10.4939 3.49756L6.99609 6.99526H13.9917Z" fill="#004C98"/>
<path d="M0 6.99805L3.49779 10.4957L6.99559 6.99805H0Z" fill="#0082C9"/>
<path d="M0 6.99805V13.9934L3.49779 10.4957L0 6.99805Z" fill="#0070BB"/>
<path d="M6.99559 13.9938L3.50075 10.4932L0 13.9938H6.99559Z" fill="#0060AF"/>
<path d="M6.99483 13.9934V6.99805L3.5 10.4928L6.99483 13.9934Z" fill="#00529C"/>
<path d="M6.99609 6.99805L10.4939 10.4957L13.9946 6.99805H6.99609Z" fill="#1C378A"/>
<path d="M6.99609 6.99805V13.9934L10.4939 10.4957L6.99609 6.99805Z" fill="#004C98"/>
<path d="M13.9917 13.9938L10.4939 10.4932L6.99609 13.9938H13.9917Z" fill="#1C378A"/>
<path d="M13.9939 13.9934V6.99805L10.4961 10.4928L13.9939 13.9934Z" fill="#1C378A"/>
<path d="M6.99609 0L10.4939 3.50066L13.9946 0H6.99609Z" fill="#0060AF"/>
<path d="M13.9939 6.9954V0L10.4961 3.4977L13.9939 6.9954Z" fill="#00529C"/>
<path d="M13.9915 8.74754L9.51121 4.48047L2.71094 11.2954L5.19076 13.7781L9.51121 9.52284L13.9915 13.9793V8.74754Z" fill="white"/>
<path d="M68.1851 11.1446C68.1851 10.3367 68.9604 9.66502 69.931 9.66502C70.9017 9.66502 71.671 10.3338 71.674 11.1446C71.677 11.9554 70.8987 12.6242 69.931 12.6242C68.9634 12.6242 68.188 11.9583 68.1851 11.1446ZM66.2823 11.1446C66.2823 12.7307 67.9217 13.9972 69.931 14.0002C71.9403 14.0031 73.5768 12.7307 73.5797 11.1446C73.5827 9.55849 71.9374 8.28902 69.931 8.28606C67.9247 8.2831 66.2823 9.55553 66.2823 11.1446ZM63.5953 5.75304C63.5953 5.06948 64.2552 4.50133 65.0749 4.50133C65.8946 4.50133 66.5546 5.06948 66.5546 5.75304C66.5546 6.4366 65.8976 7.00476 65.0749 7.00476C64.2523 7.00476 63.5953 6.43956 63.5953 5.75304ZM61.953 5.75304C61.953 7.11424 63.3616 8.19729 65.0779 8.20025C66.7943 8.20321 68.1999 7.11424 68.2028 5.75304C68.2058 4.39183 66.7943 3.30879 65.0779 3.30583C63.3616 3.30287 61.9559 4.39183 61.953 5.75304ZM49.2284 9.07911V12.2839C49.2471 12.5897 49.3784 12.8778 49.597 13.0925C49.8155 13.3073 50.1059 13.4335 50.412 13.4468H58.9612V12.2158H51.3531C51.3057 12.2158 51.288 12.1921 51.2702 12.1507C51.259 12.1224 51.253 12.0923 51.2525 12.0619V9.07911H49.2284ZM22.6931 2.33524H25.5576V1.10127H18.0944L18.5413 2.33524H20.9826C20.9761 2.77463 20.9445 3.2133 20.8879 3.64909C20.6476 4.76986 19.9771 5.7516 19.0207 6.38333C18.5331 6.73555 18.0006 7.02116 17.4375 7.2326L17.9465 8.25647H17.982C20.5032 7.72679 21.5804 6.06967 21.829 5.59325C22.0864 6.06079 23.1636 7.71791 25.676 8.25647H25.7115L26.2175 7.2326C25.6547 7.02049 25.1223 6.73493 24.6343 6.38333C23.6787 5.75127 23.0093 4.7695 22.77 3.64909C22.7119 3.21346 22.6803 2.7747 22.6753 2.33524M29.6265 9.36615V0.713626H27.6142V3.96868L26.8833 3.23777C26.8556 3.20726 26.8218 3.18288 26.7841 3.16619C26.7464 3.14951 26.7056 3.14089 26.6643 3.14089C26.6231 3.14089 26.5823 3.14951 26.5446 3.16619C26.5069 3.18288 26.4731 3.20726 26.4453 3.23777L25.457 4.22317C25.426 4.25092 25.4012 4.28491 25.3842 4.32289C25.3672 4.36088 25.3584 4.40201 25.3584 4.44362C25.3584 4.48523 25.3672 4.52636 25.3842 4.56435C25.4012 4.60234 25.426 4.63632 25.457 4.66408L26.4453 5.64947C26.4731 5.67999 26.5069 5.70437 26.5446 5.72105C26.5823 5.73773 26.6231 5.74635 26.6643 5.74635C26.7056 5.74635 26.7464 5.73773 26.7841 5.72105C26.8218 5.70437 26.8556 5.67999 26.8833 5.64947L27.6142 4.91857V9.35727L29.6265 9.36615ZM21.104 13.4498H29.6295V12.2069H22.0568C22.0355 12.207 22.0147 12.2009 21.9968 12.1894C21.979 12.1778 21.9648 12.1613 21.9562 12.1418C21.9436 12.1179 21.9355 12.0918 21.9325 12.0649V9.07024H19.9055V12.2543C19.9256 12.5656 20.0599 12.8586 20.2827 13.0771C20.5055 13.2955 20.8011 13.424 21.1128 13.4379M35.5923 3.70532H41.6528V4.87122H35.7965C35.7626 4.87558 35.7283 4.8694 35.6981 4.85351C35.6679 4.83762 35.6433 4.8128 35.6278 4.78244C35.6134 4.75166 35.6044 4.71863 35.6012 4.68479L35.5923 3.70532ZM34.8377 6.10517H43.6591V0.713626H41.6498V2.48911H35.6012V0.713626H33.5978V4.80316C33.6246 5.133 33.7643 5.44351 33.9934 5.68232C34.2225 5.92112 34.527 6.0736 34.8554 6.11405M39.8062 8.27423H45.5441V7.04323H32.0679L32.5147 8.27423H37.788V9.3987H33.4676L33.9144 10.6297H41.7415V13.4498H43.7568V9.40166H39.8121L39.8062 8.27423ZM55.5995 3.35022C55.5995 4.11959 54.8597 4.75581 53.9335 4.75581C53.0073 4.75581 52.2734 4.11959 52.2704 3.35022C52.2675 2.58084 53.0102 1.94168 53.9335 1.94168C54.8568 1.94168 55.5966 2.57788 55.5995 3.35022ZM57.4254 3.35022C57.4254 1.82922 55.854 0.618938 53.9335 0.615979C52.013 0.613019 50.4475 1.82922 50.4446 3.35022C50.4416 4.87121 52.0159 6.07855 53.9335 6.08151C55.8511 6.08446 57.4224 4.86826 57.4254 3.35022ZM47.4706 8.27423H60.4911V7.04323H47.0149L47.4706 8.27423ZM61.7103 2.87084H68.6941V1.63984H66.2113V0.296387H64.199V1.63984H61.2398L61.6866 2.87084H61.7103ZM74.2811 0.669241H72.2688V3.7142H71.3011V0.669241H69.2889V7.74158H71.3011V4.95407H72.2688V8.38371H74.2781L74.2811 0.669241Z" fill="#021D49"/>
</svg>
