<svg width="24" height="24" viewBox="0 0 24 24" fill="none" xmlns="http://www.w3.org/2000/svg">
<path d="M24 0H0V24H24V0Z" fill="#0091D0"/>
<path d="M0 0L5.99872 6.0038L11.9974 0H0Z" fill="#0091D0"/>
<path d="M0 0V11.9974L5.99872 6.0038L0 0Z" fill="#009CD8"/>
<path d="M11.9974 11.9973L6.0038 5.99854L0 11.9973H11.9974Z" fill="#0091D0"/>
<path d="M11.9976 11.9974V0L6.00391 5.99872L11.9976 11.9974Z" fill="#0082C9"/>
<path d="M11.9961 0V11.9974L17.9948 6.0038L11.9961 0Z" fill="#0070BB"/>
<path d="M24.0014 11.9973L18.0026 5.99854L12.0039 11.9973H24.0014Z" fill="#004C98"/>
<path d="M0 12.0024L5.99872 18.0012L11.9974 12.0024H0Z" fill="#0082C9"/>
<path d="M0 12.0024V23.9999L5.99872 18.0012L0 12.0024Z" fill="#0070BB"/>
<path d="M11.9974 23.9999L6.0038 17.9961L0 23.9999H11.9974Z" fill="#0060AF"/>
<path d="M11.9976 23.9999V12.0024L6.00391 17.9961L11.9976 23.9999Z" fill="#00529C"/>
<path d="M11.9961 12.0024L17.9948 18.0012L23.9986 12.0024H11.9961Z" fill="#1C378A"/>
<path d="M11.9961 12.0024V23.9999L17.9948 18.0012L11.9961 12.0024Z" fill="#004C98"/>
<path d="M24.0014 23.9999L18.0026 17.9961L12.0039 23.9999H24.0014Z" fill="#1C378A"/>
<path d="M23.9987 23.9999V12.0024L18 17.9961L23.9987 23.9999Z" fill="#1C378A"/>
<path d="M11.9961 0L17.9948 6.0038L23.9986 0H11.9961Z" fill="#0060AF"/>
<path d="M23.9987 11.9974V0L18 5.99872L23.9987 11.9974Z" fill="#00529C"/>
<path d="M24.0024 15.0018L16.3187 7.68359L4.65625 19.3715L8.90915 23.6294L16.3187 16.3315L24.0024 23.9745V15.0018Z" fill="white"/>
</svg>
