<svg width="32" height="22" viewBox="0 0 32 22" fill="none" xmlns="http://www.w3.org/2000/svg">
<path d="M30.4211 14.2713C30.8839 12.9736 33.5237 6.44998 28.9815 6.44901C25.8814 6.44901 22.3735 8.88104 22.3735 8.88104L25.4517 1.71808C25.4517 1.71808 26.3037 0.000975349 24.334 0H21.1602C21.1602 0 22.3379 0.464754 21.2972 2.78316L16.7068 13.2389C16.7068 13.2389 14.1006 18.8925 8.8591 18.8915C1.96045 18.8915 2.49446 11.8812 2.49446 11.8812L0 17.3861C0 17.3861 2.23014 21.624 7.68429 21.625C10.9824 21.625 13.0746 20.2346 14.0909 19.1378C14.0909 19.1378 13.1063 21.4299 15.7187 21.4299H18.4009C18.4009 21.4299 17.6455 20.9032 17.7016 20.2356C17.7577 19.5679 18.655 17.4588 19.2622 16.3547C19.8693 15.2506 22.8773 9.89394 26.3827 9.55745C29.5428 9.25509 24.7807 19.1812 24.7807 19.1812C24.7807 19.1812 23.8609 21.3299 26.2501 21.3933C28.6392 21.4567 29.0786 21.4543 29.0786 21.4543C29.0786 21.4543 28.1798 20.7823 28.6236 19.5582C29.0674 18.3341 29.9579 15.57 30.4211 14.2713Z" fill="#1277BD"/>
</svg>
