<svg width="53" height="16" viewBox="0 0 53 16" fill="none" xmlns="http://www.w3.org/2000/svg">
<path d="M12.1579 8.00148C13.368 7.49629 14.3723 6.36185 14.3723 4.48627C14.3723 1.69407 11.9764 0 9.08745 0H0.157336C0.115616 0 0.0756036 0.016576 0.0461031 0.0460768C0.0166026 0.0755776 2.90937e-05 0.115583 2.90937e-05 0.157304V2.6954C-0.000373112 2.71631 0.00339845 2.73708 0.0111235 2.75652C0.0188486 2.77596 0.0303733 2.79366 0.0450207 2.80859C0.0596681 2.82352 0.0771457 2.83537 0.0964308 2.84347C0.115716 2.85156 0.136421 2.85573 0.157336 2.85573H8.47032C9.81044 2.85573 10.718 3.67554 10.718 4.67081C10.718 5.66608 9.81044 6.50101 8.47032 6.50101H3.53033V4.62241C3.53074 4.60124 3.52687 4.58021 3.51896 4.56057C3.51105 4.54093 3.49926 4.52308 3.48428 4.50811C3.46931 4.49314 3.45147 4.48135 3.43184 4.47344C3.4122 4.46553 3.39116 4.46166 3.37 4.46207H0.157336C0.136421 4.46207 0.115716 4.46624 0.0964308 4.47433C0.0771457 4.48243 0.0596681 4.49428 0.0450207 4.50921C0.0303733 4.52414 0.0188486 4.54184 0.0111235 4.56128C0.00339845 4.58072 -0.000373112 4.60149 2.90937e-05 4.62241V15.8366C2.90937e-05 15.8783 0.0166026 15.9183 0.0461031 15.9478C0.0756036 15.9773 0.115616 15.9939 0.157336 15.9939H8.96039C12.2517 15.9939 14.6083 14.4601 14.6083 11.3291C14.615 10.584 14.3798 9.85678 13.9379 9.25674C13.4961 8.6567 12.8715 8.21623 12.1579 8.00148ZM8.64276 13.2138H3.53033V9.46262H8.64276C10.0162 9.46262 10.9479 10.3036 10.9479 11.3382C10.9479 12.3728 10.0162 13.2138 8.64276 13.2138Z" fill="#D7191F"/>
<path d="M49.0912 2.85576H50.4374C50.4799 2.85576 50.5207 2.83886 50.5508 2.80879C50.5808 2.77873 50.5977 2.73795 50.5977 2.69543V0.157333C50.5977 0.136418 50.5935 0.115715 50.5855 0.0964294C50.5774 0.0771441 50.5655 0.0596641 50.5506 0.0450165C50.5356 0.030369 50.5179 0.0188511 50.4985 0.0111259C50.4791 0.00340077 50.4583 -0.000373131 50.4374 2.90784e-05H48.5467C46.3595 2.90784e-05 45.2009 0.698836 44.5384 2.18418L40.4273 12.2549C40.3446 12.5324 40.1683 12.7727 39.9284 12.9348C39.6884 13.097 39.3997 13.171 39.1114 13.1442V0.157333C39.1114 0.136418 39.1072 0.115715 39.0991 0.0964294C39.091 0.0771441 39.0792 0.0596641 39.0643 0.0450165C39.0493 0.030369 39.0316 0.0188511 39.0122 0.0111259C38.9928 0.00340077 38.972 -0.000373131 38.9511 2.90784e-05H35.926C35.905 -0.000373131 35.8843 0.00340077 35.8648 0.0111259C35.8454 0.0188511 35.8277 0.030369 35.8128 0.0450165C35.7978 0.0596641 35.786 0.0771441 35.7779 0.0964294C35.7698 0.115715 35.7656 0.136418 35.7656 0.157333V15.7217C35.7664 15.7957 35.7964 15.8665 35.8491 15.9186C35.9018 15.9707 35.9729 16 36.047 16H39.4381C41.6222 16 42.6235 15.3012 43.283 13.8158L47.3427 3.86918C47.6694 3.16432 48.1383 2.85576 49.0912 2.85576Z" fill="#D7191F"/>
<path d="M52.2168 15.8153L47.0348 9.19023C47.0327 9.18644 47.0297 9.18329 47.0259 9.18109C47.0222 9.1789 47.018 9.17773 47.0137 9.17773C47.0093 9.17773 47.0051 9.1789 47.0014 9.18109C46.9976 9.18329 46.9946 9.18644 46.9925 9.19023L45.5979 12.6026C45.5926 12.6123 45.5898 12.6232 45.5898 12.6343C45.5898 12.6454 45.5926 12.6564 45.5979 12.6661L47.8637 15.6912C47.9292 15.7902 48.0196 15.8703 48.1258 15.9234C48.232 15.9765 48.3502 16.0007 48.4687 15.9937H52.117C52.139 15.9973 52.1616 15.9939 52.1817 15.9842C52.2018 15.9745 52.2184 15.9588 52.2293 15.9394C52.2401 15.9199 52.2448 15.8976 52.2426 15.8754C52.2404 15.8532 52.2314 15.8322 52.2168 15.8153Z" fill="#D7191F"/>
<path d="M20.2792 4.46826H17.2541C17.2116 4.46826 17.1708 4.48516 17.1407 4.51522C17.1106 4.54529 17.0938 4.58607 17.0938 4.62859V15.8428C17.0937 15.8637 17.0979 15.8844 17.106 15.9037C17.1141 15.923 17.126 15.9404 17.1409 15.9551C17.1558 15.9697 17.1735 15.9813 17.193 15.989C17.2124 15.9967 17.2332 16.0005 17.2541 16.0001H20.2792C20.3212 16.0001 20.3615 15.9836 20.3915 15.9542C20.4215 15.9248 20.4387 15.8848 20.4395 15.8428V4.62255C20.4379 4.58108 20.4204 4.54184 20.3905 4.51306C20.3606 4.48429 20.3207 4.46823 20.2792 4.46826Z" fill="#D7191F"/>
<path d="M32.7284 2.90784e-05H29.7033C29.6826 2.90784e-05 29.6622 0.00409754 29.6431 0.012003C29.624 0.0199084 29.6066 0.0314986 29.592 0.0461059C29.5774 0.0607132 29.5658 0.0780549 29.5579 0.0971403C29.55 0.116226 29.546 0.136675 29.546 0.157333V13.1442C29.2576 13.171 28.9689 13.097 28.729 12.9348C28.4891 12.7727 28.3127 12.5324 28.23 12.2549L24.1129 2.18418C23.4534 0.698836 22.2978 2.90784e-05 20.1076 2.90784e-05H17.258C17.2371 -0.000373131 17.2163 0.00340077 17.1969 0.0111259C17.1774 0.0188511 17.1597 0.030369 17.1448 0.0450165C17.1299 0.0596641 17.118 0.0771442 17.1099 0.0964294C17.1018 0.115715 17.0977 0.136418 17.0977 0.157333V2.69543C17.0977 2.73795 17.1145 2.77873 17.1446 2.80879C17.1747 2.83886 17.2155 2.85576 17.258 2.85576H19.5601C20.516 2.85576 20.9819 3.15827 21.3086 3.86918L25.3683 13.8158C26.0308 15.3012 27.0291 16 29.2162 16H32.6043C32.6784 16 32.7495 15.9707 32.8022 15.9186C32.8549 15.8665 32.8849 15.7957 32.8857 15.7217V0.157333C32.8857 0.115612 32.8691 0.0756067 32.8396 0.0461059C32.8101 0.0166051 32.7701 2.90784e-05 32.7284 2.90784e-05Z" fill="#D7191F"/>
</svg>
