<svg width="91" height="20" viewBox="0 0 91 20" fill="none" xmlns="http://www.w3.org/2000/svg">
<g clip-path="url(#clip0_5811_28714)">
<path d="M18.1687 20.0002H1.88252C0.842363 20.0002 0 19.1592 0 18.1225V1.87773C0 0.84022 0.842363 0 1.88252 0H18.1687C19.2081 0 20.0512 0.84022 20.0512 1.87773V18.1225C20.0512 19.1592 19.2081 20.0002 18.1687 20.0002Z" fill="#FFE300"/>
<path d="M10.6679 12.7506H9.62919V7.25002H10.6679V12.7506ZM13.383 10.0004C14.2787 9.41143 14.8699 8.40016 14.8699 7.25013C14.8699 5.43239 13.392 3.95898 11.5697 3.95898H6.03869C5.93264 3.95898 5.84766 4.04376 5.84766 4.14953V15.8513C5.84766 15.9571 5.93265 16.0426 6.03869 16.0426H11.5697C13.392 16.0426 14.8699 14.5692 14.8699 12.7508C14.8699 11.6007 14.2788 10.5885 13.383 10.0004Z" fill="#1C1C1C"/>
<path d="M30.5025 7.70437L31.4178 8.38181L29.0193 11.3691L31.7923 14.6737L30.877 15.3931L27.6467 11.4246L30.5025 7.70437ZM27.1338 15.1996H25.9688V4.85609L27.1338 4.59277V15.1996Z" fill="#1C1C1C"/>
<path d="M36.7551 13.5404V11.7977H35.4517C34.1347 11.7977 33.5383 12.2403 33.5383 13.1803C33.5383 13.941 33.9542 14.3701 34.7033 14.3701C35.3825 14.3701 36.2692 14.0108 36.7551 13.5404ZM35.299 10.9822H36.7551V10.3873C36.7551 9.2395 36.2422 8.78264 35.2712 8.78264C34.592 8.78264 33.8294 8.99045 33.2337 9.26727L32.887 8.45105C33.6218 8.03619 34.5093 7.78711 35.299 7.78711C37.0326 7.78711 37.878 8.61758 37.878 10.4428V15.1998H37.0183L36.88 14.3979C36.1587 14.9785 35.2298 15.3101 34.495 15.3101C33.2058 15.3101 32.4297 14.5359 32.4297 13.2358C32.4297 11.7564 33.4278 10.9822 35.299 10.9822Z" fill="#1C1C1C"/>
<path d="M44.4908 7.70437L45.4053 8.38181L43.0068 11.3691L45.7798 14.6737L44.8653 15.3931L41.6349 11.4246L44.4908 7.70437ZM41.1213 15.1996H39.957V4.85609L41.1213 4.59277V15.1996Z" fill="#1C1C1C"/>
<path d="M50.7395 13.5404V11.7977H49.4368C48.1199 11.7977 47.5235 12.2403 47.5235 13.1803C47.5235 13.941 47.9394 14.3701 48.6877 14.3701C49.3669 14.3701 50.2544 14.0108 50.7395 13.5404ZM49.2842 10.9822H50.7395V10.3873C50.7395 9.2395 50.2273 8.78264 49.2563 8.78264C48.5772 8.78264 47.8145 8.99045 47.2189 9.26727L46.8714 8.45105C47.607 8.03619 48.4937 7.78711 49.2841 7.78711C51.017 7.78711 51.8631 8.61758 51.8631 10.4428V15.1998H51.0035L50.8643 14.3979C50.1438 14.9785 49.215 15.3101 48.4801 15.3101C47.1903 15.3101 46.4141 14.5359 46.4141 13.2358C46.4141 11.7564 47.4129 10.9822 49.2842 10.9822Z" fill="#1C1C1C"/>
<path d="M54.7298 11.5766C54.7298 13.416 55.4782 14.3838 56.7672 14.3838C58.0564 14.3838 58.8055 13.416 58.8055 11.5766C58.8055 9.73784 58.0564 8.74159 56.7672 8.74159C55.4781 8.74159 54.7298 9.73784 54.7298 11.5766ZM60.0119 11.5766C60.0119 13.9968 58.8055 15.3381 56.7673 15.3381C54.7434 15.3381 53.5234 13.9968 53.5234 11.5766C53.5234 9.14292 54.7577 7.78809 56.7673 7.78809C58.792 7.78809 60.0119 9.14292 60.0119 11.5766Z" fill="#1C1C1C"/>
<path d="M63.6077 9.35066V13.9689C63.8988 14.0109 64.0929 14.0109 64.2726 14.0109C65.4376 14.0109 66.2695 13.278 66.2695 11.4107C66.2695 10.0003 65.9228 9.18411 64.6058 9.18411C64.1899 9.18411 63.8289 9.28089 63.6077 9.35066ZM61.75 14.9786V4.88334L63.6077 4.55176V8.16094C64.0515 7.88411 64.6336 7.69056 65.2714 7.69056C67.2397 7.69056 68.155 9.03266 68.155 11.3695C68.155 13.8999 66.7689 15.4071 64.4674 15.4071C63.3994 15.4071 62.2629 15.1999 61.75 14.9786Z" fill="#1C1C1C"/>
<path d="M73.2396 13.3747V11.9501H72.2415C71.2435 11.9501 70.7162 12.3515 70.7162 13.0836C70.7162 13.6095 71.0216 13.9554 71.6308 13.9554C72.2686 13.9554 72.9065 13.6651 73.2396 13.3747ZM72.0745 10.761H73.2396V10.512C73.2396 9.71001 72.9899 9.25386 71.8948 9.25386C71.2149 9.25386 70.5914 9.3919 69.9258 9.73774L69.4128 8.46538C70.1198 7.9815 71.16 7.69043 72.1167 7.69043C73.9879 7.69043 74.9724 8.60343 74.9724 10.4977V15.1999H73.669L73.4614 14.578C72.7131 15.1578 71.9084 15.3934 71.257 15.3934C69.8288 15.3934 69.0391 14.5494 69.0391 13.0978C69.0391 11.5629 70.0919 10.761 72.0745 10.761Z" fill="#1C1C1C"/>
<path d="M76.6328 7.91222H77.9497L78.2273 8.64443C78.8786 8.06377 79.7803 7.69092 80.5566 7.69092C82.1924 7.69092 83.01 8.69996 83.01 10.5252V15.1997H81.153V10.4697C81.153 9.65423 80.8476 9.30837 79.8631 9.30837C79.4751 9.30837 78.9207 9.4194 78.4905 9.5852V15.1995H76.6328V7.91222Z" fill="#1C1C1C"/>
<path d="M88.4779 11.3277L91.0012 14.3427L89.6008 15.4492L86.5374 11.7012V15.2002H84.6797V4.88334L86.5374 4.55176V11.2587L89.3375 7.46944L90.7236 8.43792L88.4779 11.3277Z" fill="#1C1C1C"/>
</g>
<defs>
<clipPath id="clip0_5811_28714">
<rect width="91" height="20" fill="white"/>
</clipPath>
</defs>
</svg>
