<svg width="80" height="16" viewBox="0 0 80 16" fill="none" xmlns="http://www.w3.org/2000/svg">
<g clip-path="url(#clip0_5804_27995)">
<path d="M4.3416 0C1.94858 0 0 1.95749 0 4.3637V16.0007H1.44676V4.3637C1.44676 3.98162 1.52164 3.60329 1.66712 3.2503C1.8126 2.89731 2.02584 2.57659 2.29466 2.30643C2.56347 2.03628 2.8826 1.82199 3.23382 1.67581C3.58503 1.52963 3.96146 1.45441 4.3416 1.45445H75.6587C76.0388 1.45445 76.4152 1.52971 76.7664 1.67591C77.1175 1.82212 77.4366 2.03642 77.7054 2.30657C77.9741 2.57672 78.1873 2.89744 78.3327 3.2504C78.4781 3.60337 78.553 3.98167 78.5529 4.3637V16.0007H80V4.3637C80 1.95716 78.0518 0 75.6587 0H4.3416Z" fill="#221E1F"/>
<path d="M13.3327 12.9354C13.3327 13.0497 13.2606 13.0913 13.1368 13.0913H12.0635C11.9397 13.0913 11.8986 13.0497 11.8986 12.9253V9.99092C11.8986 9.85678 11.8055 9.783 11.6714 9.783H8.85463C8.73085 9.783 8.65811 9.85611 8.65811 9.99092V12.9253C8.65811 13.0497 8.58604 13.0913 8.47293 13.0913H7.37852C7.27575 13.0913 7.23438 13.0497 7.23438 12.9354V5.64466C7.23438 5.53064 7.27575 5.46826 7.37852 5.46826H8.47293C8.58604 5.46826 8.65811 5.53064 8.65811 5.64466V8.46537C8.65811 8.59951 8.73085 8.66256 8.85463 8.66256H11.6727C11.8062 8.66256 11.9 8.60018 11.9 8.46537V5.64466C11.9 5.53064 11.941 5.46826 12.0648 5.46826H13.1382C13.262 5.46826 13.334 5.53064 13.334 5.64466L13.3327 12.9354Z" fill="#221E1F"/>
<path d="M15.9263 13.1942C15.1318 13.1942 14.7188 12.5517 14.7188 12.002V7.46965C14.7188 7.33551 14.7705 7.27246 14.8943 7.27246H15.9263C16.029 7.27246 16.1018 7.33484 16.1018 7.46965V11.8461C16.1018 11.9705 16.1535 12.0326 16.2976 12.0326H18.1862C18.3099 12.0326 18.3924 11.9705 18.3924 11.8461V7.46965C18.3924 7.33551 18.4437 7.27246 18.5675 7.27246H19.5995C19.7133 7.27246 19.7854 7.33484 19.7854 7.46965V14.0762C19.7854 14.2416 19.7337 14.3975 19.6616 14.5528L18.9609 15.7041C18.8989 15.808 18.8064 15.8717 18.703 15.8717H18.5695C18.4457 15.8717 18.3944 15.799 18.3944 15.685V12.7586C18.3944 12.6342 18.322 12.5825 18.2085 12.6137L16.2276 13.1738C16.1281 13.1909 16.0271 13.1977 15.9263 13.1942Z" fill="#221E1F"/>
<path d="M22.3506 13.1842C22.0365 13.1822 21.7358 13.056 21.5137 12.8328C21.2916 12.6095 21.166 12.3073 21.1641 11.9916V7.46965C21.1641 7.33551 21.2151 7.27246 21.3392 7.27246H22.3839C22.477 7.27246 22.5508 7.33484 22.5508 7.46965V11.8461C22.5508 11.9705 22.6128 12.0225 22.7576 12.0225H24.6452C24.7693 12.0225 24.852 11.9705 24.852 11.8461V7.46965C24.852 7.33551 24.8934 7.27246 25.0172 7.27246H26.0455C26.1593 7.27246 26.232 7.33484 26.232 7.46965V12.936C26.232 13.0504 26.1593 13.092 26.0455 13.092H25.0142C24.8904 13.092 24.849 13.0504 24.849 12.926V12.7583C24.849 12.6241 24.7663 12.5718 24.6532 12.6134L22.6715 13.1523C22.5667 13.1787 22.4585 13.1894 22.3506 13.1842Z" fill="#221E1F"/>
<path d="M32.6803 8.39289V12.935C32.6803 13.0494 32.6082 13.0909 32.4944 13.0909H31.4624C31.3386 13.0909 31.2972 13.0494 31.2972 12.9249V8.5485C31.2972 8.41436 31.2148 8.34158 31.091 8.34158H29.2028C29.0587 8.34158 28.9966 8.41402 28.9966 8.5485V12.9249C28.9966 13.0494 28.9246 13.0909 28.8298 13.0909H27.7888C27.6647 13.0909 27.6133 13.0494 27.6133 12.935V7.46864C27.6133 7.3345 27.6647 7.27145 27.7888 7.27145H28.8315C28.9246 7.27145 28.9983 7.33383 28.9983 7.46864V7.64504C28.9983 7.75906 29.05 7.81071 29.2045 7.76946L31.1758 7.2302C31.2786 7.20941 31.3716 7.17822 31.4744 7.17822C32.1544 7.17923 32.6803 7.74934 32.6803 8.39289Z" fill="#221E1F"/>
<path d="M33.8555 11.9919V9.37815C33.8555 8.8181 34.0927 8.3932 34.5895 8.12323L35.6833 7.48035C35.8978 7.34095 36.1489 7.26924 36.4043 7.27444H37.3532C37.4867 7.27444 37.5491 7.22246 37.5491 7.09804V4.95174C37.5491 4.83772 37.6008 4.75488 37.7043 4.75488H38.7566C38.8804 4.75488 38.9321 4.83772 38.9321 4.95174V12.9353C38.9321 13.0497 38.8804 13.0912 38.7566 13.0912H37.7043C37.6008 13.0912 37.5491 13.0497 37.5491 12.9252V12.7576C37.5491 12.6234 37.4874 12.5711 37.3532 12.6127L35.3626 13.153C35.2615 13.1785 35.1572 13.1891 35.053 13.1845C34.5158 13.2049 33.8555 12.7073 33.8555 11.9919ZM37.5491 11.8464V8.55987C37.5491 8.41433 37.4874 8.34189 37.3429 8.34189H35.4344C35.2892 8.34189 35.2378 8.41433 35.2378 8.55987V11.8464C35.2378 11.9708 35.2892 12.0228 35.4344 12.0228H37.3429C37.4874 12.0228 37.5491 11.9695 37.5491 11.8464Z" fill="#221E1F"/>
<path d="M41.3059 13.1841C40.6559 13.1841 40.1094 12.6556 40.1094 11.9916V9.37779C40.1094 8.81774 40.3466 8.39284 40.8314 8.12287L41.9355 7.47999C42.1471 7.34183 42.3949 7.27014 42.6472 7.27408H45.0102C45.124 7.27408 45.1857 7.33646 45.1857 7.47127V12.9376C45.1857 13.052 45.124 13.0936 45.0102 13.0936H43.9578C43.8444 13.0936 43.803 13.052 43.803 12.9276V12.7599C43.803 12.6257 43.7306 12.5734 43.5968 12.615L41.6152 13.1539C41.5141 13.1791 41.4099 13.1892 41.3059 13.1841ZM43.803 11.846V8.55951C43.803 8.41397 43.7306 8.34153 43.5968 8.34153H41.6879C41.5431 8.34153 41.4914 8.41397 41.4914 8.55951V11.846C41.4914 11.9705 41.5431 12.0224 41.6879 12.0224H43.5968C43.7306 12.0224 43.803 11.9691 43.803 11.846Z" fill="#221E1F"/>
<path d="M47.9501 5.79892C47.9501 5.92333 47.8777 5.96458 47.7746 5.96458H46.7412C46.6078 5.96458 46.5664 5.92333 46.5664 5.79892V4.94979C46.5664 4.83576 46.6071 4.75293 46.7412 4.75293H47.7756C47.8787 4.75293 47.9511 4.83576 47.9511 4.94979L47.9501 5.79892ZM47.9501 12.934C47.9501 13.0484 47.8777 13.09 47.7746 13.09H46.7412C46.6078 13.09 46.5664 13.0484 46.5664 12.934V7.46767C46.5664 7.33352 46.6071 7.27047 46.7412 7.27047H47.7756C47.8787 7.27047 47.9511 7.33285 47.9511 7.46767L47.9501 12.934Z" fill="#221E1F"/>
<path d="M50.8477 11.5975V7.66707C50.8477 7.08623 51.0952 6.63986 51.6007 6.33904L52.8076 5.66464C53.0226 5.53502 53.2689 5.46695 53.5196 5.46778H56.0781C56.2019 5.46778 56.2646 5.53016 56.2646 5.65458V6.41182C56.2646 6.52584 56.2019 6.57749 56.0781 6.57749H52.4979C52.3742 6.57749 52.3224 6.65026 52.3224 6.78507V11.7839C52.3224 11.9181 52.3742 11.9808 52.4979 11.9808H56.1816C56.295 11.9808 56.3674 12.0328 56.3674 12.1367C56.3683 12.1929 56.3531 12.2481 56.3235 12.2957C56.2939 12.3433 56.2512 12.3813 56.2006 12.405L55.3137 12.903C55.0897 13.0293 54.8365 13.0938 54.5797 13.0902H52.3531C51.6204 13.0912 50.8477 12.562 50.8477 11.5975Z" fill="#221E1F"/>
<path d="M58.4198 13.1843C57.7695 13.1843 57.2227 12.6558 57.2227 11.9918V9.37796C57.2227 8.81791 57.4602 8.39301 57.945 8.12305L59.0491 7.48016C59.2607 7.34144 59.5086 7.26917 59.7612 7.27258H62.1235C62.2363 7.27258 62.299 7.33495 62.299 7.46977V12.9361C62.299 13.0505 62.2363 13.0921 62.1235 13.0921H61.0704C60.957 13.0921 60.916 13.0505 60.916 12.9261V12.7584C60.916 12.6242 60.8439 12.5719 60.7094 12.6135L58.7285 13.1524C58.6277 13.178 58.5237 13.1887 58.4198 13.1843ZM60.917 11.8462V8.55968C60.917 8.41414 60.8449 8.3417 60.7104 8.3417H58.8019C58.6577 8.3417 58.606 8.41414 58.606 8.55968V11.8462C58.606 11.9706 58.6577 12.0226 58.8019 12.0226H60.7108C60.8452 12.0226 60.9173 11.9693 60.9173 11.8462H60.917Z" fill="#221E1F"/>
<path d="M67.4798 8.18508C67.4798 8.28904 67.4077 8.34102 67.2939 8.34102H65.2599C65.1264 8.34102 65.0744 8.41346 65.0744 8.54794V12.9251C65.0744 13.0495 64.992 13.0911 64.8885 13.0911H63.8465C63.7227 13.0911 63.6797 13.0495 63.6797 12.9351V7.46875C63.6797 7.33461 63.7211 7.27156 63.8465 7.27156H64.8885C64.992 7.27156 65.0744 7.33394 65.0744 7.46875V7.63475C65.0744 7.74844 65.1261 7.80042 65.2599 7.80042C65.2989 7.80281 65.3379 7.7958 65.3737 7.77996L65.9716 7.38558C66.1906 7.26808 66.4354 7.20755 66.6836 7.20952H67.2952C67.409 7.20952 67.4811 7.27156 67.4811 7.38558L67.4798 8.18508Z" fill="#221E1F"/>
<path d="M67.6875 11.9917V9.37787C67.6875 8.81782 67.9251 8.39292 68.4216 8.12296L69.5153 7.48007C69.7301 7.3399 69.9817 7.26759 70.2377 7.27249H71.1873C71.3207 7.27249 71.3835 7.2205 71.3835 7.09609V4.94979C71.3835 4.83576 71.4349 4.75293 71.5376 4.75293H72.5907C72.7138 4.75293 72.7655 4.83576 72.7655 4.94979V12.935C72.7655 13.0494 72.7138 13.091 72.5907 13.091H71.5376C71.4349 13.091 71.3835 13.0494 71.3835 12.925V12.7573C71.3835 12.6231 71.3214 12.5708 71.1873 12.6124L69.1956 13.1513C69.0945 13.1769 68.9902 13.1875 68.886 13.1829C68.3482 13.2047 67.6875 12.707 67.6875 11.9917ZM71.3821 11.8461V8.55959C71.3821 8.41405 71.3201 8.34161 71.1753 8.34161H69.2664C69.1222 8.34161 69.0705 8.41405 69.0705 8.55959V11.8461C69.0705 11.9705 69.1222 12.0225 69.2664 12.0225H71.1753C71.3201 12.0225 71.3821 11.9692 71.3821 11.8461Z" fill="#221E1F"/>
</g>
<defs>
<clipPath id="clip0_5804_27995">
<rect width="80" height="16" fill="white"/>
</clipPath>
</defs>
</svg>
