<svg width="24" height="24" viewBox="0 0 24 24" fill="none" xmlns="http://www.w3.org/2000/svg">
<mask id="mask0_5823_28971" style="mask-type:luminance" maskUnits="userSpaceOnUse" x="0" y="0" width="24" height="24">
<path d="M9.29156 22.172C7.96791 22.0418 6.38603 21.6252 5.00625 20.4294C3.73648 19.3369 2.95172 17.8312 2.57 16.503C2.18043 15.1466 2.01652 13.5646 2.66094 13.6903C2.85966 13.7263 3.2032 14.5987 3.57481 15.232C3.9599 15.8854 4.27201 16.2492 4.56391 16.4715C4.69751 16.5715 5.14995 15.5666 5.80897 14.9928C6.19181 14.6739 6.60608 14.5673 6.68018 15.5115C6.75876 16.6658 6.55107 18.0412 6.89012 18.0412C7.19999 18.0412 7.91402 17.8043 9.47568 17.6707C10.0651 17.6213 10.4019 17.7324 9.84056 18.5195C9.55988 18.9148 9.18715 19.4705 8.30022 20.1094C9.62837 21.3535 11.2203 21.2019 11.2507 21.7307C11.2686 22.0361 10.6747 22.2046 9.89557 22.2046C9.70359 22.2046 9.50038 22.1933 9.29156 22.1709M13.761 10.9934C12.5451 10.7396 12.2959 9.6359 12.2959 9.6359C12.196 9.24629 12.1724 8.7545 12.2543 8.12685C12.4183 6.81542 12.773 6.20237 13.1749 5.18511C13.7172 3.8209 12.4014 3.02259 12.6159 2.52294C12.9134 1.84477 13.8519 2.70708 14.9039 2.77108C15.8077 2.81936 16.351 2.77669 17.0527 2.87101C17.9868 2.9934 19.1061 3.31115 19.6035 3.89501C20.0582 4.43058 19.3599 5.08069 18.5257 4.67423C17.9127 4.37557 17.1425 4.55746 17.5939 5.19634C18.1372 5.80265 18.3977 5.81949 18.9557 5.96433C20.4837 6.36854 20.5151 7.83493 19.4777 8.58945C18.3045 9.45176 17.1066 9.09359 16.6328 7.40489C16.3926 6.56054 15.7998 6.13275 15.1868 6.37303C14.5828 6.61107 14.9409 7.7204 15.4035 8.75001C16.2017 10.7901 14.5873 11.0046 13.9676 11.0046C13.8699 11.0046 13.798 11.0001 13.7621 10.9956M12.8842 22.556C12.8741 22.2865 13.2681 22.218 13.2681 22.218C16.8192 21.5174 15.7807 19.1887 14.5255 18.0019C13.9968 17.5045 9.05692 13.239 9.05692 13.239C4.3461 9.18117 4.72333 6.01711 4.72333 6.01711C4.95572 2.11873 8.36197 1.152 10.9442 1.37768C11.2462 1.4035 11.4157 1.58428 11.3584 1.84028C11.3045 2.11536 10.9037 2.13333 10.9037 2.13333C10.0819 2.18161 9.34769 2.26357 8.78972 2.64196C6.71161 4.04209 7.32011 6.42132 10.0943 9.07113C10.4446 9.40236 10.8151 9.75604 11.1979 10.1142C11.1979 10.1142 11.7503 10.6049 12.8628 11.6581C14.9971 13.623 16.1636 14.6818 16.1636 14.6818C19.9246 17.8133 18.6368 20.6776 17.2032 21.6701C16.1052 22.4303 14.8927 22.7862 13.2996 22.8726L13.2592 22.8749C13.1143 22.8749 12.8943 22.7862 12.8853 22.556M11.4527 0.0123508C4.8356 0.311017 -0.287247 5.92279 0.0125121 12.5428C0.312271 19.1618 5.92348 24.2862 12.5418 23.9876C19.1578 23.6889 24.2862 18.0794 23.9876 11.4593C23.6979 5.02118 18.3865 0.0011228 12.004 0C11.8221 0 11.638 0.00449118 11.4539 0.0123508" fill="white"/>
</mask>
<g mask="url(#mask0_5823_28971)">
<path d="M-0.285156 -0.000976562H24.2872V24.2853H-0.285156V-0.000976562Z" fill="#0046FF"/>
</g>
</svg>
