<svg width="56" height="56" viewBox="0 0 56 56" fill="none" xmlns="http://www.w3.org/2000/svg">
<g clip-path="url(#clip0_7415_1687)">
<path d="M40.9266 5.02441H15.0733C11.6369 5.02441 8.85107 7.8102 8.85107 11.2466V38.6555C8.85107 42.092 11.6369 44.8778 15.0733 44.8778H40.9266C44.3631 44.8778 47.1488 42.092 47.1488 38.6555V11.2466C47.1488 7.8102 44.3631 5.02441 40.9266 5.02441Z" stroke="#232527" stroke-width="1.5" stroke-linecap="round" stroke-linejoin="round"/>
<path d="M50.9755 18.6655V16.0221C50.9755 15.4932 50.54 15.0576 50.0111 15.0576H47.1333" stroke="#232527" stroke-width="1.5" stroke-linecap="round" stroke-linejoin="round"/>
<path d="M8.85107 11.7285H47.1488" stroke="#232527" stroke-width="1.5" stroke-linecap="round" stroke-linejoin="round"/>
<path d="M8.85107 14.8389H47.1488" stroke="#232527" stroke-width="1.5" stroke-linecap="round" stroke-linejoin="round"/>
<path d="M8.85107 31.8262C8.85107 31.8262 12.6777 33.7395 28 33.7395C43.3222 33.7395 47.1488 31.8262 47.1488 31.8262" stroke="#232527" stroke-width="1.5" stroke-linecap="round" stroke-linejoin="round"/>
<path d="M8.85107 28.7158C8.85107 28.7158 12.6777 30.6292 28 30.6292C43.3222 30.6292 47.1488 28.7158 47.1488 28.7158" stroke="#232527" stroke-width="1.5" stroke-linecap="round" stroke-linejoin="round"/>
<path d="M28 11.7285V33.7396" stroke="#232527" stroke-width="1.5" stroke-linecap="round" stroke-linejoin="round"/>
<path d="M16.5198 40.4448C17.5765 40.4448 18.4331 39.5882 18.4331 38.5315C18.4331 37.4748 17.5765 36.6182 16.5198 36.6182C15.4631 36.6182 14.6064 37.4748 14.6064 38.5315C14.6064 39.5882 15.4631 40.4448 16.5198 40.4448Z" stroke="#232527" stroke-width="1.5" stroke-linecap="round" stroke-linejoin="round"/>
<path d="M39.4802 40.4448C40.5369 40.4448 41.3936 39.5882 41.3936 38.5315C41.3936 37.4748 40.5369 36.6182 39.4802 36.6182C38.4235 36.6182 37.5669 37.4748 37.5669 38.5315C37.5669 39.5882 38.4235 40.4448 39.4802 40.4448Z" stroke="#232527" stroke-width="1.5" stroke-linecap="round" stroke-linejoin="round"/>
<path d="M12.6777 44.8779H20.3311V47.8646C20.3311 49.5757 18.9311 50.9757 17.22 50.9757H15.7888C14.0777 50.9757 12.6777 49.5757 12.6777 47.8646V44.8779Z" stroke="#232527" stroke-width="1.5" stroke-linecap="round" stroke-linejoin="round"/>
<path d="M35.6533 44.8779H43.3067V47.8646C43.3067 49.5757 41.9067 50.9757 40.1955 50.9757H38.7644C37.0533 50.9757 35.6533 49.5757 35.6533 47.8646V44.8779Z" stroke="#232527" stroke-width="1.5" stroke-linecap="round" stroke-linejoin="round"/>
<path d="M5.02441 18.6655V16.0221C5.02441 15.4932 5.45997 15.0576 5.98886 15.0576H8.86664" stroke="#232527" stroke-width="1.5" stroke-linecap="round" stroke-linejoin="round"/>
<rect x="3.11133" y="18.667" width="3.11111" height="7.77778" stroke="#232527" stroke-width="1.5" stroke-linejoin="round"/>
<rect x="49.7778" y="18.667" width="3.11111" height="7.77778" stroke="#232527" stroke-width="1.5" stroke-linejoin="round"/>
</g>
<defs>
<clipPath id="clip0_7415_1687">
<rect width="56" height="56" fill="white"/>
</clipPath>
</defs>
</svg>
