<svg width="56" height="56" viewBox="0 0 56 56" fill="none" xmlns="http://www.w3.org/2000/svg">
<path d="M51.1469 20.6113H4.85355C3.89135 20.6113 3.11133 21.3913 3.11133 22.3536V23.0224C3.11133 23.9846 3.89135 24.7647 4.85355 24.7647H51.1469C52.1091 24.7647 52.8891 23.9846 52.8891 23.0224V22.3536C52.8891 21.3913 52.1091 20.6113 51.1469 20.6113Z" stroke="#232527" stroke-width="1.5" stroke-linecap="round" stroke-linejoin="round"/>
<path d="M10.7646 16.458H45.2513C47.1802 16.458 48.7513 18.0291 48.7513 19.958V20.6113H7.26465V19.958C7.26465 18.0291 8.83576 16.458 10.7646 16.458Z" stroke="#232527" stroke-width="1.5" stroke-linecap="round" stroke-linejoin="round"/>
<path d="M51.1469 41.3467H4.85355C3.89135 41.3467 3.11133 42.1267 3.11133 43.0889V43.7578C3.11133 44.72 3.89135 45.5 4.85355 45.5H51.1469C52.1091 45.5 52.8891 44.72 52.8891 43.7578V43.0889C52.8891 42.1267 52.1091 41.3467 51.1469 41.3467Z" stroke="#232527" stroke-width="1.5" stroke-linecap="round" stroke-linejoin="round"/>
<path d="M49.7782 24.7646H6.22266V41.3624H49.7782V24.7646Z" stroke="#232527" stroke-width="1.5" stroke-linecap="round" stroke-linejoin="round"/>
<path d="M11.4023 33.0557H44.5979" stroke="#232527" stroke-width="1.5" stroke-linecap="round" stroke-linejoin="round"/>
<path d="M19.709 29.9443V36.1666" stroke="#232527" stroke-width="1.5" stroke-linecap="round" stroke-linejoin="round"/>
<path d="M11.4023 29.9443V36.1666" stroke="#232527" stroke-width="1.5" stroke-linecap="round" stroke-linejoin="round"/>
<path d="M44.5981 29.9443V36.1666" stroke="#232527" stroke-width="1.5" stroke-linecap="round" stroke-linejoin="round"/>
<path d="M36.2915 29.9443V36.1666" stroke="#232527" stroke-width="1.5" stroke-linecap="round" stroke-linejoin="round"/>
<path d="M28 29.9443V36.1666" stroke="#232527" stroke-width="1.5" stroke-linecap="round" stroke-linejoin="round"/>
<path d="M21.7779 16.4581C22.9205 16.4581 23.8468 15.5318 23.8468 14.3892C23.8468 13.2466 22.9205 12.3203 21.7779 12.3203C20.6353 12.3203 19.709 13.2466 19.709 14.3892C19.709 15.5318 20.6353 16.4581 21.7779 16.4581Z" stroke="#232527" stroke-width="1.5" stroke-linecap="round" stroke-linejoin="round"/>
<path d="M25.9312 16.4581C27.0738 16.4581 28.0001 15.5318 28.0001 14.3892C28.0001 13.2466 27.0738 12.3203 25.9312 12.3203C24.7886 12.3203 23.8623 13.2466 23.8623 14.3892C23.8623 15.5318 24.7886 16.4581 25.9312 16.4581Z" stroke="#232527" stroke-width="1.5" stroke-linecap="round" stroke-linejoin="round"/>
<path d="M23.8467 12.3048C24.9893 12.3048 25.9156 11.3785 25.9156 10.2359C25.9156 9.09327 24.9893 8.16699 23.8467 8.16699C22.7041 8.16699 21.7778 9.09327 21.7778 10.2359C21.7778 11.3785 22.7041 12.3048 23.8467 12.3048Z" stroke="#232527" stroke-width="1.5" stroke-linecap="round" stroke-linejoin="round"/>
<path d="M28 12.3048C29.1427 12.3048 30.0689 11.3785 30.0689 10.2359C30.0689 9.09327 29.1427 8.16699 28 8.16699C26.8574 8.16699 25.9312 9.09327 25.9312 10.2359C25.9312 11.3785 26.8574 12.3048 28 12.3048Z" stroke="#232527" stroke-width="1.5" stroke-linecap="round" stroke-linejoin="round"/>
<path d="M32.1534 12.3048C33.296 12.3048 34.2222 11.3785 34.2222 10.2359C34.2222 9.09327 33.296 8.16699 32.1534 8.16699C31.0107 8.16699 30.0845 9.09327 30.0845 10.2359C30.0845 11.3785 31.0107 12.3048 32.1534 12.3048Z" stroke="#232527" stroke-width="1.5" stroke-linecap="round" stroke-linejoin="round"/>
<path d="M30.0689 16.4581C31.2115 16.4581 32.1378 15.5318 32.1378 14.3892C32.1378 13.2466 31.2115 12.3203 30.0689 12.3203C28.9263 12.3203 28 13.2466 28 14.3892C28 15.5318 28.9263 16.4581 30.0689 16.4581Z" stroke="#232527" stroke-width="1.5" stroke-linecap="round" stroke-linejoin="round"/>
<path d="M34.2222 16.4581C35.3648 16.4581 36.2911 15.5318 36.2911 14.3892C36.2911 13.2466 35.3648 12.3203 34.2222 12.3203C33.0796 12.3203 32.1533 13.2466 32.1533 14.3892C32.1533 15.5318 33.0796 16.4581 34.2222 16.4581Z" stroke="#232527" stroke-width="1.5" stroke-linecap="round" stroke-linejoin="round"/>
<path d="M18.6671 13.3467C19.8182 14.4978 19.7093 16.4578 19.7093 16.4578C19.7093 16.4578 17.7493 16.5667 16.5982 15.4156C15.4471 14.2645 15.556 12.3045 15.556 12.3045C15.556 12.3045 17.516 12.1956 18.6671 13.3467Z" stroke="#232527" stroke-width="1.5" stroke-linecap="round" stroke-linejoin="round"/>
<path d="M37.3336 13.3467C36.1824 14.4978 36.2913 16.4578 36.2913 16.4578C36.2913 16.4578 38.2513 16.5667 39.4024 15.4156C40.5536 14.2645 40.4447 12.3045 40.4447 12.3045C40.4447 12.3045 38.4847 12.1956 37.3336 13.3467Z" stroke="#232527" stroke-width="1.5" stroke-linecap="round" stroke-linejoin="round"/>
<path d="M34.8759 9.84708C34.1603 10.5626 34.2226 11.7915 34.2226 11.7915C34.2226 11.7915 35.4514 11.8537 36.167 11.1382C36.8826 10.4226 36.8203 9.19375 36.8203 9.19375C36.8203 9.19375 35.5914 9.13153 34.8759 9.84708Z" stroke="#232527" stroke-width="1.5" stroke-linecap="round" stroke-linejoin="round"/>
</svg>
