<svg width="56" height="56" viewBox="0 0 56 56" fill="none" xmlns="http://www.w3.org/2000/svg">
<g clip-path="url(#clip0_7346_5006)">
<path d="M23.4112 9.97137C23.4112 9.97137 25.6978 14.5447 37.1156 14.5447V13.5803C37.1156 8.54026 33.0245 4.43359 27.9689 4.43359C22.9289 4.43359 18.8223 8.5247 18.8223 13.5803V14.5447C18.8223 14.5447 21.1089 14.7314 24.5312 11.2936" stroke="#232527" stroke-width="1.5" stroke-linecap="round" stroke-linejoin="round"/>
<path d="M20.6423 18.4487C19.6468 18.9465 18.4335 18.5421 17.9357 17.5465C17.4379 16.551 17.8423 15.3376 18.8379 14.8398" stroke="#232527" stroke-width="1.5" stroke-linecap="round" stroke-linejoin="round"/>
<path d="M35.2798 18.4487C36.2753 18.9465 37.4887 18.5421 37.9865 17.5465C38.4842 16.551 38.0798 15.3376 37.0842 14.8398" stroke="#232527" stroke-width="1.5" stroke-linecap="round" stroke-linejoin="round"/>
<path d="M31.4069 24.8887V27.1753L27.9691 30.5976L24.5469 27.1753V24.8887" stroke="#232527" stroke-width="1.5" stroke-linecap="round" stroke-linejoin="round"/>
<path d="M24.5469 26.0244L22.2603 28.3111L25.6825 34.0355L27.9691 30.5977L30.2558 34.0355L33.6936 28.3111L31.4069 26.0244" stroke="#232527" stroke-width="1.5" stroke-linecap="round" stroke-linejoin="round"/>
<path d="M40.4445 52.3137V39.1071C40.4445 34.5337 41.8756 31.1115 41.8756 31.1115L33.6934 28.3115" stroke="#232527" stroke-width="1.5" stroke-linecap="round" stroke-linejoin="round"/>
<path d="M33.6932 28.3115L27.9688 47.7404L34.8287 39.7449V35.1715L37.1154 34.036V29.4626L33.6932 28.3115Z" stroke="#232527" stroke-width="1.5" stroke-linecap="round" stroke-linejoin="round"/>
<path d="M46.1533 52.3136V37.9713C46.1533 33.398 41.8755 31.1113 41.8755 31.1113" stroke="#232527" stroke-width="1.5" stroke-linecap="round" stroke-linejoin="round"/>
<path d="M15.5556 52.3137V39.1071C15.5556 34.5337 14.1245 31.1115 14.1245 31.1115L22.2601 28.3115" stroke="#232527" stroke-width="1.5" stroke-linecap="round" stroke-linejoin="round"/>
<path d="M22.2601 28.3115L27.969 47.7404L21.1246 39.7449V35.1715L18.8379 34.036V29.4626L22.2601 28.3115Z" stroke="#232527" stroke-width="1.5" stroke-linecap="round" stroke-linejoin="round"/>
<path d="M9.84668 52.3136V37.9713C9.84668 33.398 14.1245 31.1113 14.1245 31.1113" stroke="#232527" stroke-width="1.5" stroke-linecap="round" stroke-linejoin="round"/>
<path d="M27.9688 30.5977V52.3132" stroke="#232527" stroke-width="1.5" stroke-linecap="round" stroke-linejoin="round"/>
<path d="M35.2799 16.1621V17.5777C35.2799 21.6221 32.0133 24.8888 27.9688 24.8888C23.9244 24.8888 20.6577 21.6221 20.6577 17.5777V16.3799" stroke="#232527" stroke-width="1.5" stroke-linecap="round" stroke-linejoin="round"/>
</g>
<defs>
<clipPath id="clip0_7346_5006">
<rect width="56" height="56" fill="white"/>
</clipPath>
</defs>
</svg>
