<svg width="56" height="56" viewBox="0 0 56 56" fill="none" xmlns="http://www.w3.org/2000/svg">
<path d="M22.7736 21.3105C22.7736 24.8883 19.8647 27.7972 16.287 27.7972C12.7092 27.7972 9.80029 24.8883 9.80029 21.3105" stroke="#232527" stroke-width="1.5" stroke-linecap="round" stroke-linejoin="round"/>
<path d="M12.2271 15.6331C12.2271 15.6331 14.2493 19.6931 24.3915 19.6931V17.6708C24.3915 13.1908 20.7671 9.56641 16.2871 9.56641C11.8071 9.56641 8.18262 13.1908 8.18262 17.6708V19.6931C8.18262 19.6931 10.2048 20.7042 13.2537 17.6708" stroke="#232527" stroke-width="1.5" stroke-linecap="round" stroke-linejoin="round"/>
<path d="M13.2534 9.55091C13.2534 7.87091 14.6223 6.51758 16.2868 6.51758C17.9512 6.51758 19.3201 7.88647 19.3201 9.55091" stroke="#232527" stroke-width="1.5" stroke-linecap="round" stroke-linejoin="round"/>
<path d="M19.3356 27.7979V29.8201L16.2868 32.869L13.2534 29.8201V27.7979" stroke="#232527" stroke-width="1.5" stroke-linecap="round" stroke-linejoin="round"/>
<path d="M13.2536 28.8086L11.2158 30.8308L14.2647 35.9019L16.2869 32.8686L18.3092 35.9019L21.358 30.8308L19.3358 28.8086" stroke="#232527" stroke-width="1.5" stroke-linecap="round" stroke-linejoin="round"/>
<path d="M11.2156 30.8311L6.14453 32.8533C6.14453 32.8533 8.16675 34.8755 8.16675 38.9355V49.0777" stroke="#232527" stroke-width="1.5" stroke-linecap="round" stroke-linejoin="round"/>
<path d="M3.11133 49.078V36.9135C3.11133 33.8802 6.14466 32.8535 6.14466 32.8535" stroke="#232527" stroke-width="1.5" stroke-linecap="round" stroke-linejoin="round"/>
<path d="M21.3579 30.8311L26.429 32.8533C26.429 32.8533 24.4068 34.8755 24.4068 38.9355V49.0777" stroke="#232527" stroke-width="1.5" stroke-linecap="round" stroke-linejoin="round"/>
<path d="M29.4625 49.078V36.9135C29.4625 33.8802 26.4292 32.8535 26.4292 32.8535" stroke="#232527" stroke-width="1.5" stroke-linecap="round" stroke-linejoin="round"/>
<path d="M11.2158 38.9512H13.2536" stroke="#232527" stroke-width="1.5" stroke-linecap="round" stroke-linejoin="round"/>
<path d="M16.2871 32.8691V49.078" stroke="#232527" stroke-width="1.5" stroke-linecap="round" stroke-linejoin="round"/>
<path d="M10.0959 23.52C9.10034 24.0177 7.87145 23.6133 7.37367 22.6177C6.87589 21.6222 7.28034 20.3933 8.27589 19.8955" stroke="#232527" stroke-width="1.5" stroke-linecap="round" stroke-linejoin="round"/>
<path d="M22.478 23.52C23.4736 24.0177 24.7025 23.6133 25.2003 22.6177C25.698 21.6222 25.2936 20.3933 24.298 19.8955" stroke="#232527" stroke-width="1.5" stroke-linecap="round" stroke-linejoin="round"/>
<path d="M45.1892 18.2617C45.1892 21.8395 42.2803 24.7484 38.7025 24.7484C35.1247 24.7484 32.2158 21.8395 32.2158 18.2617" stroke="#232527" stroke-width="1.5" stroke-linecap="round" stroke-linejoin="round"/>
<path d="M34.6426 12.5842C34.6426 12.5842 36.6648 16.6442 46.807 16.6442V14.622C46.807 10.142 43.1826 6.51758 38.7026 6.51758C34.2226 6.51758 30.5981 10.142 30.5981 14.622V16.6442C30.5981 16.6442 32.6204 17.6554 35.6693 14.622" stroke="#232527" stroke-width="1.5" stroke-linecap="round" stroke-linejoin="round"/>
<path d="M32.5114 20.4867C31.5159 20.9845 30.287 20.5801 29.7892 19.5845C29.2914 18.589 29.6959 17.3601 30.6914 16.8623" stroke="#232527" stroke-width="1.5" stroke-linecap="round" stroke-linejoin="round"/>
<path d="M44.8936 20.4867C45.8891 20.9845 47.118 20.5801 47.6158 19.5845C48.1136 18.589 47.7091 17.3601 46.7136 16.8623" stroke="#232527" stroke-width="1.5" stroke-linecap="round" stroke-linejoin="round"/>
<path d="M41.736 24.749V26.7868L38.7027 29.8201L35.6538 26.7868V24.749" stroke="#232527" stroke-width="1.5" stroke-linecap="round" stroke-linejoin="round"/>
<path d="M35.6536 25.7598L33.6313 27.7975L36.6647 32.8687L38.7025 29.8198L40.7247 32.8687L43.7736 27.7975L41.7358 25.7598" stroke="#232527" stroke-width="1.5" stroke-linecap="round" stroke-linejoin="round"/>
<path d="M43.7739 27.7979L48.845 29.8201C48.845 29.8201 47.8339 31.8423 47.8339 35.9023V49.0778" stroke="#232527" stroke-width="1.5" stroke-linecap="round" stroke-linejoin="round"/>
<path d="M52.8891 49.0771V34.8904C52.8891 31.8571 48.8291 29.8193 48.8291 29.8193" stroke="#232527" stroke-width="1.5" stroke-linecap="round" stroke-linejoin="round"/>
<path d="M33.6317 27.7979L28.5605 29.8201C28.5605 29.8201 29.5717 31.8423 29.5717 35.9023V49.0778" stroke="#232527" stroke-width="1.5" stroke-linecap="round" stroke-linejoin="round"/>
<path d="M26.4448 31.2971C27.487 30.3638 28.5604 29.8193 28.5604 29.8193" stroke="#232527" stroke-width="1.5" stroke-linecap="round" stroke-linejoin="round"/>
<path d="M32.6206 35.9023H35.6539" stroke="#232527" stroke-width="1.5" stroke-linecap="round" stroke-linejoin="round"/>
<path d="M38.7026 29.8193V49.0771" stroke="#232527" stroke-width="1.5" stroke-linecap="round" stroke-linejoin="round"/>
</svg>
