<svg width="56" height="56" viewBox="0 0 56 56" fill="none" xmlns="http://www.w3.org/2000/svg">
<path d="M41.2378 22.2288C42.0311 21.5288 42.2489 20.3621 41.7044 19.4132C41.16 18.4643 40.0244 18.0599 39.0289 18.4021C38.8267 17.3754 37.9089 16.5977 36.82 16.5977C35.7311 16.5977 34.8133 17.3754 34.6111 18.4021C33.6155 18.0599 32.48 18.4643 31.9355 19.4132C31.3911 20.3621 31.6089 21.5443 32.4022 22.2288C31.6089 22.9288 31.3911 24.0954 31.9355 25.0443C32.48 25.9932 33.6155 26.3977 34.6111 26.0554C34.8133 27.0821 35.7311 27.8599 36.82 27.8599C37.9089 27.8599 38.8267 27.0821 39.0289 26.0554C40.0244 26.3977 41.16 25.9932 41.7044 25.0443C42.2489 24.0954 42.0311 22.9132 41.2378 22.2288Z" fill="white" stroke="#232527" stroke-width="1.5" stroke-linecap="round" stroke-linejoin="round"/>
<path d="M23.6137 22.2288C24.4071 21.5288 24.6249 20.3621 24.0804 19.4132C23.536 18.4643 22.4004 18.0599 21.4049 18.4021C21.2026 17.3754 20.2849 16.5977 19.196 16.5977C18.1071 16.5977 17.1893 17.3754 16.9871 18.4021C15.9915 18.0599 14.856 18.4643 14.3115 19.4132C13.7671 20.3621 13.9849 21.5443 14.7782 22.2288C13.9849 22.9288 13.7671 24.0954 14.3115 25.0443C14.856 25.9932 15.9915 26.3977 16.9871 26.0554C17.1893 27.0821 18.1071 27.8599 19.196 27.8599C20.2849 27.8599 21.2026 27.0821 21.4049 26.0554C22.4004 26.3977 23.536 25.9932 24.0804 25.0443C24.6249 24.0954 24.4071 22.9132 23.6137 22.2288Z" fill="white" stroke="#232527" stroke-width="1.5" stroke-linecap="round" stroke-linejoin="round"/>
<path d="M32.4179 17.7014C33.2113 17.0014 33.4291 15.8348 32.8846 14.8859C32.3402 13.937 31.2046 13.5325 30.2091 13.8748C30.0068 12.8481 29.0891 12.0703 28.0002 12.0703C26.9113 12.0703 25.9935 12.8481 25.7913 13.8748C24.7957 13.5325 23.6602 13.937 23.1157 14.8859C22.5713 15.8348 22.7891 17.017 23.5824 17.7014C22.7891 18.4014 22.5713 19.5681 23.1157 20.517C23.6602 21.4659 24.7957 21.8703 25.7913 21.5281C25.9935 22.5548 26.9113 23.3325 28.0002 23.3325C29.0891 23.3325 30.0068 22.5548 30.2091 21.5281C31.2046 21.8703 32.3402 21.4659 32.8846 20.517C33.4291 19.5681 33.2113 18.3859 32.4179 17.7014Z" fill="white" stroke="#232527" stroke-width="1.5" stroke-miterlimit="10"/>
<path d="M51.3335 36.042H4.66688C3.80777 36.042 3.11133 36.7384 3.11133 37.5975V44.9864C3.11133 45.8455 3.80777 46.542 4.66688 46.542H51.3335C52.1927 46.542 52.8891 45.8455 52.8891 44.9864V37.5975C52.8891 36.7384 52.1927 36.042 51.3335 36.042Z" stroke="#232527" stroke-width="1.5" stroke-linecap="round" stroke-linejoin="round"/>
<path d="M10.8891 25.9307H45.1113C45.9668 25.9307 46.6668 26.6307 46.6668 27.4862V36.0418H9.3335V27.4862C9.3335 26.6307 10.0335 25.9307 10.8891 25.9307Z" fill="white" stroke="#232527" stroke-width="1.5" stroke-linecap="round" stroke-linejoin="round"/>
<path d="M48.7515 16.5977H44.5981V34.9999H48.7515V16.5977Z" fill="white" stroke="#232527" stroke-width="1.5" stroke-linecap="round" stroke-linejoin="round"/>
<path d="M46.667 9.33301C46.667 9.33301 48.7359 11.7597 48.7359 13.4863C48.7359 15.213 47.8026 15.5552 46.667 15.5552C45.5315 15.5552 44.5981 15.1975 44.5981 13.4863C44.5981 11.7752 46.667 9.33301 46.667 9.33301Z" fill="white" stroke="#232527" stroke-width="1.5" stroke-linecap="round" stroke-linejoin="round"/>
<path d="M46.667 16.5979V15.5557" stroke="#232527" stroke-width="1.5" stroke-linecap="round" stroke-linejoin="round"/>
<path d="M42.5137 33.957H50.8048V34.2837C50.8048 35.2481 50.027 36.0259 49.0626 36.0259H44.2714C43.307 36.0259 42.5292 35.2481 42.5292 34.2837V33.957H42.5137Z" fill="white" stroke="#232527" stroke-width="1.5" stroke-linecap="round" stroke-linejoin="round"/>
<path d="M11.418 16.5977H7.26465V34.9999H11.418V16.5977Z" fill="white" stroke="#232527" stroke-width="1.5" stroke-linecap="round" stroke-linejoin="round"/>
<path d="M9.33354 9.33301C9.33354 9.33301 11.4024 11.7597 11.4024 13.4863C11.4024 15.213 10.4691 15.5552 9.33354 15.5552C8.19798 15.5552 7.26465 15.1975 7.26465 13.4863C7.26465 11.7752 9.33354 9.33301 9.33354 9.33301Z" fill="white" stroke="#232527" stroke-width="1.5" stroke-linecap="round" stroke-linejoin="round"/>
<path d="M9.3335 16.5979V15.5557" stroke="#232527" stroke-width="1.5" stroke-linecap="round" stroke-linejoin="round"/>
<path d="M5.18018 33.957H13.4713V34.2837C13.4713 35.2481 12.6935 36.0259 11.7291 36.0259H6.93795C5.97351 36.0259 5.19573 35.2481 5.19573 34.2837V33.957H5.18018Z" fill="white" stroke="#232527" stroke-width="1.5" stroke-linecap="round" stroke-linejoin="round"/>
</svg>
