<svg width="56" height="56" viewBox="0 0 56 56" fill="none" xmlns="http://www.w3.org/2000/svg">
<path d="M17.1113 6.22266H38.8891C43.1824 6.22266 46.6668 9.7071 46.6668 14.0004V51.3338C46.6668 52.1893 45.9668 52.8893 45.1113 52.8893H10.8891C10.0335 52.8893 9.3335 52.1893 9.3335 51.3338V14.0004C9.3335 9.7071 12.8179 6.22266 17.1113 6.22266Z" stroke="#232527" stroke-width="1.5" stroke-linecap="round" stroke-linejoin="round"/>
<path d="M35.7777 3.11133H20.2222V7.778H35.7777V3.11133Z" fill="white" stroke="#232527" stroke-width="1.5" stroke-linecap="round" stroke-linejoin="round"/>
<path d="M20.3803 3.10287L16.0039 6.4707L25.1967 18.4164L29.573 15.0485L20.3803 3.10287Z" fill="white" stroke="#232527" stroke-width="1.5" stroke-linecap="round" stroke-linejoin="round"/>
<path d="M20.4112 23.4671L24.7876 26.835L40.4599 6.46941L36.0835 3.10158L20.4112 23.4671Z" fill="white" stroke="#232527" stroke-width="1.5" stroke-linecap="round" stroke-linejoin="round"/>
<path d="M46.6667 31.1113H9.33339C8.47428 31.1113 7.77783 31.8078 7.77783 32.6669V35.778C7.77783 36.6371 8.47428 37.3336 9.33339 37.3336H46.6667C47.5258 37.3336 48.2223 36.6371 48.2223 35.778V32.6669C48.2223 31.8078 47.5258 31.1113 46.6667 31.1113Z" fill="white" stroke="#232527" stroke-width="1.5" stroke-linecap="round" stroke-linejoin="round"/>
<path d="M23.3369 37.3311L17.3267 35.7207L13.9931 48.1618L20.0033 49.7723L23.3369 37.3311Z" fill="white" stroke="#232527" stroke-width="1.5" stroke-linecap="round" stroke-linejoin="round"/>
<path d="M27.7939 35.9267L21.7837 37.5371L25.0649 49.7829L31.0751 48.1725L27.7939 35.9267Z" fill="white" stroke="#232527" stroke-width="1.5" stroke-linecap="round" stroke-linejoin="round"/>
<path d="M28.0002 31.1113H17.1113V37.3336H28.0002V31.1113Z" fill="white" stroke="#232527" stroke-width="1.5" stroke-linecap="round" stroke-linejoin="round"/>
<path d="M24.8892 26.4443V31.111" stroke="#232527" stroke-width="1.5" stroke-linecap="round" stroke-linejoin="round"/>
<path d="M24.8892 49.7783V52.8894" stroke="#232527" stroke-width="1.5" stroke-linecap="round" stroke-linejoin="round"/>
</svg>
