<svg width="56" height="56" viewBox="0 0 56 56" fill="none" xmlns="http://www.w3.org/2000/svg">
<path d="M49.7777 25.8693C49.7777 18.9159 46.4022 14.6693 41.2066 12.3359H14.7933C9.58217 14.6693 6.22217 18.9159 6.22217 25.8693C6.22217 34.1293 10.9666 43.9759 17.8888 49.2026H38.0955C45.0333 43.9759 49.7622 34.1293 49.7622 25.8693H49.7777Z" stroke="#232527" stroke-width="1.5" stroke-linecap="round" stroke-linejoin="round"/>
<path d="M41.8601 8.64941H14.1401V12.3361H41.8601V8.64941Z" stroke="#232527" stroke-width="1.5" stroke-linecap="round" stroke-linejoin="round"/>
<path d="M18.8068 3.11133H37.1935C39.7757 3.11133 41.8601 5.19577 41.8601 7.77799V8.64911H14.1401V7.77799C14.1401 5.19577 16.2246 3.11133 18.8068 3.11133Z" stroke="#232527" stroke-width="1.5" stroke-linecap="round" stroke-linejoin="round"/>
<path d="M18.1064 49.2021H37.9087V51.3333C37.9087 52.1888 37.2087 52.8888 36.3531 52.8888H19.662C18.8064 52.8888 18.1064 52.1888 18.1064 51.3333V49.2021Z" stroke="#232527" stroke-width="1.5" stroke-linecap="round" stroke-linejoin="round"/>
<path d="M34.2222 24.8887H49.7777" stroke="#232527" stroke-width="1.5" stroke-linecap="round" stroke-linejoin="round"/>
<path d="M42 34.2227H48.2222" stroke="#232527" stroke-width="1.5" stroke-linecap="round" stroke-linejoin="round"/>
</svg>
