<svg width="56" height="56" viewBox="0 0 56 56" fill="none" xmlns="http://www.w3.org/2000/svg">
<path d="M40.3668 8.83594H15.3379V29.6959H40.3668V8.83594Z" stroke="#232527" stroke-width="1.5" stroke-linecap="round" stroke-linejoin="round"/>
<path d="M36.1979 4.66699H19.5223L15.3379 8.83588H40.3668L36.1979 4.66699Z" stroke="#232527" stroke-width="1.5" stroke-linecap="round" stroke-linejoin="round"/>
<path d="M15.3377 25.5273H6.99994L2.83105 29.6962H27.8599" stroke="#232527" stroke-width="1.5" stroke-linecap="round" stroke-linejoin="round"/>
<path d="M29.9445 4.66699H25.7756L24.7334 8.83588H30.9867L29.9445 4.66699Z" fill="white" stroke="#232527" stroke-width="1.5" stroke-linecap="round" stroke-linejoin="round"/>
<path d="M27.8599 29.6963H2.83105V50.5563H27.8599V29.6963Z" stroke="#232527" stroke-width="1.5" stroke-linecap="round" stroke-linejoin="round"/>
<path d="M52.8888 29.6963H27.8599V50.5563H52.8888V29.6963Z" stroke="#232527" stroke-width="1.5" stroke-linecap="round" stroke-linejoin="round"/>
<path d="M30.9867 20.3159L27.8601 18.4026L24.7334 20.3159V8.83594H30.9867V20.3159Z" stroke="#232527" stroke-width="1.5" stroke-linecap="round" stroke-linejoin="round"/>
<path d="M18.4798 41.1763L15.3376 39.263L12.2109 41.1763V29.6963H18.4798V41.1763Z" stroke="#232527" stroke-width="1.5" stroke-linecap="round" stroke-linejoin="round"/>
<path d="M43.5086 41.1763L40.3664 39.263L37.2397 41.1763V29.6963H43.5086V41.1763Z" stroke="#232527" stroke-width="1.5" stroke-linecap="round" stroke-linejoin="round"/>
<path d="M12.2109 29.6962L14.2954 25.5273" stroke="#232527" stroke-width="1.5" stroke-linecap="round" stroke-linejoin="round"/>
<path d="M40.3665 25.5273H48.7199L52.8888 29.6962H27.8599" stroke="#232527" stroke-width="1.5" stroke-linecap="round" stroke-linejoin="round"/>
<path d="M43.5087 29.6962L41.4087 25.5273" stroke="#232527" stroke-width="1.5" stroke-linecap="round" stroke-linejoin="round"/>
</svg>
