<svg width="56" height="56" viewBox="0 0 56 56" fill="none" xmlns="http://www.w3.org/2000/svg">
<g clip-path="url(#clip0_7601_4075)">
<path d="M38.6261 53.9417L30.0696 53.9422V50.8315L38.6261 50.8311C42.9961 50.8315 44.586 47.4902 44.586 39.4258H47.6967C47.6967 49.1031 45.4933 53.9422 38.6261 53.9417Z" fill="#97AAE8"/>
<path d="M27.477 50.2949H31.6254C32.7806 50.2952 33.717 51.2316 33.7172 52.3867C33.7172 53.5421 32.7807 54.4792 31.6254 54.4795H27.477C26.3217 54.4793 25.3852 53.5421 25.3852 52.3867C25.3854 51.2316 26.3218 50.2951 27.477 50.2949Z" fill="#6077C1" stroke="#6077C1"/>
<path d="M7.40686 24.0982C7.40686 11.9789 14.9717 2.1543 28 2.1543C41.0282 2.1543 48.5932 11.9789 48.5932 24.0982V28.4171L47.3834 33.3851H44.964V24.0982C44.964 13.8434 39.0239 5.53029 28 5.53029C16.9761 5.53029 11.0361 13.8434 11.0361 24.0982V33.3851H8.61659L7.40686 28.4171V24.0982Z" fill="#6077C1" stroke="#6077C1" stroke-linecap="round"/>
<rect width="4.84983" height="7.75919" rx="2.42492" transform="matrix(0.989798 -0.142475 0.142495 0.989796 1.10547 31.2061)" fill="#97AAE8"/>
<path d="M15.2671 27.5034C15.0206 25.7911 14.8974 24.935 14.3755 24.4025C14.1129 24.1345 13.7859 23.9289 13.4205 23.802C12.6946 23.5498 11.7936 23.7619 9.9917 24.1862C6.9554 24.901 5.43725 25.2584 4.44251 26.1619C3.93906 26.6192 3.54006 27.1673 3.27058 27.7717C2.73811 28.9659 2.9458 30.4085 3.36118 33.2938L3.86608 36.801C4.27731 39.6575 4.48293 41.0857 5.34559 42.0875C5.66849 42.4624 6.05231 42.7872 6.48346 43.0504C7.63535 43.7535 9.17612 43.8031 12.2577 43.9023C14.4262 43.9721 15.5105 44.007 16.2341 43.5006C16.5011 43.3137 16.7273 43.0802 16.8997 42.8133C17.3671 42.09 17.2224 41.0849 16.933 39.0747L15.2671 27.5034Z" fill="#AAC9FF"/>
<rect width="5.27573" height="24.2475" rx="2.63787" transform="matrix(0.989798 -0.142475 0.142495 0.989796 12.171 21.7686)" fill="#708DE7"/>
<rect width="4.84983" height="7.75919" rx="2.42491" transform="matrix(-0.989798 -0.142475 -0.142495 0.989796 54.8787 31.21)" fill="#97AAE8"/>
<path d="M40.7131 27.5093C40.9596 25.797 41.0829 24.9409 41.6047 24.4083C41.8674 24.1404 42.1944 23.9347 42.5597 23.8079C43.2857 23.5557 44.1866 23.7678 45.9885 24.192C49.0248 24.9068 50.543 25.2642 51.5377 26.1678C52.0412 26.6251 52.4402 27.1731 52.7096 27.7775C53.2421 28.9718 53.0344 30.4144 52.619 33.2997L52.1141 36.8068C51.7029 39.6633 51.4973 41.0916 50.6346 42.0933C50.3117 42.4683 49.9279 42.7931 49.4968 43.0562C48.3449 43.7593 46.8041 43.8089 43.7226 43.9081C41.554 43.978 40.4697 44.0129 39.7461 43.5065C39.4791 43.3196 39.2529 43.0861 39.0805 42.8192C38.6132 42.0958 38.7579 41.0907 39.0473 39.0805L40.7131 27.5093Z" fill="#AAC9FF"/>
<rect width="5.27573" height="24.2475" rx="2.63787" transform="matrix(-0.989798 -0.142475 -0.142495 0.989796 43.8359 21.7188)" fill="#708DE7"/>
</g>
<defs>
<clipPath id="clip0_7601_4075">
<rect width="56" height="56" fill="white"/>
</clipPath>
</defs>
</svg>
