<svg width="56" height="56" viewBox="0 0 56 56" fill="none" xmlns="http://www.w3.org/2000/svg">
<g clip-path="url(#clip0_7415_1813)">
<rect x="45.1108" y="24.8892" width="6.22222" height="6.22222" fill="white"/>
<path d="M23.9399 3.11133H32.0599L27.9999 34.098L23.9399 3.11133Z" stroke="#232527" stroke-width="1.5" stroke-linecap="round" stroke-linejoin="round"/>
<path d="M23.9398 3.11133L19.8798 7.10911L18.8687 13.098L22.9287 15.1047L19.8798 21.0936L27.9998 35.0936" stroke="#232527" stroke-width="1.5" stroke-linecap="round" stroke-linejoin="round"/>
<path d="M19.8798 7.10889L11.7754 11.1067V52.8889H27.9998V33.0867" stroke="#232527" stroke-width="1.5" stroke-linecap="round" stroke-linejoin="round"/>
<path d="M4.6665 52.8892H11.7754V11.1069C7.71539 13.098 4.6665 18.1069 4.6665 27.098V52.8892Z" stroke="#232527" stroke-width="1.5" stroke-linecap="round" stroke-linejoin="round"/>
<path d="M23.3332 43.5557H15.8198V45.5468H23.3332V43.5557Z" stroke="#232527" stroke-width="1.5" stroke-linecap="round" stroke-linejoin="round"/>
<path d="M32.06 3.11133L36.12 7.10911L37.1311 13.098L33.0711 15.1047L36.12 21.0936L28 35.0936" stroke="#232527" stroke-width="1.5" stroke-linecap="round" stroke-linejoin="round"/>
<path d="M36.12 7.10889L44.2244 11.1067V52.8889H28V33.0867" stroke="#232527" stroke-width="1.5" stroke-linecap="round" stroke-linejoin="round"/>
<path d="M51.333 52.8892H44.2241V11.1069C48.2841 13.098 51.333 18.1069 51.333 27.098V52.8892Z" stroke="#232527" stroke-width="1.5" stroke-linecap="round" stroke-linejoin="round"/>
<path d="M32.6664 45.5469H40.1797V43.5558H32.6664V45.5469Z" stroke="#232527" stroke-width="1.5" stroke-linecap="round" stroke-linejoin="round"/>
<path d="M44.2241 25.0913H51.333" stroke="#232527" stroke-width="1.5" stroke-linecap="round" stroke-linejoin="round"/>
<path d="M44.2241 28.0938H51.333" stroke="#232527" stroke-width="1.5" stroke-linecap="round" stroke-linejoin="round"/>
<path d="M44.2241 31.0957H51.333" stroke="#232527" stroke-width="1.5" stroke-linecap="round" stroke-linejoin="round"/>
</g>
<defs>
<clipPath id="clip0_7415_1813">
<rect width="56" height="56" fill="white"/>
</clipPath>
</defs>
</svg>
