<svg width="56" height="56" viewBox="0 0 56 56" fill="none" xmlns="http://www.w3.org/2000/svg">
<path d="M38.9013 52.7689C47.1575 48.3234 52.7692 39.6 52.7692 29.5658C52.7692 15.0212 40.9785 3.23047 26.4339 3.23047C16.3997 3.23047 7.67631 8.84218 3.23077 17.0984" stroke="#6077C1" stroke-width="4.2" stroke-linecap="round"/>
<rect x="25.8461" y="7.53906" width="2.15385" height="5.38462" rx="1.07692" fill="#97AAE8"/>
<rect x="43.0769" y="29.0781" width="2.15385" height="5.38462" rx="1.07692" transform="rotate(-90 43.0769 29.0781)" fill="#97AAE8"/>
<rect x="37.015" y="9.83887" width="2.15385" height="5.07029" rx="1.07692" transform="rotate(30 37.015 9.83887)" fill="#97AAE8"/>
<rect x="8.61536" y="19.0967" width="2.15385" height="5.07029" rx="1.07692" transform="rotate(-60 8.61536 19.0967)" fill="#97AAE8"/>
<rect x="40.9231" y="37.4043" width="2.15385" height="5.07029" rx="1.07692" transform="rotate(-60 40.9231 37.4043)" fill="#97AAE8"/>
<rect x="45.0331" y="17.2588" width="2.15385" height="5.07029" rx="1.07692" transform="rotate(60 45.0331 17.2588)" fill="#97AAE8"/>
<rect x="15.9141" y="10.6484" width="2.15385" height="5.07029" rx="1.07692" transform="rotate(-30 15.9141 10.6484)" fill="#97AAE8"/>
<rect x="34.4615" y="43.0781" width="2.15385" height="5.07029" rx="1.07692" transform="rotate(-30 34.4615 43.0781)" fill="#97AAE8"/>
<path d="M18.059 34.3086L18.0756 32.3164L21.9105 28.415C22.807 27.4854 23.4877 26.9209 23.4877 25.958C23.4877 24.8955 22.7904 24.3311 21.9437 24.3311C21.0639 24.3311 20.4164 24.9287 20.433 26.0742H17.9262C17.9262 23.6836 19.5199 22.123 21.9769 22.123C24.4008 22.123 26.0775 23.5508 26.0775 25.7422C26.0775 27.0869 25.5131 28.1992 23.1723 30.54L21.7943 31.9346V32.0176H26.2103V34.3086H18.059ZM27.3392 32.2832V30.1084L31.2572 22.2891H33.9633L30.1449 29.9756V30.0586H32.5189V26.7881H35.142V30.0586H36.4701V32.2832H35.142V34.3086H32.4525V32.2832H27.3392Z" fill="#708DE7"/>
<path d="M29.5555 45.7097C27.4615 45.7097 26.2003 45.9275 24.3241 45.3077C23.7378 45.1234 23.0844 45.2574 22.6154 45.7097L19.5952 47.9377C14.8543 45.5254 11.0277 42.4502 8.61537 37.6926L10.8266 34.1005C11.2957 33.6649 11.4297 33.0116 11.2455 32.4253C10.6256 30.549 10.2906 28.5388 10.2906 26.4447C10.2906 25.5234 9.53673 24.7695 8.61537 24.7695H2.75212C1.83075 24.7695 1.0769 25.5234 1.0769 26.4447C1.0769 42.175 13.8253 54.9234 29.5555 54.9234C30.4769 54.9234 31.2308 54.1695 31.2308 53.2482V47.3849C31.2308 46.4635 30.4769 45.7097 29.5555 45.7097Z" fill="#AAC9FF"/>
</svg>
