<svg width="24" height="24" viewBox="0 0 24 24" fill="none" xmlns="http://www.w3.org/2000/svg">
<path d="M12 2C6.47715 2 2 6.47715 2 12C2 17.5228 6.47715 22 12 22C14.1112 22 16.0687 21.3444 17.6826 20.2275L21.3457 20.9902C21.6981 21.0634 22.0098 20.7518 21.9365 20.3994L21.0664 16.2188C21.664 14.9366 22 13.5078 22 12C22 6.47715 17.5228 2 12 2Z" fill="#848FBB"/>
<circle cx="1.5" cy="1.5" r="1.5" transform="matrix(-1 0 0 1 18 11)" fill="white"/>
<circle cx="1.5" cy="1.5" r="1.5" transform="matrix(-1 0 0 1 13 11)" fill="white"/>
<circle cx="1.5" cy="1.5" r="1.5" transform="matrix(-1 0 0 1 8 11)" fill="white"/>
</svg>
