<svg width="140" height="32" viewBox="0 0 140 32" fill="none" xmlns="http://www.w3.org/2000/svg">
<g clip-path="url(#clip0_7268_3002)">
<path d="M132.207 8.01668C132.207 6.95849 131.733 5.91593 130.885 5.0676H133.294V3.13428H128.809V0.919678H126.324V3.13205H121.725V5.06536H124.188C123.562 5.71724 122.893 6.71962 122.893 8.01445C122.893 10.4769 124.973 12.4905 127.534 12.4905C130.095 12.4905 132.204 10.4411 132.204 8.01445M127.536 10.4902C126.255 10.4902 125.085 9.27356 125.085 7.93185C125.085 6.59013 126.23 5.35112 127.536 5.35112C128.842 5.35112 129.985 6.55665 129.985 7.93185C129.985 9.30704 128.818 10.4902 127.536 10.4902Z" fill="#21409A"/>
<path d="M139.906 6.65702H137.241V1.51343H134.952V13.2495C136.904 13.1155 137.194 11.5059 137.241 11.0751V8.68187H140V6.65702H139.906Z" fill="#21409A"/>
<path d="M120.979 7.20415H118.287V1.53369H116.023V18.3933C118.019 18.2392 118.258 16.5403 118.287 16.1786V9.16425H121.071V7.20415H120.979Z" fill="#21409A"/>
<path d="M95.7705 17.9823V18.0716C97.6279 17.8997 97.8891 16.3973 97.9248 15.9932V1.83716H95.7705V4.25045H93.6965C92.8482 3.0025 91.473 2.25686 89.9929 2.25686C87.3809 2.25686 85.2578 4.55853 85.2578 7.38483C85.2578 10.2111 87.3809 12.5128 89.9929 12.5128C91.4306 12.5128 92.7835 11.8051 93.6273 10.6264H95.7683V17.9823H95.7705ZM89.9951 10.3786C88.6199 10.3786 87.4568 9.00783 87.4568 7.3826C87.4568 5.75736 88.5976 4.40672 89.9951 4.40672C91.3926 4.40672 92.529 5.7395 92.529 7.3826C92.529 9.02569 91.3703 10.3786 89.9951 10.3786ZM94.5292 8.67296C94.6409 8.30907 94.7056 7.8916 94.7056 7.38483C94.7056 6.98299 94.681 6.56552 94.5627 6.20386H95.7705V8.67296H94.5315H94.5292Z" fill="#21409A"/>
<path d="M101.626 16.4242V1.53369H99.3849V18.554H99.4251C99.7488 18.5317 101.425 18.3151 101.626 16.4242Z" fill="#21409A"/>
<path d="M114.845 11.4032L106.837 11.4077V4.65002H112.688V2.62964H104.575V13.3566H112.789C113.181 13.3276 114.595 13.1044 114.847 11.4032" fill="#21409A"/>
<path d="M134.731 21.11C137.105 21.11 137.196 19.3039 137.196 19.0673V19.0449V14.1045H126.681V21.1189H134.736V21.1122L134.731 21.11ZM128.983 16.0356H134.888V19.1811H128.983V16.0356Z" fill="#21409A"/>
<path d="M73.3945 24.5437C73.1623 24.3897 72.8475 24.441 72.6779 24.6576C70.1864 27.7875 66.4738 29.5824 62.4889 29.5824C58.5039 29.5824 54.7847 27.7875 52.2977 24.6576C52.1213 24.441 51.8133 24.3897 51.5744 24.5437C51.3444 24.6933 51.2618 25.0014 51.3891 25.2492C53.5501 29.4172 57.8074 32.0002 62.4889 32.0002C67.1704 32.0002 71.4254 29.415 73.582 25.2492C73.716 25.0014 73.6311 24.6933 73.3945 24.5437Z" fill="#ED1B2F"/>
<path d="M50.639 9.18652C49.3151 9.18652 49.1879 10.6376 49.1879 10.68V14.6873H54.6887V9.18652H50.6367H50.639Z" fill="url(#paint0_radial_7268_3002)"/>
<path d="M74.7697 10.3318L80.8755 4.23722L76.6963 0.058044L69.7109 7.05235L67.2463 9.51699V9.51029C65.7929 10.5729 65.5831 9.0571 65.5496 8.65749V0H62.4576C60.0823 0.0468817 59.6961 2.45124 59.647 2.83076V22.4452H65.5518V11.2427L69.7131 15.3995L76.6985 22.3938L80.8777 18.2169L74.7451 12.0821C74.0039 11.2784 74.6893 10.4234 74.7719 10.3296" fill="#21409A"/>
<path d="M24.4544 6.97427C23.3203 6.97427 22.251 7.27119 21.3535 7.82931C21.1258 7.87619 20.9316 7.8628 20.7954 7.77126C20.6347 7.66634 20.5811 7.47211 20.5655 7.37835V1.5293H19.6033C18.813 1.53153 18.2057 1.76147 17.8151 2.20797C17.2078 2.8844 17.3038 3.81311 17.3083 3.85552L17.3038 21.1884H20.5655V12.5889C20.5655 10.7427 21.704 9.63984 23.6083 9.63984C25.5126 9.63984 26.6221 10.7427 26.6221 12.5889V21.1884H29.8904V12.1514C29.8904 8.96117 27.8053 6.97651 24.4566 6.97651M34.918 12.042C34.9693 11.6892 35.0608 11.3879 35.2394 11.0083C35.7328 9.95685 36.8758 9.3072 38.2265 9.3072C39.5771 9.3072 40.6889 9.94568 41.1889 11.0083C41.4769 11.5999 41.5662 12.004 41.5975 12.7764H35.6033C34.8889 12.7251 34.9157 12.0688 34.918 12.042ZM42.361 17.2057C41.3497 18.112 40.4723 18.6076 38.6819 18.6076C36.311 18.6076 34.8956 17.219 34.8599 14.8928H42.6825C44.6426 14.7834 44.8011 13.2564 44.8011 12.7586V12.7474C44.4684 9.08619 41.948 6.81577 38.2242 6.81577C34.1478 6.81577 31.6139 9.5617 31.6139 13.982C31.6139 19.9404 35.427 21.1884 38.6238 21.1884C41.4568 21.1884 42.9548 20.3534 44.4483 19.0073L44.5198 18.9447L42.4123 17.1543L42.3565 17.2079L42.361 17.2057ZM0 3.56307V4.36006H5.95621V21.1884H9.40313V5.17268C9.46341 4.48954 9.94339 4.37346 10.1488 4.35783H15.3549V1.5293H2.30167C0.310312 1.53823 0.029022 2.95138 0 3.56307Z" fill="#21409A"/>
</g>
<defs>
<radialGradient id="paint0_radial_7268_3002" cx="0" cy="0" r="1" gradientUnits="userSpaceOnUse" gradientTransform="translate(50.2125 10.4551) scale(2.38347)">
<stop stop-color="#8789BD"/>
<stop offset="1" stop-color="#21409A"/>
</radialGradient>
<clipPath id="clip0_7268_3002">
<rect width="140" height="32.0001" fill="white"/>
</clipPath>
</defs>
</svg>
