<svg width="105" height="24" viewBox="0 0 105 24" fill="none" xmlns="http://www.w3.org/2000/svg">
<g clip-path="url(#clip0_7268_2656)">
<path d="M99.1549 6.01269C99.1549 5.21905 98.7999 4.43713 98.1637 3.80088H99.9703V2.35089H96.6065V0.689941H94.743V2.34922H91.2938V3.7992H93.1406C92.6718 4.28811 92.1695 5.0399 92.1695 6.01102C92.1695 7.85782 93.73 9.36809 95.6505 9.36809C97.571 9.36809 99.1532 7.83103 99.1532 6.01102M95.6522 7.86787C94.6911 7.86787 93.8137 6.95535 93.8137 5.94907C93.8137 4.94278 94.6727 4.01352 95.6522 4.01352C96.6316 4.01352 97.4889 4.91767 97.4889 5.94907C97.4889 6.98047 96.6132 7.86787 95.6522 7.86787Z" fill="#21409A"/>
<path d="M104.93 4.99295H102.931V1.13525H101.214V9.9373C102.678 9.83684 102.895 8.62963 102.931 8.30649V6.51158H105V4.99295H104.93Z" fill="#21409A"/>
<path d="M90.7346 5.40323H88.7154V1.15039H87.0176V13.7951C88.5144 13.6795 88.6936 12.4054 88.7154 12.1341V6.87331H90.8033V5.40323H90.7346Z" fill="#21409A"/>
<path d="M71.8279 13.4871V13.554C73.2209 13.4251 73.4168 12.2983 73.4436 11.9952V1.37817H71.8279V3.18814H70.2724C69.6361 2.25218 68.6047 1.69295 67.4946 1.69295C65.5357 1.69295 63.9434 3.4192 63.9434 5.53893C63.9434 7.65865 65.5357 9.3849 67.4946 9.3849C68.5729 9.3849 69.5876 8.85414 70.2205 7.97008H71.8262V13.4871H71.8279ZM67.4963 7.78423C66.4649 7.78423 65.5926 6.75618 65.5926 5.53725C65.5926 4.31833 66.4482 3.30535 67.4963 3.30535C68.5445 3.30535 69.3967 4.30493 69.3967 5.53725C69.3967 6.76957 68.5277 7.78423 67.4963 7.78423ZM70.8969 6.50503C70.9806 6.23211 71.0292 5.919 71.0292 5.53893C71.0292 5.23755 71.0108 4.92444 70.922 4.6532H71.8279V6.50503H70.8986H70.8969Z" fill="#21409A"/>
<path d="M76.2196 12.3183V1.15039H74.5386V13.9156H74.5687C74.8115 13.8989 76.0689 13.7365 76.2196 12.3183Z" fill="#21409A"/>
<path d="M86.1335 8.5526L80.1276 8.55595V3.4877H84.5161V1.97241H78.4315V10.0177H84.5914C84.8861 9.99589 85.946 9.82845 86.1352 8.5526" fill="#21409A"/>
<path d="M101.049 15.8327C102.828 15.8327 102.897 14.4782 102.897 14.3007V14.2839V10.5786H95.0109V15.8394H101.052V15.8344L101.049 15.8327ZM96.7371 12.0269H101.166V14.3861H96.7371V12.0269Z" fill="#21409A"/>
<path d="M55.0458 18.4077C54.8717 18.2922 54.6356 18.3307 54.5083 18.4931C52.6398 20.8406 49.8553 22.1867 46.8666 22.1867C43.8779 22.1867 41.0884 20.8406 39.2232 18.4931C39.0909 18.3307 38.8599 18.2922 38.6807 18.4077C38.5083 18.5199 38.4463 18.751 38.5418 18.9368C40.1625 22.0628 43.3555 24.0001 46.8666 24.0001C50.3777 24.0001 53.569 22.0612 55.1864 18.9368C55.2869 18.751 55.2233 18.5199 55.0458 18.4077Z" fill="#ED1B2F"/>
<path d="M37.9792 6.88989C36.9863 6.88989 36.8909 7.97822 36.8909 8.01003V11.0155H41.0165V6.88989H37.9775H37.9792Z" fill="url(#paint0_radial_7268_2656)"/>
<path d="M56.0773 7.74888L60.6566 3.17791L57.5222 0.043533L52.2832 5.28926L50.4347 7.13774V7.13272C49.3447 7.92971 49.1873 6.79283 49.1622 6.49312V0H46.8432C45.0617 0.0351613 44.7721 1.83843 44.7352 2.12307V16.8339H49.1639V8.43201L52.2849 11.5497L57.5239 16.7954L60.6583 13.6627L56.0588 9.06157C55.503 8.4588 56.017 7.81753 56.0789 7.74721" fill="#21409A"/>
<path d="M18.3408 5.23071C17.4902 5.23071 16.6882 5.45339 16.0151 5.87198C15.8444 5.90714 15.6987 5.8971 15.5965 5.82845C15.476 5.74975 15.4358 5.60409 15.4241 5.53376V1.14697H14.7024C14.1097 1.14865 13.6543 1.3211 13.3613 1.65597C12.9059 2.1633 12.9779 2.85983 12.9812 2.89164L12.9779 15.8913H15.4241V9.44169C15.4241 8.057 16.278 7.22988 17.7062 7.22988C19.1344 7.22988 19.9666 8.057 19.9666 9.44169V15.8913H22.4178V9.11352C22.4178 6.72088 20.854 5.23238 18.3425 5.23238M26.1885 9.03148C26.227 8.76693 26.2956 8.54089 26.4296 8.25625C26.7996 7.46764 27.6569 6.9804 28.6699 6.9804C29.6828 6.9804 30.5167 7.45926 30.8917 8.25625C31.1077 8.69995 31.1747 9.00301 31.1981 9.58234H26.7025C26.1667 9.54383 26.1868 9.05157 26.1885 9.03148ZM31.7707 12.9042C31.0123 13.584 30.3542 13.9557 29.0114 13.9557C27.2333 13.9557 26.1717 12.9143 26.1449 11.1696H32.0119C33.4819 11.0876 33.6008 9.94232 33.6008 9.56894V9.56057C33.3513 6.81464 31.461 5.11183 28.6682 5.11183C25.6108 5.11183 23.7104 7.17128 23.7104 10.4865C23.7104 14.9553 26.5702 15.8913 28.9679 15.8913C31.0926 15.8913 32.2161 15.2651 33.3363 14.2554L33.3898 14.2086L31.8093 12.8657L31.7674 12.9059L31.7707 12.9042ZM0 2.6723V3.27005H4.46716V15.8913H7.05235V3.87951C7.09756 3.36716 7.45754 3.28009 7.61158 3.26837H11.5162V1.14697H1.72625C0.232734 1.15367 0.0217665 2.21353 0 2.6723Z" fill="#21409A"/>
</g>
<defs>
<radialGradient id="paint0_radial_7268_2656" cx="0" cy="0" r="1" gradientUnits="userSpaceOnUse" gradientTransform="translate(37.6593 7.84132) scale(1.7876 1.7876)">
<stop stop-color="#8789BD"/>
<stop offset="1" stop-color="#21409A"/>
</radialGradient>
<clipPath id="clip0_7268_2656">
<rect width="105" height="24.0001" fill="white"/>
</clipPath>
</defs>
</svg>
