<svg width="56" height="56" viewBox="0 0 56 56" fill="none" xmlns="http://www.w3.org/2000/svg">
<g clip-path="url(#clip0_7335_29489)">
<path d="M39.0392 54.9222L30.1523 54.9226V51.6919L39.0392 51.6914C43.578 51.6919 45.2293 48.2215 45.2293 39.8457H48.46C48.46 49.8967 46.1716 54.9226 39.0392 54.9222Z" fill="#DCB055"/>
<path d="M24.7695 53.3075C24.7695 51.8206 25.9749 50.6152 27.4618 50.6152H31.7695C33.2565 50.6152 34.4618 51.8206 34.4618 53.3075C34.4618 54.7945 33.2565 55.9999 31.7695 55.9999H27.4618C25.9749 55.9999 24.7695 54.7945 24.7695 53.3075Z" fill="#C97A2C"/>
<path d="M5.38281 23.7778C5.38281 11.2406 14.3185 1.07715 27.9982 1.07715C41.6779 1.07715 50.6136 11.2406 50.6136 23.7778V28.2456L49.3434 33.3848H46.8029V23.7778C46.8029 13.1694 39.5733 4.56955 27.9982 4.56955C16.4231 4.56955 9.19346 13.1694 9.19346 23.7778V33.3848H6.65303L5.38281 28.2456V23.7778Z" fill="#C97A2C" stroke="#C97A2C" stroke-width="1.5" stroke-linecap="round"/>
<rect width="5.3467" height="8.55414" rx="2.67335" transform="matrix(0.989798 -0.142475 0.142495 0.989796 0.140625 31.3828)" fill="#DCB055"/>
<path d="M15.7553 27.3032C15.4835 25.4155 15.3476 24.4717 14.7723 23.8846C14.4827 23.5892 14.1222 23.3625 13.7195 23.2226C12.9191 22.9446 11.9259 23.1784 9.93935 23.6461C6.59198 24.4342 4.91829 24.8282 3.82164 25.8243C3.26662 26.3284 2.82674 26.9327 2.52965 27.599C1.94263 28.9156 2.17159 30.506 2.62952 33.6869L3.18615 37.5533C3.63952 40.7025 3.8662 42.2771 4.81725 43.3814C5.17322 43.7948 5.59637 44.1529 6.0717 44.443C7.3416 45.2181 9.04022 45.2728 12.4375 45.3822C14.8282 45.4592 16.0236 45.4977 16.8213 44.9394C17.1157 44.7334 17.365 44.4759 17.5551 44.1816C18.0703 43.3842 17.9108 42.2761 17.5918 40.06L15.7553 27.3032Z" fill="#FFC231"/>
<rect width="7" height="26.7317" rx="3" transform="matrix(0.989798 -0.142475 0.142495 0.989796 11.6172 21.085)" fill="#DE6C15"/>
<rect width="5.3467" height="8.55414" rx="2.67335" transform="matrix(-0.989798 -0.142475 -0.142495 0.989796 55.8633 31.3848)" fill="#DCB055"/>
<path d="M40.2447 27.3062C40.5165 25.4185 40.6524 24.4746 41.2277 23.8875C41.5173 23.5921 41.8778 23.3654 42.2805 23.2255C43.0809 22.9475 44.0741 23.1814 46.0606 23.649C49.408 24.4371 51.0817 24.8311 52.1784 25.8272C52.7334 26.3314 53.1733 26.9356 53.4704 27.6019C54.0574 28.9185 53.8284 30.5089 53.3705 33.6898L52.8138 37.5563C52.3605 40.7054 52.1338 42.28 51.1828 43.3844C50.8268 43.7977 50.4036 44.1558 49.9283 44.4459C48.6584 45.221 46.9598 45.2757 43.5625 45.3851C41.1718 45.4621 39.9764 45.5006 39.1787 44.9423C38.8843 44.7363 38.635 44.4788 38.4449 44.1846C37.9297 43.3872 38.0892 42.2791 38.4082 40.0629L40.2447 27.3062Z" fill="#FFC231"/>
<rect width="7" height="26.7317" rx="3" transform="matrix(-0.989798 -0.142475 -0.142495 0.989796 44.3711 21.0889)" fill="#DE6C15"/>
</g>
<defs>
<clipPath id="clip0_7335_29489">
<rect width="56" height="56" fill="white"/>
</clipPath>
</defs>
</svg>
