<svg width="56" height="56" viewBox="0 0 56 56" fill="none" xmlns="http://www.w3.org/2000/svg">
<path d="M36.4606 51.692C45.9838 48.1587 52.7701 38.9911 52.7701 28.2384C52.7701 14.4269 41.5737 3.23047 27.7622 3.23047C17.0095 3.23047 7.84188 10.0168 4.30859 19.54" stroke="#C97A2C" stroke-width="4.2" stroke-linecap="round"/>
<rect x="26.2031" y="8.61523" width="1.56908" height="4.70723" rx="0.784538" fill="#DCB055"/>
<rect x="42.6758" y="29.7959" width="1.56908" height="4.70723" rx="0.784538" transform="rotate(-90 42.6758 29.7959)" fill="#DCB055"/>
<rect x="36.5078" y="10.9561" width="1.56908" height="4.70723" rx="0.784538" transform="rotate(30 36.5078 10.9561)" fill="#DCB055"/>
<rect x="8.92969" y="19.4951" width="1.56908" height="4.70723" rx="0.784538" transform="rotate(-60 8.92969 19.4951)" fill="#DCB055"/>
<rect x="40.1875" y="37.5361" width="1.56908" height="4.70723" rx="0.784538" transform="rotate(-60 40.1875 37.5361)" fill="#DCB055"/>
<rect x="44.2617" y="18.1338" width="1.56908" height="4.70723" rx="0.784538" transform="rotate(60 44.2617 18.1338)" fill="#DCB055"/>
<rect x="16.1133" y="11.7402" width="1.56908" height="4.70723" rx="0.784538" transform="rotate(-30 16.1133 11.7402)" fill="#DCB055"/>
<rect x="34.1523" y="42.9912" width="1.56908" height="4.70723" rx="0.784539" transform="rotate(-30 34.1523 42.9912)" fill="#DCB055"/>
<path d="M17.4887 33.6924V31.9326L21.3569 27.915C22.353 26.8525 23.0171 26.2217 23.0337 25.2256C23.0337 24.1133 22.27 23.499 21.3071 23.499C20.3276 23.499 19.6303 24.1631 19.6303 25.3584H17.4057C17.3891 23.0342 18.9829 21.5068 21.3569 21.5068C23.6811 21.5068 25.3247 22.9512 25.3247 25.0596C25.3247 26.4043 24.7602 27.5 22.4858 29.791L20.7924 31.5674V31.6338H25.4741V33.6924H17.4887ZM26.7358 31.5674V29.625L30.8364 21.6729H33.2436L29.226 29.4756V29.5586H31.9985V26.1719H34.3227V29.5586H35.7172V31.5674H34.3227V33.6924H31.9487V31.5674H26.7358Z" fill="#DE6C15"/>
<path d="M29.5568 45.7097C27.4627 45.7097 25.4525 45.3747 23.5762 44.7548C22.9899 44.5706 22.3366 44.7046 21.8675 45.1569L18.1821 48.8424C13.4412 46.43 9.55471 42.5603 7.1424 37.8027L10.8279 34.1005C11.2969 33.6649 11.4309 33.0116 11.2467 32.4253C10.6268 30.549 10.2918 28.5388 10.2918 26.4447C10.2918 25.5234 9.53795 24.7695 8.61659 24.7695H2.75334C1.83197 24.7695 1.07812 25.5234 1.07812 26.4447C1.07812 42.175 13.8265 54.9234 29.5568 54.9234C30.4781 54.9234 31.232 54.1695 31.232 53.2482V47.3849C31.232 46.4635 30.4781 45.7097 29.5568 45.7097Z" fill="#FFC231"/>
</svg>
