<svg width="56" height="56" viewBox="0 0 56 56" fill="none" xmlns="http://www.w3.org/2000/svg">
<g clip-path="url(#clip0_7335_29481)">
<path d="M50.5076 29.566C50.5076 16.2706 39.729 5.49206 26.4336 5.49196C17.2642 5.49196 9.28803 10.6181 5.22114 18.171C4.62901 19.2704 3.2582 19.6819 2.15864 19.0902C1.05891 18.4981 0.647325 17.1264 1.23947 16.0267C6.06367 7.0673 15.5347 0.969727 26.4336 0.969727C42.2271 0.969821 55.0298 13.7725 55.0299 29.566C55.0299 40.4649 48.9323 49.9359 39.9729 54.7601C38.8732 55.3523 37.5015 54.9407 36.9094 53.841C36.3177 52.7414 36.7292 51.3706 37.8286 50.7785C45.3815 46.7116 50.5076 38.7354 50.5076 29.566Z" fill="#C97A2C"/>
<rect x="25.8477" y="7.53906" width="2.15385" height="5.38462" rx="1.07692" fill="#DCB055"/>
<rect x="43.0781" y="29.0781" width="2.15385" height="5.38462" rx="1.07692" transform="rotate(-90 43.0781 29.0781)" fill="#DCB055"/>
<rect x="37.0156" y="9.83887" width="2.15385" height="5.07029" rx="1.07692" transform="rotate(30 37.0156 9.83887)" fill="#DCB055"/>
<rect x="8.61719" y="19.0967" width="2.15385" height="5.07029" rx="1.07692" transform="rotate(-60 8.61719 19.0967)" fill="#DCB055"/>
<rect x="40.9219" y="37.4043" width="2.15385" height="5.07029" rx="1.07692" transform="rotate(-60 40.9219 37.4043)" fill="#DCB055"/>
<rect x="45.0312" y="17.2588" width="2.15385" height="5.07029" rx="1.07692" transform="rotate(60 45.0312 17.2588)" fill="#DCB055"/>
<rect x="15.9141" y="10.6484" width="2.15385" height="5.07029" rx="1.07692" transform="rotate(-30 15.9141 10.6484)" fill="#DCB055"/>
<rect x="34.4609" y="43.0781" width="2.15385" height="5.07029" rx="1.07692" transform="rotate(-30 34.4609 43.0781)" fill="#DCB055"/>
<path d="M27.3672 33.3576V31.0155L31.5865 22.5947H34.5008L30.3887 30.8725V30.9619H32.9453V27.4398H35.7701V30.9619H37.2004V33.3576H35.7701V35.5388H32.8738V33.3576H27.3672Z" fill="#DE6C15"/>
<path d="M17.3735 35.5389L17.3914 33.3935L21.5213 29.192C22.4868 28.1908 23.2198 27.5829 23.2198 26.546C23.2198 25.4017 22.4689 24.7939 21.5571 24.7939C20.6095 24.7939 19.9123 25.4375 19.9301 26.6711H17.2305C17.2305 24.0966 18.9468 22.416 21.5928 22.416C24.2031 22.416 26.0089 23.9536 26.0089 26.3136C26.0089 27.7617 25.401 28.9596 22.8801 31.4805L21.3962 32.9823V33.0717H26.1519V35.5389H17.3735Z" fill="#DE6C15"/>
<path d="M29.5568 45.7097C27.4627 45.7097 26.2015 45.9275 24.3253 45.3077C23.739 45.1234 23.0856 45.2574 22.6166 45.7097L19.5964 47.9377C14.8556 45.5254 11.0289 42.4502 8.61659 37.6926L10.8279 34.1005C11.2969 33.6649 11.4309 33.0116 11.2467 32.4253C10.6268 30.549 10.2918 28.5388 10.2918 26.4447C10.2918 25.5234 9.53795 24.7695 8.61659 24.7695H2.75334C1.83197 24.7695 1.07812 25.5234 1.07812 26.4447C1.07812 42.175 13.8265 54.9234 29.5568 54.9234C30.4781 54.9234 31.232 54.1695 31.232 53.2482V47.3849C31.232 46.4635 30.4781 45.7097 29.5568 45.7097Z" fill="#FFC231"/>
</g>
<defs>
<clipPath id="clip0_7335_29481">
<rect width="56" height="56" fill="white"/>
</clipPath>
</defs>
</svg>
